<svg width="32" height="32" viewBox="0 0 32 32" fill="none" xmlns="http://www.w3.org/2000/svg">
<rect width="32" height="32" rx="4" fill="#EDEDED"/>
<path d="M24.3334 16.5167V18.2333C24.3334 18.7 23.95 19.0833 23.475 19.0833H21.8667C20.9667 19.0833 20.1417 18.425 20.0667 17.525C20.0167 17 20.2167 16.5083 20.5667 16.1667C20.875 15.85 21.3 15.6667 21.7667 15.6667H23.475C23.95 15.6667 24.3334 16.05 24.3334 16.5167Z" fill="#353535"/>
<path d="M18.8167 17.6333C18.7417 16.7583 19.0584 15.9 19.6917 15.275C20.2251 14.7333 20.9667 14.4167 21.7667 14.4167H22.2417C22.4751 14.4167 22.6667 14.225 22.6334 13.9917C22.4084 12.375 21.0084 11.125 19.3334 11.125H11.0001C9.15841 11.125 7.66675 12.6167 7.66675 14.4583V20.2917C7.66675 22.1333 9.15841 23.625 11.0001 23.625H19.3334C21.0167 23.625 22.4084 22.375 22.6334 20.7583C22.6667 20.525 22.4751 20.3333 22.2417 20.3333H21.8667C20.2834 20.3333 18.9501 19.15 18.8167 17.6333ZM16.8334 15.9167H11.8334C11.4917 15.9167 11.2084 15.6417 11.2084 15.2917C11.2084 14.9417 11.4917 14.6667 11.8334 14.6667H16.8334C17.1751 14.6667 17.4584 14.95 17.4584 15.2917C17.4584 15.6333 17.1751 15.9167 16.8334 15.9167Z" fill="#353535"/>
<path d="M17.8416 9.31667C18.0583 9.54167 17.8666 9.875 17.55 9.875H11.025C10.1166 9.875 9.26663 10.1417 8.5583 10.6C8.2333 10.8083 7.79163 10.5833 7.94996 10.225C8.41663 9.13333 9.5083 8.375 10.7666 8.375H15.45C16.4166 8.375 17.275 8.71667 17.8416 9.31667Z" fill="#353535"/>
</svg>
