<svg width="32" height="32" viewBox="0 0 32 32" fill="none" xmlns="http://www.w3.org/2000/svg">
<rect width="32" height="32" rx="4" fill="#DCF1DB"/>
<path d="M15.9999 24.9584C12.6666 24.9584 9.95825 22.5667 9.95825 19.625V16.5417C9.95825 16.2 10.2416 15.9167 10.5833 15.9167C10.9249 15.9167 11.2083 16.2 11.2083 16.5417C11.2083 18.725 13.2666 20.375 15.9999 20.375C18.7333 20.375 20.7916 18.725 20.7916 16.5417C20.7916 16.2 21.0749 15.9167 21.4166 15.9167C21.7583 15.9167 22.0416 16.2 22.0416 16.5417V19.625C22.0416 22.5667 19.3333 24.9584 15.9999 24.9584ZM11.2083 19.7167C11.2666 21.925 13.3916 23.7084 15.9999 23.7084C18.6083 23.7084 20.7333 21.925 20.7916 19.7167C19.7083 20.8917 17.9916 21.625 15.9999 21.625C14.0083 21.625 12.2999 20.8917 11.2083 19.7167Z" fill="#4EB84C"/>
<path d="M15.9999 17.4583C13.6999 17.4583 11.6332 16.425 10.6249 14.7583C10.1916 14.05 9.95825 13.225 9.95825 12.375C9.95825 10.9417 10.5999 9.59167 11.7583 8.575C12.8916 7.58333 14.3999 7.04167 15.9999 7.04167C17.5999 7.04167 19.0999 7.58333 20.2416 8.56667C21.3999 9.59167 22.0416 10.9417 22.0416 12.375C22.0416 13.225 21.8083 14.0417 21.3749 14.7583C20.3666 16.425 18.2999 17.4583 15.9999 17.4583ZM15.9999 8.29167C14.6999 8.29167 13.4833 8.725 12.5749 9.525C11.6916 10.2917 11.2083 11.3083 11.2083 12.375C11.2083 13 11.3749 13.5833 11.6916 14.1083C12.4832 15.4083 14.1333 16.2083 15.9999 16.2083C17.8666 16.2083 19.5166 15.4 20.3083 14.1083C20.6333 13.5833 20.7916 13 20.7916 12.375C20.7916 11.3083 20.3083 10.2917 19.4166 9.50833C18.5083 8.725 17.2999 8.29167 15.9999 8.29167Z" fill="#4EB84C"/>
<path d="M15.9999 21.625C12.5583 21.625 9.95825 19.4417 9.95825 16.5417V12.375C9.95825 9.43333 12.6666 7.04167 15.9999 7.04167C17.5999 7.04167 19.0999 7.58333 20.2416 8.56667C21.3999 9.59167 22.0416 10.9417 22.0416 12.375V16.5417C22.0416 19.4417 19.4416 21.625 15.9999 21.625ZM15.9999 8.29167C13.3583 8.29167 11.2083 10.125 11.2083 12.375V16.5417C11.2083 18.725 13.2666 20.375 15.9999 20.375C18.7333 20.375 20.7916 18.725 20.7916 16.5417V12.375C20.7916 11.3083 20.3083 10.2917 19.4166 9.50833C18.5083 8.725 17.2999 8.29167 15.9999 8.29167Z" fill="#4EB84C"/>
</svg>
