<svg width="32" height="32" viewBox="0 0 32 32" fill="none" xmlns="http://www.w3.org/2000/svg">
<rect width="32" height="32" rx="4" fill="#FCDCD5"/>
<g clip-path="url(#clip0_1522_25278)">
<path fill-rule="evenodd" clip-rule="evenodd" d="M23.3519 9.07384C23.3965 9.09516 23.5636 9.19151 23.6065 9.21368C24.4777 9.66729 24.9929 10.3221 24.9999 11.2635V25.9932L17.9838 26L16.2457 25.994V19.9265C16.2396 17.7403 16.5169 15.8857 17.2096 14.5181C17.2096 14.5181 17.9269 15.2343 18.2173 16.5167C18.4964 15.7732 19.0256 15.184 19.8058 14.7517C20.3219 17.6746 19.1139 19.1011 17.1239 19.8472V25.2104L24.1401 25.2036V12.0078C24.1322 11.0205 23.5654 10.3486 22.6154 9.8924L23.3519 9.07384Z" fill="#D43E33"/>
<path fill-rule="evenodd" clip-rule="evenodd" d="M8.64797 9.07384C8.60336 9.09516 8.43629 9.19151 8.39343 9.21368C7.52308 9.66729 7.007 10.3221 7 11.2635V25.9932L14.0161 26L15.7542 25.994V19.9265C15.7603 17.7403 15.483 15.8857 14.7903 14.5181C14.7903 14.5181 14.073 15.2343 13.7826 16.5167C13.5035 15.7732 12.9743 15.184 12.1941 14.7517C11.678 17.6746 12.886 19.1011 14.876 19.8472V25.2104L7.85985 25.2036V12.0078C7.86772 11.0205 8.43454 10.3486 9.38449 9.8924L8.64797 9.07384Z" fill="#D43E33"/>
<path fill-rule="evenodd" clip-rule="evenodd" d="M24.2309 7.80764C22.2794 9.37312 21.0041 11.3053 20.8073 13.9519C20.7294 14.9939 20.5361 15.6052 20.2684 16.1313L20.1153 14.0824C19.6815 14.2248 19.3675 14.4447 19.1085 14.7014C18.8313 14.1003 18.1376 13.9724 17.1597 14.1676C18.7525 10.3102 21.0609 8.07879 24.2309 7.80764Z" fill="#1A1A18"/>
<path fill-rule="evenodd" clip-rule="evenodd" d="M18.0136 11.5585C18.4746 10.8346 19.0143 10.1857 19.6677 9.64853C19.3869 8.67138 19.2592 7.63455 19.2181 6.56446C18.7868 7.82725 18.1212 8.88199 17.1152 9.63063C17.3182 10.3204 17.6182 10.9625 18.0136 11.5585Z" fill="#D43E33"/>
<path fill-rule="evenodd" clip-rule="evenodd" d="M20.0069 9.34925C19.7008 8.61937 19.5346 7.8443 19.6772 6.96777C19.8766 5.97272 22.8918 6.72391 21.9243 7.88609L20.0069 9.34925Z" fill="#1A1A18"/>
<path fill-rule="evenodd" clip-rule="evenodd" d="M16.9703 9.24608C17.6858 8.60573 18.2517 7.85198 18.6016 6.93366C18.9716 5.96248 16.3921 5.53189 16.3816 6.72306C16.3737 7.60385 16.5696 8.44458 16.9703 9.24608Z" fill="#1A1A18"/>
<path fill-rule="evenodd" clip-rule="evenodd" d="M7.62109 7.80764C9.57172 9.37312 10.8479 11.3053 11.0448 13.9511C11.1226 14.993 11.3159 15.6044 11.5836 16.1305L11.7367 14.0815C12.1705 14.2239 12.4845 14.4439 12.7435 14.7005C13.0207 14.0994 13.7144 13.9715 14.6923 14.1668C13.0986 10.3102 10.7911 8.07879 7.62109 7.80764Z" fill="#1A1A18"/>
<path fill-rule="evenodd" clip-rule="evenodd" d="M13.8387 11.5585C13.3777 10.8346 12.838 10.1857 12.1846 9.64853C12.4654 8.67138 12.5931 7.63455 12.6342 6.56446C13.0654 7.82725 13.7311 8.88199 14.737 9.63063C14.5332 10.3204 14.234 10.9625 13.8387 11.5585Z" fill="#D43E33"/>
<path fill-rule="evenodd" clip-rule="evenodd" d="M11.8451 9.34925C12.1512 8.61937 12.3174 7.8443 12.1748 6.96777C11.9754 5.97271 8.96023 6.72391 9.92767 7.88694L11.8451 9.34925Z" fill="#1A1A18"/>
<path fill-rule="evenodd" clip-rule="evenodd" d="M14.8819 9.24608C14.1663 8.60573 13.6004 7.85198 13.2505 6.93366C12.8814 5.96248 15.4601 5.53189 15.4706 6.72306C15.4784 7.60385 15.2825 8.44458 14.8819 9.24608Z" fill="#1A1A18"/>
<path fill-rule="evenodd" clip-rule="evenodd" d="M15.9012 13.934C16.2765 14.0747 16.5118 14.2469 16.6727 14.4499C16.9544 13.6032 17.2815 12.7616 17.753 11.9362C16.8214 10.2983 16.3036 8.52558 15.9012 6.71453C15.4997 8.52473 14.9819 10.2974 14.0503 11.9354C14.5218 12.7616 14.8489 13.6032 15.1306 14.449C15.2915 14.2469 15.5268 14.0747 15.9012 13.934Z" fill="#1A1A18"/>
</g>
<defs>
<clipPath id="clip0_1522_25278">
<rect width="18" height="20" fill="white" transform="translate(7 6)"/>
</clipPath>
</defs>
</svg>
