<svg width="32" height="32" viewBox="0 0 32 32" fill="none" xmlns="http://www.w3.org/2000/svg">
<rect width="32" height="32" rx="4" fill="#FBD5D7"/>
<g clip-path="url(#clip0_1522_25277)">
<path fill-rule="evenodd" clip-rule="evenodd" d="M15.4765 20.7973L15.5045 17.8505C15.6262 17.8449 16.8572 17.7963 17.6135 18.1779C17.8905 18.3168 17.9185 18.4975 17.9185 18.6871C17.9185 19.5723 15.5279 20.8346 15.2933 20.9543C12.2672 22.4977 8 22.7608 8 22.7608L8.04021 26C9.8655 25.7471 13.1597 25.3745 17.1343 23.2214C19.1003 22.1556 21.2283 20.4022 20.8318 17.8923C20.4486 15.4705 17.9118 14.7885 15.5246 14.8935L15.4966 17.8404C15.376 17.846 14.145 17.8945 13.3887 17.5141C13.1117 17.3752 13.0838 17.1945 13.0838 17.0049C13.0838 16.1197 15.4732 14.8574 15.7089 14.7377C18.735 13.1932 23.0022 12.9312 23.0022 12.9312L22.962 9.692C21.1356 9.94603 17.8425 10.3175 13.868 12.4706C11.9019 13.5353 9.77391 15.2898 10.1716 17.7997C10.5525 20.2204 13.0882 20.9012 15.4765 20.7973ZM11.5802 9.13199C12.599 9.13199 13.4256 9.96748 13.4256 10.9972C13.4256 12.0269 12.599 12.8624 11.5802 12.8624C10.5614 12.8624 9.73481 12.0269 9.73481 10.9972C9.73481 9.96635 10.5614 9.13199 11.5802 9.13199ZM19.8097 6C20.8295 6 21.655 6.83437 21.655 7.86519C21.655 8.89489 20.8295 9.73038 19.8097 9.73038C18.792 9.73038 17.9654 8.89601 17.9654 7.86519C17.9654 6.83437 18.792 6 19.8097 6ZM15.5156 7.22389C16.5333 7.22389 17.3599 8.05826 17.3599 9.08795C17.3599 10.1176 16.5333 10.9531 15.5156 10.9531C14.4958 10.9531 13.6702 10.1188 13.6702 9.08795C13.6702 8.05826 14.4958 7.22389 15.5156 7.22389Z" fill="#ED1C24"/>
</g>
<defs>
<clipPath id="clip0_1522_25277">
<rect width="15" height="20" fill="white" transform="translate(8 6)"/>
</clipPath>
</defs>
</svg>
