<svg width="32" height="32" viewBox="0 0 32 32" fill="none" xmlns="http://www.w3.org/2000/svg">
<rect width="32" height="32" rx="4" fill="#D1EDEF"/>
<path fill-rule="evenodd" clip-rule="evenodd" d="M10.8723 16.7589L13.5927 15.5192C14.8033 11.7866 13.5643 9.16803 10.3823 8.34043C8.80889 11.4817 8.52297 14.71 10.8723 16.7589Z" fill="#8BCFF2"/>
<path fill-rule="evenodd" clip-rule="evenodd" d="M10.4161 17.9384L12.5747 17.3001L12.4443 15.3181C11.834 11.8435 9.88266 11.2237 7.18056 12.2054C7.11702 15.3868 8.12195 17.3788 10.4161 17.9384Z" fill="#8BCFF2"/>
<path fill-rule="evenodd" clip-rule="evenodd" d="M10.513 19.0859L11.869 17.5095L11.4276 16.0067C9.43781 13.807 7.64032 14.0449 6 16.3016C6.91463 18.7107 8.37938 19.7343 10.513 19.0859Z" fill="#8BCFF2"/>
<path fill-rule="evenodd" clip-rule="evenodd" d="M11.1349 19.8717L12.5712 17.5128L10.5146 16.6936C7.95127 16.4992 6.68048 17.7072 6.2959 19.8717C7.71717 21.2103 9.27556 21.5922 11.1349 19.8717Z" fill="#8BCFF2"/>
<path fill-rule="evenodd" clip-rule="evenodd" d="M12.247 20.2972L12.359 17.8613L10.5448 17.7725C7.97649 18.8196 7.30598 20.649 7.70227 22.9174C9.72215 23.4451 11.3608 22.9157 12.247 20.2972Z" fill="#8BCFF2"/>
<path fill-rule="evenodd" clip-rule="evenodd" d="M13.5212 20.0677L12.8339 18.064L10.9662 18.4007C8.64034 20.6876 8.89283 22.9141 10.3174 25.1138C12.5831 24.6095 13.6449 22.9593 13.5212 20.0677Z" fill="#8BCFF2"/>
<path fill-rule="evenodd" clip-rule="evenodd" d="M14.4356 18.833L12.3588 17.863L11.1349 19.8733C10.5797 22.6879 12.0879 24.71 14.0443 26C16.218 24.06 16.5558 21.0762 14.4356 18.833Z" fill="#8BCFF2"/>
<path fill-rule="evenodd" clip-rule="evenodd" d="M15.0863 17.4977L12.9594 17.5932L12.2471 20.2972C12.7738 22.837 15.5127 24.6045 19.0157 24.8842C19.6895 21.542 18.9471 18.8296 15.0863 17.4977Z" fill="#8BCFF2"/>
<path fill-rule="evenodd" clip-rule="evenodd" d="M14.8618 16.0385L12.5728 17.3001L13.5208 20.0677C15.0725 22.0211 19.3915 22.4617 23.5584 20.2972C22.0117 16.3451 18.4585 14.7603 14.8618 16.0385Z" fill="#8BCFF2"/>
<path fill-rule="evenodd" clip-rule="evenodd" d="M12.9995 16.4641L13.3272 18.4627C17.7767 20.3341 22.4803 17.4642 25.0001 13.1553C20.6493 10.6959 15.1465 12.4383 12.9995 16.4641Z" fill="#8BCFF2"/>
<path fill-rule="evenodd" clip-rule="evenodd" d="M11.8223 16.7271L13.3271 17.873C18.2331 17.3855 21.5103 12.6594 21.7311 7.09398C16.7265 8.40576 13.073 11.222 11.8223 16.7271Z" fill="#8BCFF2"/>
<path fill-rule="evenodd" clip-rule="evenodd" d="M11.4295 16.005L13.9142 16.7254C17.6965 12.9878 18.0443 8.89831 15.5495 6C12.4996 8.39404 10.5767 12.4868 11.4295 16.005Z" fill="#8BCFF2"/>
<path fill-rule="evenodd" clip-rule="evenodd" d="M13.2149 17.7892L13.3253 17.873C16.6778 17.5396 19.2679 15.2277 20.644 12.0228C17.4888 12.0345 14.464 13.7182 12.9976 16.4641L13.2149 17.7892Z" fill="#3794CB"/>
<path fill-rule="evenodd" clip-rule="evenodd" d="M11.4291 16.005L12.0996 16.1994L13.5928 15.5175C14.464 12.832 14.066 10.7227 12.5895 9.44279C11.4208 11.5018 10.9091 13.8606 11.4291 16.005Z" fill="#3794CB"/>
<path fill-rule="evenodd" clip-rule="evenodd" d="M11.9609 16.1608L13.9139 16.7271C16.499 14.1705 17.4805 11.4498 17.0441 9.05914C14.6145 10.6021 12.8371 12.8772 11.9609 16.1608Z" fill="#3794CB"/>
<path fill-rule="evenodd" clip-rule="evenodd" d="M10.8724 16.7589L12.4876 16.0218L12.4408 15.3165C11.9994 12.8035 10.8557 11.7832 9.23373 11.7832C8.95616 13.7015 9.38924 15.4656 10.8724 16.7589Z" fill="#3794CB"/>
<path fill-rule="evenodd" clip-rule="evenodd" d="M10.416 17.9383L11.8707 17.5078L11.4293 16.005C10.0097 14.4352 8.68705 14.1069 7.44971 14.8675C7.88612 16.5076 8.85092 17.5564 10.416 17.9383Z" fill="#3794CB"/>
<path fill-rule="evenodd" clip-rule="evenodd" d="M10.513 19.0859L11.8691 17.5095L11.7771 17.1995L10.5113 16.6953C8.78241 16.5646 7.64204 17.0705 6.96484 18.0774C7.84603 19.1714 9.01482 19.54 10.513 19.0859Z" fill="#3794CB"/>
<path fill-rule="evenodd" clip-rule="evenodd" d="M11.1349 19.8717L12.3589 17.8613L10.5447 17.7725C8.82745 18.4711 7.95964 19.5199 7.69043 20.8166C8.73214 21.2404 9.86414 21.0477 11.1349 19.8717Z" fill="#3794CB"/>
<path fill-rule="evenodd" clip-rule="evenodd" d="M12.2469 20.2972L12.3455 18.1511L10.9677 18.3991C9.35418 19.9856 8.9813 21.542 9.37926 23.0816C10.6216 22.9509 11.6215 22.1434 12.2469 20.2972Z" fill="#3794CB"/>
<path fill-rule="evenodd" clip-rule="evenodd" d="M13.5209 20.0677L12.8437 18.0875L12.8036 18.069L12.1615 18.1846L11.1348 19.8717C10.7854 21.6442 11.2536 23.1034 12.1381 24.261C13.1464 23.4116 13.6045 22.0245 13.5209 20.0677Z" fill="#3794CB"/>
<path fill-rule="evenodd" clip-rule="evenodd" d="M14.4358 18.833L12.8306 18.0824L12.2471 20.2972C12.5781 21.8938 13.782 23.1838 15.4993 23.9913C16.1965 22.316 15.9123 20.3944 14.4358 18.833Z" fill="#3794CB"/>
<path fill-rule="evenodd" clip-rule="evenodd" d="M15.0861 17.4977L12.9592 17.5932L12.8354 18.064L13.5227 20.0677C14.5159 21.3175 16.6428 21.9474 19.1359 21.6726C18.8015 19.8315 17.6109 18.3689 15.0861 17.4977Z" fill="#3794CB"/>
<path fill-rule="evenodd" clip-rule="evenodd" d="M14.862 16.0385L13.0879 17.0152L13.3253 18.4627C16.1328 19.6438 19.0405 18.9368 21.4383 17.1727C19.6575 15.6096 17.2698 15.1841 14.862 16.0385Z" fill="#3794CB"/>
<path fill-rule="evenodd" clip-rule="evenodd" d="M16.5293 13.033C15.0461 13.8003 13.7954 14.9747 12.9995 16.4624L13.9141 16.7271C15.1398 15.5142 16.0043 14.266 16.5293 13.033Z" fill="#0067A8"/>
<path fill-rule="evenodd" clip-rule="evenodd" d="M11.4295 16.005L12.1001 16.1994L12.4897 16.0218L12.4428 15.3165C12.2355 14.132 11.871 13.2793 11.3727 12.708C11.167 13.8187 11.1704 14.9395 11.4295 16.005Z" fill="#0067A8"/>
<path fill-rule="evenodd" clip-rule="evenodd" d="M11.9609 16.1608L12.0997 16.201L13.5929 15.5192C14.036 14.1521 14.1514 12.9358 13.9624 11.9005C13.0846 13.0833 12.4057 14.4922 11.9609 16.1608Z" fill="#0067A8"/>
<path fill-rule="evenodd" clip-rule="evenodd" d="M10.8724 16.7589L11.558 16.4473L11.4292 16.0067C10.7353 15.2394 10.0648 14.7686 9.41602 14.5777C9.68021 15.3902 10.1517 16.1307 10.8724 16.7589Z" fill="#0067A8"/>
<path fill-rule="evenodd" clip-rule="evenodd" d="M10.416 17.9383L11.8708 17.5078L11.7788 17.1979L10.513 16.6936C9.73549 16.6349 9.07669 16.7053 8.5249 16.8913C9.01482 17.3972 9.64186 17.749 10.416 17.9383Z" fill="#0067A8"/>
<path fill-rule="evenodd" clip-rule="evenodd" d="M10.5131 19.0859L11.5983 17.8244L10.5432 17.7725C9.63695 18.1411 8.96644 18.6085 8.49658 19.158C9.0885 19.3339 9.75901 19.3138 10.5131 19.0859Z" fill="#0067A8"/>
<path fill-rule="evenodd" clip-rule="evenodd" d="M11.1349 19.8717L12.1615 18.1846L10.9677 18.3991C10.1015 19.2518 9.59153 20.0945 9.36914 20.9322C9.92762 20.7847 10.5145 20.4463 11.1349 19.8717Z" fill="#0067A8"/>
<path fill-rule="evenodd" clip-rule="evenodd" d="M12.2468 20.2972L12.3455 18.1511L12.1615 18.1846L11.1349 19.8717C10.966 20.7294 10.9877 21.5118 11.1566 22.2238C11.5897 21.7799 11.9575 21.1483 12.2468 20.2972Z" fill="#0067A8"/>
<path fill-rule="evenodd" clip-rule="evenodd" d="M13.5212 20.0677L12.844 18.0875L12.8306 18.0807L12.2471 20.2955C12.4076 21.0678 12.7721 21.7681 13.3005 22.378C13.4861 21.7246 13.5597 20.9539 13.5212 20.0677Z" fill="#0067A8"/>
<path fill-rule="evenodd" clip-rule="evenodd" d="M14.4356 18.833L12.8438 18.0891L13.5209 20.0694C14.0226 20.701 14.8135 21.1734 15.7967 21.4532C15.6395 20.5384 15.1964 19.6371 14.4356 18.833Z" fill="#0067A8"/>
<path fill-rule="evenodd" clip-rule="evenodd" d="M15.0861 17.4977L13.1816 17.5832L13.3254 18.4627C14.7551 19.0642 16.2115 19.1764 17.6127 18.9067C16.9856 18.3421 16.1563 17.868 15.0861 17.4977Z" fill="#0067A8"/>
<path fill-rule="evenodd" clip-rule="evenodd" d="M14.862 16.0385L13.0879 17.0152L13.215 17.7892L13.3253 17.873C15.193 17.6871 16.8233 16.8879 18.1409 15.6616C17.0909 15.5209 15.9789 15.6415 14.862 16.0385Z" fill="#0067A8"/>
<path fill-rule="evenodd" clip-rule="evenodd" d="M12.5563 14.3967C12.2603 14.8893 12.0831 15.4237 12.0062 15.995C11.7336 15.6432 11.4042 15.3466 11.0364 15.0903C11.018 15.5962 11.0865 16.0955 11.2571 16.5864C10.8457 16.4607 10.4344 16.4155 10.0231 16.4004C10.2287 16.7975 10.4979 17.1308 10.8441 17.3855C10.4177 17.5061 10.0281 17.6736 9.66357 17.8747C10.0231 18.0523 10.4026 18.2014 10.824 18.2835C10.4896 18.647 10.2338 19.0189 10.0247 19.3992C10.426 19.22 10.8992 19.1278 11.2537 18.8229C11.1283 19.3255 10.9795 19.7209 10.9946 20.2721C11.3206 19.9705 11.6333 19.6656 11.8473 19.3322C11.946 19.8281 12.1199 20.2469 12.3289 20.6323C12.5329 20.2218 12.6901 19.7963 12.7854 19.354C13.0579 19.7142 13.3689 20.0459 13.7518 20.3274C13.807 19.8432 13.7836 19.3674 13.6666 18.9C14.1197 19.106 14.5728 19.235 15.026 19.2836C14.6748 18.8246 14.2769 18.4041 13.8154 18.0389C14.4023 17.9886 14.9541 17.8512 15.4774 17.6435C14.9925 17.4441 14.4926 17.2749 13.9458 17.1861C14.4558 16.7522 14.8838 16.2731 15.2216 15.7453C14.6263 15.8777 14.0712 16.0955 13.5545 16.4004C13.8338 15.7839 14.0026 15.1489 14.0779 14.5006C13.5595 14.906 13.1148 15.3718 12.7536 15.9045C12.7921 15.3919 12.7202 14.8909 12.5563 14.3967Z" fill="white"/>
</svg>
