<svg width="40" height="34" viewBox="0 0 40 34" fill="none" xmlns="http://www.w3.org/2000/svg">
<path d="M11.8976 22.2405L7.39746 30.816H8.09424L13.7144 22.9832L11.8976 22.2405Z" fill="#1A2A5A"/>
<path d="M18.921 22.8558L17.4102 30.7821H18.1069L20.9229 22.8558H18.921Z" fill="#1A2A5A"/>
<path d="M17.8281 17.6486L33.8337 14.8835C34.1458 14.8282 34.4674 14.8922 34.7346 15.0628C35.0019 15.2334 35.1953 15.4982 35.2765 15.8046L18.1204 18.7753L17.8281 17.6486Z" fill="#1A2A5A"/>
<path d="M30.2314 16.6833L35.6901 30.8772H36.6911L32.2572 16.3332L30.2314 16.6833Z" fill="#1A2A5A"/>
<path d="M4.20399 2.96354C3.92216 3.11478 3.70489 3.36329 3.59265 3.6628C3.48041 3.96232 3.48085 4.29241 3.59388 4.59162C4.809 7.7968 8.50363 17.4786 9.97196 21.3262C10.152 21.7981 10.4702 22.2048 10.885 22.4931C11.2997 22.7814 11.7917 22.938 12.2968 22.9424C15.3066 22.973 21.5045 23.024 24.504 22.9611C24.9684 22.9517 25.4106 22.7607 25.7356 22.429C26.0607 22.0973 26.2427 21.6513 26.2426 21.1869C26.2424 20.9423 26.1917 20.7005 26.0936 20.4764C25.9956 20.2524 25.8523 20.051 25.6728 19.8849C25.4933 19.7189 25.2815 19.5916 25.0505 19.5112C24.8196 19.4308 24.5745 19.399 24.3307 19.4177L14.4857 20.2233C13.9988 20.2628 13.512 20.1459 13.0963 19.8894C12.6805 19.6329 12.3575 19.2503 12.1745 18.7974L6.0462 3.60254C5.97378 3.43499 5.86736 3.2843 5.73369 3.16C5.60002 3.03571 5.442 2.94052 5.26963 2.88045C5.09727 2.82039 4.91431 2.79676 4.73234 2.81106C4.55037 2.82536 4.37335 2.87729 4.21249 2.96354H4.20399Z" fill="#4169E1"/>
<path d="M24.5703 19.4194H35.0883C35.4764 19.4194 35.8485 19.5736 36.1229 19.848C36.3973 20.1224 36.5515 20.4946 36.5515 20.8827V21.5285C36.5515 21.9165 36.3973 22.2887 36.1229 22.5631C35.8485 22.8375 35.4764 22.9917 35.0883 22.9917H24.5703V19.4228V19.4194Z" fill="#4169E1"/>
<path d="M4.64941 2.80719H14.9023C15.1479 2.80744 15.3883 2.87841 15.5948 3.01161C15.8012 3.14481 15.9649 3.33461 16.0664 3.55835L23.2789 19.5061L14.8836 21.3619L11.5611 20.2352L4.64941 2.80719Z" fill="#4169E1"/>
<g opacity="0.3">
<path d="M4.20399 2.96354C3.92216 3.11478 3.70489 3.36329 3.59265 3.6628C3.48041 3.96232 3.48085 4.29241 3.59388 4.59162C4.809 7.7968 8.50363 17.4786 9.97196 21.3262C10.152 21.7981 10.4702 22.2048 10.885 22.4931C11.2997 22.7814 11.7917 22.938 12.2968 22.9424C15.3066 22.973 21.5045 23.024 24.504 22.9611C24.9684 22.9517 25.4106 22.7607 25.7356 22.429C26.0607 22.0973 26.2427 21.6513 26.2426 21.1869C26.2424 20.9423 26.1917 20.7005 26.0936 20.4764C25.9956 20.2524 25.8523 20.051 25.6728 19.8849C25.4933 19.7189 25.2815 19.5916 25.0505 19.5112C24.8196 19.4308 24.5745 19.399 24.3307 19.4177L14.4857 20.2233C13.9988 20.2628 13.512 20.1459 13.0963 19.8894C12.6805 19.6329 12.3575 19.2503 12.1745 18.7974L6.0462 3.60254C5.97378 3.43499 5.86736 3.2843 5.73369 3.16C5.60002 3.03571 5.442 2.94052 5.26963 2.88045C5.09727 2.82039 4.91431 2.79676 4.73234 2.81106C4.55037 2.82536 4.37335 2.87729 4.21249 2.96354H4.20399Z" fill="#0C0C0C"/>
</g>
<path d="M7.71289 17.6486L23.7201 14.8835C24.0327 14.8298 24.354 14.8954 24.6205 15.0672C24.8871 15.239 25.0794 15.5046 25.1596 15.8114L8.0052 18.7753L7.71289 17.6486Z" fill="#1A2A5A"/>
<path d="M20.1162 16.6833L25.5749 30.8772H26.5759L22.142 16.3332L20.1162 16.6833Z" fill="#1A2A5A"/>
</svg>
