<svg width="57" height="48" viewBox="0 0 57 48" fill="none" xmlns="http://www.w3.org/2000/svg">
<path d="M4.55168 22.5621C4.55168 22.5621 3.80494 21.8354 3.59142 26.2308C3.38851 30.3795 3.09241 36.3614 4.12699 38.927C4.2369 39.2054 4.43825 39.4414 4.70031 39.5991C4.97428 39.7603 5.27926 39.8663 5.59687 39.9107C6.49579 40.0461 10.0525 39.9699 10.0525 39.9699C10.0525 39.9699 12.0721 39.9699 12.1028 38.3686C12.1276 37.0494 12.1028 34.1824 12.1028 34.1824L4.55168 22.5621Z" fill="#1A2A5A"/>
<g opacity="0.3">
<path d="M4.55168 22.5621C4.55168 22.5621 3.80494 21.8354 3.59142 26.2308C3.38851 30.3795 3.09241 36.3614 4.12699 38.927C4.2369 39.2054 4.43825 39.4414 4.70031 39.5991C4.97428 39.7603 5.27926 39.8663 5.59687 39.9107C6.49579 40.0461 10.0525 39.9699 10.0525 39.9699C10.0525 39.9699 12.0721 39.9699 12.1028 38.3686C12.1276 37.0494 12.1028 34.1824 12.1028 34.1824L4.55168 22.5621Z" fill="#0C0C0C"/>
</g>
<path d="M45.6377 22.5621C45.6377 22.5621 44.891 21.8354 44.6775 26.2308C44.4757 30.3795 44.1796 36.3614 45.213 38.927C45.3234 39.2051 45.5246 39.441 45.7864 39.5991C46.0603 39.7603 46.3653 39.8663 46.6829 39.9107C47.583 40.0461 51.1397 39.9699 51.1397 39.9699C51.1397 39.9699 53.1582 39.9699 53.1888 38.3686C53.2136 37.0494 53.1888 34.1824 53.1888 34.1824L45.6377 22.5621Z" fill="#1A2A5A"/>
<g opacity="0.3">
<path d="M45.6377 22.5621C45.6377 22.5621 44.891 21.8354 44.6775 26.2308C44.4757 30.3795 44.1796 36.3614 45.213 38.927C45.3234 39.2051 45.5246 39.441 45.7864 39.5991C46.0603 39.7603 46.3653 39.8663 46.6829 39.9107C47.583 40.0461 51.1397 39.9699 51.1397 39.9699C51.1397 39.9699 53.1582 39.9699 53.1888 38.3686C53.2136 37.0494 53.1888 34.1824 53.1888 34.1824L45.6377 22.5621Z" fill="#0C0C0C"/>
</g>
<path d="M56.6256 14.9598C56.6256 14.9598 56.3991 15.7025 55.9331 15.7798C55.4672 15.8571 51.7948 15.9663 51.7948 15.9663L51.4409 16.6782H50.7496L50.2471 13.8237L50.6753 13.909C50.7474 13.9232 50.8149 13.954 50.872 13.9987C50.9291 14.0435 50.9741 14.1009 51.0032 14.166C51.0352 14.238 51.0865 14.3005 51.1518 14.3471C51.2171 14.3936 51.2941 14.4226 51.3748 14.431L56.6256 14.9598Z" fill="#1A2A5A"/>
<path d="M56.4686 15.0702C56.5333 15.0657 56.5964 15.0484 56.6538 15.0193C56.7113 14.9903 56.7619 14.9501 56.8026 14.9013C56.8432 14.8526 56.873 14.7962 56.89 14.7359C56.907 14.6755 56.9109 14.6124 56.9015 14.5505C56.7836 13.7351 56.3376 12.1498 54.705 11.9155C53.6964 11.7564 52.67 11.7311 51.6543 11.8404C51.4007 11.8711 51.2744 12.094 51.2438 12.3386C51.1046 13.4599 51.2178 14.8507 51.5528 15.0213C51.8879 15.1919 55.2759 15.1612 56.4686 15.0702Z" fill="#4169E1"/>
<path d="M54.2783 11.9222C54.3137 11.9567 54.345 11.9948 54.3715 12.036C54.4293 12.1099 54.5072 12.2213 54.5992 12.3612C55.0765 13.0927 55.4345 13.8905 55.6609 14.7267C55.7034 14.887 55.734 15.0178 55.7517 15.1088C55.7638 15.1554 55.7709 15.203 55.773 15.251C55.7524 15.207 55.7374 15.1608 55.7282 15.1133C55.7034 15.0246 55.6668 14.8961 55.6196 14.7381C55.4944 14.3263 55.3436 13.9222 55.1678 13.528C54.9906 13.1347 54.7885 12.7522 54.5626 12.3828C54.4765 12.2407 54.4045 12.1269 54.3526 12.0485C54.3242 12.0085 54.2994 11.9663 54.2783 11.9222Z" fill="#1A2A5A"/>
<path d="M55.7995 25.5406C55.7995 25.5406 56.545 24.8139 56.7597 29.2093C56.9614 33.358 57.2575 39.3399 56.223 41.9055C56.113 42.1839 55.9117 42.4199 55.6496 42.5776C55.3761 42.7389 55.0715 42.8453 54.7543 42.8904C53.8542 43.0246 50.2974 42.9484 50.2974 42.9484C50.2974 42.9484 48.279 42.9484 48.2483 41.3471C48.2235 40.0279 48.2483 37.1621 48.2483 37.1621L55.7995 25.5406Z" fill="#1A2A5A"/>
<path d="M55.7999 25.5408L55.7657 25.5977C55.741 25.6363 55.7056 25.6909 55.6607 25.7637C55.5664 25.9093 55.4248 26.1242 55.2502 26.4028C54.8892 26.9624 54.3631 27.7778 53.6989 28.8047C52.3671 30.8608 50.4831 33.7665 48.2724 37.1759V37.1623C48.2724 38.4133 48.2724 39.7199 48.2724 41.0767C48.2652 41.2456 48.2723 41.4149 48.2936 41.5828C48.3193 41.7498 48.3756 41.9112 48.46 42.0593C48.6425 42.3549 48.9224 42.5831 49.2551 42.7075C49.9216 42.9941 50.6825 42.9099 51.4222 42.9349C52.2031 42.9418 52.9758 42.944 53.7355 42.9236C54.1119 42.9216 54.4876 42.8934 54.8597 42.8394C55.0407 42.8051 55.2169 42.7505 55.3847 42.6768C55.5522 42.6076 55.7065 42.5118 55.8412 42.3936C55.9723 42.2747 56.0784 42.1326 56.1539 41.9751C56.1894 41.8954 56.2201 41.8137 56.2459 41.7306L56.3308 41.4827C56.3604 41.4008 56.3848 41.3172 56.4039 41.2325L56.4676 40.9812C56.5136 40.8151 56.5431 40.6457 56.5738 40.4785C56.6446 40.1441 56.6823 39.8075 56.7284 39.4766C56.7496 39.3117 56.7626 39.1456 56.7803 38.9819C56.798 38.8181 56.8145 38.6544 56.8227 38.4917C56.9183 37.1896 56.9313 35.9488 56.923 34.7877C56.9147 33.6266 56.8782 32.5462 56.8392 31.5591C56.8003 30.572 56.7578 29.6804 56.7213 28.8968C56.6902 28.2272 56.6237 27.5595 56.5219 26.8964C56.4299 26.3539 56.319 25.9309 56.1597 25.6841C56.1284 25.6295 56.0863 25.5812 56.0359 25.5419C55.9988 25.5133 55.9524 25.4984 55.9049 25.4999C55.8664 25.5026 55.8296 25.5169 55.7999 25.5408C55.8063 25.5335 55.8139 25.5274 55.8224 25.5226C55.8469 25.5065 55.8753 25.4967 55.9049 25.4942C55.9541 25.4907 56.0028 25.5049 56.0418 25.534C56.0954 25.573 56.1407 25.6216 56.1751 25.6773C56.3391 25.9263 56.4547 26.3494 56.5502 26.893C56.6562 27.5566 56.7263 28.225 56.7602 28.8957C56.8027 29.6792 56.8475 30.5708 56.89 31.558C56.9324 32.5451 56.969 33.6255 56.9808 34.7877C56.9926 35.95 56.9808 37.1907 56.8864 38.4951C56.8782 38.6589 56.8593 38.8215 56.844 38.9864C56.8286 39.1513 56.8145 39.3174 56.7932 39.4834C56.7472 39.8155 56.7083 40.1521 56.6387 40.4887C56.608 40.657 56.5785 40.8299 56.5325 40.9948C56.5113 41.079 56.4889 41.1631 56.4676 41.2473C56.4491 41.3329 56.4246 41.4172 56.3945 41.4997L56.3096 41.7499C56.2825 41.8348 56.251 41.9183 56.2152 42.0001C56.1366 42.1644 56.0261 42.3126 55.8896 42.4368C55.7502 42.5594 55.5908 42.6589 55.4177 42.7314C55.2456 42.8066 55.0651 42.8627 54.8798 42.8985C54.5045 42.9532 54.1257 42.9817 53.7461 42.9838C52.9841 43.0043 52.2125 43.002 51.4292 42.9952L50.3191 42.9793C49.9484 42.9719 49.5823 42.8978 49.2397 42.7609C48.8939 42.6322 48.603 42.3951 48.414 42.0877C48.3264 41.9335 48.2677 41.7657 48.2406 41.5918C48.219 41.4213 48.2115 41.2495 48.2181 41.0778C48.2181 39.7211 48.2181 38.411 48.2181 37.1612V37.1543V37.1475L53.6647 28.7854C54.3348 27.7618 54.8656 26.9498 55.229 26.3971C55.4118 26.1208 55.551 25.907 55.6466 25.7626L55.7551 25.5999C55.7799 25.559 55.7999 25.5408 55.7999 25.5408Z" fill="#717171"/>
<path d="M1.19836 25.5406C1.19836 25.5406 0.4528 24.8139 0.236918 29.2093C0.0351926 33.358 -0.260907 39.3399 0.773673 41.9055C0.883584 42.1839 1.08493 42.4199 1.347 42.5776C1.62057 42.7389 1.92512 42.8453 2.24238 42.8904C3.14247 43.0246 6.69921 42.9484 6.69921 42.9484C6.69921 42.9484 8.71764 42.9484 8.74831 41.3471C8.77309 40.0279 8.74831 37.1621 8.74831 37.1621L1.19836 25.5406Z" fill="#1A2A5A"/>
<path d="M56.4861 21.7537L54.8345 20.7063C54.4582 19.0789 51.3946 15.7025 51.3946 15.7025C51.3946 15.7025 48.2094 8.28649 45.4525 6.53741C42.6956 4.78833 29.2567 5.00895 29.2567 5.00895L28.5489 5.01919C28.5489 5.01919 14.3054 4.79174 11.5532 6.53741C8.80102 8.28308 5.61117 15.7025 5.61117 15.7025C5.61117 15.7025 2.544 19.0789 2.1724 20.7063L0.520847 21.7537C0.355665 21.8572 0.220985 22 0.129844 22.1684C0.0387036 22.3367 -0.00581142 22.5249 0.00060785 22.7147C0.10206 25.4611 0.649432 36.3616 1.60497 37.5887C2.52041 38.7601 11.1698 38.1391 13.5197 38.1357C16.8925 38.1357 27.394 37.9981 27.394 37.9981L42.8277 37.9606C44.5784 37.7798 54.2058 38.9159 55.3949 37.5887C56.433 36.4298 56.899 25.4611 56.9992 22.7147C57.0064 22.5255 56.963 22.3378 56.8731 22.1695C56.7832 22.0012 56.65 21.858 56.4861 21.7537Z" fill="#4169E1"/>
<path d="M44.7103 7.03581C44.676 6.9783 44.6273 6.9301 44.5685 6.89569C44.5097 6.86129 44.4428 6.84181 44.3741 6.83907L28.7468 6.19312H28.623V6.20221L12.623 6.83907C12.5542 6.84181 12.4874 6.86129 12.4286 6.89569C12.3698 6.9301 12.321 6.9783 12.2868 7.03581L8.21332 13.89C8.18157 13.9427 8.16461 14.0025 8.16408 14.0634C8.16355 14.1244 8.17947 14.1844 8.21029 14.2377C8.24111 14.2909 8.28576 14.3355 8.33986 14.367C8.39396 14.3986 8.45564 14.416 8.51885 14.4177C8.96713 14.4302 9.63011 14.437 10.4063 14.4063C11.6592 14.3562 21.6275 14.379 26.8888 14.3961V14.4063L28.5038 14.4006L30.1188 14.4063V14.3961C35.3802 14.379 45.3473 14.3562 46.6001 14.4063C47.4117 14.4381 48.103 14.4302 48.5501 14.4165C48.6063 14.4146 48.6611 14.3988 48.7091 14.3705C48.7571 14.3423 48.7967 14.3025 48.8241 14.2552C48.8515 14.2078 48.8658 14.1545 48.8655 14.1003C48.8653 14.046 48.8505 13.9928 48.8226 13.9457L44.7103 7.03581Z" fill="#717171"/>
<path d="M0.369141 14.9598C0.369141 14.9598 0.595639 15.7025 1.06161 15.7798C1.52759 15.8571 5.19757 15.9663 5.19757 15.9663L5.55148 16.6782H6.25339L6.75593 13.8237L6.32771 13.909C6.2556 13.9232 6.18812 13.954 6.13102 13.9987C6.07392 14.0435 6.02889 14.1009 5.99976 14.166C5.96778 14.238 5.9165 14.3005 5.8512 14.3471C5.7859 14.3936 5.70891 14.4226 5.62816 14.431L0.369141 14.9598Z" fill="#1A2A5A"/>
<path d="M9.7289 13.1164L47.3135 13.0175L47.6179 13.7373L29.4579 13.8522L9.375 13.726L9.7289 13.1164Z" fill="#4169E1"/>
<g opacity="0.5">
<path d="M9.7289 13.1164L47.2062 13.0175L47.6179 13.7373L29.4579 13.8522L9.375 13.726L9.7289 13.1164Z" fill="#0C0C0C"/>
</g>
<path d="M23.8133 13.28C23.8133 12.8854 23.6553 11.7664 23.2742 11.4684C22.9805 11.241 22.2857 11.1705 21.9424 11.1511H21.9105C21.7289 11.1511 20.5138 11.1852 20.1504 11.4696C19.7694 11.7675 19.6113 12.8866 19.6113 13.2812V13.2937C19.6116 13.4117 19.6605 13.5248 19.7472 13.6082C19.8339 13.6915 19.9513 13.7384 20.0738 13.7384H23.3509C23.4734 13.7384 23.5908 13.6915 23.6775 13.6082C23.7642 13.5248 23.813 13.4117 23.8133 13.2937V13.28Z" fill="#1A2A5A"/>
<g opacity="0.3">
<path d="M23.8133 13.28C23.8133 12.8854 23.6553 11.7664 23.2742 11.4684C22.9805 11.241 22.2857 11.1705 21.9424 11.1511H21.9105C21.7289 11.1511 20.5138 11.1852 20.1504 11.4696C19.7694 11.7675 19.6113 12.8866 19.6113 13.2812V13.2937C19.6116 13.4117 19.6605 13.5248 19.7472 13.6082C19.8339 13.6915 19.9513 13.7384 20.0738 13.7384H23.3509C23.4734 13.7384 23.5908 13.6915 23.6775 13.6082C23.7642 13.5248 23.813 13.4117 23.8133 13.2937V13.28Z" fill="#0C0C0C"/>
</g>
<path d="M22.1588 12.9891C22.1588 12.342 21.8993 10.5122 21.2776 10.0243C20.7963 9.64671 19.659 9.53526 19.0975 9.50342H19.0444C18.746 9.50342 16.7582 9.55801 16.1625 10.0254C15.5396 10.5133 15.2801 12.3431 15.2813 12.9902V13.0095C15.2813 13.2029 15.3609 13.3883 15.5027 13.525C15.6445 13.6617 15.8369 13.7385 16.0374 13.7385H21.4026C21.6032 13.7385 21.7955 13.6617 21.9373 13.525C22.0791 13.3883 22.1588 13.2029 22.1588 13.0095V12.9891Z" fill="#1A2A5A"/>
<g opacity="0.3">
<path d="M15.5864 31.9104C15.5864 31.9104 3.55363 30.3854 3.06524 30.3285C2.32086 30.2421 1.92213 30.7061 1.92213 31.2599C1.92213 31.6489 1.86786 33.1352 1.83601 33.9802C1.82623 34.2249 1.88491 34.4676 2.00592 34.6829C2.12692 34.8982 2.30579 35.0782 2.52377 35.2039C2.85823 35.3874 3.2148 35.5306 3.58548 35.6304C4.59765 35.9169 10.6966 36.1887 11.9612 36.2422C12.1092 36.2487 12.2539 36.1994 12.3647 36.1046C12.82 35.7179 14.0386 34.6626 14.422 34.1406C15.6784 32.4279 15.5899 31.9104 15.5899 31.9104H15.5864ZM9.34114 35.0811L3.52296 34.1713L3.75181 31.1007L11.6557 31.7922L9.34114 35.0811Z" fill="#0C0C0C"/>
</g>
<g opacity="0.3">
<path d="M2.10367 24.0249C2.10367 24.0249 1.51383 25.7694 5.29471 26.5814C9.12867 27.4037 14.8018 28.8934 14.8018 28.8934L11.7546 26.7998C11.7546 26.7998 2.99079 25.3896 2.77255 24.0977C2.52246 22.6193 2.77255 20.9578 2.77255 20.9578L2.10367 24.0249Z" fill="#0C0C0C"/>
</g>
<path d="M16.8946 31.858C16.8806 31.8571 16.8667 31.8544 16.8534 31.85L16.7354 31.8227L16.2753 31.709C15.8742 31.6146 15.2962 31.4759 14.5778 31.3235C13.1409 31.0119 11.1437 30.6332 8.9259 30.2852C7.817 30.1112 6.75883 29.9508 5.79267 29.8303L4.42306 29.6495C4.02827 29.5836 3.62867 29.5483 3.22805 29.5437C2.89835 29.5368 2.57422 29.6264 2.29846 29.8007C2.09394 29.9379 1.91988 30.113 1.78648 30.3159C1.67134 30.4887 1.5935 30.6821 1.55762 30.8845C1.56023 30.8311 1.56853 30.7782 1.58239 30.7264C1.61931 30.577 1.68148 30.4345 1.76642 30.3045C1.89819 30.0963 2.07235 29.916 2.2784 29.7746C2.55741 29.5945 2.88643 29.5002 3.22215 29.5039C3.62533 29.5048 4.02777 29.5375 4.42542 29.6017L5.79621 29.778C6.76237 29.8917 7.82172 30.0543 8.93062 30.2329C11.1496 30.582 13.1468 30.9675 14.5825 31.2894C15.3009 31.4474 15.8801 31.593 16.2765 31.6931L16.733 31.8159L16.851 31.8489C16.8659 31.85 16.8806 31.853 16.8946 31.858Z" fill="#1A2A5A"/>
<path d="M1.62252 27.3478C1.61931 27.3263 1.61931 27.3045 1.62252 27.283C1.62252 27.2341 1.62252 27.1693 1.62252 27.0965C1.62252 26.935 1.62252 26.7007 1.62252 26.4142C1.6296 25.8353 1.66145 25.0358 1.74049 24.1556C1.81953 23.2754 1.93514 22.4827 2.03423 21.9118C2.08378 21.6264 2.12743 21.3966 2.16046 21.2374L2.20057 21.0555C2.20324 21.0339 2.2092 21.0128 2.21826 20.9929C2.22114 21.0144 2.22114 21.0362 2.21826 21.0577C2.21119 21.1055 2.20175 21.1669 2.18995 21.242C2.164 21.4092 2.12743 21.6389 2.08378 21.9186C1.9953 22.4873 1.88913 23.2833 1.80773 24.1613C1.72634 25.0392 1.68977 25.8364 1.66971 26.4142C1.66145 26.6973 1.65556 26.9293 1.65084 27.0965C1.65084 27.1727 1.65084 27.2341 1.65084 27.283C1.64411 27.3056 1.6346 27.3274 1.62252 27.3478Z" fill="#1A2A5A"/>
<path d="M4.25573 19.4916C4.2507 19.4451 4.2507 19.3982 4.25573 19.3517C4.25571 19.297 4.25925 19.2423 4.26634 19.188C4.2746 19.1243 4.27814 19.0515 4.29347 18.9719C4.36476 18.5584 4.46767 18.1505 4.60137 17.7516C4.75355 17.2842 4.91752 16.8691 5.04139 16.5712C5.10391 16.4222 5.15936 16.3028 5.19593 16.2209C5.21176 16.1768 5.234 16.135 5.26199 16.0969C5.25158 16.1424 5.23697 16.187 5.21834 16.23C5.18177 16.3255 5.13577 16.4449 5.08268 16.5859C4.96471 16.8873 4.81253 17.3035 4.66036 17.7698C4.52588 18.1654 4.41559 18.5683 4.33004 18.9764C4.26988 19.2914 4.26752 19.4916 4.25573 19.4916Z" fill="#1A2A5A"/>
<path d="M4.97049 20.2879C4.97049 20.2879 2.99689 19.5941 2.74444 21.0691C2.49198 22.5441 2.51794 24.0123 2.84943 24.5286C3.18092 25.0449 6.22803 25.7466 6.22803 25.7466L11.4977 26.8634C11.4977 26.8634 11.8775 26.9396 11.6487 26.5222C11.3927 26.0582 9.99711 23.0912 9.19021 22.3702C7.70145 21.0407 4.97049 20.2879 4.97049 20.2879Z" fill="#F9F9F9"/>
<g opacity="0.3">
<path d="M6.9154 25.8911C6.9154 25.8911 6.92366 22.4146 6.65941 22.0245C6.39516 21.6344 3.28906 20.2527 3.28906 20.2527C3.28906 20.2527 3.59106 20.0047 4.21157 20.1185C5.08103 20.2806 5.92464 20.552 6.72075 20.9259C7.57838 21.3501 8.95035 21.9574 9.46233 22.6602C9.68529 22.965 10.1524 23.6951 10.596 24.4866C11.174 25.5158 11.7214 26.6155 11.7214 26.6769C11.7214 26.8032 11.7521 26.918 11.2401 26.8134C10.0534 26.5735 6.9154 25.8911 6.9154 25.8911Z" fill="#0C0C0C"/>
</g>
<path d="M8.63229 25.577C9.33854 25.577 9.91106 25.0251 9.91106 24.3442C9.91106 23.6634 9.33854 23.1115 8.63229 23.1115C7.92604 23.1115 7.35352 23.6634 7.35352 24.3442C7.35352 25.0251 7.92604 25.577 8.63229 25.577Z" fill="#F9F9F9"/>
<path d="M9.90952 24.3444C9.89828 24.2442 9.88095 24.1447 9.85762 24.0465C9.78397 23.7806 9.61988 23.5464 9.39165 23.3812C9.22407 23.26 9.02772 23.1811 8.82045 23.1517C8.61318 23.1223 8.40157 23.1433 8.20489 23.2129C7.97283 23.2947 7.77122 23.4412 7.62566 23.6336C7.46851 23.8397 7.38376 24.0887 7.38376 24.3444C7.38376 24.6001 7.46851 24.8492 7.62566 25.0552C7.77213 25.2468 7.97344 25.3931 8.20489 25.476C8.41536 25.5503 8.6426 25.5691 8.86315 25.5306C9.05543 25.4959 9.23651 25.418 9.39165 25.3031C9.61988 25.1379 9.78397 24.9036 9.85762 24.6378C9.88095 24.5396 9.89828 24.4401 9.90952 24.3399C9.91669 24.4419 9.90713 24.5444 9.88121 24.6435C9.82343 24.8758 9.69748 25.0872 9.51841 25.2524C9.33934 25.4176 9.11472 25.5295 8.87141 25.5749C8.64222 25.6172 8.40544 25.5991 8.18601 25.5226C8.06703 25.4826 7.9552 25.4251 7.85452 25.352C7.74798 25.2781 7.65439 25.1883 7.5773 25.0859C7.41105 24.8702 7.32129 24.6086 7.32129 24.3399C7.32129 24.0711 7.41105 23.8096 7.5773 23.5938C7.73125 23.3937 7.94298 23.2418 8.18601 23.1571C8.40544 23.0806 8.64222 23.0625 8.87141 23.1048C9.07044 23.1419 9.25758 23.2237 9.4176 23.3436C9.65057 23.5159 9.81441 23.7606 9.88121 24.0362C9.90763 24.1368 9.91719 24.2409 9.90952 24.3444Z" fill="#1A2A5A"/>
<path d="M8.63244 24.2911C8.85511 24.2912 9.07368 24.3489 9.26538 24.4581C9.45709 24.5673 9.61493 24.724 9.72247 24.912C9.82661 24.7295 9.87962 24.5239 9.87626 24.3157C9.87291 24.1074 9.81331 23.9035 9.70334 23.7242C9.59337 23.5449 9.43683 23.3963 9.24914 23.2931C9.06146 23.1899 8.84911 23.1356 8.63303 23.1356C8.41695 23.1356 8.2046 23.1899 8.01692 23.2931C7.82923 23.3963 7.67269 23.5449 7.56272 23.7242C7.45275 23.9035 7.39315 24.1074 7.3898 24.3157C7.38644 24.5239 7.43945 24.7295 7.5436 24.912C7.65085 24.724 7.80845 24.5673 7.99998 24.458C8.1915 24.3488 8.40992 24.2912 8.63244 24.2911Z" fill="#EDEDED"/>
<path d="M9.18288 24.3036C9.18288 24.4086 9.15057 24.5113 9.09003 24.5986C9.0295 24.6859 8.94346 24.754 8.84279 24.7942C8.74212 24.8344 8.63135 24.8449 8.52449 24.8244C8.41762 24.8039 8.31946 24.7534 8.24241 24.6791C8.16537 24.6048 8.1129 24.5102 8.09164 24.4072C8.07038 24.3041 8.08129 24.1974 8.12299 24.1003C8.16469 24.0033 8.2353 23.9203 8.3259 23.862C8.41649 23.8036 8.52301 23.7725 8.63197 23.7725C8.77808 23.7725 8.9182 23.8284 9.02152 23.928C9.12483 24.0276 9.18288 24.1627 9.18288 24.3036Z" fill="white"/>
<path d="M9.18329 24.3034C9.17739 24.3034 9.18329 24.2568 9.15498 24.1772C9.12152 24.0654 9.05059 23.9674 8.95325 23.8986C8.87533 23.8428 8.78286 23.809 8.68616 23.8009C8.58947 23.7929 8.49236 23.8109 8.40566 23.8529C8.31895 23.895 8.24608 23.9594 8.19515 24.039C8.14423 24.1187 8.11726 24.2104 8.11726 24.304C8.11726 24.3975 8.14423 24.4893 8.19515 24.5689C8.24608 24.6486 8.31895 24.713 8.40566 24.7551C8.49236 24.7971 8.58947 24.8151 8.68616 24.807C8.78286 24.799 8.87533 24.7652 8.95325 24.7094C9.05059 24.6406 9.12152 24.5426 9.15498 24.4308C9.17857 24.3512 9.17739 24.3034 9.18329 24.3034C9.18919 24.3034 9.18329 24.3159 9.18329 24.3375C9.18401 24.3707 9.18084 24.4039 9.17385 24.4365C9.14652 24.5578 9.07599 24.666 8.97449 24.7424C8.89883 24.8 8.80925 24.8381 8.71413 24.8532C8.61902 24.8683 8.52149 24.8599 8.43066 24.8288C8.31834 24.7902 8.22117 24.719 8.15246 24.6251C8.08376 24.5311 8.04688 24.4189 8.04688 24.304C8.04688 24.189 8.08376 24.0769 8.15246 23.9829C8.22117 23.889 8.31834 23.8178 8.43066 23.7791C8.52149 23.748 8.61902 23.7396 8.71413 23.7548C8.80925 23.7699 8.89883 23.808 8.97449 23.8656C9.07599 23.942 9.14652 24.0502 9.17385 24.1715C9.18079 24.2037 9.18395 24.2365 9.18329 24.2693C9.18683 24.292 9.18565 24.3034 9.18329 24.3034Z" fill="#1A2A5A"/>
<path d="M9.11529 23.4719C9.09288 23.5094 8.97727 23.4719 8.80268 23.4662C8.58374 23.4433 8.36274 23.4845 8.16836 23.5843C7.97399 23.684 7.81521 23.8378 7.71265 24.0257C7.62418 24.1713 7.58761 24.2816 7.54278 24.2793C7.49795 24.277 7.4602 24.1531 7.50975 23.9495C7.54582 23.8165 7.61001 23.6922 7.69829 23.5843C7.78658 23.4763 7.89705 23.3872 8.02277 23.3223C8.14849 23.2575 8.28676 23.2185 8.42888 23.2076C8.57101 23.1967 8.71394 23.2143 8.84869 23.2592C9.05277 23.332 9.13771 23.4389 9.11529 23.4719Z" fill="white"/>
<path d="M9.43767 23.6655C9.36709 23.7121 9.30357 23.7394 9.29181 23.7281C9.28005 23.7167 9.3071 23.6553 9.35298 23.5859C9.39885 23.5165 9.47061 23.4836 9.50589 23.5165C9.54118 23.5495 9.50472 23.6189 9.43767 23.6655Z" fill="white"/>
<path d="M28.7592 20.4676C28.7423 20.4691 28.7253 20.4691 28.7084 20.4676H28.561L27.99 20.4733L25.8949 20.4801H18.9796L15.1716 20.4733H13.5106H12.758C12.5294 20.456 12.3021 20.5194 12.1186 20.6518L11.2079 21.3922L10.8315 21.6958C10.7207 21.7779 10.5933 21.8367 10.4576 21.8687C10.3499 21.8935 10.2387 21.9012 10.1285 21.8914L9.89252 21.8801L9.74506 21.871H9.89252L10.1285 21.8778C10.2371 21.8849 10.3462 21.8753 10.4517 21.8494C10.5836 21.8166 10.7069 21.7577 10.8139 21.6765L11.1855 21.3706L12.095 20.6223C12.2851 20.4824 12.5218 20.4144 12.7603 20.4312H15.1716H18.9796L25.8949 20.4471L27.99 20.4596H28.561H28.7084L28.7592 20.4676Z" fill="#1A2A5A"/>
<path d="M53.486 36.6778C53.4223 36.5493 53.2878 36.4572 53.0224 36.4856C52.2851 36.5664 44.5558 36.7324 43.4906 36.4856C42.4253 36.2388 38.8769 32.3574 37.3751 32.0924C36.1152 31.8707 29.9891 31.7513 28.0462 31.8059C26.1033 31.7524 19.9784 31.8707 18.7185 32.0924C17.2167 32.3574 13.7213 36.6187 12.6561 36.8689C11.5908 37.1191 3.80849 36.5698 3.07119 36.489C2.80458 36.4606 2.6701 36.5527 2.60757 36.6812C2.57904 36.7441 2.56704 36.8128 2.57262 36.8812C2.57821 36.9496 2.60121 37.0157 2.63959 37.0735C2.67797 37.1313 2.73055 37.1791 2.79266 37.2126C2.85477 37.2462 2.92451 37.2644 2.99569 37.2658C4.64724 37.3101 10.9986 37.3795 12.1878 37.3602L28.3364 37.0758C31.5605 37.0952 42.5763 37.1634 43.743 37.1793C45.1185 37.1975 51.4511 37.3101 53.0967 37.2658C53.1684 37.2646 53.2386 37.2463 53.3011 37.2125C53.3636 37.1788 53.4165 37.1307 53.455 37.0725C53.4936 37.0143 53.5166 36.9478 53.522 36.8789C53.5274 36.81 53.515 36.741 53.486 36.6778Z" fill="#1A2A5A"/>
<path d="M25.8789 6.7013C25.9426 6.7013 26.1337 7.77144 27.0291 7.75097C27.9245 7.7305 30.1104 7.75097 30.1104 7.75097V6.41357L25.8789 6.7013Z" fill="#1A2A5A"/>
<path d="M0.522897 15.0702C0.458173 15.0657 0.395108 15.0484 0.337642 15.0193C0.280176 14.9903 0.229545 14.9501 0.188913 14.9013C0.148281 14.8526 0.118521 14.7962 0.101494 14.7359C0.0844673 14.6755 0.0805392 14.6124 0.0899543 14.5505C0.207922 13.7351 0.653841 12.1498 2.28652 11.9155C3.29509 11.7564 4.3215 11.7311 5.33717 11.8404C5.59081 11.8711 5.71703 12.094 5.7477 12.3386C5.88691 13.4599 5.77366 14.8507 5.43863 15.0213C5.1036 15.1919 1.71555 15.1612 0.522897 15.0702Z" fill="#4169E1"/>
<path d="M11.829 6.41357C11.8265 6.42318 11.8225 6.43238 11.8172 6.44087L11.7771 6.51593L11.6179 6.80365C11.4751 7.05725 11.2722 7.41662 11.028 7.85787L9.0438 11.3231L7.35686 14.2424L6.00494 15.2443L5.6298 15.5183L5.52953 15.5877C5.51885 15.5968 5.50695 15.6044 5.49414 15.6105C5.50411 15.6003 5.51475 15.5908 5.52599 15.582L5.62037 15.507L5.98725 15.2238L7.32736 14.2003L7.32029 14.2082L8.99779 11.2833L11.0032 7.82603L11.6155 6.78204L11.7854 6.49887L11.8302 6.42608C11.8296 6.42194 11.8292 6.41776 11.829 6.41357Z" fill="#1A2A5A"/>
<path d="M14.0061 5.77332C13.9121 5.81825 13.8147 5.85627 13.7147 5.88704C13.4794 5.96944 13.2568 6.08231 13.0529 6.22253C12.8568 6.37196 12.6822 6.54598 12.5339 6.73997C12.4762 6.82425 12.4123 6.90444 12.3428 6.97993C12.3833 6.88619 12.4356 6.79758 12.4985 6.71609C12.7741 6.29327 13.2016 5.98315 13.6994 5.84496C13.798 5.80844 13.9011 5.78436 14.0061 5.77332Z" fill="#1A2A5A"/>
<g opacity="0.3">
<path d="M7.33924 14.2389L7.22127 14.314C7.17526 14.2594 9.94633 19.8591 11.2511 21.3364L12.1075 20.6347C10.2637 18.9084 8.88108 16.2257 7.33924 14.2389Z" fill="#0C0C0C"/>
</g>
<path d="M12.8369 36.2512C12.8593 36.2434 12.881 36.2339 12.9018 36.2228C12.962 36.1863 13.0199 36.1465 13.0752 36.1033C13.2227 35.9896 13.4291 35.8168 13.6945 35.5859C14.2207 35.123 14.9662 34.4361 15.8628 33.5639C16.0869 33.3455 16.3189 33.115 16.5588 32.8724C16.7997 32.6112 17.0557 32.3632 17.3256 32.1298C17.6303 31.8944 17.973 31.7088 18.3401 31.5805C18.7298 31.4468 19.1366 31.3653 19.5493 31.3383C19.7605 31.3235 19.9752 31.3224 20.1899 31.3201L20.8446 31.3144L22.1941 31.3019L25.0313 31.2757L34.989 31.1973L38.0066 31.1791H39.04C39.0883 31.1791 39.1131 31.1791 39.1131 31.1791H39.04H38.8265L38.0066 31.1927L34.989 31.228L25.0313 31.3246L22.1941 31.3497L20.8446 31.361H20.1899C19.974 31.361 19.7628 31.361 19.5528 31.3781C19.1455 31.4037 18.7438 31.4833 18.359 31.6146C17.9968 31.7402 17.6584 31.9223 17.3575 32.1537C17.0884 32.3848 16.8332 32.6305 16.593 32.8895C16.3571 33.1317 16.1211 33.3603 15.8935 33.5787C14.9934 34.4475 14.2419 35.131 13.7111 35.5882C13.4445 35.8156 13.2333 35.9896 13.0823 36.0977C13.0264 36.1398 12.9672 36.1779 12.9053 36.2114C12.8866 36.2302 12.863 36.244 12.8369 36.2512Z" fill="#1A2A5A"/>
<g opacity="0.3">
<path d="M6.4806 29.4698C6.1298 29.1089 5.73895 28.7863 5.31508 28.5077C4.88213 28.2427 4.26044 27.939 3.86761 28.1801C3.66889 28.3894 3.50924 28.6303 3.39574 28.892C3.37067 28.9341 3.35519 28.9807 3.35031 29.029C3.34542 29.0772 3.35126 29.1259 3.36742 29.1718C3.42287 29.2798 3.56561 29.3083 3.68948 29.3231L6.39684 29.6506C6.44993 29.6574 6.51481 29.6574 6.54077 29.6131C6.56672 29.5687 6.52189 29.5084 6.4806 29.4698Z" fill="white"/>
</g>
<g opacity="0.3">
<path d="M17.0352 27.8186C23.9481 29.5916 31.2468 29.1469 38.3496 28.3622C39.4467 28.2406 40.6394 28.0643 41.3885 27.2819" fill="#0C0C0C"/>
</g>
<path d="M42.7897 21.6765C40.0906 21.308 34.414 21.126 28.7834 21.1294C23.1528 21.1329 17.475 21.308 14.7759 21.6765C14.5765 21.7029 14.3854 21.7704 14.2155 21.8744C14.0456 21.9784 13.901 22.1165 13.7914 22.2792C13.6818 22.4419 13.6099 22.6255 13.5805 22.8174C13.5511 23.0093 13.5649 23.2051 13.621 23.3914C13.621 23.4005 13.621 23.4096 13.6292 23.4199C13.9241 24.3535 15.0885 27.3365 16.9429 27.7835C17.8029 27.9916 22.6491 28.1906 27.8196 28.2304V28.2384H28.7834H29.746V28.2304C34.9166 28.1906 39.7639 27.9916 40.6238 27.7835C42.4771 27.3365 43.6415 24.3535 43.9364 23.4199C43.9364 23.4096 43.9423 23.4005 43.9446 23.3914C44.0007 23.2051 44.0145 23.0093 43.9851 22.8174C43.9557 22.6255 43.8838 22.4419 43.7742 22.2792C43.6646 22.1165 43.52 21.9784 43.3501 21.8744C43.1802 21.7704 42.9891 21.7029 42.7897 21.6765Z" fill="#1A2A5A"/>
<path d="M43.4732 27.3889L43.4024 27.4264L43.1901 27.531L42.8456 27.7005C42.776 27.7334 42.7041 27.7721 42.6239 27.8074L42.3667 27.9211C41.342 28.3672 40.2796 28.7279 39.191 28.9992C37.5745 29.394 35.9267 29.6584 34.2646 29.7896C32.3901 29.9567 30.3198 29.9931 28.1504 29.9852C25.9809 29.9772 23.9094 29.8806 22.042 29.644C20.3866 29.446 18.7548 29.0957 17.1687 28.5977C16.1002 28.2599 15.0648 27.8317 14.0744 27.3183C13.8986 27.2296 13.7465 27.1421 13.6132 27.0682C13.4798 26.9942 13.3701 26.9305 13.2817 26.876L13.0799 26.7543L13.0127 26.7111C13.0127 26.7111 13.0375 26.7224 13.0835 26.7486L13.2876 26.8623C13.3772 26.9146 13.4881 26.976 13.6226 27.05C13.7571 27.1239 13.9093 27.208 14.0862 27.2945C15.079 27.7994 16.1151 28.2209 17.1829 28.5545C18.7679 29.0459 20.3976 29.3912 22.0502 29.586C23.9129 29.8214 25.9809 29.9147 28.1504 29.9272C30.3198 29.9397 32.3878 29.901 34.2599 29.7361C35.919 29.6077 37.5643 29.3479 39.1792 28.9594C40.2673 28.6926 41.3304 28.3385 42.3573 27.9006L42.6144 27.7937C42.6958 27.7585 42.7678 27.7221 42.8374 27.6891L43.1854 27.5253L43.3989 27.4252L43.4732 27.3889Z" fill="#1A2A5A"/>
<path d="M43.8058 23.131C43.8058 23.1481 37.0675 23.1606 28.7566 23.1606C20.4458 23.1606 13.7051 23.1481 13.7051 23.131C13.7051 23.114 20.4422 23.1014 28.7566 23.1014C37.071 23.1014 43.8058 23.1128 43.8058 23.131Z" fill="#717171"/>
<path d="M43.8058 22.245C43.8058 22.2609 37.0675 22.2746 28.7566 22.2746C20.4458 22.2746 13.7051 22.2609 13.7051 22.245C13.7051 22.2291 20.4422 22.2155 28.7566 22.2155C37.071 22.2155 43.8058 22.2291 43.8058 22.245Z" fill="#717171"/>
<path d="M39.5457 21.3611C39.5457 21.377 34.722 21.3907 28.774 21.3907C22.8261 21.3907 18 21.377 18 21.3611C18 21.3452 22.8225 21.3315 28.774 21.3315C34.7255 21.3315 39.5457 21.3441 39.5457 21.3611Z" fill="#717171"/>
<path d="M43.8058 24.0247C43.8058 24.0406 37.0675 24.0543 28.7566 24.0543C20.4458 24.0543 13.7051 24.0406 13.7051 24.0247C13.7051 24.0088 20.4422 23.9951 28.7566 23.9951C37.071 23.9951 43.8058 24.0088 43.8058 24.0247Z" fill="#717171"/>
<path d="M43.1368 24.9212C43.1368 24.9371 36.6662 24.9507 28.6857 24.9507C20.7051 24.9507 14.2334 24.9371 14.2334 24.9212C14.2334 24.9052 20.7028 24.8916 28.6857 24.8916C36.6686 24.8916 43.1368 24.9052 43.1368 24.9212Z" fill="#717171"/>
<path d="M42.8441 25.817C42.8441 25.833 36.5481 25.8466 28.7835 25.8466C21.0188 25.8466 14.7217 25.833 14.7217 25.817C14.7217 25.8011 21.0165 25.7875 28.7835 25.7875C36.5505 25.7875 42.8441 25.8 42.8441 25.817Z" fill="#717171"/>
<path d="M42.1149 26.713C42.1149 26.729 36.1433 26.7426 28.7845 26.7426C21.4256 26.7426 15.4541 26.729 15.4541 26.713C15.4541 26.6971 21.4245 26.6835 28.7904 26.6835C36.1563 26.6835 42.1149 26.696 42.1149 26.713Z" fill="#717171"/>
<path d="M41.2139 27.6081C41.2139 27.6251 35.6824 27.6376 28.8591 27.6376C22.0358 27.6376 16.502 27.6251 16.502 27.6081C16.502 27.591 22.0335 27.5785 28.8591 27.5785C35.6847 27.5785 41.2139 27.5921 41.2139 27.6081Z" fill="#717171"/>
<path d="M5.79004 36.8916V36.8995C5.8041 36.9456 5.80704 36.9942 5.79865 37.0415C5.79025 37.0889 5.77074 37.1337 5.74159 37.1727C5.71245 37.2116 5.67446 37.2436 5.63051 37.2663C5.58656 37.2889 5.53783 37.3015 5.48804 37.3032L3.52741 37.2714C3.44994 37.2623 3.37798 37.228 3.32333 37.1743C3.26868 37.1206 3.23457 37.0506 3.22659 36.9757L3.21362 36.8699C3.21049 36.8244 3.2175 36.7787 3.23418 36.7359C3.25086 36.6931 3.27682 36.6543 3.31033 36.622C3.34384 36.5897 3.38412 36.5647 3.42847 36.5486C3.47283 36.5325 3.52024 36.5258 3.56752 36.5288L5.51046 36.6641C5.57538 36.6705 5.6368 36.6956 5.68667 36.7362C5.73655 36.7768 5.77258 36.8309 5.79004 36.8916Z" fill="white"/>
<path d="M42.3726 35.7928C42.3726 35.8087 36.0507 35.8223 28.2518 35.8223C20.453 35.8223 14.1299 35.8087 14.1299 35.7928C14.1299 35.7768 20.4518 35.7632 28.2518 35.7632C36.0519 35.7632 42.3726 35.7757 42.3726 35.7928Z" fill="#717171"/>
<path d="M20.3547 36.7848H19.5266L19.4688 35.7931H20.4172L20.3547 36.7848Z" fill="#717171"/>
<path d="M28.102 36.7848H27.2738L27.2148 35.7931H28.1645L28.102 36.7848Z" fill="#717171"/>
<path d="M35.849 36.7848H35.0209L34.9619 35.7931H35.9116L35.849 36.7848Z" fill="#717171"/>
<path d="M41.9349 35.4337C40.4367 34.1895 38.4194 32.2755 37.3801 32.0924C36.1202 31.8707 29.9941 31.7513 28.0524 31.8059C26.1094 31.7524 19.9834 31.8707 18.7235 32.0924C17.7573 32.263 15.9654 34.0883 14.5273 35.4337H41.9349Z" fill="#717171"/>
<path d="M2.06641 34.7818C2.08653 34.7609 2.10865 34.7418 2.13247 34.7249L2.32712 34.568L3.06677 33.9891H3.07385H3.08211L7.15555 34.4713L9.38043 34.7431H9.38632L11.3812 35.8019L11.9462 36.1067L12.0949 36.1897C12.1126 36.198 12.1292 36.2083 12.1444 36.2204C12.1256 36.2142 12.1074 36.2062 12.0902 36.1965L11.938 36.1215L11.3646 35.8303L9.35919 34.7909H9.36863L7.14257 34.5236L3.07149 34.021H3.08683L2.33655 34.5896L2.13955 34.7306C2.11632 34.7492 2.09189 34.7663 2.06641 34.7818Z" fill="#1A2A5A"/>
<path d="M12.1509 32.6112C12.1509 32.6112 12.552 31.9584 12.1509 31.7935C11.6908 31.6036 4.01108 30.7154 3.69611 30.6893C3.07324 30.6358 2.84792 30.9076 2.70164 31.6127C2.55536 32.3178 2.22977 34.0669 2.84792 34.5752C3.46607 35.0836 4.42869 35.3088 6.33034 35.4213C8.23198 35.5339 9.23353 35.5965 10.1702 35.0881C11.1069 34.5798 12.1509 32.6112 12.1509 32.6112Z" fill="#1A2A5A"/>
<path d="M11.7551 26.7996C11.7362 26.8076 11.6277 26.6165 11.4413 26.2663C11.2549 25.916 10.9907 25.4099 10.6474 24.7935C10.4728 24.4865 10.2829 24.1498 10.0576 23.7996C9.82949 23.426 9.57774 23.0663 9.30375 22.7226C9.15692 22.5433 8.99171 22.3787 8.81064 22.2313C8.61938 22.0776 8.41406 21.941 8.19721 21.823C7.9766 21.6991 7.73831 21.5819 7.50001 21.4591C7.26172 21.3363 7.0187 21.2158 6.77215 21.0986C6.29726 20.8689 5.80513 20.6739 5.29991 20.5152C5.05948 20.4416 4.81538 20.3798 4.56851 20.3298C4.34004 20.2756 4.10542 20.2493 3.87014 20.2514C3.66577 20.2442 3.46451 20.3012 3.29664 20.4138C3.12878 20.5264 3.0034 20.6885 2.93937 20.8757C2.86809 21.054 2.81245 21.2378 2.77303 21.425C2.73175 21.6104 2.68928 21.7935 2.64681 21.9629L2.24218 23.5789C2.1478 23.9611 2.09472 24.1726 2.0723 24.1692C2.04989 24.1658 2.06523 23.9474 2.12539 23.5573C2.18555 23.1673 2.28936 22.6066 2.43093 21.9186C2.46514 21.7457 2.50053 21.5649 2.5371 21.3772C2.57285 21.174 2.62733 20.9741 2.69989 20.7802C2.78073 20.5559 2.92645 20.3586 3.11986 20.2116C3.33538 20.0651 3.59116 19.9835 3.8548 19.9773C4.1134 19.9705 4.37184 19.9953 4.62395 20.0512C4.8811 20.1004 5.13546 20.1623 5.38603 20.2366C5.90919 20.398 6.41841 20.5988 6.90899 20.8371C7.16027 20.9508 7.40446 21.0804 7.64393 21.2032C7.88341 21.3261 8.11581 21.4455 8.35174 21.5763C8.58192 21.7049 8.79983 21.853 9.00293 22.0186C9.1965 22.181 9.3724 22.362 9.52788 22.5588C9.80441 22.916 10.0559 23.2906 10.2805 23.6802C10.494 24.0418 10.6745 24.3864 10.8385 24.7037C11.1594 25.3371 11.3941 25.8591 11.5463 26.2242C11.6985 26.5892 11.774 26.7905 11.7551 26.7996Z" fill="#1A2A5A"/>
<path d="M4.82337 23.0718C5.10742 23.0723 5.3861 23.1465 5.63019 23.2865C5.87428 23.4266 6.07478 23.6274 6.21067 23.8679C6.3432 23.6355 6.41062 23.3738 6.4063 23.1087C6.40198 22.8435 6.32607 22.584 6.18604 22.3557C6.04601 22.1275 5.84669 21.9383 5.60774 21.8069C5.36879 21.6755 5.09845 21.6064 4.82337 21.6064C4.54828 21.6064 4.27794 21.6755 4.03899 21.8069C3.80004 21.9383 3.60073 22.1275 3.4607 22.3557C3.32067 22.584 3.24475 22.8435 3.24043 23.1087C3.23611 23.3738 3.30354 23.6355 3.43606 23.8679C3.57195 23.6274 3.77245 23.4266 4.01654 23.2865C4.26063 23.1465 4.53931 23.0723 4.82337 23.0718Z" fill="#EDEDED"/>
<path d="M4.82346 23.7359C5.20004 23.7359 5.50531 23.4416 5.50531 23.0786C5.50531 22.7156 5.20004 22.4213 4.82346 22.4213C4.44688 22.4213 4.1416 22.7156 4.1416 23.0786C4.1416 23.4416 4.44688 23.7359 4.82346 23.7359Z" fill="white"/>
<path d="M5.50454 23.0787C5.50454 23.0787 5.50454 23.0207 5.47268 22.9206C5.43109 22.7814 5.34323 22.6591 5.22259 22.5726C5.12513 22.5022 5.00926 22.4594 4.88798 22.4489C4.76669 22.4384 4.64476 22.4607 4.53586 22.5132C4.42696 22.5658 4.33537 22.6465 4.27137 22.7464C4.20736 22.8462 4.17346 22.9613 4.17346 23.0787C4.17346 23.1961 4.20736 23.3112 4.27137 23.411C4.33537 23.5109 4.42696 23.5916 4.53586 23.6442C4.64476 23.6967 4.76669 23.719 4.88798 23.7085C5.00926 23.698 5.12513 23.6552 5.22259 23.5848C5.34323 23.4983 5.43109 23.376 5.47268 23.2368C5.501 23.1378 5.49864 23.0787 5.50454 23.0787C5.51044 23.0787 5.50454 23.0935 5.50454 23.1208C5.50499 23.1617 5.50024 23.2026 5.49038 23.2425C5.45671 23.3917 5.36937 23.5246 5.24383 23.6178C5.16943 23.6729 5.08439 23.7133 4.99366 23.7365C4.90293 23.7597 4.80832 23.7653 4.71534 23.7529C4.62235 23.7405 4.53285 23.7104 4.45204 23.6644C4.37123 23.6183 4.30073 23.5573 4.24464 23.4847C4.14534 23.3523 4.09859 23.1901 4.11287 23.0273C4.12715 22.8645 4.20152 22.7121 4.32246 22.5977C4.4434 22.4834 4.60289 22.4146 4.77196 22.4039C4.94103 22.3933 5.10846 22.4414 5.24383 22.5396C5.36937 22.6328 5.45671 22.7657 5.49038 22.9149C5.50018 22.9548 5.50493 22.9957 5.50454 23.0366C5.50808 23.0639 5.5069 23.0787 5.50454 23.0787Z" fill="#1A2A5A"/>
<path d="M6.40615 23.131C6.39472 23.0066 6.37422 22.8831 6.34481 22.7614C6.25405 22.4313 6.0509 22.1401 5.76794 21.9347C5.57457 21.7935 5.3495 21.698 5.11086 21.656C4.83698 21.6087 4.55498 21.6318 4.29334 21.7231C4.15252 21.772 4.0201 21.841 3.90051 21.9278C3.77414 22.0163 3.6634 22.1238 3.57256 22.2463C3.37636 22.5025 3.2705 22.8126 3.2705 23.131C3.2705 23.4495 3.37636 23.7596 3.57256 24.0158C3.6631 24.1385 3.77388 24.2461 3.90051 24.3342C4.01981 24.4215 4.1523 24.4905 4.29334 24.5389C4.53787 24.6254 4.80099 24.6513 5.05861 24.6144C5.31622 24.5774 5.56011 24.4787 5.76794 24.3274C6.05117 24.1222 6.25439 23.8309 6.34481 23.5006C6.37431 23.379 6.39481 23.2555 6.40615 23.131C6.40897 23.1636 6.40897 23.1963 6.40615 23.2288C6.4063 23.2669 6.40315 23.305 6.39671 23.3426C6.39093 23.3963 6.38107 23.4495 6.36722 23.5018C6.29517 23.7883 6.13922 24.0487 5.91793 24.2522C5.69665 24.4556 5.41937 24.5935 5.11912 24.6493C4.83636 24.7017 4.54417 24.6797 4.27329 24.5856C3.97331 24.481 3.71222 24.293 3.52301 24.0454C3.31845 23.7796 3.20801 23.4574 3.20801 23.1265C3.20801 22.7955 3.31845 22.4734 3.52301 22.2076C3.61835 22.081 3.7338 21.9697 3.86512 21.8778C3.98922 21.788 4.12688 21.717 4.27329 21.6674C4.54429 21.5738 4.83633 21.5518 5.11912 21.6037C5.42032 21.6591 5.69857 21.797 5.92056 22.0009C6.14254 22.2048 6.29885 22.4661 6.37076 22.7535C6.38461 22.8058 6.39447 22.859 6.40025 22.9127C6.40668 22.9503 6.40984 22.9883 6.40969 23.0264C6.4118 23.0613 6.41061 23.0963 6.40615 23.131Z" fill="#1A2A5A"/>
<path d="M5.42738 22.0461C5.40378 22.0837 5.26458 22.0348 5.04516 22.0143C4.76708 21.9779 4.48418 22.0267 4.23648 22.1539C3.98879 22.281 3.78884 22.4801 3.66493 22.7228C3.55994 22.9104 3.52455 23.0492 3.47972 23.0458C3.43489 23.0424 3.39597 22.8911 3.46203 22.6466C3.5088 22.4865 3.58871 22.3371 3.69695 22.2075C3.80519 22.0779 3.93952 21.9708 4.09185 21.8926C4.24417 21.8144 4.41135 21.7667 4.58329 21.7525C4.75524 21.7382 4.9284 21.7576 5.09235 21.8096C5.33418 21.8926 5.44271 22.0154 5.42738 22.0461Z" fill="white"/>
<path d="M5.8172 22.288C5.74662 22.3335 5.67957 22.3562 5.66193 22.3403C5.64428 22.3244 5.66193 22.2584 5.71251 22.1902C5.76309 22.1219 5.83013 22.0901 5.87601 22.1287C5.92188 22.1674 5.8866 22.2413 5.8172 22.288Z" fill="white"/>
<path d="M14.8019 28.8934C14.7819 28.973 12.6644 28.526 10.0738 27.8949C7.4832 27.2637 5.39989 26.6883 5.42702 26.6086C5.45415 26.529 7.56342 26.9771 10.1552 27.6071C12.7469 28.2372 14.8232 28.8172 14.8019 28.8934Z" fill="#1A2A5A"/>
<path d="M2.32228 20.5414C2.32096 20.5297 2.32096 20.5179 2.32228 20.5061C2.32582 20.4717 2.33173 20.4375 2.33997 20.4038C2.37029 20.2736 2.41912 20.1481 2.48507 20.0308C2.59197 19.8438 2.74773 19.687 2.93689 19.5759C2.99468 19.5441 3.05414 19.5153 3.11502 19.4895C3.1799 19.4713 3.24597 19.4428 3.31793 19.4292C3.39094 19.4128 3.46505 19.4014 3.53971 19.3951C3.61822 19.3888 3.69713 19.3888 3.77564 19.3951C4.12377 19.4302 4.468 19.4949 4.80432 19.5884C5.16885 19.6816 5.55224 19.7988 5.95215 19.9296C6.7508 20.198 7.61904 20.5198 8.50616 20.9156C8.61587 20.9667 8.72558 21.0179 8.83175 21.0736C8.93781 21.1306 9.03847 21.1964 9.13257 21.2704C9.31777 21.4122 9.48629 21.5731 9.63512 21.7503C9.9088 22.1119 10.1506 22.4668 10.3866 22.8057C10.8584 23.488 11.2584 24.1067 11.5851 24.6366C11.9119 25.1666 12.1608 25.6044 12.3295 25.9081C12.4144 26.0593 12.4781 26.1787 12.5206 26.2595L12.569 26.3516C12.5749 26.362 12.5797 26.3731 12.5831 26.3846C12.5754 26.3754 12.5686 26.3655 12.5631 26.355L12.51 26.2651L12.3083 25.924C12.1337 25.6237 11.8777 25.1904 11.5474 24.6628C11.2171 24.1351 10.8101 23.5164 10.3394 22.8432C10.1034 22.502 9.8569 22.1472 9.58793 21.7935C9.44164 21.6199 9.27631 21.462 9.09482 21.3227C9.00315 21.2514 8.90527 21.1878 8.80226 21.1328C8.69727 21.0782 8.58874 21.027 8.47903 20.9758C7.59663 20.5812 6.72956 20.2582 5.93328 19.9887C5.53455 19.8545 5.15351 19.7362 4.79135 19.6407C4.45824 19.5462 4.11719 19.48 3.7721 19.4428C3.69554 19.4372 3.61863 19.4372 3.54207 19.4428C3.46936 19.4481 3.39719 19.4587 3.32618 19.4747C3.25919 19.49 3.19304 19.5086 3.128 19.5304C3.06783 19.5588 3.01003 19.5804 2.9534 19.6123C2.76817 19.7182 2.61423 19.8682 2.50631 20.0478C2.44241 20.1594 2.39327 20.2782 2.36003 20.4015C2.34823 20.4459 2.34115 20.4789 2.33643 20.5016C2.33317 20.5153 2.32842 20.5286 2.32228 20.5414Z" fill="#1A2A5A"/>
<path d="M2.71401 11.9222C2.69389 11.9661 2.66939 12.008 2.64087 12.0473C2.59015 12.1258 2.51701 12.2395 2.43089 12.3817C1.97582 13.1207 1.61911 13.912 1.36918 14.7369C1.32199 14.895 1.28542 15.0235 1.26065 15.1122C1.25143 15.1596 1.23638 15.2058 1.21582 15.2498C1.21791 15.2019 1.22502 15.1542 1.23705 15.1077C1.25475 15.0167 1.28542 14.8859 1.32789 14.7255C1.5537 13.8892 1.91181 13.0913 2.3896 12.3601C2.48044 12.2202 2.5583 12.1087 2.6161 12.0348C2.64421 11.9938 2.67706 11.9561 2.71401 11.9222Z" fill="#1A2A5A"/>
<g opacity="0.3">
<path d="M1.8316 21.1853C1.71364 21.2228 1.07425 21.6072 0.802924 21.7539C0.663671 21.822 0.539828 21.9161 0.438576 22.0307C0.337324 22.1453 0.260679 22.2781 0.213084 22.4215C0.135225 22.7115 0.221341 23.0151 0.306278 23.3017C0.585862 24.2399 0.910275 25.9265 1.18986 26.8647C1.40928 25.1588 1.64758 22.2657 1.82925 21.1853" fill="white"/>
</g>
<path d="M10.6183 34.6817C10.6183 34.6988 8.79217 34.4679 6.54487 34.1689C4.29758 33.8698 2.47852 33.6127 2.47852 33.5934C2.47852 33.5741 4.30466 33.8072 6.55313 34.1074C8.8016 34.4077 10.6183 34.6658 10.6183 34.6817Z" fill="#717171"/>
<path d="M10.0365 35.1119C10.011 35.1149 9.98525 35.1149 9.95979 35.1119L9.74155 35.088L8.93818 34.9947L6.28862 34.6899C5.25404 34.5762 4.31737 34.4625 3.64024 34.3681C3.30167 34.3226 3.02798 34.2851 2.84041 34.2544L2.62217 34.2203C2.59679 34.2181 2.57181 34.2127 2.54785 34.2043C2.57338 34.2026 2.599 34.2026 2.62453 34.2043L2.84277 34.2271L3.64613 34.3203L6.2957 34.6251C7.33028 34.7388 8.26694 34.8526 8.94408 34.9481C9.28265 34.9924 9.55515 35.0311 9.7439 35.0618L9.96096 35.0959C9.98659 35.099 10.0119 35.1043 10.0365 35.1119Z" fill="#717171"/>
<path d="M8.76083 35.4335C8.4995 35.4319 8.23859 35.4133 7.97988 35.3777C7.49739 35.3311 6.83205 35.264 6.09239 35.1764C5.35273 35.0889 4.69211 35.015 4.21198 34.9547L3.64219 34.8796C3.57226 34.8722 3.50291 34.8605 3.43457 34.8444C3.50481 34.8427 3.57507 34.8468 3.64455 34.8569L4.2167 34.9126L6.10419 35.1184L7.98578 35.3368L8.55438 35.4062C8.68769 35.4221 8.76673 35.4335 8.76083 35.4335Z" fill="#717171"/>
<path d="M11.0422 34.193C11.0422 34.2089 9.12053 33.9792 6.75527 33.679C4.39001 33.3787 2.47421 33.1229 2.47656 33.1104C2.47892 33.0978 4.39827 33.3242 6.76353 33.6233C9.12878 33.9224 11.0446 34.176 11.0422 34.193Z" fill="#717171"/>
<path d="M11.3747 33.738C11.3747 33.7539 9.38458 33.5162 6.93674 33.2058C4.48891 32.8953 2.5035 32.6303 2.50586 32.6133C2.50822 32.5962 4.4948 32.8407 6.94382 33.1466C9.39284 33.4526 11.3771 33.7221 11.3747 33.738Z" fill="#717171"/>
<path d="M11.7486 33.2014C11.7486 33.2173 9.70423 32.9739 7.18561 32.6521C4.66699 32.3302 2.6285 32.0618 2.63086 32.0448C2.63322 32.0277 4.67525 32.2722 7.19387 32.5941C9.71248 32.9159 11.751 33.1854 11.7486 33.2014Z" fill="#717171"/>
<path d="M12.0335 32.653C12.0335 32.6689 9.95134 32.4187 7.38908 32.0935C4.82681 31.7682 2.75057 31.4919 2.75293 31.4759C2.75529 31.46 4.83389 31.7102 7.39733 32.0355C9.96078 32.3607 12.0394 32.6371 12.0335 32.653Z" fill="#717171"/>
<path d="M12.3256 32.1051C12.3256 32.121 10.2281 31.8686 7.6446 31.5365C5.0611 31.2044 2.96835 30.9303 2.97071 30.9144C2.97306 30.8985 5.06818 31.151 7.65286 31.483C10.2375 31.8151 12.3279 32.0892 12.3256 32.1051Z" fill="#717171"/>
<path d="M5.5606 30.855C5.57712 30.855 5.37303 31.8433 5.10643 33.0544C4.83982 34.2656 4.6086 35.2447 4.59091 35.2413C4.57321 35.2379 4.77848 34.2531 5.04626 33.0419C5.31405 31.8307 5.54527 30.8516 5.5606 30.855Z" fill="#717171"/>
<path d="M4.78782 30.7297C4.80433 30.7297 4.60143 31.718 4.33364 32.9292C4.06585 34.1403 3.83582 35.1206 3.8193 35.1172C3.80278 35.1138 4.00569 34.129 4.27348 32.9167C4.54127 31.7044 4.7713 30.7263 4.78782 30.7297Z" fill="#717171"/>
<path d="M4.01103 30.606C4.02872 30.606 3.83643 31.5408 3.5828 32.6871C3.32917 33.8335 3.11093 34.7592 3.09559 34.7558C3.08026 34.7524 3.27019 33.821 3.52382 32.6746C3.77745 31.5283 3.99805 30.6026 4.01103 30.606Z" fill="#717171"/>
<path d="M3.17809 30.7755C3.17809 30.8176 3.17294 30.8596 3.16275 30.9006C3.14506 30.9927 3.125 31.1053 3.10023 31.2418C3.04478 31.5409 2.97282 31.9241 2.8926 32.3551C2.81239 32.7862 2.73217 33.1842 2.66729 33.4674C2.63425 33.6084 2.60594 33.7232 2.58471 33.8017C2.57718 33.8432 2.56451 33.8837 2.54696 33.9223C2.54615 33.8801 2.55131 33.838 2.56229 33.7972C2.57881 33.7039 2.60004 33.5913 2.62482 33.456C2.68026 33.1569 2.75222 32.7736 2.83244 32.3415C2.91266 31.9093 2.9917 31.5124 3.05776 31.2304C3.09079 31.0883 3.11792 30.9745 3.13916 30.8961C3.14664 30.8544 3.15972 30.8139 3.17809 30.7755Z" fill="#717171"/>
<path d="M6.45188 31.0088C6.4684 31.0088 6.27257 31.9618 6.01422 33.1309C5.75587 34.3 5.53409 35.245 5.51757 35.2416C5.50106 35.2382 5.69689 34.2886 5.95406 33.1184C6.21123 31.9482 6.43537 31.0054 6.45188 31.0088Z" fill="#717171"/>
<path d="M7.34018 31.1814C7.3567 31.1814 7.15969 32.1378 6.90134 33.3092C6.64299 34.4805 6.41885 35.429 6.40233 35.4256C6.38582 35.4222 6.58283 34.4692 6.84118 33.2978C7.09953 32.1265 7.32366 31.178 7.34018 31.1814Z" fill="#717171"/>
<path d="M8.25849 31.228C8.275 31.228 8.08036 32.1765 7.82437 33.3376C7.56838 34.4987 7.3466 35.4381 7.33008 35.4347C7.31356 35.4313 7.50821 34.4874 7.7642 33.3251C8.02019 32.1629 8.23961 31.2246 8.25849 31.228Z" fill="#717171"/>
<path d="M9.15752 31.3417C9.17403 31.3417 8.98057 32.2845 8.72576 33.4399C8.47095 34.5953 8.25388 35.529 8.23383 35.5256C8.21377 35.5222 8.41078 34.5828 8.66559 33.4274C8.9204 32.2719 9.141 31.3383 9.15752 31.3417Z" fill="#717171"/>
<path d="M10.0464 31.5123C10.0629 31.5123 9.88245 32.3937 9.64415 33.4741C9.40586 34.5545 9.19823 35.429 9.18172 35.4256C9.1652 35.4222 9.34452 34.5431 9.58399 33.4627C9.82347 32.3823 10.0276 31.5089 10.0464 31.5123Z" fill="#717171"/>
<path d="M10.9567 31.5838C10.9732 31.5838 10.8057 32.4083 10.5827 33.4181C10.3597 34.428 10.1651 35.2445 10.1486 35.2377C10.1321 35.2309 10.2996 34.4132 10.5225 33.4033C10.7455 32.3935 10.9401 31.5803 10.9567 31.5838Z" fill="#717171"/>
<path d="M11.8516 31.725C11.8022 32.09 11.7325 32.4521 11.6428 32.8099C11.5738 33.1722 11.4844 33.5305 11.375 33.8835C11.4243 33.5185 11.4936 33.1564 11.5826 32.7985C11.6524 32.4363 11.7421 32.0779 11.8516 31.725Z" fill="#717171"/>
<path d="M41.2563 34.9843C41.2563 35.0013 35.3945 35.0138 28.1618 35.0138C20.9292 35.0138 15.0674 35.0013 15.0674 34.9843C15.0674 34.9672 20.928 34.9547 28.1618 34.9547C35.3956 34.9547 41.2563 34.9684 41.2563 34.9843Z" fill="#1A2A5A"/>
<path d="M40.7433 34.4137C40.7433 34.4296 35.1327 34.4433 28.2139 34.4433C21.2951 34.4433 15.6904 34.4296 15.6904 34.4137C15.6904 34.3978 21.2986 34.3842 28.2198 34.3842C35.141 34.3842 40.7433 34.3967 40.7433 34.4137Z" fill="#1A2A5A"/>
<path d="M39.9639 33.829C39.9639 33.8449 34.6553 33.8586 28.114 33.8586C21.5726 33.8586 16.2617 33.8449 16.2617 33.829C16.2617 33.8131 21.5703 33.7994 28.114 33.7994C34.6577 33.7994 39.9639 33.8119 39.9639 33.829Z" fill="#1A2A5A"/>
<path d="M39.4427 33.2445C39.4427 33.2605 34.389 33.2741 28.1556 33.2741C21.9221 33.2741 16.8672 33.2605 16.8672 33.2445C16.8672 33.2286 21.9209 33.215 28.1556 33.215C34.3902 33.215 39.4427 33.2275 39.4427 33.2445Z" fill="#1A2A5A"/>
<path d="M38.5764 32.6837C38.5764 32.7008 33.8907 32.7133 28.1114 32.7133C22.3322 32.7133 17.6465 32.7008 17.6465 32.6837C17.6465 32.6667 22.331 32.6542 28.1114 32.6542C33.8919 32.6542 38.5764 32.6712 38.5764 32.6837Z" fill="#1A2A5A"/>
<path d="M37.5956 32.131C37.5956 32.1469 33.3629 32.1606 28.1417 32.1606C22.9204 32.1606 18.6865 32.1469 18.6865 32.131C18.6865 32.1151 22.9192 32.1014 28.1417 32.1014C33.3641 32.1014 37.5956 32.1151 37.5956 32.131Z" fill="#1A2A5A"/>
<g opacity="0.3">
<path d="M30.1105 14.4061L8.18262 14.3743C8.51488 14.7094 8.91554 14.9746 9.35937 15.1531C9.8032 15.3316 10.2806 15.4196 10.7614 15.4114C12.2855 15.4023 27.1189 15.4114 29.7212 15.4114H30.1105C32.5147 15.4114 45.2777 15.4035 46.5966 15.4114C47.0146 15.4185 47.4287 15.3314 47.8057 15.157C48.1827 14.9827 48.5123 14.726 48.7683 14.4072L30.1105 14.4061Z" fill="#0C0C0C"/>
</g>
<path d="M48.8464 13.9556L44.6974 7.01837C44.6656 6.96511 44.6204 6.92042 44.566 6.88843C44.5116 6.85643 44.4497 6.83815 44.386 6.83528L30.1119 6.24618L28.7434 6.18932C28.5795 6.1825 28.4143 6.1825 28.2503 6.18932L26.8819 6.24618L12.6078 6.83528C12.5441 6.83825 12.4822 6.85658 12.4278 6.88856C12.3734 6.92055 12.3282 6.96518 12.2963 7.01837L8.14739 13.9556C8.11652 14.0071 8.0992 14.0652 8.09693 14.1247C8.09467 14.1842 8.10754 14.2433 8.13441 14.2969C8.16128 14.3505 8.20134 14.3969 8.2511 14.4322C8.30086 14.4674 8.3588 14.4904 8.41989 14.4992C8.47888 14.5083 8.53786 14.5162 8.60864 14.523C8.96962 14.5617 23.4502 14.5367 28.4981 14.523C33.5459 14.5333 48.0265 14.5583 48.3875 14.523C48.4547 14.5162 48.5172 14.5083 48.5762 14.5003C48.6371 14.4911 48.6948 14.4677 48.7443 14.4322C48.7937 14.3967 48.8334 14.3501 48.86 14.2965C48.8866 14.2429 48.8993 14.1838 48.8969 14.1244C48.8945 14.065 48.8772 14.007 48.8464 13.9556ZM46.9365 13.6644L28.4957 13.7838L10.0549 13.6644C9.98857 13.6641 9.92347 13.6469 9.86615 13.6147C9.80883 13.5825 9.7613 13.5363 9.72832 13.4808C9.69535 13.4253 9.67808 13.3624 9.67826 13.2984C9.67844 13.2344 9.69605 13.1716 9.72934 13.1163C10.5233 11.7902 12.5216 8.47063 12.8413 8.08738C13.4206 7.39253 22.3967 7.30155 27.1745 7.30155C27.2034 7.30844 27.2331 7.31188 27.2629 7.31178C27.5425 7.31178 27.9648 7.30609 28.4957 7.30496C29.0266 7.30382 29.4489 7.30496 29.7285 7.31178C29.7583 7.31188 29.788 7.30844 29.8169 7.30155C34.5923 7.30155 43.5708 7.39253 44.1501 8.08738C44.4698 8.47063 46.4681 11.7902 47.2621 13.1163C47.2953 13.1716 47.313 13.2344 47.3131 13.2984C47.3133 13.3624 47.2961 13.4253 47.2631 13.4808C47.2301 13.5363 47.1826 13.5825 47.1252 13.6147C47.0679 13.6469 47.0028 13.6641 46.9365 13.6644Z" fill="#1A2A5A"/>
<path d="M33.1777 13.28C33.1777 12.8854 33.3358 11.7664 33.7168 11.4684C34.0106 11.241 34.7054 11.1705 35.0487 11.1511H35.0806C35.2622 11.1511 36.4773 11.1852 36.8406 11.4696C37.204 11.7539 37.3798 12.8866 37.3798 13.2812V13.2937C37.3794 13.4117 37.3306 13.5248 37.2439 13.6082C37.1572 13.6915 37.0398 13.7384 36.9173 13.7384H33.6402C33.5177 13.7384 33.4003 13.6915 33.3136 13.6082C33.2269 13.5248 33.178 13.4117 33.1777 13.2937V13.28Z" fill="#1A2A5A"/>
<g opacity="0.3">
<path d="M33.1777 13.28C33.1777 12.8854 33.3358 11.7664 33.7168 11.4684C34.0106 11.241 34.7054 11.1705 35.0487 11.1511H35.0806C35.2622 11.1511 36.4773 11.1852 36.8406 11.4696C37.204 11.7539 37.3798 12.8866 37.3798 13.2812V13.2937C37.3794 13.4117 37.3306 13.5248 37.2439 13.6082C37.1572 13.6915 37.0398 13.7384 36.9173 13.7384H33.6402C33.5177 13.7384 33.4003 13.6915 33.3136 13.6082C33.2269 13.5248 33.178 13.4117 33.1777 13.2937V13.28Z" fill="#0C0C0C"/>
</g>
<path d="M34.833 12.9891C34.833 12.342 35.0925 10.5122 35.7142 10.0243C36.1955 9.64671 37.3328 9.53526 37.8943 9.50342H37.9474C38.2458 9.50342 40.2336 9.55801 40.8293 10.0254C41.4522 10.5133 41.7117 12.3431 41.7105 12.9902V13.0095C41.7105 13.2029 41.6309 13.3883 41.4891 13.525C41.3473 13.6617 41.1549 13.7385 40.9544 13.7385H35.5892C35.3886 13.7385 35.1963 13.6617 35.0545 13.525C34.9127 13.3883 34.833 13.2029 34.833 13.0095V12.9891Z" fill="#1A2A5A"/>
<g opacity="0.3">
<path d="M41.4076 31.9104C41.4076 31.9104 41.3191 32.4279 42.5755 34.1405C42.9589 34.6625 44.1775 35.7179 44.6328 36.1046C44.7436 36.1993 44.8884 36.2487 45.0363 36.2422C46.2997 36.1887 52.3987 35.9169 53.412 35.6303C53.7827 35.5306 54.1393 35.3874 54.4737 35.2039C54.6917 35.0781 54.8706 34.8982 54.9916 34.6829C55.1126 34.4676 55.1713 34.2249 55.1615 33.9802C55.1296 33.1352 55.0754 31.6488 55.0754 31.2599C55.0754 30.7061 54.6766 30.2364 53.9334 30.3285C53.4403 30.3854 41.4076 31.9104 41.4076 31.9104ZM45.3407 31.7967L53.2445 31.1052L53.4734 34.1758L47.6564 35.0856L45.3407 31.7967Z" fill="#0C0C0C"/>
</g>
<g opacity="0.3">
<path d="M54.8875 24.0249C54.8875 24.0249 55.4832 25.7694 51.7024 26.5814C47.8684 27.4037 42.1953 28.8934 42.1953 28.8934L45.2424 26.7998C45.2424 26.7998 54.0075 25.3896 54.2245 24.0977C54.4746 22.6193 54.2245 20.9578 54.2245 20.9578L54.8875 24.0249Z" fill="#0C0C0C"/>
</g>
<path d="M40.0967 31.8581C40.109 31.852 40.1221 31.8474 40.1356 31.8445L40.2536 31.8115L40.7101 31.6887C41.1088 31.5886 41.6857 31.443 42.4041 31.285C43.8398 30.9631 45.837 30.5776 48.056 30.2285C49.1661 30.0556 50.2242 29.8964 51.1904 29.7736L52.5624 29.5973C52.9596 29.5331 53.3617 29.5004 53.7645 29.4995C54.1002 29.4958 54.4292 29.5901 54.7082 29.7702C54.9143 29.9117 55.0884 30.0919 55.2202 30.3001C55.3051 30.4301 55.3673 30.5726 55.4042 30.722C55.4181 30.7738 55.4264 30.8267 55.429 30.8801C55.3931 30.6777 55.3153 30.4843 55.2001 30.3115C55.0667 30.109 54.8932 29.9339 54.6893 29.7963C54.413 29.6222 54.0886 29.5326 53.7586 29.5393C53.3579 29.5439 52.9583 29.5793 52.5635 29.6451L51.1987 29.8327C50.2325 29.9533 49.1743 30.1136 48.0654 30.2876C45.8476 30.6356 43.8504 31.0143 42.4136 31.3259C41.6951 31.4783 41.1159 31.617 40.716 31.7114L40.2571 31.8252L40.1391 31.8525C40.1253 31.8562 40.111 31.8581 40.0967 31.8581Z" fill="#1A2A5A"/>
<path d="M55.3685 27.3478C55.3641 27.3265 55.3621 27.3048 55.3626 27.283C55.3626 27.2341 55.3626 27.1693 55.3626 27.0965C55.3626 26.9271 55.352 26.6951 55.3437 26.4142C55.326 25.8364 55.2871 25.0392 55.2057 24.1613C55.1243 23.2833 55.0181 22.4907 54.9297 21.9186C54.886 21.6389 54.8494 21.4092 54.8235 21.242C54.8117 21.1662 54.8023 21.1047 54.7952 21.0577C54.7903 21.0365 54.7884 21.0147 54.7893 20.9929C54.7983 21.0128 54.8043 21.0339 54.807 21.0555L54.8471 21.2374C54.8801 21.3966 54.9238 21.6264 54.9733 21.9118C55.0724 22.4804 55.1857 23.2765 55.2671 24.1556C55.3485 25.0347 55.385 25.8353 55.385 26.4142C55.385 26.703 55.385 26.9373 55.385 27.0965C55.385 27.1727 55.385 27.2341 55.3791 27.283C55.3789 27.305 55.3753 27.3268 55.3685 27.3478Z" fill="#1A2A5A"/>
<path d="M52.7321 19.4918C52.7203 19.4918 52.7179 19.2939 52.6566 18.9789C52.571 18.5708 52.4607 18.1679 52.3262 17.7723C52.1752 17.306 52.0183 16.8897 51.9039 16.5884C51.8508 16.4474 51.8048 16.328 51.7694 16.2324C51.7502 16.1895 51.7352 16.145 51.7246 16.0994C51.7526 16.1375 51.7748 16.1792 51.7907 16.2233C51.8296 16.3052 51.8827 16.4246 51.9452 16.5736C52.0632 16.8716 52.233 17.2866 52.3852 17.7541C52.5208 18.152 52.6257 18.5591 52.699 18.972C52.7144 19.0516 52.7179 19.1244 52.7262 19.1881C52.7332 19.2424 52.7368 19.2971 52.7368 19.3519C52.7402 19.3985 52.7387 19.4454 52.7321 19.4918Z" fill="#1A2A5A"/>
<path d="M52.0246 20.2879C52.0246 20.2879 53.9982 19.5941 54.2506 21.0691C54.5031 22.5441 54.4771 24.0123 54.1456 24.5286C53.8142 25.0449 50.7635 25.7466 50.7635 25.7466L45.4939 26.8634C45.4939 26.8634 45.114 26.9396 45.3429 26.5222C45.5989 26.0582 46.9944 23.0912 47.8013 22.3702C49.2901 21.0407 52.0246 20.2879 52.0246 20.2879Z" fill="#F9F9F9"/>
<g opacity="0.3">
<path d="M50.0749 25.8911C50.0749 25.8911 50.0667 22.4146 50.3321 22.0245C50.5975 21.6344 53.7013 20.2527 53.7013 20.2527C53.7013 20.2527 53.3993 20.0047 52.7788 20.1185C51.9093 20.2806 51.0657 20.552 50.2696 20.9259C49.4119 21.3501 48.04 21.9574 47.528 22.6602C47.305 22.9695 46.8332 23.6996 46.3943 24.4957C45.8163 25.5249 45.2689 26.6246 45.2689 26.686C45.2689 26.8123 45.2382 26.9271 45.7502 26.8225C46.937 26.5735 50.0749 25.8911 50.0749 25.8911Z" fill="#0C0C0C"/>
</g>
<path d="M48.3589 25.577C49.0651 25.577 49.6376 25.0251 49.6376 24.3442C49.6376 23.6634 49.0651 23.1115 48.3589 23.1115C47.6526 23.1115 47.0801 23.6634 47.0801 24.3442C47.0801 25.0251 47.6526 25.577 48.3589 25.577Z" fill="#F9F9F9"/>
<path d="M47.0804 24.3445C47.0733 24.2425 47.0828 24.14 47.1087 24.0408C47.1755 23.7652 47.3394 23.5205 47.5724 23.3483C47.7445 23.2193 47.9478 23.1346 48.1632 23.102C48.3786 23.0694 48.599 23.0899 48.8039 23.1617C49.047 23.2465 49.2587 23.3983 49.4127 23.5984C49.5789 23.8142 49.6687 24.0758 49.6687 24.3445C49.6687 24.6132 49.5789 24.8748 49.4127 25.0905C49.3356 25.1929 49.242 25.2827 49.1354 25.3566C49.0348 25.4297 48.9229 25.4872 48.8039 25.5272C48.5845 25.6037 48.3477 25.6218 48.1186 25.5795C47.9195 25.5425 47.7324 25.4607 47.5724 25.3407C47.3394 25.1685 47.1755 24.9237 47.1087 24.6481C47.0828 24.549 47.0733 24.4465 47.0804 24.3445C47.0917 24.4447 47.109 24.5442 47.1323 24.6424C47.2075 24.9091 47.3738 25.1434 47.6042 25.3077C47.7597 25.4228 47.9412 25.5007 48.1339 25.5352C48.354 25.5737 48.5809 25.5549 48.791 25.4806C48.9042 25.4418 49.0105 25.3861 49.1059 25.3157C49.2076 25.2445 49.2968 25.1581 49.3702 25.0598C49.5273 24.8538 49.6121 24.6048 49.6121 24.349C49.6121 24.0933 49.5273 23.8443 49.3702 23.6383C49.2966 23.5398 49.2074 23.4531 49.1059 23.3812C49.0102 23.3115 48.904 23.2563 48.791 23.2175C48.5943 23.1479 48.3827 23.1269 48.1754 23.1563C47.9681 23.1857 47.7718 23.2646 47.6042 23.3858C47.3738 23.5501 47.2075 23.7845 47.1323 24.0511C47.1092 24.1478 47.0919 24.2458 47.0804 24.3445Z" fill="#1A2A5A"/>
<path d="M48.3592 24.2911C48.1365 24.2912 47.918 24.3489 47.7263 24.4581C47.5346 24.5673 47.3767 24.724 47.2692 24.912C47.165 24.7295 47.112 24.5239 47.1154 24.3157C47.1187 24.1074 47.1783 23.9035 47.2883 23.7242C47.3983 23.5449 47.5548 23.3963 47.7425 23.2931C47.9302 23.1899 48.1425 23.1356 48.3586 23.1356C48.5747 23.1356 48.787 23.1899 48.9747 23.2931C49.1624 23.3963 49.319 23.5449 49.4289 23.7242C49.5389 23.9035 49.5985 24.1074 49.6019 24.3157C49.6052 24.5239 49.5522 24.7295 49.4481 24.912C49.3409 24.724 49.1833 24.5671 48.9918 24.4579C48.8002 24.3487 48.5818 24.291 48.3592 24.2911Z" fill="#EDEDED"/>
<path d="M47.8086 24.3036C47.8086 24.4086 47.8409 24.5113 47.9014 24.5986C47.962 24.6859 48.048 24.754 48.1487 24.7942C48.2493 24.8344 48.3601 24.8449 48.467 24.8244C48.5738 24.8039 48.672 24.7534 48.7491 24.6791C48.8261 24.6048 48.8786 24.5102 48.8998 24.4072C48.9211 24.3041 48.9102 24.1974 48.8685 24.1003C48.8268 24.0033 48.7562 23.9203 48.6656 23.862C48.575 23.8036 48.4685 23.7725 48.3595 23.7725C48.2134 23.7725 48.0733 23.8284 47.97 23.928C47.8666 24.0276 47.8086 24.1627 47.8086 24.3036Z" fill="white"/>
<path d="M47.8087 24.3033C47.8087 24.3033 47.8087 24.2919 47.8087 24.2692C47.808 24.2363 47.8112 24.2035 47.8181 24.1713C47.8455 24.05 47.916 23.9418 48.0175 23.8654C48.0932 23.8079 48.1828 23.7699 48.2779 23.7548C48.373 23.7397 48.4705 23.748 48.5613 23.779C48.6736 23.8176 48.7708 23.8888 48.8395 23.9828C48.9082 24.0767 48.9451 24.1889 48.9451 24.3038C48.9451 24.4188 48.9082 24.5309 48.8395 24.6249C48.7708 24.7189 48.6736 24.79 48.5613 24.8287C48.4705 24.8598 48.373 24.8682 48.2779 24.8531C48.1827 24.838 48.0932 24.7998 48.0175 24.7422C47.916 24.6659 47.8455 24.5576 47.8181 24.4363C47.8111 24.4038 47.808 24.3706 47.8087 24.3374C47.8087 24.3158 47.8087 24.3033 47.8087 24.3033C47.8087 24.3033 47.8087 24.351 47.837 24.4306C47.8709 24.5422 47.9418 24.6401 48.0387 24.7093C48.1168 24.7655 48.2095 24.7996 48.3065 24.8079C48.4035 24.8162 48.501 24.7983 48.5881 24.7563C48.6752 24.7142 48.7484 24.6496 48.7996 24.5697C48.8508 24.4898 48.8779 24.3977 48.8779 24.3038C48.8779 24.2099 48.8508 24.1179 48.7996 24.038C48.7484 23.9581 48.6752 23.8935 48.5881 23.8514C48.501 23.8093 48.4035 23.7914 48.3065 23.7997C48.2095 23.808 48.1168 23.8422 48.0387 23.8984C47.9418 23.9676 47.8709 24.0654 47.837 24.177C47.8134 24.2566 47.8146 24.3044 47.8087 24.3033Z" fill="#1A2A5A"/>
<path d="M47.8772 23.472C47.856 23.4413 47.9398 23.3344 48.1427 23.2616C48.2773 23.2165 48.4202 23.1987 48.5623 23.2093C48.7045 23.2199 48.8428 23.2588 48.9686 23.3234C49.0945 23.388 49.2051 23.4769 49.2936 23.5847C49.382 23.6925 49.4465 23.8167 49.4828 23.9496C49.5323 24.1532 49.4828 24.2794 49.4497 24.2794C49.4167 24.2794 49.3683 24.1714 49.2799 24.0258C49.1773 23.8379 49.0185 23.6841 48.8242 23.5844C48.6298 23.4846 48.4088 23.4435 48.1898 23.4663C48.0141 23.472 47.8961 23.5072 47.8772 23.472Z" fill="white"/>
<path d="M47.5559 23.6653C47.4865 23.6186 47.4524 23.5515 47.4877 23.5163C47.523 23.481 47.5948 23.5163 47.6406 23.5857C47.6865 23.655 47.7124 23.7176 47.7018 23.7278C47.6912 23.7381 47.6265 23.7119 47.5559 23.6653Z" fill="white"/>
<path d="M28.2324 20.4675H28.2831H28.4306H29.0016L31.0967 20.455L38.012 20.439H41.82H44.2383C44.4769 20.4222 44.7135 20.4902 44.9037 20.6301L45.8132 21.3784L46.1848 21.6843C46.2918 21.7656 46.4151 21.8244 46.547 21.8572C46.6525 21.8832 46.7616 21.8928 46.8702 21.8856L47.1061 21.8788H47.2536H47.3055H47.2559L47.1073 21.8879L46.8714 21.8993C46.7611 21.909 46.6499 21.9013 46.5422 21.8765C46.4065 21.8445 46.2791 21.7857 46.1683 21.7036L45.792 21.4L44.8789 20.6597C44.6956 20.5275 44.4688 20.4641 44.2407 20.4811H43.4869H41.8259L38.0179 20.4879H31.0967L29.0016 20.4811L28.4306 20.4754H28.2831L28.2324 20.4675Z" fill="#1A2A5A"/>
<path d="M3.50498 36.6778C3.56868 36.5493 3.70316 36.4572 3.96977 36.4856C4.70707 36.5664 12.4352 36.7324 13.5004 36.4856C14.5657 36.2388 18.1141 32.3574 19.6159 32.0924C20.8758 31.8707 27.0019 31.7513 28.9448 31.8059C30.8877 31.7524 37.0126 31.8707 38.2725 32.0924C39.7743 32.3574 43.2697 36.6187 44.3349 36.8689C45.4002 37.1191 53.1825 36.5698 53.9198 36.489C54.1864 36.4606 54.3209 36.5527 54.3834 36.6812C54.412 36.7441 54.424 36.8128 54.4184 36.8812C54.4128 36.9496 54.3898 37.0157 54.3514 37.0735C54.313 37.1313 54.2604 37.1791 54.1983 37.2126C54.1362 37.2462 54.0665 37.2644 53.9953 37.2658C52.3438 37.3101 45.9924 37.3795 44.8032 37.3602L28.6546 37.0758C25.4305 37.0952 14.4147 37.1634 13.248 37.1793C11.8725 37.1975 5.53993 37.3101 3.89427 37.2658C3.82264 37.2646 3.75244 37.2463 3.68992 37.2125C3.6274 37.1788 3.57451 37.1307 3.53596 37.0725C3.49742 37.0143 3.47442 36.9478 3.46901 36.8789C3.46361 36.81 3.47596 36.741 3.50498 36.6778Z" fill="#1A2A5A"/>
<path d="M31.1124 6.7013C31.0487 6.7013 31.1006 7.77144 30.2052 7.75097C29.3098 7.7305 27.6217 7.75097 27.6217 7.75097L26.8809 6.41357L31.1124 6.7013Z" fill="#1A2A5A"/>
<path d="M30.7155 8.11926C30.7769 8.11935 30.8375 8.13339 30.8922 8.16027C30.9469 8.18714 30.9943 8.22608 31.0305 8.27393C31.244 8.55369 31.6699 9.13596 31.6817 9.31792C31.6897 9.37329 31.6861 9.42967 31.6709 9.48365C31.6558 9.53763 31.6294 9.58809 31.5935 9.63198C31.5576 9.67588 31.5128 9.71229 31.4618 9.73904C31.4109 9.76579 31.3548 9.7823 31.2971 9.7876C31.0505 9.81717 26.3259 9.7876 25.8375 9.7876C25.8073 9.78763 25.7772 9.7842 25.7479 9.77736C25.6181 9.74666 25.2831 9.64431 25.309 9.42368C25.3315 9.22353 25.696 8.61169 25.8859 8.30236C25.9208 8.24644 25.9701 8.20018 26.029 8.16809C26.0879 8.136 26.1544 8.11918 26.2221 8.11926H30.7155Z" fill="#1A2A5A"/>
<path d="M45.1621 6.41357C45.169 6.42082 45.1749 6.42884 45.1798 6.43746L45.2246 6.51024L45.3945 6.79341L46.0068 7.8374L48.0063 11.2946C48.6375 12.3943 49.2202 13.4099 49.6838 14.2196L49.6767 14.2117L51.0169 15.2352L51.3837 15.5183L51.4793 15.5934C51.49 15.6024 51.5003 15.6119 51.51 15.6218C51.4972 15.6158 51.4853 15.6082 51.4746 15.5991L51.3743 15.5297L50.9992 15.2556L49.6473 14.2537L47.9603 11.3344L45.969 7.85787C45.7189 7.41662 45.516 7.0618 45.3733 6.80365L45.214 6.51593L45.1739 6.44087C45.1686 6.43238 45.1646 6.42318 45.1621 6.41357Z" fill="#1A2A5A"/>
<path d="M42.9863 5.77332C43.0913 5.78399 43.1944 5.80769 43.293 5.84383C43.7904 5.98144 44.2179 6.29071 44.494 6.71268C44.5568 6.79417 44.6091 6.88277 44.6497 6.97652C44.5801 6.90103 44.5162 6.82084 44.4586 6.73656C44.17 6.33805 43.7565 6.03913 43.2789 5.88363C43.1786 5.85402 43.0808 5.81714 42.9863 5.77332Z" fill="#1A2A5A"/>
<g opacity="0.3">
<path d="M49.6521 14.2389L49.77 14.314C49.816 14.2594 47.045 19.8591 45.7402 21.3364L44.8838 20.6347C46.7276 18.9084 48.1102 16.2257 49.6521 14.2389Z" fill="#0C0C0C"/>
</g>
<path d="M44.1552 36.2514C44.1307 36.2488 44.1072 36.2406 44.0867 36.2275C44.0248 36.194 43.9657 36.1559 43.9098 36.1138C43.7588 36.0057 43.5476 35.8329 43.281 35.6043C42.749 35.1494 41.9999 34.467 41.0986 33.5948C40.8733 33.3764 40.6397 33.1478 40.3991 32.9056C40.1589 32.6466 39.9037 32.4009 39.6346 32.1698C39.3337 31.9384 38.9953 31.7563 38.6331 31.6307C38.2483 31.4994 37.8466 31.4198 37.4392 31.3942C37.2292 31.3794 37.0181 31.3794 36.8022 31.3771H36.1475L34.7979 31.3658L31.9608 31.3408L22.0031 31.2441L18.9855 31.2054L18.1597 31.1918H17.9462H17.873C17.873 31.1918 17.8978 31.1918 17.9462 31.1918H18.9796L21.9972 31.21L31.9549 31.2884L34.7932 31.3146L36.1416 31.3271L36.8069 31.3191C37.0216 31.3191 37.2363 31.3191 37.4475 31.3373C37.8601 31.3643 38.267 31.4458 38.6567 31.5796C39.0238 31.7079 39.3665 31.8934 39.6712 32.1289C39.9411 32.3623 40.1971 32.6102 40.438 32.8715C40.6739 33.1137 40.9099 33.3446 41.134 33.5629C42.0305 34.4352 42.7761 35.1221 43.3022 35.5849C43.5653 35.8124 43.7741 35.9909 43.9216 36.1024C43.9768 36.1455 44.0347 36.1854 44.095 36.2218C44.1142 36.2331 44.1344 36.243 44.1552 36.2514Z" fill="#1A2A5A"/>
<g opacity="0.3">
<path d="M50.5106 29.4698C50.8614 29.1089 51.2523 28.7863 51.6762 28.5077C52.1091 28.2427 52.7308 27.939 53.1236 28.1801C53.3224 28.3894 53.482 28.6303 53.5955 28.892C53.6206 28.9341 53.6361 28.9807 53.6409 29.029C53.6458 29.0772 53.64 29.1259 53.6238 29.1718C53.5684 29.2798 53.4256 29.3083 53.3018 29.3231L50.5885 29.6506C50.5354 29.6574 50.4705 29.6574 50.4446 29.6131C50.4186 29.5687 50.4694 29.5084 50.5106 29.4698Z" fill="white"/>
</g>
<path d="M51.1988 36.8916V36.8995C51.1848 36.9456 51.1818 36.9942 51.1902 37.0415C51.1986 37.0889 51.2181 37.1337 51.2473 37.1727C51.2764 37.2116 51.3144 37.2436 51.3584 37.2663C51.4023 37.2889 51.451 37.3015 51.5008 37.3032L53.4615 37.2714C53.5389 37.2623 53.6109 37.228 53.6655 37.1743C53.7202 37.1206 53.7543 37.0506 53.7623 36.9757L53.7753 36.8699C53.7784 36.8244 53.7714 36.7787 53.7547 36.7359C53.738 36.6931 53.7121 36.6543 53.6785 36.622C53.645 36.5897 53.6048 36.5647 53.5604 36.5486C53.516 36.5325 53.4686 36.5258 53.4214 36.5288L51.4808 36.6641C51.4154 36.6701 51.3535 36.695 51.3032 36.7356C51.2528 36.7762 51.2164 36.8306 51.1988 36.8916Z" fill="white"/>
<path d="M14.6191 35.7928C14.6191 35.7757 20.9422 35.7632 28.7399 35.7632C36.5376 35.7632 42.8619 35.7757 42.8619 35.7928C42.8619 35.8098 36.54 35.8223 28.7399 35.8223C20.9399 35.8223 14.6191 35.8087 14.6191 35.7928Z" fill="#717171"/>
<path d="M36.6367 36.7848H37.4649L37.5227 35.7931H36.5742L36.6367 36.7848Z" fill="#717171"/>
<path d="M28.8897 36.7848H29.7178L29.7756 35.7931H28.8271L28.8897 36.7848Z" fill="#717171"/>
<path d="M21.1426 36.7848H21.9707L22.0297 35.7931H21.0801L21.1426 36.7848Z" fill="#717171"/>
<path d="M15.0566 35.4337C16.5548 34.1895 18.5721 32.2755 19.6114 32.0924C20.8713 31.8707 26.9974 31.7513 28.9403 31.8059C30.8821 31.7524 37.0081 31.8707 38.268 32.0924C39.2342 32.263 41.0261 34.0883 42.4642 35.4337H15.0566Z" fill="#717171"/>
<path d="M54.9251 34.7819C54.9007 34.7664 54.8775 34.7493 54.8555 34.7307L54.6526 34.5818L53.9023 34.0131H53.9176L49.8466 34.5158L47.6205 34.783H47.63L45.6245 35.8225L45.0512 36.1136L44.899 36.1887C44.8818 36.1983 44.8636 36.2063 44.8447 36.2126C44.86 36.2002 44.8766 36.1896 44.8943 36.1807L45.0429 36.0988L45.608 35.7941L47.6028 34.7353L49.8277 34.4635L53.9117 33.9858H53.9212H53.9271L54.6667 34.5647L54.8555 34.7307C54.8803 34.7457 54.9036 34.7628 54.9251 34.7819Z" fill="#1A2A5A"/>
<path d="M44.8433 32.6112C44.8433 32.6112 44.4422 31.9584 44.8433 31.7935C45.3034 31.6036 52.9831 30.7154 53.2981 30.6893C53.9209 30.6358 54.1463 30.9076 54.2925 31.6127C54.4388 32.3178 54.7644 34.0669 54.1463 34.5752C53.5281 35.0836 52.5655 35.3088 50.6638 35.4213C48.7622 35.5339 47.7607 35.5965 46.824 35.0881C45.8873 34.5798 44.8433 32.6112 44.8433 32.6112Z" fill="#1A2A5A"/>
<path d="M45.2364 26.7999C45.2175 26.792 45.2883 26.5839 45.4417 26.2188C45.595 25.8537 45.8298 25.3318 46.1495 24.6983C46.3134 24.3822 46.4939 24.0376 46.7086 23.6748C46.9325 23.285 47.1835 22.9104 47.4601 22.5535C47.6157 22.3564 47.792 22.1754 47.9862 22.0133C48.1887 21.8473 48.4062 21.6993 48.6362 21.5709C48.8722 21.4401 49.1081 21.3218 49.344 21.1979C49.58 21.0739 49.8277 20.9511 50.079 20.8317C50.5696 20.5936 51.0788 20.3928 51.6019 20.2312C51.8525 20.1569 52.1069 20.095 52.364 20.0458C52.6165 19.9899 52.8754 19.9651 53.1343 19.9719C53.3976 19.9783 53.653 20.0598 53.8681 20.2062C54.0617 20.3533 54.2077 20.5506 54.2893 20.7748C54.3609 20.969 54.415 21.1687 54.4509 21.3719C54.4874 21.5595 54.5228 21.7403 54.557 21.9132C54.6986 22.6012 54.8048 23.1642 54.8638 23.552C54.9227 23.9398 54.9357 24.1604 54.9157 24.1638C54.8956 24.1672 54.8402 23.9557 54.7458 23.5736L54.3447 21.9564C54.3022 21.787 54.2609 21.6039 54.2185 21.4185C54.1793 21.2297 54.1237 21.0444 54.0521 20.8647C53.9881 20.6774 53.8627 20.5153 53.6949 20.4027C53.527 20.2901 53.3257 20.2331 53.1214 20.2403C52.8861 20.2382 52.6515 20.2646 52.423 20.3188C52.1761 20.3687 51.932 20.4306 51.6916 20.5042C51.1846 20.6644 50.6909 20.8613 50.2146 21.0932C49.9681 21.207 49.7251 21.3321 49.4868 21.4538C49.2485 21.5754 49.0149 21.6937 48.7896 21.8177C48.5729 21.9359 48.3676 22.0725 48.1762 22.2259C47.9952 22.373 47.8303 22.5377 47.6842 22.7172C47.4095 23.0607 47.1573 23.4204 46.9292 23.7942C46.7086 24.1445 46.5187 24.4765 46.3394 24.7882C45.9961 25.4045 45.7319 25.9117 45.5455 26.2609C45.3591 26.61 45.2553 26.8079 45.2364 26.7999Z" fill="#1A2A5A"/>
<path d="M52.1681 23.0718C51.884 23.0723 51.6054 23.1465 51.3613 23.2865C51.1172 23.4266 50.9167 23.6274 50.7808 23.8679C50.6483 23.6355 50.5808 23.3738 50.5852 23.1087C50.5895 22.8435 50.6654 22.584 50.8054 22.3557C50.9455 22.1275 51.1448 21.9383 51.3837 21.8069C51.6227 21.6755 51.893 21.6064 52.1681 21.6064C52.4432 21.6064 52.7135 21.6755 52.9525 21.8069C53.1914 21.9383 53.3907 22.1275 53.5308 22.3557C53.6708 22.584 53.7467 22.8435 53.751 23.1087C53.7554 23.3738 53.6879 23.6355 53.5554 23.8679C53.4195 23.6274 53.219 23.4266 52.9749 23.2865C52.7308 23.1465 52.4521 23.0723 52.1681 23.0718Z" fill="#EDEDED"/>
<path d="M51.4863 23.0786C51.4863 23.2086 51.5263 23.3357 51.6012 23.4438C51.6762 23.5519 51.7827 23.6361 51.9073 23.6859C52.0318 23.7356 52.1689 23.7487 52.3012 23.7233C52.4335 23.6979 52.555 23.6353 52.6503 23.5434C52.7457 23.4515 52.8106 23.3343 52.8369 23.2068C52.8632 23.0793 52.8497 22.9472 52.7981 22.827C52.7465 22.7069 52.6591 22.6043 52.547 22.532C52.4349 22.4598 52.303 22.4213 52.1682 22.4213C51.9873 22.4213 51.8139 22.4905 51.686 22.6138C51.5582 22.7371 51.4863 22.9043 51.4863 23.0786Z" fill="white"/>
<path d="M51.4864 23.0787C51.4864 23.0787 51.4864 23.0639 51.4864 23.0366C51.486 22.9957 51.4907 22.9548 51.5005 22.9149C51.5342 22.7657 51.6215 22.6328 51.7471 22.5396C51.8824 22.4414 52.0499 22.3933 52.2189 22.4039C52.388 22.4146 52.5475 22.4834 52.6684 22.5977C52.7894 22.7121 52.8637 22.8645 52.878 23.0273C52.8923 23.1901 52.8455 23.3523 52.7463 23.4847C52.6635 23.5947 52.5478 23.6776 52.4148 23.7224C52.3034 23.7609 52.1837 23.7715 52.0669 23.7532C51.9501 23.7349 51.8401 23.6883 51.7471 23.6178C51.6215 23.5246 51.5342 23.3917 51.5005 23.2425C51.4907 23.2026 51.4859 23.1617 51.4864 23.1208C51.4864 23.0935 51.4864 23.0787 51.4864 23.0787C51.4864 23.0787 51.4864 23.1378 51.5194 23.2368C51.5599 23.3762 51.6475 23.4987 51.7683 23.5848C51.8658 23.6552 51.9816 23.698 52.1029 23.7085C52.2242 23.719 52.3461 23.6967 52.455 23.6442C52.5639 23.5916 52.6555 23.5109 52.7195 23.411C52.7835 23.3112 52.8174 23.1961 52.8174 23.0787C52.8174 22.9613 52.7835 22.8462 52.7195 22.7464C52.6555 22.6465 52.5639 22.5658 52.455 22.5132C52.3461 22.4607 52.2242 22.4384 52.1029 22.4489C51.9816 22.4594 51.8658 22.5022 51.7683 22.5726C51.6475 22.6587 51.5599 22.7812 51.5194 22.9206C51.4899 23.0173 51.4923 23.0787 51.4864 23.0787Z" fill="#1A2A5A"/>
<path d="M50.5852 23.1307C50.5823 23.0982 50.5823 23.0655 50.5852 23.0329C50.585 22.9948 50.5882 22.9568 50.5946 22.9192C50.601 22.8656 50.6108 22.8124 50.6241 22.76C50.6961 22.4735 50.8521 22.213 51.0734 22.0096C51.2947 21.8061 51.5719 21.6683 51.8722 21.6125C52.155 21.5606 52.447 21.5826 52.718 21.6762C52.8645 21.7256 53.0022 21.7965 53.1262 21.8866C53.2575 21.9785 53.373 22.0898 53.4683 22.2164C53.6729 22.4822 53.7833 22.8043 53.7833 23.1353C53.7833 23.4662 53.6729 23.7884 53.4683 24.0542C53.2798 24.3024 53.0184 24.4905 52.718 24.5944C52.4654 24.6828 52.1937 24.7082 51.9281 24.6685C51.6625 24.6287 51.4116 24.525 51.1986 24.3669C50.9108 24.1544 50.7079 23.8528 50.6241 23.5128C50.6108 23.4604 50.601 23.4072 50.5946 23.3536C50.5882 23.316 50.585 23.278 50.5852 23.2399C50.5823 23.2074 50.5823 23.1746 50.5852 23.1421C50.5972 23.2665 50.6177 23.3899 50.6465 23.5117C50.7369 23.842 50.9401 24.1332 51.2234 24.3385C51.4312 24.4898 51.6751 24.5885 51.9327 24.6254C52.1903 24.6624 52.4534 24.6364 52.698 24.55C52.839 24.5016 52.9715 24.4325 53.0908 24.3453C53.2174 24.2571 53.3282 24.1496 53.4188 24.0269C53.6149 23.7707 53.7208 23.4606 53.7208 23.1421C53.7208 22.8236 53.6149 22.5135 53.4188 22.2573C53.3279 22.1349 53.2172 22.0273 53.0908 21.9389C52.9712 21.8521 52.8388 21.7831 52.698 21.7342C52.4363 21.6429 52.1543 21.6198 51.8805 21.6671C51.6418 21.7091 51.4167 21.8045 51.2234 21.9457C50.9404 22.1512 50.7373 22.4424 50.6465 22.7725C50.6183 22.8906 50.5978 23.0102 50.5852 23.1307Z" fill="#1A2A5A"/>
<path d="M51.571 22.0461C51.5497 22.0154 51.6571 21.8926 51.9048 21.8096C52.0688 21.7576 52.2419 21.7382 52.4139 21.7525C52.5858 21.7667 52.753 21.8144 52.9053 21.8926C53.0577 21.9708 53.192 22.0779 53.3002 22.2075C53.4085 22.3371 53.4884 22.4865 53.5352 22.6466C53.6012 22.8911 53.5564 23.0458 53.5175 23.0458C53.4785 23.0458 53.4372 22.9104 53.3323 22.7228C53.2083 22.4801 53.0084 22.281 52.7607 22.1539C52.513 22.0267 52.2301 21.9779 51.952 22.0143C51.7326 22.0348 51.5934 22.0837 51.571 22.0461Z" fill="white"/>
<path d="M51.1736 22.2882C51.1042 22.2415 51.0747 22.1665 51.1147 22.1289C51.1547 22.0914 51.2324 22.121 51.2782 22.1904C51.3241 22.2597 51.3453 22.3246 51.3288 22.3405C51.3124 22.3564 51.2441 22.3348 51.1736 22.2882Z" fill="white"/>
<path d="M42.1896 28.8931C42.1684 28.8135 44.2517 28.2381 46.8423 27.6069C49.4329 26.9758 51.5504 26.5288 51.5716 26.6084C51.5928 26.688 49.5084 27.2635 46.9178 27.8946C44.3272 28.5258 42.2108 28.9728 42.1896 28.8931Z" fill="#1A2A5A"/>
<path d="M54.6695 20.5415C54.6656 20.53 54.6629 20.5182 54.6612 20.5062C54.6612 20.4835 54.6494 20.4505 54.6376 20.4061C54.6026 20.2789 54.5507 20.1566 54.4831 20.0422C54.3752 19.8625 54.2212 19.7126 54.036 19.6067C53.9829 19.5748 53.918 19.5532 53.8614 19.5248C53.7963 19.503 53.7302 19.4844 53.6632 19.469C53.5922 19.4531 53.52 19.4424 53.4473 19.4372C53.3708 19.4316 53.2938 19.4316 53.2173 19.4372C52.8722 19.4744 52.5311 19.5406 52.198 19.6351C51.8359 19.7306 51.4548 19.8489 51.0561 19.9831C50.2598 20.2526 49.3928 20.5756 48.5104 20.9702C48.4006 21.0214 48.2921 21.0726 48.1871 21.1271C48.0841 21.1822 47.9862 21.2458 47.8946 21.3171C47.7131 21.4564 47.5477 21.6143 47.4015 21.7879C47.1325 22.1416 46.8859 22.5009 46.65 22.8376C46.1781 23.5131 45.7723 24.1329 45.442 24.6572C45.1117 25.1814 44.8522 25.6181 44.6811 25.9184L44.4794 26.2595L44.4263 26.3494C44.4208 26.3599 44.414 26.3698 44.4062 26.3789C44.4099 26.3674 44.415 26.3563 44.4216 26.346C44.4334 26.3221 44.4487 26.2914 44.4688 26.2538C44.5112 26.1731 44.5749 26.0537 44.6599 25.9024C44.8286 25.5988 45.0787 25.1621 45.4043 24.631C45.7299 24.0999 46.1345 23.4778 46.6028 22.8C46.8388 22.4589 47.0747 22.1063 47.3543 21.7447C47.5031 21.5675 47.6716 21.4065 47.8568 21.2648C47.9509 21.1908 48.0516 21.125 48.1576 21.068C48.2638 21.0123 48.3735 20.9611 48.4832 20.9099C49.3703 20.5142 50.2386 20.1923 51.0372 19.9239C51.4371 19.792 51.8205 19.6749 52.1851 19.5828C52.5214 19.4893 52.8656 19.4246 53.2137 19.3894C53.2923 19.3832 53.3712 19.3832 53.4497 19.3894C53.5247 19.3959 53.5992 19.4073 53.6726 19.4236C53.7434 19.4372 53.8095 19.4656 53.8744 19.4838C53.9354 19.5094 53.9948 19.5383 54.0525 19.5703C54.2417 19.6813 54.3974 19.8382 54.5043 20.0252C54.5703 20.1425 54.6191 20.268 54.6494 20.3982C54.6577 20.4319 54.6636 20.4661 54.6671 20.5005C54.6707 20.5139 54.6715 20.5278 54.6695 20.5415Z" fill="#1A2A5A"/>
<g opacity="0.3">
<path d="M55.1602 21.1853C55.2781 21.2228 55.9175 21.6072 56.1888 21.7539C56.3281 21.822 56.4519 21.9161 56.5532 22.0307C56.6544 22.1453 56.7311 22.2781 56.7787 22.4215C56.8565 22.7115 56.7704 23.0151 56.6855 23.3017C56.4059 24.2399 56.0815 25.9265 55.8019 26.8647C55.5837 25.1588 55.3454 22.2657 55.1625 21.1853" fill="white"/>
</g>
<path d="M46.375 34.6818C46.375 34.6659 48.1929 34.41 50.4402 34.1132C52.6875 33.8164 54.5124 33.5832 54.5148 33.5992C54.5172 33.6151 52.6969 33.8721 50.4484 34.1678C48.2 34.4635 46.3774 34.6989 46.375 34.6818Z" fill="#717171"/>
<path d="M46.9521 35.1119C46.9767 35.1043 47.002 35.099 47.0276 35.0959L47.2447 35.0618C47.4335 35.0334 47.7071 34.9947 48.0445 34.9481C48.7217 34.8571 49.6583 34.7434 50.6929 34.6251L53.3425 34.3203L54.1458 34.2271L54.3641 34.2043C54.3896 34.2026 54.4152 34.2026 54.4408 34.2043C54.4169 34.2129 54.3919 34.2183 54.3664 34.2203L54.1494 34.2544C53.9606 34.2839 53.6869 34.3215 53.3484 34.3681C52.6712 34.4579 51.7358 34.5717 50.7 34.6899L48.0504 34.9947L47.2471 35.088L47.0288 35.1119C47.0034 35.1149 46.9776 35.1149 46.9521 35.1119Z" fill="#717171"/>
<path d="M48.2319 35.4335C48.2248 35.4335 48.3038 35.4221 48.4371 35.4062L49.0069 35.3368L50.8873 35.1185L52.7748 34.9126L53.347 34.8569C53.4169 34.8468 53.4875 34.8426 53.5581 34.8444C53.4898 34.8605 53.4204 34.8723 53.3505 34.8796L52.7819 34.9547C52.3006 35.015 51.6353 35.0934 50.8944 35.1765C50.1536 35.2595 49.4941 35.3311 49.0069 35.3778C48.7502 35.4131 48.4912 35.4317 48.2319 35.4335Z" fill="#717171"/>
<path d="M45.9492 34.193C45.9492 34.1759 47.8627 33.92 50.2279 33.6244C52.5932 33.3287 54.5137 33.0944 54.5161 33.1115C54.5184 33.1285 52.6026 33.3833 50.2362 33.6801C47.8697 33.9769 45.9516 34.2089 45.9492 34.193Z" fill="#717171"/>
<path d="M45.6172 33.7379C45.6172 33.722 47.5979 33.457 50.0469 33.1465C52.4959 32.8361 54.4837 32.5973 54.486 32.6132C54.4884 32.6291 52.5042 32.8941 50.0551 33.2057C47.6061 33.5173 45.6184 33.7538 45.6172 33.7379Z" fill="#717171"/>
<path d="M45.2432 33.2011C45.2432 33.1852 47.2805 32.9122 49.7979 32.5938C52.3153 32.2754 54.3597 32.0252 54.3621 32.0445C54.3645 32.0638 52.3248 32.3334 49.8062 32.6518C47.2875 32.9702 45.2455 33.217 45.2432 33.2011Z" fill="#717171"/>
<path d="M44.9561 32.653C44.9561 32.6359 47.0299 32.3596 49.5922 32.0355C52.1545 31.7113 54.2342 31.46 54.2366 31.4759C54.239 31.4919 52.1627 31.7693 49.6005 32.0935C47.0382 32.4176 44.9584 32.6689 44.9561 32.653Z" fill="#717171"/>
<path d="M44.666 32.105C44.666 32.0891 46.7564 31.8105 49.3399 31.4829C51.9234 31.1554 54.0197 30.9029 54.0221 30.9143C54.0244 30.9257 51.9317 31.2089 49.3482 31.5364C46.7647 31.8639 44.6684 32.1209 44.666 32.105Z" fill="#717171"/>
<path d="M51.4349 30.855C51.4515 30.855 51.6827 31.8307 51.9493 33.0419C52.2159 34.2531 52.4211 35.2379 52.4046 35.2413C52.3881 35.2447 52.1569 34.2656 51.8891 33.0544C51.6213 31.8432 51.4149 30.8641 51.4349 30.855Z" fill="#717171"/>
<path d="M52.2041 30.7302C52.2206 30.7302 52.4506 31.706 52.7184 32.9171C52.9862 34.1283 53.1903 35.1143 53.1726 35.1177C53.1549 35.1211 52.926 34.142 52.6582 32.9297C52.3905 31.7174 52.1876 30.7336 52.2041 30.7302Z" fill="#717171"/>
<path d="M52.9766 30.606C52.9931 30.606 53.2125 31.5283 53.465 32.6746C53.7174 33.8209 53.9097 34.7523 53.8932 34.7558C53.8767 34.7592 53.6573 33.8335 53.4048 32.6871C53.1523 31.5408 52.9601 30.6094 52.9766 30.606Z" fill="#717171"/>
<path d="M53.8125 30.7755C53.8309 30.8139 53.844 30.8544 53.8514 30.8961C53.8727 30.9745 53.901 31.0883 53.9328 31.2304C53.9989 31.5124 54.0803 31.9059 54.1582 32.3415C54.236 32.7771 54.3103 33.1569 54.3658 33.456C54.3905 33.5879 54.4118 33.7005 54.4283 33.7972C54.4393 33.838 54.4444 33.8801 54.4436 33.9223C54.4261 33.8837 54.4134 33.8432 54.4059 33.8017C54.3846 33.7232 54.3563 33.6084 54.3233 33.4674C54.2584 33.1842 54.177 32.7907 54.098 32.3551C54.0189 31.9196 53.9458 31.5409 53.8904 31.2418C53.8656 31.1087 53.8455 30.9961 53.8278 30.9006C53.8176 30.8596 53.8125 30.8176 53.8125 30.7755Z" fill="#717171"/>
<path d="M50.5391 31.0088C50.5556 31.0088 50.775 31.9504 51.0369 33.1184C51.2988 34.2863 51.4911 35.2382 51.4734 35.2416C51.4557 35.245 51.2374 34.3 50.9767 33.1309C50.716 31.9618 50.5226 31.0122 50.5391 31.0088Z" fill="#717171"/>
<path d="M49.6514 31.1814C49.6679 31.1814 49.8873 32.1253 50.1504 33.2978C50.4135 34.4703 50.6057 35.4222 50.5892 35.4256C50.5727 35.429 50.3533 34.4817 50.0902 33.3092C49.8271 32.1367 49.6349 31.1848 49.6514 31.1814Z" fill="#717171"/>
<path d="M48.7351 31.228C48.7516 31.228 48.9711 32.164 49.2294 33.3251C49.4878 34.4862 49.68 35.4313 49.6635 35.4347C49.647 35.4381 49.4276 34.4999 49.1692 33.3376C48.9109 32.1753 48.721 31.2314 48.7351 31.228Z" fill="#717171"/>
<path d="M47.834 31.3417C47.8505 31.3417 48.0699 32.2731 48.3259 33.4274C48.5819 34.5817 48.7742 35.5222 48.7577 35.5256C48.7412 35.529 48.5218 34.5953 48.2658 33.4399C48.0098 32.2844 47.8175 31.3451 47.834 31.3417Z" fill="#717171"/>
<path d="M46.9522 31.5123C46.9687 31.5123 47.1752 32.3812 47.4135 33.4627C47.6518 34.5442 47.8323 35.4222 47.8158 35.4256C47.7992 35.429 47.5928 34.5556 47.3533 33.4741C47.1138 32.3926 46.9286 31.5157 46.9522 31.5123Z" fill="#717171"/>
<path d="M46.0353 31.5842C46.0518 31.5842 46.2465 32.3974 46.4694 33.4038C46.6924 34.4103 46.8599 35.2348 46.8434 35.2382C46.8269 35.2416 46.6322 34.4262 46.4093 33.4186C46.1863 32.411 46.0188 31.5876 46.0353 31.5842Z" fill="#717171"/>
<path d="M45.1396 31.725C45.2491 32.0779 45.3389 32.4363 45.4086 32.7985C45.4976 33.1564 45.567 33.5185 45.6162 33.8835C45.5069 33.5305 45.4175 33.1722 45.3485 32.8099C45.2587 32.4521 45.189 32.09 45.1396 31.725Z" fill="#717171"/>
<path d="M15.7354 34.9843C15.7354 34.9684 21.5972 34.9547 28.8298 34.9547C36.0624 34.9547 41.9243 34.9684 41.9243 34.9843C41.9243 35.0002 36.0636 35.0138 28.8298 35.0138C21.596 35.0138 15.7354 35.0013 15.7354 34.9843Z" fill="#1A2A5A"/>
<path d="M16.248 34.4137C16.248 34.3967 21.8586 34.3842 28.7774 34.3842C35.6963 34.3842 41.3068 34.3967 41.3068 34.4137C41.3068 34.4308 35.6986 34.4433 28.7774 34.4433C21.8562 34.4433 16.248 34.4296 16.248 34.4137Z" fill="#1A2A5A"/>
<path d="M17.0283 33.829C17.0283 33.8119 22.3369 33.7994 28.8794 33.7994C35.4219 33.7994 40.7305 33.8119 40.7305 33.829C40.7305 33.8461 35.4219 33.8586 28.8794 33.8586C22.3369 33.8586 17.0283 33.8449 17.0283 33.829Z" fill="#1A2A5A"/>
<path d="M17.5488 33.2445C17.5488 33.2275 22.6026 33.215 28.836 33.215C35.0694 33.215 40.1244 33.2275 40.1244 33.2445C40.1244 33.2616 35.0718 33.2741 28.836 33.2741C22.6002 33.2741 17.5488 33.2605 17.5488 33.2445Z" fill="#1A2A5A"/>
<path d="M18.4141 32.6837C18.4141 32.6678 23.0998 32.6542 28.879 32.6542C34.6583 32.6542 39.344 32.6678 39.344 32.6837C39.344 32.6997 34.6594 32.7133 28.879 32.7133C23.0986 32.7133 18.4141 32.7042 18.4141 32.6837Z" fill="#1A2A5A"/>
<path d="M19.3955 32.131C19.3955 32.1151 23.6282 32.1014 28.8495 32.1014C34.0707 32.1014 38.3046 32.1151 38.3046 32.131C38.3046 32.1469 34.0719 32.1606 28.8495 32.1606C23.627 32.1606 19.3955 32.1469 19.3955 32.131Z" fill="#1A2A5A"/>
<path d="M28.6471 7.66003H28.3271V8.21615H28.6471V7.66003Z" fill="#1A2A5A"/>
<g opacity="0.3">
<path d="M10.5713 18.0863C10.5713 18.0863 11.1505 17.8964 11.0361 17.479C12.2567 18.0939 13.6168 18.4065 14.9939 18.3888C17.2742 18.3558 25.6311 18.8437 25.6311 18.8437L26.589 20.1197C26.589 20.1197 12.4387 19.8104 11.9149 20.1402L10.5713 18.0863Z" fill="white"/>
</g>
<g opacity="0.3">
<path d="M5.26251 19.1007C5.14454 19.1007 8.86761 20.3346 9.3501 20.7224L10.111 20.5621L7.45318 16.3145L7.14882 16.2451C7.14882 16.2451 6.23575 19.1064 5.26251 19.1007Z" fill="white"/>
</g>
<g opacity="0.3">
<path d="M14.2158 6.18597C14.2866 6.18597 28.7908 5.58778 28.7672 5.40354C28.7436 5.21931 22.3002 5.24319 19.4701 5.40354C17.698 5.51249 15.9395 5.77435 14.2158 6.18597Z" fill="white"/>
</g>
<g opacity="0.2">
<path d="M8.14062 13.9555L19.9374 11.1499L22.16 6.45654L12.6234 6.83866C12.5608 6.83543 12.4988 6.85112 12.4459 6.88354C12.393 6.91596 12.352 6.96348 12.3285 7.01948L8.14062 13.9555Z" fill="white"/>
</g>
</svg>
