<svg width="40" height="34" viewBox="0 0 40 34" fill="none" xmlns="http://www.w3.org/2000/svg">
<path d="M33.4765 12.7531L6.47363 12.8002L6.50612 31.4148L33.509 31.3676L33.4765 12.7531Z" fill="#4169E1"/>
<path d="M14.356 3.42983C13.7351 2.80893 13.0025 2.08248 12.1332 2.18803C11.264 2.29358 10.7611 3.08833 10.4133 3.84583C9.82203 5.14803 9.50298 6.55731 9.47579 7.98723C9.43068 8.32449 9.46315 8.6676 9.57075 8.9904C9.67836 9.3132 9.85824 9.60718 10.0967 9.84993C10.6555 10.2908 11.4565 10.1604 12.1519 10.0176C14.0456 9.61399 16.8148 9.58294 18.7023 9.17935C17.4223 7.14098 15.9681 5.21729 14.356 3.42983Z" fill="#4169E1"/>
<path d="M14.3567 3.42984C14.4933 3.54077 14.6201 3.66334 14.7355 3.79617C14.9714 4.03832 15.3067 4.41707 15.7165 4.89517C16.847 6.2296 17.8843 7.64031 18.821 9.11728L18.9265 9.29114L18.7279 9.33459C16.8652 9.74439 14.6051 9.74439 12.3078 10.1604C11.8398 10.2817 11.3566 10.3339 10.8735 10.3156C10.6211 10.3033 10.3757 10.2289 10.1591 10.0989C9.94245 9.9689 9.76128 9.78741 9.63168 9.57054C9.41455 9.15741 9.3056 8.69601 9.31501 8.22939C9.31638 7.80181 9.34334 7.3747 9.39573 6.95034C9.49129 6.17057 9.67459 5.40408 9.94213 4.66544C10.157 4.00794 10.4801 3.39096 10.8983 2.83999C11.0735 2.60063 11.3052 2.40843 11.5729 2.28057C11.8405 2.15271 12.1357 2.09319 12.4319 2.10733C12.8684 2.16136 13.2779 2.3477 13.6054 2.6413C13.8127 2.81393 14.0058 3.00287 14.1829 3.20632C14.2494 3.27222 14.3059 3.34753 14.3505 3.42984C14.3505 3.42984 14.0773 3.15665 13.5309 2.74065C13.2129 2.48395 12.8264 2.32634 12.4195 2.28739C12.1558 2.28295 11.8952 2.34418 11.661 2.46558C11.4269 2.58698 11.2267 2.76472 11.0784 2.9828C10.6894 3.52029 10.3915 4.11814 10.1967 4.75236C9.94634 5.47675 9.77562 6.22624 9.68756 6.98759C9.5286 7.79854 9.60177 8.6379 9.89866 9.40911C10.0059 9.5811 10.1537 9.72422 10.3291 9.82595C10.5044 9.92769 10.702 9.98496 10.9045 9.99275C11.3563 10.0057 11.8077 9.95559 12.2457 9.84374C14.5927 9.42152 16.8217 9.43394 18.6658 9.05519L18.5788 9.27251C17.662 7.79222 16.6607 6.36593 15.5799 5.00072L14.661 3.85206C14.5446 3.72272 14.4426 3.58115 14.3567 3.42984Z" fill="#1A2A5A"/>
<path d="M19.8145 9.22286C20.6586 7.66775 21.7022 6.22958 22.9189 4.94487C23.8317 3.93901 24.8996 2.92073 26.247 2.74067C26.5512 2.68641 26.8637 2.70001 27.1621 2.78051C27.4605 2.86101 27.7374 3.00642 27.9731 3.20635C28.4688 3.8202 28.7149 4.59842 28.6623 5.38571C28.7657 7.20701 28.8672 9.0221 28.9665 10.831" fill="#4169E1"/>
<path d="M28.9603 10.8434C28.9021 10.6011 28.8688 10.3536 28.861 10.1045C28.8113 9.55193 28.7616 8.86273 28.6933 8.06798C28.625 7.27323 28.5629 6.20528 28.4884 5.05662C28.4815 4.48873 28.3065 3.93564 27.9855 3.46711C27.7836 3.25248 27.5338 3.0888 27.2564 2.9895C26.979 2.8902 26.682 2.85812 26.3898 2.89589C25.148 3.02007 24.1421 3.89554 23.3722 4.68408C22.6023 5.47262 21.9255 6.27979 21.3978 6.95657C20.9799 7.48835 20.5903 8.04171 20.2305 8.61437C20.1085 8.83203 19.9693 9.03965 19.8145 9.23527C19.8851 8.99314 19.9874 8.7614 20.1187 8.54608C20.4417 7.94425 20.8091 7.36729 21.2177 6.81998C21.8185 6.00362 22.4653 5.22209 23.1549 4.47918C23.5631 4.03131 24.019 3.62946 24.5147 3.28084C25.0645 2.88881 25.706 2.64503 26.3774 2.57302C26.7209 2.53027 27.0697 2.57119 27.394 2.69227C27.7183 2.81335 28.0086 3.01101 28.2401 3.26843C28.598 3.78733 28.7926 4.40142 28.7989 5.03178C28.8485 6.1494 28.892 7.17388 28.9355 8.05556C28.9789 8.93724 28.9789 9.54572 28.9976 10.0921C29.0156 10.3431 29.0031 10.5954 28.9603 10.8434Z" fill="#1A2A5A"/>
<path d="M17.5109 9.12968C17.4305 8.83317 17.4475 8.51869 17.5592 8.23254C17.671 7.94639 17.8717 7.70368 18.1318 7.54017C18.3937 7.38057 18.6944 7.29614 19.0011 7.29614C19.3077 7.29614 19.6085 7.38057 19.8703 7.54017C20.1276 7.7061 20.3433 7.92909 20.5005 8.19182C20.6577 8.45456 20.7523 8.74998 20.7768 9.05516" fill="#4169E1"/>
<path d="M20.7639 9.06762C20.7143 9.06762 20.677 8.76338 20.4411 8.35359C20.2963 8.09262 20.0863 7.87364 19.8317 7.71802C19.5771 7.56241 19.2864 7.47547 18.9882 7.4657C18.6671 7.45517 18.352 7.55365 18.0941 7.7451C17.885 7.90556 17.7239 8.12032 17.6284 8.366C17.5585 8.61277 17.5189 8.86714 17.5104 9.12349C17.4794 9.12349 17.2807 8.83167 17.4111 8.2977C17.4913 7.98964 17.6622 7.71277 17.9016 7.50295C18.2108 7.25504 18.5982 7.1252 18.9944 7.13662C19.3863 7.14106 19.7659 7.27414 20.0747 7.51537C20.3191 7.70975 20.5147 7.9585 20.646 8.24182C20.8509 8.73854 20.8074 9.06762 20.7639 9.06762Z" fill="#1A2A5A"/>
<path d="M30.8781 14.457H27.4756V31.3765H30.8781V14.457Z" fill="#FAFAFA"/>
<g opacity="0.3">
<path d="M33.4681 12.7888L24.583 12.8028L24.6122 31.4173L33.4973 31.4034L33.4681 12.7888Z" fill="#0C0C0C"/>
</g>
<path d="M35.6532 9.11108H4.31641V14.457H35.6532V9.11108Z" fill="#4169E1"/>
<path d="M31.4002 9.11108H27.917V14.457H31.4002V9.11108Z" fill="#FAFAFA"/>
<g opacity="0.4">
<path d="M35.6592 9.11108H21.9746V14.457H35.6592V9.11108Z" fill="#0C0C0C"/>
</g>
<path d="M24.639 31.3765C24.5521 31.3765 24.4775 27.6511 24.4775 23.013C24.4775 18.3749 24.5521 14.6557 24.639 14.6557C24.7259 14.6557 24.8004 18.3811 24.8004 23.013C24.8004 27.6449 24.7259 31.3765 24.639 31.3765Z" fill="#1A2A5A"/>
<path d="M16.7471 14.457H12.6182V31.3765H16.7471V14.457Z" fill="#FAFAFA"/>
<path d="M15.1639 9.11108H11.0039V14.457H15.1639V9.11108Z" fill="#FAFAFA"/>
<path d="M35.6533 14.457C35.6451 14.3392 35.6451 14.2209 35.6533 14.1031C35.6533 13.8485 35.6533 13.4822 35.6533 13.0724C35.6533 12.1411 35.6533 10.8124 35.616 9.11109L35.6968 9.19801C29.4008 9.24148 17.6907 9.27252 4.36616 9.27252C4.33512 9.30977 4.67662 8.96828 4.5276 9.11109V14.4384L4.36616 14.277L26.7185 14.3328L33.3311 14.3825H35.1131H35.5726C35.624 14.3743 35.6764 14.3743 35.7278 14.3825H35.5726H35.1131H33.3311L26.7185 14.4322L4.36616 14.4881H4.21094V14.3266C4.21094 13.4698 4.21094 12.5881 4.21094 11.694V8.99932L4.37238 8.83789C17.7217 8.83789 29.407 8.86893 35.703 8.9186H35.7899V8.99932C35.7899 10.7006 35.7588 12.0293 35.7464 12.9607C35.7464 13.3953 35.7464 13.7368 35.7464 13.9913C35.7422 14.1508 35.7107 14.3082 35.6533 14.457Z" fill="#1A2A5A"/>
<path d="M25.1539 6.45363C25.1849 6.54677 24.0983 6.9069 22.8627 7.55884C21.6272 8.21079 20.7144 8.88757 20.6523 8.80064C21.8626 7.55388 23.44 6.7271 25.1539 6.44122V6.45363Z" fill="#1A2A5A"/>
<path d="M17.5848 8.49015C17.5537 8.58329 16.2809 8.26041 14.679 8.13623C13.0771 8.01205 11.767 8.13624 11.7607 8.02448C12.7169 7.75282 13.7187 7.68095 14.7038 7.81336C15.6997 7.84405 16.6794 8.07419 17.5848 8.49015Z" fill="#1A2A5A"/>
<path d="M17.3863 8.04934C16.8613 7.84043 16.3631 7.56945 15.9024 7.24217C15.3888 7.00935 14.9051 6.7154 14.4619 6.3667C15.5971 6.58583 16.6264 7.17808 17.3863 8.04934Z" fill="#1A2A5A"/>
<path d="M33.5051 14.457C33.5201 14.5621 33.5201 14.6687 33.5051 14.7737C33.5051 15.0034 33.5051 15.3077 33.5051 15.6864C33.5051 16.5184 33.5051 17.6857 33.5424 19.1572C33.5424 22.1686 33.5796 26.3969 33.6044 31.4262V31.5752H33.4554H19.9385H6.42147H6.27246V31.4324C6.27246 26.4031 6.31592 22.1686 6.32834 19.1634C6.32834 17.6919 6.35939 16.5246 6.37181 15.6926C6.37181 15.3159 6.37181 15.0117 6.37181 14.7799C6.36093 14.6746 6.36093 14.5685 6.37181 14.4632C6.37854 14.5687 6.37854 14.6745 6.37181 14.7799C6.37181 15.0117 6.37181 15.3159 6.37181 15.6926C6.37181 16.5246 6.37181 17.6919 6.41527 19.1634C6.41527 22.1686 6.44632 26.4031 6.47115 31.4324L6.32834 31.2834H19.8453H33.3623L33.2195 31.4324C33.2195 26.4031 33.263 22.1748 33.2816 19.1634C33.2816 17.6919 33.3126 16.5246 33.3188 15.6926C33.3188 15.3139 33.3188 15.0096 33.3188 14.7799C33.3709 14.6668 33.4333 14.5587 33.5051 14.457Z" fill="#1A2A5A"/>
</svg>
