<svg width="57" height="48" viewBox="0 0 57 48" fill="none" xmlns="http://www.w3.org/2000/svg">
<path d="M52.3659 6H4.64363C3.29362 6 2.19922 7.0944 2.19922 8.44441V38.3461C2.19922 39.6962 3.29362 40.7906 4.64363 40.7906H52.3659C53.7159 40.7906 54.8103 39.6962 54.8103 38.3461V8.44441C54.8103 7.0944 53.7159 6 52.3659 6Z" fill="#1A2A5A"/>
<path d="M0 38.2185H57V38.2772C57 39.0692 56.6854 39.8288 56.1253 40.3889C55.5653 40.9489 54.8057 41.2635 54.0137 41.2635H2.98631C2.19429 41.2635 1.43471 40.9489 0.874669 40.3889C0.314626 39.8288 0 39.0692 0 38.2772V38.2185Z" fill="#1A2A5A"/>
<path d="M53.2522 7.38269H3.6123V36.7626H53.2522V7.38269Z" fill="#EDEDED"/>
<path d="M23.3184 38.2185L24.0264 39.3442H33.9785L34.6361 38.2185H23.3184Z" fill="#717171"/>
<path d="M50.9699 9.34045H5.26758V36.7525H50.9699V9.34045Z" fill="#FAFAFA"/>
<path d="M7.21956 10.691C7.21989 10.767 7.19764 10.8415 7.15563 10.9049C7.11361 10.9683 7.05373 11.0178 6.98355 11.0471C6.91338 11.0765 6.83608 11.0843 6.76144 11.0697C6.68681 11.055 6.61819 11.0186 6.56429 10.9649C6.5104 10.9113 6.47364 10.8428 6.45868 10.7682C6.44372 10.6937 6.45123 10.6163 6.48026 10.546C6.50928 10.4757 6.55853 10.4156 6.62174 10.3733C6.68496 10.331 6.7593 10.3085 6.83536 10.3085C6.93697 10.3085 7.03444 10.3487 7.10644 10.4204C7.17844 10.4921 7.21911 10.5894 7.21956 10.691Z" fill="#717171"/>
<path d="M8.78303 10.691C8.78336 10.7671 8.76107 10.8416 8.71898 10.9051C8.6769 10.9685 8.61691 11.018 8.54664 11.0473C8.47637 11.0766 8.39898 11.0843 8.3243 11.0696C8.24962 11.0548 8.18101 11.0182 8.12717 10.9643C8.07334 10.9105 8.03672 10.8419 8.02195 10.7672C8.00718 10.6925 8.01493 10.6151 8.04421 10.5449C8.0735 10.4746 8.123 10.4146 8.18644 10.3725C8.24988 10.3304 8.32439 10.3081 8.40052 10.3085C8.50197 10.3085 8.59926 10.3488 8.671 10.4205C8.74273 10.4922 8.78303 10.5895 8.78303 10.691Z" fill="#717171"/>
<path d="M10.3485 10.691C10.3488 10.767 10.3265 10.8415 10.2845 10.9049C10.2425 10.9683 10.1826 11.0178 10.1125 11.0471C10.0423 11.0765 9.96499 11.0843 9.89035 11.0697C9.81571 11.055 9.7471 11.0186 9.6932 10.9649C9.6393 10.9113 9.60254 10.8428 9.58758 10.7682C9.57262 10.6937 9.58013 10.6163 9.60916 10.546C9.63819 10.4757 9.68743 10.4156 9.75065 10.3733C9.81386 10.331 9.88821 10.3085 9.96427 10.3085C10.0146 10.3083 10.0646 10.318 10.1112 10.3371C10.1578 10.3562 10.2001 10.3844 10.2358 10.4199C10.2715 10.4555 10.2999 10.4977 10.3192 10.5442C10.3385 10.5907 10.3485 10.6406 10.3485 10.691Z" fill="#717171"/>
<path d="M50.9699 12.3685C50.9699 12.3936 40.7359 12.4121 28.1196 12.4121C15.5033 12.4121 5.26758 12.3936 5.26758 12.3685C5.26758 12.3433 15.5016 12.3248 28.1196 12.3248C40.7376 12.3248 50.9699 12.345 50.9699 12.3685Z" fill="#717171"/>
<path d="M54.8103 38.2421H2.19922V38.4098H54.8103V38.2421Z" fill="#717171"/>
<path d="M19.0104 25.6877H9.01465V26.3572H19.0104V25.6877Z" fill="#717171"/>
<path d="M31.9215 16.4039H21.9258V17.0733H31.9215V16.4039Z" fill="#717171"/>
<path d="M46.7894 18.8949C46.7894 18.9184 41.2227 18.9385 34.3576 18.9385C27.4924 18.9385 21.9258 18.9184 21.9258 18.8949C21.9258 18.8714 27.4907 18.8496 34.3576 18.8496C41.2244 18.8496 46.7894 18.8697 46.7894 18.8949Z" fill="#717171"/>
<path d="M46.7894 20.3544C46.7894 20.3779 41.2227 20.398 34.3576 20.398C27.4924 20.398 21.9258 20.3779 21.9258 20.3544C21.9258 20.3309 27.4907 20.3108 34.3576 20.3108C41.2244 20.3108 46.7894 20.336 46.7894 20.3544Z" fill="#717171"/>
<path d="M46.7894 21.8139C46.7894 21.8391 41.2227 21.8575 34.3576 21.8575C27.4924 21.8575 21.9258 21.8391 21.9258 21.8139C21.9258 21.7887 27.4907 21.7703 34.3576 21.7703C41.2244 21.7703 46.7894 21.7904 46.7894 21.8139Z" fill="#717171"/>
<path d="M46.7894 23.2755C46.7894 23.299 41.2227 23.3191 34.3576 23.3191C27.4924 23.3191 21.9258 23.299 21.9258 23.2755C21.9258 23.252 27.4907 23.2302 34.3576 23.2302C41.2244 23.2302 46.7894 23.2504 46.7894 23.2755Z" fill="#717171"/>
<path d="M46.7894 24.7348C46.7894 24.7583 41.2227 24.7784 34.3576 24.7784C27.4924 24.7784 21.9258 24.7583 21.9258 24.7348C21.9258 24.7113 27.4907 24.6912 34.3576 24.6912C41.2244 24.6912 46.7894 24.7096 46.7894 24.7348Z" fill="#717171"/>
<path d="M31.6313 26.1947C31.6313 26.2182 29.4587 26.2384 26.7794 26.2384C24.1001 26.2384 21.9258 26.2182 21.9258 26.1947C21.9258 26.1713 24.1068 26.1511 26.7794 26.1511C29.452 26.1511 31.6313 26.1713 31.6313 26.1947Z" fill="#717171"/>
<path d="M46.6065 29.0281C46.6065 29.0533 42.9474 29.0717 38.436 29.0717C33.9247 29.0717 30.2656 29.0533 30.2656 29.0281C30.2656 29.003 33.923 28.9845 38.436 28.9845C42.9491 28.9845 46.6065 29.0046 46.6065 29.0281Z" fill="#717171"/>
<path d="M46.6065 30.5782C46.6065 30.6017 42.9474 30.6218 38.436 30.6218C33.9247 30.6218 30.2656 30.6017 30.2656 30.5782C30.2656 30.5547 33.923 30.5345 38.436 30.5345C42.9491 30.5345 46.6065 30.5547 46.6065 30.5782Z" fill="#717171"/>
<path d="M46.6065 32.1285C46.6065 32.1519 42.9474 32.1721 38.436 32.1721C33.9247 32.1721 30.2656 32.1519 30.2656 32.1285C30.2656 32.105 33.923 32.0848 38.436 32.0848C42.9491 32.0848 46.6065 32.1033 46.6065 32.1285Z" fill="#717171"/>
<path d="M46.6065 33.679C46.6065 33.7025 42.9474 33.7226 38.436 33.7226C33.9247 33.7226 30.2656 33.7025 30.2656 33.679C30.2656 33.6555 33.923 33.6354 38.436 33.6354C42.9491 33.6354 46.6065 33.6538 46.6065 33.679Z" fill="#717171"/>
<path d="M19.0354 28.8802C19.0354 28.9037 16.8544 28.9238 14.17 28.9238C11.4857 28.9238 9.30469 28.9037 9.30469 28.8802C9.30469 28.8567 11.4857 28.8365 14.17 28.8365C16.8544 28.8365 19.0354 28.855 19.0354 28.8802Z" fill="#717171"/>
<path d="M19.0354 30.0967C19.0354 30.1219 16.8544 30.1403 14.17 30.1403C11.4857 30.1403 9.30469 30.1219 9.30469 30.0967C9.30469 30.0716 11.4857 30.0531 14.17 30.0531C16.8544 30.0531 19.0354 30.0665 19.0354 30.0967Z" fill="#717171"/>
<path d="M19.0354 31.3145C19.0354 31.338 16.8544 31.3581 14.17 31.3581C11.4857 31.3581 9.30469 31.338 9.30469 31.3145C9.30469 31.291 11.4857 31.2709 14.17 31.2709C16.8544 31.2709 19.0354 31.291 19.0354 31.3145Z" fill="#717171"/>
<path d="M19.0354 32.5314C19.0354 32.5566 16.8544 32.575 14.17 32.575C11.4857 32.575 9.30469 32.5566 9.30469 32.5314C9.30469 32.5062 11.4857 32.4878 14.17 32.4878C16.8544 32.4878 19.0354 32.5079 19.0354 32.5314Z" fill="#717171"/>
<path d="M19.0354 33.7579C19.0354 33.7813 16.8544 33.8015 14.17 33.8015C11.4857 33.8015 9.30469 33.7813 9.30469 33.7579C9.30469 33.7344 11.4857 33.7142 14.17 33.7142C16.8544 33.7142 19.0354 33.726 19.0354 33.7579Z" fill="#717171"/>
<path d="M19.0356 14.2192H9.01465V23.9147H19.0356V14.2192Z" fill="#EDEDED"/>
<path d="M9.79102 23.0845L12.5643 18.095L14.8308 21.2843L16.2099 19.5915L18.2584 23.0845H9.79102Z" fill="#4169E1"/>
<path d="M15.7973 17.1253C15.7973 17.268 15.755 17.4075 15.6757 17.5261C15.5965 17.6448 15.4838 17.7372 15.352 17.7918C15.2202 17.8464 15.0751 17.8607 14.9352 17.8329C14.7952 17.8051 14.6667 17.7364 14.5658 17.6355C14.4649 17.5346 14.3962 17.406 14.3684 17.2661C14.3405 17.1261 14.3548 16.9811 14.4094 16.8493C14.464 16.7174 14.5565 16.6048 14.6751 16.5255C14.7937 16.4462 14.9332 16.4039 15.0759 16.4039C15.2672 16.4039 15.4507 16.4799 15.586 16.6152C15.7213 16.7505 15.7973 16.934 15.7973 17.1253Z" fill="#4169E1"/>
<path d="M18.2582 23.111C18.2574 23.0982 18.2574 23.0853 18.2582 23.0724C18.2582 23.0422 18.2582 23.0053 18.2582 22.9583C18.2582 22.856 18.2582 22.71 18.2582 22.5221C18.2582 22.1379 18.2582 21.5826 18.2464 20.8763C18.2464 19.4603 18.2347 17.4437 18.2263 15.0211L18.2666 15.0631H9.80086C9.78911 15.0731 9.88978 14.9725 9.84783 15.0161V17.1971C9.84783 17.9084 9.84783 18.6064 9.84783 19.2858C9.84783 20.6431 9.84783 21.9265 9.84783 23.1076L9.80589 23.0674L15.9278 23.0875L17.6559 23.0993H18.1139H18.2733C18.2733 23.0993 18.2615 23.0993 18.2364 23.0993H18.1223H17.6726L15.9547 23.111L9.80589 23.1311H9.76562V23.0892C9.76562 21.9148 9.76562 20.6246 9.76562 19.2674C9.76562 18.5879 9.76562 17.89 9.76562 17.1786V14.9976L9.81428 14.949H18.28H18.3219V14.9892C18.3219 17.4219 18.3051 19.4469 18.3001 20.8696C18.3001 21.5725 18.3001 22.1245 18.29 22.507C18.29 22.6916 18.29 22.8342 18.29 22.9365C18.29 22.9818 18.29 23.0171 18.29 23.0439C18.29 23.0707 18.2598 23.1127 18.2582 23.111Z" fill="#717171"/>
<path d="M29.0106 28.2883H21.9189V35.1501H29.0106V28.2883Z" fill="#EDEDED"/>
<path d="M22.4697 34.5631L24.431 31.0332L26.0365 33.2897L27.0113 32.0902L28.4625 34.5631H22.4697Z" fill="#4169E1"/>
<path d="M26.7195 30.345C26.7195 30.4445 26.69 30.5418 26.6347 30.6246C26.5794 30.7074 26.5008 30.7719 26.4088 30.81C26.3168 30.8481 26.2156 30.858 26.118 30.8386C26.0204 30.8192 25.9307 30.7713 25.8603 30.7009C25.7899 30.6305 25.742 30.5408 25.7226 30.4432C25.7031 30.3455 25.7131 30.2443 25.7512 30.1524C25.7893 30.0604 25.8538 29.9818 25.9366 29.9265C26.0193 29.8712 26.1167 29.8417 26.2162 29.8417C26.3497 29.8417 26.4777 29.8947 26.5721 29.9891C26.6665 30.0835 26.7195 30.2115 26.7195 30.345Z" fill="#4169E1"/>
<path d="M28.462 34.5831C28.4614 34.5736 28.4614 34.5641 28.462 34.5546C28.462 34.5345 28.462 34.5076 28.462 34.4741C28.462 34.4019 28.462 34.3063 28.462 34.1654C28.462 33.8936 28.462 33.4943 28.4536 32.9994C28.4536 31.9927 28.4536 30.57 28.4402 28.8571L28.4687 28.8856H22.476C22.476 28.8856 22.5397 28.8219 22.5095 28.8537V31.8736C22.5095 32.8349 22.5095 33.7426 22.5095 34.5798L22.4793 34.5496L26.8128 34.5647L28.0342 34.573H28.358H28.0392H26.8246L22.4726 34.5881H22.4441V34.5596C22.4441 33.7208 22.4441 32.8148 22.4441 31.8535C22.4441 31.3737 22.4441 30.8787 22.4441 30.3754V28.8386C22.4139 28.8672 22.4844 28.795 22.4776 28.8034H28.4704H28.4989V28.8319C28.4989 30.5533 28.4872 31.986 28.4838 32.9943C28.4838 33.4976 28.4838 33.8818 28.4838 34.1519C28.4838 34.2828 28.4838 34.3835 28.4838 34.4556C28.4838 34.4875 28.4838 34.5126 28.4838 34.5328C28.4799 34.5508 28.4725 34.5679 28.462 34.5831Z" fill="#717171"/>
</svg>
