<svg width="40" height="34" viewBox="0 0 40 34" fill="none" xmlns="http://www.w3.org/2000/svg">
<g clip-path="url(#clip0_4996_6776)">
<path d="M25.8717 33.6842L14.4139 33.631C14.086 33.6302 13.7614 33.5647 13.4589 33.4382C13.1563 33.3117 12.8817 33.1266 12.6509 32.8937C12.4201 32.6607 12.2376 32.3845 12.1138 32.0808C11.99 31.7771 11.9275 31.452 11.9297 31.124L12.0513 2.47849C12.053 2.15111 12.1193 1.82728 12.2462 1.52551C12.3732 1.22374 12.5584 0.949946 12.7912 0.719775C13.024 0.489604 13.2999 0.307569 13.6031 0.184074C13.9063 0.0605795 14.2308 -0.00195435 14.5582 4.65413e-05L26.0161 0.0513242C26.6769 0.0538381 27.3098 0.318391 27.7759 0.786945C28.242 1.2555 28.5031 1.88979 28.5021 2.55066L28.3806 31.1981C28.3796 31.5262 28.3138 31.8509 28.1871 32.1536C28.0604 32.4562 27.8752 32.7309 27.6422 32.9619C27.4091 33.1928 27.1327 33.3755 26.8289 33.4994C26.5251 33.6234 26.1998 33.6862 25.8717 33.6842Z" fill="#1A2A5A"/>
<path d="M26.001 1.04835H23.7789C23.7067 1.04934 23.6353 1.06458 23.569 1.09321C23.5026 1.12183 23.4426 1.16327 23.3923 1.21514C23.342 1.26702 23.3025 1.32831 23.2759 1.39551C23.2494 1.4627 23.2364 1.53448 23.2376 1.60672V2.00935C23.2392 2.15513 23.1832 2.29567 23.0819 2.40052C22.9806 2.50538 22.8421 2.56612 22.6964 2.56961L18.3643 2.54872C18.2916 2.54701 18.2199 2.53085 18.1534 2.50119C18.087 2.47152 18.0271 2.42895 17.9773 2.37593C17.9274 2.32291 17.8886 2.26051 17.8631 2.19236C17.8376 2.12421 17.8259 2.05167 17.8287 1.97896V1.57253C17.8313 1.49988 17.8194 1.42745 17.7938 1.35942C17.7682 1.29138 17.7294 1.22908 17.6796 1.17611C17.6298 1.12315 17.57 1.08056 17.5037 1.05081C17.4374 1.02106 17.3658 1.00473 17.2932 1.00277H16.5107H14.5659C14.3367 1.00152 14.1095 1.04543 13.8973 1.13199C13.685 1.21855 13.4919 1.34606 13.329 1.50725C13.166 1.66845 13.0364 1.86015 12.9475 2.07143C12.8587 2.28272 12.8123 2.50943 12.8111 2.73864L12.6914 30.7005C12.6904 31.1636 12.8733 31.6081 13.1998 31.9364C13.5264 32.2648 13.9699 32.45 14.433 32.4515L25.868 32.5047C26.331 32.5067 26.7758 32.3252 27.1051 31.9998C27.4344 31.6744 27.6213 31.2318 27.6248 30.7689L27.7425 2.80701C27.7443 2.57701 27.7006 2.34893 27.6139 2.13588C27.5272 1.92284 27.3992 1.72903 27.2374 1.5656C27.0755 1.40216 26.883 1.27233 26.6708 1.18357C26.4586 1.0948 26.231 1.04885 26.001 1.04835Z" fill="white"/>
<path d="M25.8134 20.0745H14.498V20.8323H25.8134V20.0745Z" fill="#717171"/>
<path d="M25.4104 23.0544C25.4104 23.081 22.9946 23.1038 20.0167 23.1038C17.0388 23.1038 14.6211 23.081 14.6211 23.0544C14.6211 23.0278 17.0369 23.005 20.0167 23.005C22.9965 23.005 25.4104 23.0278 25.4104 23.0544Z" fill="#717171"/>
<path d="M25.4104 5.10516C25.4104 5.13365 22.9946 5.15454 20.0167 5.15454C17.0388 5.15454 14.6211 5.13365 14.6211 5.10516C14.6211 5.07668 17.0369 5.05579 20.0167 5.05579C22.9965 5.05579 25.4104 5.07288 25.4104 5.10516Z" fill="#717171"/>
<path d="M25.4104 24.4331C25.4104 24.4597 22.9946 24.4825 20.0167 24.4825C17.0388 24.4825 14.6211 24.4597 14.6211 24.4331C14.6211 24.4065 17.0369 24.3837 20.0167 24.3837C22.9965 24.3837 25.4104 24.4046 25.4104 24.4331Z" fill="#717171"/>
<path d="M25.4104 25.8062C25.4104 25.8328 22.9946 25.8556 20.0167 25.8556C17.0388 25.8556 14.6211 25.8328 14.6211 25.8062C14.6211 25.7796 17.0369 25.7568 20.0167 25.7568C22.9965 25.7568 25.4104 25.7834 25.4104 25.8062Z" fill="#717171"/>
<path d="M25.4104 27.1888C25.4104 27.2154 22.9946 27.2382 20.0167 27.2382C17.0388 27.2382 14.6211 27.2154 14.6211 27.1888C14.6211 27.1623 17.0369 27.1395 20.0167 27.1395C22.9965 27.1395 25.4104 27.1604 25.4104 27.1888Z" fill="#717171"/>
<path d="M25.4104 28.5658C25.4104 28.5943 22.9946 28.6152 20.0167 28.6152C17.0388 28.6152 14.6211 28.5943 14.6211 28.5658C14.6211 28.5373 17.0369 28.5164 20.0167 28.5164C22.9965 28.5164 25.4104 28.5392 25.4104 28.5658Z" fill="#717171"/>
<path d="M25.5647 30.1288C25.5647 30.1554 23.1489 30.1782 20.171 30.1782C17.1931 30.1782 14.7754 30.1554 14.7754 30.1288C14.7754 30.1022 17.1912 30.0794 20.171 30.0794C23.1508 30.0794 25.5647 30.1003 25.5647 30.1288Z" fill="#717171"/>
<path d="M25.965 6.672H14.6211V17.6474H25.965V6.672Z" fill="#D9D9D9"/>
<path d="M15.501 16.7073L18.6404 11.0591L21.2062 14.6695L22.7654 12.7513L25.0862 16.7073H15.501Z" fill="#4169E1"/>
<path d="M22.2993 9.96137C22.2993 10.1229 22.2514 10.2808 22.1617 10.4151C22.072 10.5494 21.9444 10.654 21.7952 10.7159C21.646 10.7777 21.4818 10.7938 21.3233 10.7623C21.1649 10.7308 21.0194 10.653 20.9052 10.5388C20.791 10.4246 20.7132 10.2791 20.6817 10.1207C20.6502 9.96227 20.6664 9.79807 20.7282 9.64885C20.79 9.49962 20.8947 9.37208 21.029 9.28234C21.1632 9.19261 21.3211 9.14471 21.4827 9.14471C21.6991 9.14522 21.9065 9.23142 22.0596 9.38446C22.2126 9.5375 22.2988 9.74493 22.2993 9.96137Z" fill="#4169E1"/>
<path d="M25.0861 16.7378C25.0861 16.7378 25.0861 16.7226 25.0861 16.6922C25.0861 16.6618 25.0861 16.6181 25.0861 16.565C25.0861 16.4472 25.0861 16.2839 25.0861 16.0712C25.0861 15.6363 25.0861 15.0057 25.0728 14.2062C25.0728 12.6033 25.0595 10.3204 25.05 7.57988L25.0956 7.62546H15.5123C15.499 7.63686 15.6129 7.52291 15.5654 7.57229V10.0412C15.5654 10.8484 15.5654 11.6385 15.5654 12.4057C15.5654 13.9441 15.5654 15.397 15.5654 16.734L15.5179 16.6865L22.4481 16.7112L24.4043 16.7226H24.9228H25.0557H25.1032H25.0614H24.9323H24.4233L22.4785 16.734L15.5179 16.7587H15.4705V16.7112C15.4705 15.3818 15.4705 13.9213 15.4705 12.3829C15.4705 11.6233 15.4705 10.8256 15.4705 10.0184V7.54949C15.4211 7.59697 15.535 7.48112 15.5255 7.49442H25.1089H25.1279V7.57418C25.1165 10.328 25.1089 12.6203 25.1032 14.2309C25.1032 15.0247 25.1032 15.6515 25.0918 16.0845C25.0918 16.2934 25.0918 16.4548 25.0918 16.5688C25.0918 16.62 25.0918 16.6599 25.0918 16.6922C25.0921 16.7076 25.0902 16.723 25.0861 16.7378Z" fill="#717171"/>
</g>
<defs>
<clipPath id="clip0_4996_6776">
<rect width="40" height="33.6842" fill="white"/>
</clipPath>
</defs>
</svg>
