<svg width="57" height="48" viewBox="0 0 57 48" fill="none" xmlns="http://www.w3.org/2000/svg">
<g clip-path="url(#clip0_5044_8701)">
<path d="M-2.9661 44.0089C-2.9661 44.0219 10.1055 44.0315 26.2271 44.0315C42.3488 44.0315 55.4238 44.0219 55.4238 44.0089C55.4238 43.9959 42.3549 43.9863 26.2271 43.9863C10.0994 43.9863 -2.9661 43.9967 -2.9661 44.0089Z" fill="#1A2A5A"/>
<path d="M24.2421 31.6593H29.957V43.9647H24.2421V31.6593Z" fill="#4169E1"/>
<g opacity="0.3">
<path d="M24.2427 31.6593H26.0146V43.9647H24.2427V31.6593Z" fill="#0C0C0C"/>
</g>
<path d="M26.0138 43.9646C26.0268 43.9646 26.0381 41.2408 26.0381 37.8818C26.0381 34.5228 26.0268 31.7981 26.0138 31.7981C26.0008 31.7981 25.9895 34.5219 25.9895 37.8818C25.9895 41.2417 25.9999 43.9646 26.0138 43.9646Z" fill="#1A2A5A"/>
<path d="M31.2167 27.3214H36.9316V43.9646H31.2167V27.3214Z" fill="#4169E1"/>
<g opacity="0.3">
<path d="M31.2164 27.3214H32.9883V43.9646H31.2164V27.3214Z" fill="#0C0C0C"/>
</g>
<path d="M32.9904 43.9646C33.0042 43.9646 33.0146 40.281 33.0146 35.7376C33.0146 31.1941 33.0025 27.5054 32.9904 27.5054C32.9782 27.5054 32.9661 31.1889 32.9661 35.7341C32.9661 40.2793 32.9756 43.9646 32.9904 43.9646Z" fill="#1A2A5A"/>
<path d="M17.1913 35.2422H22.9062V43.9655H17.1913V35.2422Z" fill="#4169E1"/>
<g opacity="0.3">
<path d="M17.191 35.2422H18.9629V43.9655H17.191V35.2422Z" fill="#0C0C0C"/>
</g>
<path d="M18.963 43.9646C18.9769 43.9646 18.9873 42.0339 18.9873 39.6529C18.9873 37.2718 18.9769 35.3402 18.963 35.3402C18.9491 35.3402 18.9387 37.2709 18.9387 39.6529C18.9387 42.0348 18.95 43.9646 18.963 43.9646Z" fill="#1A2A5A"/>
<path d="M10.2939 39.2051H16.0088V43.9646H10.2939V39.2051Z" fill="#4169E1"/>
<g opacity="0.3">
<path d="M10.2925 39.2051H12.0645V43.9646H10.2925V39.2051Z" fill="#0C0C0C"/>
</g>
<path d="M12.0646 43.9646C12.0785 43.9646 12.0889 42.9112 12.0889 41.6122C12.0889 40.3132 12.0785 39.2589 12.0646 39.2589C12.0507 39.2589 12.0403 40.3123 12.0403 41.6122C12.0403 42.9121 12.0516 43.9646 12.0646 43.9646Z" fill="#1A2A5A"/>
<path d="M3.3183 40.8521H9.0332V43.9646H3.3183V40.8521Z" fill="#4169E1"/>
<g opacity="0.3">
<path d="M3.31891 40.8521H5.09082V43.9646H3.31891V40.8521Z" fill="#0C0C0C"/>
</g>
<path d="M5.09094 43.9646C5.10395 43.9646 5.11523 43.2756 5.11523 42.4261C5.11523 41.5766 5.10395 40.8867 5.09094 40.8867C5.07792 40.8867 5.06664 41.5757 5.06664 42.4261C5.06664 43.2765 5.07705 43.9646 5.09094 43.9646Z" fill="#1A2A5A"/>
<path d="M38.1913 21.8495H43.9062V43.9611H38.1913V21.8495Z" fill="#4169E1"/>
<g opacity="0.3">
<path d="M38.191 21.8495H39.9629V43.9611H38.191V21.8495Z" fill="#0C0C0C"/>
</g>
<path d="M39.963 44.0513C39.976 44.0513 39.9873 39.1374 39.9873 33.0762C39.9873 27.0151 39.976 22.0994 39.963 22.0994C39.95 22.0994 39.9387 27.0134 39.9387 33.0762C39.9387 39.1391 39.95 44.0513 39.963 44.0513Z" fill="#1A2A5A"/>
<path d="M45.166 17.3616H50.8809V44.0514H45.166V17.3616Z" fill="#4169E1"/>
<g opacity="0.3">
<path d="M45.1656 17.3616H46.9375V44.0514H45.1656V17.3616Z" fill="#0C0C0C"/>
</g>
<path d="M46.9376 44.0514C46.9506 44.0514 46.9619 38.1438 46.9619 30.8618C46.9619 23.5797 46.9506 17.667 46.9376 17.667C46.9246 17.667 46.9133 23.5728 46.9133 30.8618C46.9133 38.1508 46.9237 44.0514 46.9376 44.0514Z" fill="#1A2A5A"/>
<path d="M46.3461 14.9933C44.6849 13.8686 44.25 11.6103 45.3747 9.94909C46.4994 8.28793 48.7578 7.85304 50.419 8.97773C52.0801 10.1024 52.515 12.3608 51.3903 14.022C50.2656 15.6831 48.0073 16.118 46.3461 14.9933Z" fill="#4169E1"/>
<path opacity="0.3" d="M46.3461 14.9933C44.6849 13.8686 44.25 11.6103 45.3747 9.94909C46.4994 8.28793 48.7578 7.85304 50.419 8.97773C52.0801 10.1024 52.515 12.3608 51.3903 14.022C50.2656 15.6831 48.0073 16.118 46.3461 14.9933Z" fill="#0C0C0C"/>
<path d="M46.3461 14.5928C44.6849 13.4681 44.25 11.2097 45.3747 9.54858C46.4994 7.88742 48.7578 7.45252 50.419 8.57722C52.0801 9.70191 52.515 11.9603 51.3903 13.6214C50.2656 15.2826 48.0073 15.7175 46.3461 14.5928Z" fill="#4169E1"/>
<path d="M48.3823 14.0182C47.0385 14.0182 45.9492 12.9289 45.9492 11.5851C45.9492 10.2413 47.0385 9.15198 48.3823 9.15198C49.7261 9.15198 50.8154 10.2413 50.8154 11.5851C50.8154 12.9289 49.7261 14.0182 48.3823 14.0182Z" fill="white"/>
<path d="M47.5399 12.4264C47.075 11.9615 47.075 11.2077 47.5399 10.7428C48.0049 10.2778 48.7587 10.2778 49.2236 10.7428C49.6885 11.2077 49.6885 11.9615 49.2236 12.4264C48.7587 12.8914 48.0049 12.8914 47.5399 12.4264Z" fill="#4169E1"/>
<path d="M45.4626 8.50897L45.5615 7.73408L44.7719 6.88977L44.7155 7.72627L45.4626 8.50897Z" fill="#717171"/>
<path d="M43.7693 7.89284L44.5693 7.82776L45.3711 8.59918L44.5693 8.68508L43.7693 7.89284Z" fill="#717171"/>
<path opacity="0.3" d="M48.2236 11.5678L45.4469 9.44703C45.5511 9.29661 45.6672 9.15472 45.794 9.02271L48.2236 11.3786V11.5678Z" fill="#0C0C0C"/>
<path d="M44.6437 7.51886L45.9201 8.81005L47.941 10.8579L48.4062 11.3291C48.5537 11.4783 48.3194 11.7083 48.1762 11.559L46.9015 10.2678L44.8788 8.21999L44.4137 7.74881C44.2671 7.59956 44.5005 7.36961 44.6445 7.51886H44.6437Z" fill="#1A2A5A"/>
<path d="M48.3827 7.02688C48.3957 7.02688 48.4053 6.33269 48.4053 5.4745C48.4053 4.61631 48.3957 3.92212 48.3827 3.92212C48.3697 3.92212 48.3602 4.61631 48.3602 5.4745C48.3602 6.33269 48.3706 7.02688 48.3827 7.02688Z" fill="#1A2A5A"/>
<path d="M46.0369 5.40684C46.0273 5.41465 46.2755 5.76348 46.5914 6.18781C46.9072 6.61213 47.1719 6.94708 47.1823 6.93927C47.1927 6.93146 46.9437 6.58349 46.6278 6.1583C46.312 5.73311 46.0473 5.3999 46.0369 5.40684Z" fill="#1A2A5A"/>
<path d="M50.7564 5.33565C50.7452 5.32957 50.53 5.69923 50.2748 6.16086C50.0197 6.6225 49.8228 7.00257 49.8332 7.00864C49.8436 7.01471 50.0597 6.64506 50.3148 6.18256C50.5699 5.72005 50.7669 5.34172 50.7564 5.33565Z" fill="#1A2A5A"/>
</g>
<defs>
<clipPath id="clip0_5044_8701">
<rect width="57" height="48" fill="white"/>
</clipPath>
</defs>
</svg>
