<svg width="194" height="124" viewBox="0 0 194 124" fill="none" xmlns="http://www.w3.org/2000/svg">
<g clip-path="url(#clip0_2600_26981)">
<path d="M92.6565 90.4566L40.1244 34.8902C39.8592 34.6086 39.7163 34.2333 39.7271 33.8465C39.7379 33.4598 39.9015 33.0931 40.1821 32.8267L74.6684 0.230824C74.8077 0.0990816 74.9715 -0.00393204 75.1506 -0.0723336C75.3297 -0.140735 75.5205 -0.173184 75.7121 -0.167826C75.9038 -0.162468 76.0924 -0.11941 76.2674 -0.041108C76.4424 0.0371936 76.6003 0.149203 76.7319 0.288521L129.261 55.8583C129.526 56.14 129.669 56.5152 129.658 56.902C129.647 57.2887 129.484 57.6554 129.203 57.9218L94.7235 90.5041C94.585 90.6374 94.4215 90.742 94.2425 90.8118C94.0634 90.8817 93.8723 90.9153 93.6801 90.9109C93.488 90.9065 93.2986 90.8641 93.1229 90.7861C92.9472 90.7081 92.7887 90.5961 92.6565 90.4566Z" fill="#EDEDED"/>
<g opacity="0.3">
<path d="M92.6565 90.4566L40.1244 34.8902C39.8592 34.6086 39.7163 34.2333 39.7271 33.8465C39.7379 33.4598 39.9015 33.0931 40.1821 32.8267L74.6684 0.230824C74.8077 0.0990816 74.9715 -0.00393204 75.1506 -0.0723336C75.3297 -0.140735 75.5205 -0.173184 75.7121 -0.167826C75.9038 -0.162468 76.0924 -0.11941 76.2674 -0.041108C76.4424 0.0371936 76.6003 0.149203 76.7319 0.288521L129.261 55.8583C129.526 56.14 129.669 56.5152 129.658 56.902C129.647 57.2887 129.484 57.6554 129.203 57.9218L94.7235 90.5041C94.585 90.6374 94.4215 90.742 94.2425 90.8118C94.0634 90.8817 93.8723 90.9153 93.6801 90.9109C93.488 90.9065 93.2986 90.8641 93.1229 90.7861C92.9472 90.7081 92.7887 90.5961 92.6565 90.4566Z" fill="#0C0C0C"/>
</g>
<path d="M128.873 55.4511L77.1078 0.695827C76.9259 0.502693 76.7077 0.347348 76.4657 0.238695C76.2237 0.130042 75.9627 0.0702163 75.6975 0.0626491C75.4323 0.0550819 75.1683 0.0999196 74.9205 0.194595C74.6727 0.28927 74.446 0.431921 74.2534 0.614369L64.4584 9.87657C64.3615 9.96707 64.2885 10.0801 64.2459 10.2057C64.2032 10.3312 64.1923 10.4653 64.214 10.5961C65.1949 16.074 69.1115 20.9715 73.7816 24.2162C79.4225 28.1362 86.1086 30.2032 92.4486 32.8199C98.7886 35.4367 105.179 38.885 108.991 44.6039C112.585 50.0037 113.434 56.7 115.263 62.9314C115.76 64.6244 116.382 66.2783 117.123 67.8798C117.177 67.9961 117.258 68.098 117.359 68.1771C117.46 68.2561 117.578 68.3101 117.704 68.3346C117.829 68.3591 117.959 68.3534 118.083 68.3181C118.206 68.2827 118.319 68.2185 118.413 68.131L128.795 58.3156C128.989 58.1333 129.146 57.9144 129.255 57.6713C129.364 57.4283 129.424 57.166 129.431 56.8996C129.439 56.6332 129.393 56.368 129.297 56.1194C129.201 55.8708 129.057 55.6436 128.873 55.4511Z" fill="#EDEDED"/>
<path d="M76.3463 16.6306C75.878 17.0752 75.2535 16.97 74.5815 16.247L73.2578 14.8453L75.973 12.2863L77.222 13.6099C77.8635 14.2887 77.9008 14.903 77.4901 15.3069C77.3695 15.4264 77.2173 15.5091 77.0514 15.5451C76.8855 15.5812 76.7127 15.5692 76.5534 15.5105C76.6491 15.6935 76.6807 15.9033 76.6432 16.1063C76.6056 16.3093 76.5011 16.4939 76.3463 16.6306ZM76.0816 13.3554L75.4435 13.9595L76.0273 14.5942C76.3158 14.8996 76.5805 14.9641 76.7944 14.7639C77.0082 14.5636 76.9539 14.2989 76.6654 13.9934L76.0816 13.3554ZM75.8135 15.9382C76.0409 15.7244 75.9866 15.4461 75.6777 15.1202L74.9989 14.3905L74.3201 15.0218L74.9989 15.7549C75.318 16.0807 75.5827 16.1588 75.8135 15.9518V15.9382Z" fill="white"/>
<path d="M78.3219 19.0403L77.1307 17.7811L76.3229 18.09L75.7188 17.4485L79.5675 16.0909L80.1513 16.712L78.5901 20.4828L77.9656 19.8243L78.3219 19.0403ZM78.6104 18.3921L79.2417 16.9836L77.7993 17.5334L78.6104 18.3921Z" fill="white"/>
<path d="M83.9052 20.7034L81.19 23.2625L80.7115 22.7398L81.0814 19.8379L79.4353 21.3822L78.8516 20.7611L81.5668 18.202L82.0589 18.7213L81.6855 21.6198L83.3316 20.0653L83.9052 20.7034Z" fill="white"/>
<path d="M83.8027 23.87H83.0798L82.401 24.5182L81.7969 23.8903L84.5121 21.3279L85.0992 21.9524L83.8333 23.1471H86.2328L86.8913 23.8259L84.6241 23.8462L84.2507 26.4732L83.5719 25.7435L83.8027 23.87Z" fill="white"/>
<path d="M64.6013 26.7718L64.1465 26.2729L63.4677 26.8906L63.2267 26.636L63.8817 26.0183L62.5547 24.6166L62.738 24.4401L65.633 24.1992L65.9012 24.4843L63.0943 24.732L64.1125 25.8113L64.6861 25.2649L64.9203 25.516L64.3467 26.0591L64.8151 26.5546L64.6013 26.7718Z" fill="white"/>
<path d="M66.3918 28.5401C65.9743 28.9304 65.3736 28.9338 64.8034 28.3331C64.4825 28.0149 64.2944 27.5866 64.2773 27.135L64.5964 27.0671C64.6007 27.4589 64.7592 27.8333 65.0376 28.1091C65.4279 28.5231 65.8318 28.5672 66.1406 28.2754C66.4495 27.9835 66.4359 27.5966 66.0015 27.1384L65.8318 26.9619L66.0218 26.782L67.5356 26.6564L66.3341 25.3837L66.5615 25.1699L68.0718 26.7684L67.8919 26.9381L66.3409 27.0705C66.816 27.6305 66.7889 28.1701 66.3918 28.5401Z" fill="white"/>
<path d="M68.3077 30.5459C67.8835 30.9464 67.2895 30.9634 66.7024 30.3559C66.3811 30.0396 66.194 29.6118 66.1797 29.1612L66.4987 29.0933C66.5056 29.4763 66.6615 29.8415 66.9332 30.1115C67.3303 30.5357 67.7477 30.5663 68.0498 30.2778C68.3518 29.9893 68.3892 29.599 67.785 28.9575L67.2827 28.4281L68.6403 27.3793L69.9267 28.7369L69.6993 28.9508L68.6369 27.8307L67.7613 28.4926L68.0634 28.832C68.7727 29.5515 68.7455 30.1149 68.3077 30.5459Z" fill="white"/>
<path d="M70.3899 32.7113C70.282 32.8121 70.1542 32.8893 70.0147 32.9379C69.8752 32.9866 69.7271 33.0056 69.5799 32.9938C69.4327 32.982 69.2895 32.9396 69.1596 32.8693C69.0296 32.7991 68.9158 32.7025 68.8253 32.5857C68.2008 31.9239 68.3196 31.1331 69.1036 30.3898C69.9487 29.5922 70.8243 29.6364 71.4624 30.3118C71.667 30.5083 71.8137 30.7572 71.8867 31.0313L71.5812 31.1229C71.5303 30.8953 71.412 30.6884 71.2418 30.529C70.7361 29.9927 70.0675 29.9724 69.3921 30.6104C69.3344 30.6647 69.2665 30.736 69.1986 30.8141C69.4032 30.7548 69.6207 30.7569 69.8241 30.8203C70.0275 30.8836 70.2077 31.0054 70.3424 31.1704C70.8108 31.6626 70.8447 32.2837 70.3899 32.7113ZM70.1456 32.4669C70.485 32.1581 70.4544 31.7203 70.0912 31.3367C70.0263 31.2502 69.9443 31.178 69.8503 31.1244C69.7564 31.0709 69.6524 31.0372 69.5449 31.0254C69.4373 31.0136 69.3286 31.024 69.2252 31.056C69.1219 31.0879 69.0262 31.1408 68.9441 31.2112C68.6692 31.4691 68.625 31.9409 69.0323 32.3685C69.0951 32.4534 69.1753 32.524 69.2674 32.5757C69.3595 32.6273 69.4616 32.6589 69.5668 32.6682C69.672 32.6775 69.778 32.6643 69.8778 32.6297C69.9775 32.595 70.0688 32.5395 70.1456 32.4669Z" fill="white"/>
<path d="M74.7254 38.7866L74.946 37.4561L73.5884 37.5987L73.3203 37.3136L74.98 37.1439L75.2209 35.5826L75.4925 35.8677L75.2888 37.1201L76.5514 36.9878L76.8127 37.2661L75.2413 37.4222L74.9868 39.0751L74.7254 38.7866Z" fill="white"/>
<path d="M76.5179 40.6838L76.7385 39.3499L75.3809 39.4925L75.1094 39.2074L76.769 39.0411L77.0134 37.4799L77.2815 37.7616L77.0813 39.0139L78.3405 38.885L78.6052 39.1633L77.0304 39.3194L76.7758 40.9723L76.5179 40.6838Z" fill="white"/>
<path d="M78.3114 42.5776L78.532 41.2471L77.1744 41.3897L76.9062 41.1046L78.5625 40.9383L78.8069 39.3737L79.075 39.6588L78.8748 40.9111L80.1373 40.7822L80.3987 41.0571L78.8239 41.2132L78.5693 42.8661L78.3114 42.5776Z" fill="white"/>
<path d="M80.1004 44.4613L80.321 43.1308L78.9634 43.2734L78.6953 42.9883L80.3516 42.8186L80.5959 41.2573L80.8641 41.5424L80.6638 42.7948L81.9264 42.6624L82.1877 42.9407L80.6129 43.0969L80.3618 44.7497L80.1004 44.4613Z" fill="white"/>
<path d="M86.2918 51.0219L86.5124 49.6914L85.1548 49.834L84.8867 49.5489L86.543 49.3826L86.7874 47.8179L87.0555 48.103L86.8552 49.3554L88.1178 49.223L88.3791 49.5014L86.8043 49.6575L86.5498 51.3103L86.2918 51.0219Z" fill="white"/>
<path d="M88.0848 52.9191L88.3054 51.5852L86.9478 51.7278L86.6797 51.4461L88.3359 51.2764L88.5803 49.7151L88.8484 50.0002L88.6482 51.2526L89.9108 51.1203L90.1721 51.3986L88.5973 51.5547L88.3427 53.2076L88.0848 52.9191Z" fill="white"/>
<path d="M89.8783 54.8163L90.1023 53.4825L88.7447 53.6251L88.4766 53.34L90.1328 53.1737L90.3772 51.6124L90.6453 51.8941L90.4451 53.1465L91.7076 53.0175L91.969 53.2925L90.3942 53.4486L90.143 55.1014L89.8783 54.8163Z" fill="white"/>
<path d="M91.6707 56.7103L91.8913 55.3798L90.5338 55.5224L90.2656 55.2373L91.9219 55.071L92.1663 53.5063L92.4378 53.7914L92.2341 55.0438L93.4967 54.9115L93.758 55.1898L92.1832 55.3459L91.9321 56.9988L91.6707 56.7103Z" fill="white"/>
<path d="M99.717 60.2399L97.2326 62.5919L96.9883 62.334L99.2487 60.1992L98.6955 59.6154L98.9228 59.3982L99.717 60.2399Z" fill="white"/>
<path d="M100.06 64.1464C99.6457 64.5401 99.0416 64.5401 98.4714 63.9394C98.1504 63.6212 97.9624 63.1929 97.9453 62.7413L98.2643 62.6734C98.2707 63.0658 98.4288 63.4405 98.7056 63.7188C99.0959 64.1294 99.5032 64.177 99.812 63.8851C100.121 63.5932 100.107 63.2063 99.6695 62.7447L99.5032 62.5682L99.6898 62.3917L101.204 62.2628L100.002 60.9934L100.229 60.7762L101.74 62.3747L101.56 62.5478L100.012 62.6802C100.487 63.247 100.464 63.7765 100.06 64.1464Z" fill="white"/>
<path d="M102.337 66.6818L101.865 66.1829L101.213 66.8006L100.969 66.546L101.624 65.9283L100.297 64.5266L100.484 64.3501L103.375 64.1125L103.643 64.3943L100.837 64.642L101.855 65.7213L102.428 65.1783L102.666 65.426L102.089 65.9691L102.561 66.468L102.337 66.6818Z" fill="white"/>
<path d="M103.721 69.0032L103.493 69.2171L101.844 67.4725L102.027 67.3028L104.016 67.3775C104.559 67.3979 104.776 67.2927 104.946 67.1331C105.234 66.8582 105.221 66.4883 104.861 66.1149C104.749 65.9812 104.608 65.8745 104.448 65.8028C104.289 65.7311 104.116 65.6963 103.941 65.7009V65.3615C104.167 65.359 104.391 65.4064 104.596 65.5003C104.801 65.5941 104.983 65.7322 105.129 65.9045C105.604 66.4102 105.652 66.9702 105.234 67.3639C104.997 67.5879 104.715 67.7033 104.074 67.7033L102.441 67.6456L103.721 69.0032Z" fill="white"/>
<path d="M55.5417 28.8489C55.6769 28.7364 55.8422 28.6659 56.017 28.6463C56.1918 28.6267 56.3686 28.6588 56.5254 28.7386C56.6821 28.8185 56.812 28.9425 56.899 29.0954C56.986 29.2484 57.0262 29.4234 57.0147 29.599L56.6753 29.5786C56.6852 29.5007 56.6776 29.4215 56.6529 29.3469C56.6282 29.2724 56.5872 29.2042 56.5328 29.1476C56.4855 29.0977 56.4289 29.0576 56.3661 29.0295C56.3034 29.0015 56.2357 28.9861 56.167 28.9842C56.0283 28.9804 55.8937 29.0318 55.7929 29.1272C55.6921 29.2227 55.6333 29.3542 55.6294 29.493C55.6256 29.6317 55.6771 29.7663 55.7725 29.8671C55.8261 29.9249 55.8922 29.9696 55.9657 29.9978C56.0393 30.026 56.1183 30.0371 56.1967 30.03V30.3694C56.0689 30.3751 55.9415 30.3518 55.8239 30.3013C55.7064 30.2507 55.6018 30.1742 55.5179 30.0775C55.4349 29.9975 55.3694 29.9011 55.3253 29.7945C55.2812 29.6879 55.2596 29.5734 55.2619 29.4581C55.2641 29.3427 55.2901 29.2291 55.3383 29.1243C55.3864 29.0195 55.4557 28.9257 55.5417 28.8489Z" fill="white"/>
<path d="M57.1698 31.2247L56.6471 30.6749L56.3077 30.8106L56.043 30.5289L57.74 29.935L57.9945 30.2065L57.3157 31.8594L57.0204 31.5641L57.1698 31.2247ZM57.2954 30.943L57.5703 30.3253L56.939 30.5663L57.2954 30.943Z" fill="white"/>
<path d="M58.1185 32.7453L58.2305 32.2022L58.0031 31.9646L57.6637 32.2769L57.4023 32.002L58.5902 30.882L59.0756 31.3944C59.3742 31.7101 59.398 32.0732 59.1299 32.3142C59.0536 32.3938 58.9543 32.4475 58.8459 32.4676C58.7375 32.4877 58.6255 32.4732 58.5258 32.4262L58.3968 33.0507L58.1185 32.7453ZM58.838 31.5777L58.6242 31.3537L58.2101 31.744L58.4239 31.968C58.5801 32.1343 58.7396 32.1445 58.8685 32.0257C58.9975 31.9069 58.9941 31.744 58.838 31.5641V31.5777Z" fill="white"/>
<path d="M58.6133 33.0303L58.9086 32.9285C58.9371 33.1196 59.0236 33.2973 59.1563 33.4376C59.3091 33.6005 59.4244 33.6141 59.4957 33.5462C59.7163 33.3358 58.9119 32.7928 59.3532 32.3753C59.5568 32.1852 59.8758 32.1886 60.1949 32.5246C60.3354 32.6659 60.4341 32.8432 60.48 33.0371L60.1915 33.1491C60.1562 32.9936 60.0814 32.8498 59.9743 32.7317C59.8182 32.5688 59.6994 32.5654 59.6349 32.6332C59.4177 32.8403 60.2186 33.3901 59.7842 33.8008C59.584 33.9874 59.2615 33.984 58.9391 33.6446C58.7715 33.4771 58.658 33.2631 58.6133 33.0303Z" fill="white"/>
<path d="M62.2788 34.7647L61.0909 35.8881L60.8329 35.6132L61.3183 35.1516L60.8092 34.6119L60.3238 35.0735L60.0625 34.7986L61.2504 33.6786L61.5083 33.9501L61.04 34.3947L61.5491 34.9344L62.0174 34.4898L62.2788 34.7647Z" fill="white"/>
<path d="M61.8804 35.5351C62.0035 35.4044 62.1629 35.3138 62.3382 35.2748C62.5134 35.2358 62.6963 35.2504 62.8631 35.3166C63.03 35.3828 63.1731 35.4976 63.2739 35.6461C63.3748 35.7946 63.4287 35.9699 63.4287 36.1494C63.4287 36.3289 63.3748 36.5043 63.2739 36.6528C63.1731 36.8013 63.03 36.9161 62.8631 36.9823C62.6963 37.0485 62.5134 37.063 62.3382 37.0241C62.1629 36.9851 62.0035 36.8944 61.8804 36.7637C61.7972 36.6845 61.731 36.5892 61.6858 36.4836C61.6405 36.378 61.6172 36.2643 61.6172 36.1494C61.6172 36.0345 61.6405 35.9209 61.6858 35.8153C61.731 35.7097 61.7972 35.6144 61.8804 35.5351ZM62.8443 36.5533C62.8968 36.5091 62.9395 36.4544 62.9698 36.3927C63 36.3311 63.0171 36.2638 63.02 36.1952C63.0229 36.1266 63.0114 36.0581 62.9865 35.9941C62.9615 35.9302 62.9235 35.8721 62.8748 35.8236C62.8054 35.7463 62.7145 35.6914 62.6138 35.666C62.513 35.6406 62.407 35.6458 62.3092 35.6809C62.2114 35.7161 62.1263 35.7795 62.0648 35.8633C62.0033 35.947 61.9681 36.0472 61.9637 36.151C61.9594 36.2548 61.9861 36.3575 62.0404 36.4461C62.0947 36.5347 62.1742 36.605 62.2687 36.6482C62.3632 36.6914 62.4685 36.7054 62.571 36.6885C62.6735 36.6716 62.7686 36.6246 62.8443 36.5533Z" fill="white"/>
<path d="M63.8988 36.4821L64.1568 36.757L63.1929 37.6733L63.7563 38.2673L63.5323 38.4777L62.7109 37.6089L63.8988 36.4821Z" fill="white"/>
<path d="M64.8681 37.507L65.3772 38.0467C65.4616 38.1221 65.5293 38.2142 65.5763 38.3172C65.6232 38.4202 65.6482 38.5318 65.6498 38.645C65.6514 38.7582 65.6294 38.8704 65.5854 38.9747C65.5413 39.0789 65.4761 39.1729 65.3939 39.2507C65.3117 39.3284 65.2142 39.3883 65.1076 39.4264C65.0011 39.4646 64.8878 39.4802 64.7749 39.4723C64.662 39.4644 64.5519 39.4332 64.4517 39.3806C64.3515 39.328 64.2633 39.2551 64.1927 39.1667L63.6836 38.627L64.8681 37.507ZM64.4031 38.9393C64.443 39.0023 64.4962 39.0559 64.5591 39.0961C64.6219 39.1363 64.6929 39.1622 64.7668 39.1719C64.8408 39.1817 64.916 39.1751 64.9871 39.1525C65.0583 39.13 65.1236 39.0921 65.1784 39.0416C65.2333 38.991 65.2764 38.929 65.3046 38.8599C65.3329 38.7909 65.3456 38.7165 65.3419 38.6419C65.3382 38.5674 65.3181 38.4946 65.2832 38.4287C65.2482 38.3628 65.1992 38.3054 65.1396 38.2605L64.902 38.0093L64.1689 38.6915L64.4031 38.9393Z" fill="white"/>
<path d="M66.0934 40.7279L65.8728 40.9383L65.0039 40.0186L66.1918 38.8986L67.0369 39.7946L66.8197 40.0016L66.2291 39.3805L65.9712 39.6215L66.4905 40.1747L66.2767 40.3749L65.7574 39.8251L65.4825 40.0831L66.0934 40.7279Z" fill="white"/>
<path d="M66.7982 41.9226L66.9102 41.3829L66.6828 41.1453L66.3434 41.4576L66.082 41.1827L67.2699 40.0593L67.7553 40.5752C68.0539 40.8908 68.0777 41.2539 67.8096 41.4949C67.7333 41.5745 67.634 41.6282 67.5256 41.6483C67.4172 41.6684 67.3052 41.6539 67.2054 41.6069L67.0765 42.2314L66.7982 41.9226ZM67.5177 40.755L67.3039 40.531L66.8932 40.9247L67.1036 41.1487C67.2631 41.315 67.4193 41.3252 67.5482 41.203C67.6772 41.0809 67.6738 40.9247 67.5177 40.755Z" fill="white"/>
<path d="M50.7962 33.0982L51.4275 33.0575C51.397 33.1716 51.3946 33.2915 51.4206 33.4068C51.4466 33.5221 51.5002 33.6293 51.5769 33.7193C51.7771 33.9297 52.0113 33.9229 52.2557 33.6853L53.3417 32.6671L52.5815 31.8628L53.0057 31.4623L54.2649 32.7927L52.7817 34.191C52.2149 34.7273 51.6719 34.7035 51.1628 34.1673C51.0231 34.0297 50.9172 33.8614 50.8536 33.6759C50.79 33.4904 50.7703 33.2926 50.7962 33.0982Z" fill="white"/>
<path d="M52.6085 35.0022C52.6922 34.923 52.804 34.8803 52.9192 34.8835C53.0344 34.8866 53.1436 34.9355 53.2228 35.0192C53.3021 35.1029 53.3448 35.2146 53.3416 35.3298C53.3384 35.4451 53.2896 35.5543 53.2059 35.6335C53.1644 35.6727 53.1157 35.7034 53.0623 35.7238C53.009 35.7441 52.9523 35.7538 52.8952 35.7522C52.8382 35.7507 52.782 35.7379 52.7299 35.7146C52.6778 35.6913 52.6308 35.658 52.5916 35.6165C52.5523 35.5751 52.5217 35.5263 52.5013 35.473C52.4809 35.4197 52.4712 35.3629 52.4728 35.3059C52.4744 35.2488 52.4872 35.1926 52.5105 35.1405C52.5338 35.0884 52.5671 35.0414 52.6085 35.0022Z" fill="white"/>
<path d="M58.6945 37.4628L55.701 38.8747L55.1647 38.3079L56.2372 36.3428L54.2008 37.2864L53.668 36.723L55.2428 33.8109L55.7621 34.3573L54.642 36.3937L56.7599 35.4129L57.2215 35.9016L56.0947 37.955L58.2193 36.9571L58.6945 37.4628Z" fill="white"/>
<path d="M58.91 37.6903C58.9501 37.6529 58.9976 37.6243 59.0494 37.6063C59.1011 37.5883 59.1561 37.5813 59.2107 37.5858C59.2654 37.5903 59.3185 37.6061 59.3666 37.6323C59.4148 37.6584 59.457 37.6944 59.4904 37.7378C59.5318 37.7724 59.5655 37.8153 59.5895 37.8636C59.6135 37.912 59.6272 37.9647 59.6298 38.0186C59.6323 38.0725 59.6237 38.1264 59.6044 38.1768C59.585 38.2272 59.5555 38.273 59.5176 38.3114C59.4775 38.3506 59.4296 38.381 59.377 38.4006C59.3244 38.4201 59.2683 38.4284 59.2123 38.4249C59.1563 38.4214 59.1017 38.4061 59.0519 38.3802C59.0022 38.3542 58.9585 38.318 58.9236 38.2741C58.8824 38.2378 58.8492 38.1934 58.826 38.1437C58.8028 38.094 58.7902 38.04 58.7889 37.9851C58.7877 37.9303 58.7978 37.8758 58.8186 37.825C58.8394 37.7743 58.8706 37.7284 58.91 37.6903ZM58.4383 38.2503L58.9202 38.7594L57.1621 40.4191L56.6836 39.91L58.4383 38.2503Z" fill="white"/>
<path d="M60.0327 38.6033L60.5146 39.1124L58.0913 41.4067L57.6094 40.8976L60.0327 38.6033Z" fill="white"/>
<path d="M60.9585 39.5841L61.4404 40.0932L59.0171 42.3841L58.5352 41.875L60.9585 39.5841Z" fill="white"/>
<path d="M61.6913 40.6329C61.7321 40.5963 61.78 40.5685 61.8319 40.551C61.8838 40.5336 61.9388 40.5269 61.9934 40.5313C62.048 40.5357 62.1011 40.5513 62.1496 40.5769C62.198 40.6025 62.2407 40.6377 62.2751 40.6804C62.3159 40.7159 62.349 40.7593 62.3724 40.808C62.3959 40.8567 62.4091 40.9097 62.4113 40.9638C62.4135 41.0178 62.4047 41.0717 62.3854 41.1222C62.366 41.1727 62.3366 41.2187 62.2988 41.2574C62.2138 41.3249 62.1068 41.3584 61.9985 41.3515C61.8902 41.3446 61.7883 41.2976 61.7127 41.2199C61.637 41.1421 61.5929 41.0389 61.5889 40.9305C61.585 40.822 61.6215 40.716 61.6913 40.6329ZM61.2195 41.1963L61.7015 41.7054L59.9468 43.365L59.4648 42.8559L61.2195 41.1963Z" fill="white"/>
<path d="M62.8638 44.4613L61.8456 45.4082L61.3942 44.9331L61.6148 44.726C61.4739 44.7471 61.3299 44.7298 61.1979 44.6761C61.066 44.6224 60.9509 44.5341 60.8648 44.4206C60.4745 44.0099 60.4711 43.5483 60.7765 43.2632C61.082 42.9781 61.5062 42.9849 62.0119 43.5178L62.3955 43.9251C62.6161 43.718 62.6195 43.4669 62.3581 43.192C62.1862 43.013 61.9613 42.894 61.7167 42.8526L61.8999 42.3367C62.258 42.4246 62.5817 42.6172 62.8299 42.8899C63.3526 43.3956 63.3967 43.942 62.8638 44.4613ZM61.9373 44.3765L62.1171 44.2068L61.7777 43.8674C61.5537 43.6264 61.3942 43.6366 61.2754 43.7452C61.1566 43.8538 61.1668 44.054 61.3365 44.2339C61.4103 44.316 61.5083 44.3724 61.6164 44.3949C61.7244 44.4175 61.8368 44.4051 61.9373 44.3595V44.3765Z" fill="white"/>
<path d="M66.1099 47.8553L65.0917 48.8056L64.6131 48.2965L65.5397 47.4208C65.8214 47.1527 65.8316 46.9016 65.6381 46.6979C65.4446 46.4943 65.1256 46.4468 64.81 46.742L63.9309 47.577L63.449 47.0679L64.3755 46.1922C64.6606 45.9207 64.6742 45.6763 64.474 45.4659C64.2737 45.2555 63.9649 45.2181 63.6492 45.5168L62.7905 46.3585L62.3086 45.8494L64.0633 44.1898L64.5249 44.6751L64.3212 44.8686C64.4635 44.8667 64.6044 44.8961 64.734 44.9548C64.8636 45.0134 64.9788 45.0999 65.0713 45.208C65.1842 45.3156 65.2674 45.4506 65.3126 45.5999C65.3578 45.7492 65.3635 45.9077 65.3293 46.0598C65.4951 46.048 65.6615 46.0742 65.8156 46.1366C65.9697 46.199 66.1075 46.2958 66.2185 46.4196C66.602 46.8371 66.6427 47.3597 66.1099 47.8553Z" fill="white"/>
<path d="M65.5352 48.9481L66.0612 48.7717C66.1243 49.0607 66.2652 49.3271 66.4685 49.5421C66.6891 49.7763 66.8351 49.8068 66.9335 49.7152C67.2186 49.4437 65.9153 48.6597 66.6246 47.9944C66.964 47.6822 67.4765 47.7602 67.9619 48.2727C68.1876 48.5033 68.3541 48.7851 68.4472 49.0941L67.9245 49.2672C67.87 49.0301 67.7528 48.8121 67.5851 48.6359C67.3713 48.4085 67.205 48.3779 67.1134 48.4628C66.8147 48.7479 68.1078 49.5353 67.4154 50.1869C67.076 50.4958 66.5703 50.4143 66.0578 49.8883C65.8032 49.6269 65.6227 49.3024 65.5352 48.9481Z" fill="white"/>
<path d="M85.8144 68.5756C86.5679 67.8629 87.3892 67.8765 87.9221 68.4365C88.455 68.9965 88.421 69.8212 87.6642 70.5339C86.9073 71.2467 86.0927 71.2365 85.5565 70.6731C85.0202 70.1097 85.061 69.2883 85.8144 68.5756ZM87.172 70.0011C87.6913 69.5123 87.7354 69.1254 87.4843 68.8607C87.2331 68.596 86.8496 68.6197 86.3303 69.1119C85.811 69.604 85.7669 69.9875 86.0147 70.2488C86.2624 70.5102 86.6426 70.4932 87.1619 70.0011H87.172Z" fill="white"/>
<path d="M89.2621 73.076C88.7972 73.5172 88.1421 73.4154 87.6839 72.93C87.09 72.2988 87.1137 71.5317 87.8502 70.8359C88.641 70.0893 89.5472 70.1571 90.1819 70.8359C90.3998 71.053 90.5547 71.3251 90.6299 71.6234L90.0563 71.793C90.0138 71.5895 89.9123 71.403 89.7645 71.2568C89.6873 71.164 89.591 71.0891 89.4821 71.0371C89.3732 70.9852 89.2543 70.9574 89.1337 70.9558C89.013 70.9542 88.8935 70.9788 88.7832 71.0278C88.673 71.0768 88.5747 71.1492 88.4951 71.2398C88.7802 71.2625 89.0448 71.3966 89.2316 71.6132C89.3316 71.706 89.412 71.8181 89.4678 71.9426C89.5237 72.0671 89.554 72.2016 89.5568 72.3381C89.5597 72.4746 89.535 72.6102 89.4844 72.737C89.4338 72.8637 89.3582 72.979 89.2621 73.076ZM88.753 72.5872C88.802 72.5408 88.8404 72.4844 88.8658 72.4219C88.8913 72.3594 88.9031 72.2922 88.9005 72.2247C88.8979 72.1573 88.881 72.0912 88.8509 72.0308C88.8208 71.9704 88.7782 71.9171 88.7259 71.8745C88.685 71.8208 88.6334 71.7762 88.5745 71.7433C88.5156 71.7103 88.4505 71.6899 88.3833 71.6832C88.3162 71.6765 88.2483 71.6838 88.1841 71.7044C88.1198 71.725 88.0605 71.7587 88.0098 71.8032C87.9614 71.8516 87.9238 71.9095 87.8994 71.9734C87.8751 72.0373 87.8644 72.1056 87.8683 72.1738C87.8721 72.2421 87.8904 72.3087 87.9218 72.3694C87.9532 72.4302 87.997 72.4836 88.0505 72.5262C88.0906 72.5802 88.1417 72.6252 88.2005 72.658C88.2593 72.6908 88.3243 72.7108 88.3914 72.7165C88.4585 72.7223 88.526 72.7138 88.5895 72.6915C88.653 72.6692 88.7111 72.6337 88.7598 72.5872H88.753Z" fill="white"/>
<path d="M92.3158 72.2241L92.7468 72.6755L88.6503 74.5083L88.2227 74.0535L92.3158 72.2241Z" fill="white"/>
<path d="M92.0117 76.5583L91.5807 76.9656L89.9414 75.2381L90.2808 74.9156L91.9473 75.0107C92.0604 75.0327 92.177 75.0299 92.289 75.0023C92.4009 74.9748 92.5055 74.9232 92.5955 74.8511C92.7754 74.6814 92.7618 74.4574 92.531 74.2165C92.4482 74.1205 92.3427 74.0467 92.2242 74.0017C92.1057 73.9566 91.9779 73.9418 91.8522 73.9585L91.7368 73.3374C91.9758 73.3097 92.2178 73.3414 92.4416 73.4296C92.6654 73.5178 92.864 73.6599 93.0198 73.8431C93.5017 74.3556 93.5594 74.9394 93.1453 75.3331C92.9247 75.5435 92.6634 75.6725 92.0626 75.6318L91.0716 75.5741L92.0117 76.5583Z" fill="white"/>
<path d="M94.2154 78.7881L93.876 78.4181L93.3975 78.8695L92.9087 78.3536L93.3907 77.9022L92.2266 76.6702L92.5829 76.3308L95.0504 76.0389L95.5764 76.5922L93.2549 76.8908L93.8353 77.5051L94.263 77.1013L94.7347 77.6002L94.3071 78.0041L94.6465 78.3774L94.2154 78.7881Z" fill="white"/>
<path d="M104.936 50.5195C106.226 48.5374 105.72 45.9037 103.989 44.2949C103.463 43.7982 102.853 43.3984 102.187 43.1138C100.534 42.435 98.3451 42.9272 97.4763 44.4952C96.7669 45.7747 97.052 47.3733 97.551 48.7479C98.0702 50.1903 98.9085 51.6633 100.337 52.2233C101.766 52.7833 103.365 52.2708 104.39 51.2051C104.595 50.9959 104.778 50.7662 104.936 50.5195Z" fill="#EDEDED"/>
<path d="M136.417 51.3374H49.6222C46.3532 51.3374 43.7031 53.9875 43.7031 57.2565V117.001C43.7031 120.27 46.3532 122.92 49.6222 122.92H136.417C139.686 122.92 142.336 120.27 142.336 117.001V57.2565C142.336 53.9875 139.686 51.3374 136.417 51.3374Z" fill="#EDEDED"/>
<path d="M142.336 57.2566C142.336 57.2566 142.336 57.1854 142.336 57.0428C142.33 56.8301 142.309 56.6181 142.275 56.4081C142.156 55.5818 141.859 54.7911 141.406 54.09C141.074 53.5744 140.666 53.1111 140.198 52.7155C139.625 52.2461 138.97 51.8871 138.266 51.6565C138.076 51.5921 137.876 51.5547 137.676 51.497C137.476 51.4393 137.262 51.4325 137.048 51.3986L136.393 51.3681H132.734L97.3451 51.3952H72.9084H59.2917H50.3622C49.7596 51.3711 49.156 51.4052 48.56 51.497C47.3597 51.7174 46.2597 52.3113 45.4171 53.194C44.9916 53.6337 44.6398 54.1391 44.3752 54.6908C44.1023 55.2422 43.9234 55.8352 43.8457 56.4455C43.7871 57.0659 43.7678 57.6893 43.788 58.3122V67.8798C43.788 73.0523 43.788 78.3277 43.788 83.706V116.967C43.7901 118.387 44.3061 119.757 45.2406 120.826C46.1624 121.889 47.4406 122.578 48.8349 122.764C49.53 122.824 50.2281 122.843 50.9256 122.822H104.605H132.656H135.921C136.454 122.838 136.987 122.803 137.513 122.717C138.03 122.617 138.531 122.448 139.003 122.214C139.237 122.099 139.464 121.97 139.682 121.827C139.894 121.678 140.098 121.517 140.293 121.345C140.871 120.837 141.341 120.219 141.678 119.526C142.014 118.834 142.209 118.082 142.251 117.313C142.285 113.24 142.251 109.324 142.271 105.59C142.271 90.6569 142.295 78.5607 142.302 70.2047C142.302 66.0267 142.302 62.7854 142.319 60.5827C142.319 59.4865 142.319 58.6482 142.319 58.0814C142.319 57.5146 142.319 57.2295 142.319 57.2295C142.319 57.2295 142.319 57.518 142.319 58.0814C142.319 58.6448 142.319 59.4865 142.319 60.5827C142.319 62.7854 142.319 66.0131 142.336 70.2047C142.336 78.5607 142.336 90.6501 142.363 105.59C142.363 109.324 142.387 113.237 142.363 117.32C142.306 118.366 141.973 119.379 141.399 120.256C141.113 120.696 140.771 121.098 140.381 121.451C140.181 121.627 139.972 121.791 139.753 121.943C139.535 122.088 139.308 122.221 139.074 122.34C138.592 122.581 138.08 122.755 137.55 122.856C137.016 122.946 136.473 122.982 135.931 122.964H132.666H104.615H73.6144H50.912C50.2066 122.986 49.5005 122.966 48.7975 122.903C47.361 122.715 46.0436 122.006 45.0947 120.911C44.1366 119.813 43.6064 118.407 43.6013 116.95C43.6013 105.55 43.6013 94.4242 43.6013 83.689V67.8798C43.6013 65.2959 43.6013 62.7391 43.6013 60.2094V58.3189C43.5811 57.6881 43.6015 57.0567 43.6624 56.4285C43.7427 55.8015 43.9274 55.1923 44.2089 54.6263C44.4801 54.0577 44.8424 53.5372 45.2814 53.0854C45.716 52.6385 46.2147 52.2587 46.7611 51.9586C47.3104 51.667 47.901 51.461 48.5124 51.3477L48.9706 51.2764L49.4288 51.2527C49.7377 51.2357 50.0397 51.2527 50.3418 51.2527H72.8881H97.3248L132.714 51.2832H136.356L137.017 51.3171C137.231 51.3545 137.445 51.3782 137.649 51.4224C137.852 51.4665 138.053 51.5174 138.243 51.5853C138.952 51.8188 139.612 52.1825 140.187 52.6578C140.659 53.0571 141.067 53.525 141.399 54.0459C141.851 54.7529 142.142 55.5497 142.254 56.381C142.289 56.5919 142.307 56.8053 142.309 57.0191C142.336 57.1854 142.336 57.2566 142.336 57.2566Z" fill="#353535"/>
<path d="M138.879 55.7497C139.553 55.632 140.242 55.632 140.915 55.7497C140.242 55.8673 139.553 55.8673 138.879 55.7497Z" fill="#353535"/>
<path d="M130.57 55.7497C131.953 55.632 133.342 55.632 134.725 55.7497C133.342 55.8673 131.953 55.8673 130.57 55.7497Z" fill="#353535"/>
<path d="M122.266 55.7497C123.647 55.6319 125.035 55.6319 126.416 55.7497C125.035 55.8674 123.647 55.8674 122.266 55.7497Z" fill="#353535"/>
<path d="M113.957 55.7497C115.339 55.632 116.729 55.632 118.111 55.7497C116.729 55.8673 115.339 55.8673 113.957 55.7497Z" fill="#353535"/>
<path d="M105.652 55.7497C107.033 55.6319 108.422 55.6319 109.803 55.7497C108.422 55.8674 107.033 55.8674 105.652 55.7497Z" fill="#353535"/>
<path d="M97.3438 55.7497C98.726 55.632 100.116 55.632 101.498 55.7497C100.116 55.8673 98.726 55.8673 97.3438 55.7497Z" fill="#353535"/>
<path d="M89.0391 55.7497C90.4202 55.6319 91.8088 55.6319 93.1899 55.7497C91.8088 55.8674 90.4202 55.8674 89.0391 55.7497Z" fill="#353535"/>
<path d="M80.7305 55.7497C82.1127 55.632 83.5025 55.632 84.8847 55.7497C83.5025 55.8673 82.1127 55.8673 80.7305 55.7497Z" fill="#353535"/>
<path d="M72.4219 55.7497C73.8041 55.632 75.1939 55.632 76.5761 55.7497C75.1939 55.8673 73.8041 55.8673 72.4219 55.7497Z" fill="#353535"/>
<path d="M64.1172 55.7497C64.8025 55.663 65.4939 55.6335 66.1841 55.6615C66.8777 55.6329 67.5725 55.6625 68.2612 55.7497C67.5727 55.839 66.8777 55.8685 66.1841 55.8379C65.4939 55.8679 64.8024 55.8384 64.1172 55.7497Z" fill="#353535"/>
<path d="M55.8086 55.7497C56.4973 55.6625 57.1921 55.6329 57.8857 55.6615C58.5793 55.6329 59.2741 55.6625 59.9628 55.7497C59.2743 55.839 58.5793 55.8685 57.8857 55.8379C57.1921 55.8685 56.4971 55.839 55.8086 55.7497Z" fill="#353535"/>
<path d="M49.6195 57.7861C49.5301 57.1112 49.5006 56.4298 49.5313 55.7497L49.6195 55.6614H50.4103L51.0586 55.6818C51.2596 55.6745 51.4606 55.695 51.6559 55.7429C51.461 55.7931 51.2598 55.8148 51.0586 55.8074L50.4103 55.8243H50.0302H49.6195L49.7078 55.7361C49.7372 56.4207 49.7076 57.1065 49.6195 57.7861Z" fill="#353535"/>
<path d="M49.6194 65.3988C49.5302 64.7683 49.5006 64.1308 49.5312 63.4947C49.5007 62.8598 49.5303 62.2235 49.6194 61.5941C49.7066 62.2237 49.7361 62.8598 49.7077 63.4947C49.7362 64.1308 49.7067 64.7681 49.6194 65.3988Z" fill="#353535"/>
<path d="M49.6195 73.0115C49.5018 71.746 49.5018 70.4723 49.6195 69.2068C49.7371 70.4723 49.7371 71.746 49.6195 73.0115Z" fill="#353535"/>
<path d="M49.6195 80.6242C49.5018 79.3576 49.5018 78.0828 49.6195 76.8162C49.7372 78.0828 49.7372 79.3576 49.6195 80.6242Z" fill="#353535"/>
<path d="M49.6195 88.2437C49.5018 86.9771 49.5018 85.7023 49.6195 84.4357C49.7372 85.7023 49.7372 86.9771 49.6195 88.2437Z" fill="#353535"/>
<path d="M49.6195 95.8463C49.5018 94.5808 49.5018 93.3071 49.6195 92.0416C49.7371 93.3071 49.7371 94.5808 49.6195 95.8463Z" fill="#353535"/>
<path d="M49.6195 103.459C49.5018 102.193 49.5018 100.92 49.6195 99.6543C49.7371 100.92 49.7371 102.193 49.6195 103.459Z" fill="#353535"/>
<path d="M49.6195 111.072C49.5018 109.806 49.5018 108.533 49.6195 107.267C49.7371 108.533 49.7371 109.806 49.6195 111.072Z" fill="#353535"/>
<path d="M51.657 116.916C50.9819 117.003 50.3006 117.033 49.6206 117.004C49.4441 116.828 49.5697 116.953 49.5323 116.913V116.509C49.5323 116.376 49.5323 116.251 49.5323 116.125C49.5323 115.901 49.5323 115.687 49.5323 115.477C49.5226 115.277 49.5443 115.076 49.5968 114.883C49.6449 115.077 49.6654 115.277 49.6579 115.477C49.6579 115.687 49.6579 115.901 49.6783 116.125C49.6783 116.251 49.6783 116.376 49.6783 116.509C49.6783 116.573 49.6783 116.641 49.6783 116.709V116.913C49.6375 116.875 49.7665 117.004 49.59 116.828C50.2803 116.796 50.972 116.825 51.657 116.916Z" fill="#353535"/>
<path d="M59.8423 116.916C59.1672 117.003 58.486 117.032 57.8059 117.004C57.1259 117.032 56.4446 117.003 55.7695 116.916C56.4445 116.827 57.1259 116.798 57.8059 116.828C58.486 116.798 59.1674 116.827 59.8423 116.916Z" fill="#353535"/>
<path d="M68.0298 116.916C67.3547 117.003 66.6735 117.032 65.9934 117.004C65.3134 117.032 64.6321 117.003 63.957 116.916C64.632 116.827 65.3134 116.798 65.9934 116.828C66.6735 116.798 67.3549 116.827 68.0298 116.916Z" fill="#353535"/>
<path d="M76.2142 116.916C74.8524 117.034 73.4829 117.034 72.1211 116.916C73.4829 116.798 74.8524 116.798 76.2142 116.916Z" fill="#353535"/>
<path d="M84.4017 116.916C83.0399 117.034 81.6704 117.034 80.3086 116.916C81.6704 116.798 83.0399 116.798 84.4017 116.916Z" fill="#353535"/>
<path d="M92.5892 116.916C91.2274 117.034 89.8579 117.034 88.4961 116.916C89.8579 116.798 91.2274 116.798 92.5892 116.916Z" fill="#353535"/>
<path d="M100.777 116.916C99.4149 117.034 98.0454 117.034 96.6836 116.916C98.0454 116.798 99.4149 116.798 100.777 116.916Z" fill="#353535"/>
<path d="M108.949 116.916C107.587 117.034 106.217 117.034 104.855 116.916C106.217 116.798 107.587 116.798 108.949 116.916Z" fill="#353535"/>
<path d="M117.148 116.916C115.786 117.034 114.417 117.034 113.055 116.916C114.417 116.798 115.786 116.798 117.148 116.916Z" fill="#353535"/>
<path d="M125.335 116.916C123.973 117.034 122.604 117.034 121.242 116.916C122.604 116.798 123.973 116.798 125.335 116.916Z" fill="#353535"/>
<path d="M133.523 116.916C132.161 117.034 130.792 117.034 129.43 116.916C130.792 116.798 132.161 116.798 133.523 116.916Z" fill="#353535"/>
<path d="M139.654 116.916C138.98 117.034 138.291 117.034 137.617 116.916C138.291 116.798 138.98 116.798 139.654 116.916Z" fill="#353535"/>
<g opacity="0.3">
<path d="M77.7243 91.0403C77.7243 91.0403 77.7446 94.4343 76.7061 96.4707C75.6675 98.5071 75.3485 99.3149 73.1763 100.102C71.0042 100.89 43.6758 103.893 43.6758 103.893V94.6719L77.7243 91.0403Z" fill="#0C0C0C"/>
</g>
<g opacity="0.3">
<path d="M77.2459 78.245C77.2459 78.245 77.5582 74.7798 68.8662 73.4935C58.9252 72.0239 43.7031 70.2183 43.7031 70.2183V76.772L77.2459 78.245Z" fill="#0C0C0C"/>
</g>
<path d="M72.8782 75.1022H44.6029C41.9206 75.1022 39.7461 77.2766 39.7461 79.959V92.6186C39.7461 95.3009 41.9206 97.4753 44.6029 97.4753H72.8782C75.5605 97.4753 77.735 95.3009 77.735 92.6186V79.959C77.735 77.2766 75.5605 75.1022 72.8782 75.1022Z" fill="#EDEDED"/>
<path d="M44.6043 97.472C44.6043 97.472 44.5059 97.472 44.3158 97.472C44.031 97.461 43.748 97.4224 43.4707 97.3566C43.0171 97.2543 42.5813 97.085 42.1776 96.8542C41.6246 96.5419 41.139 96.1232 40.7487 95.6222C40.2543 94.9941 39.9221 94.2539 39.7815 93.4671C39.7107 93.0182 39.6835 92.5636 39.7 92.1095C39.7 91.6411 39.7 91.1523 39.7 90.6466C39.7 88.6272 39.7 86.3295 39.7 83.7874C39.7 82.5146 39.7 81.1876 39.7 79.7961C39.7228 79.0625 39.9096 78.3433 40.2468 77.6914C40.5839 77.0395 41.0627 76.4714 41.6481 76.0287C42.2635 75.5557 42.9844 75.2389 43.749 75.1056C44.137 75.0412 44.5302 75.0139 44.9233 75.0241H51.0325H72.9034C73.6401 75.0225 74.3678 75.1864 75.0328 75.5036C75.6978 75.8208 76.283 76.2833 76.7454 76.8569C77.3577 77.6074 77.7333 78.5229 77.8247 79.4872C77.862 79.9658 77.8484 80.4307 77.8518 80.8957C77.8518 81.8257 77.8518 82.7477 77.8518 83.6618V89.0481C77.8518 89.9271 77.8518 90.7994 77.8518 91.6581C77.8518 92.0925 77.8688 92.5133 77.8518 92.9478C77.8394 93.163 77.8133 93.3773 77.7738 93.5892C77.7276 93.7978 77.6709 94.004 77.6041 94.2069C77.3277 95.0015 76.8532 95.7125 76.2255 96.2725C75.5977 96.8326 74.8375 97.2232 74.0166 97.4075C73.8206 97.4527 73.6223 97.4878 73.4227 97.5127C73.2224 97.5296 73.0222 97.5364 72.8219 97.5432H69.377H61.0618L49.0199 97.5127L45.7447 97.4957H44.8962H44.6043C44.6043 97.4957 44.7027 97.4957 44.8962 97.4957H45.7447L49.0199 97.4787L61.0618 97.4516H69.377H71.6544C72.4282 97.4312 73.219 97.5161 73.9793 97.3158C74.7663 97.1278 75.4929 96.7435 76.0911 96.1986C76.6894 95.6538 77.1398 94.9662 77.4004 94.2001C77.6923 93.4161 77.6516 92.5642 77.6516 91.7022V89.0922C77.6516 87.3341 77.6516 85.5353 77.6516 83.7059V80.9398C77.6516 80.4749 77.6516 80.0031 77.6278 79.5483C77.5364 78.6184 77.1741 77.7357 76.5859 77.0096C76.2898 76.6504 75.9474 76.3319 75.5677 76.0627C75.1732 75.8029 74.745 75.5985 74.2949 75.4552C73.8392 75.3224 73.3678 75.2516 72.8932 75.2447H51.0223H44.9132C44.528 75.2346 44.1428 75.2608 43.7626 75.3228C43.0221 75.451 42.3236 75.7561 41.7262 76.212C41.1568 76.6409 40.6906 77.1918 40.3617 77.8243C40.0329 78.4568 39.8497 79.1549 39.8256 79.8673C39.8086 81.2487 39.8256 82.5825 39.8256 83.8553C39.8256 86.3974 39.8256 88.6951 39.8256 90.7145C39.8256 91.2202 39.8256 91.709 39.8256 92.1773C39.8085 92.6256 39.8335 93.0744 39.9002 93.518C40.0631 94.4432 40.491 95.3013 41.132 95.9881C41.7731 96.6749 42.5996 97.1609 43.5114 97.3871C43.7863 97.4558 44.067 97.499 44.3498 97.5161L44.6043 97.472Z" fill="#353535"/>
<path d="M66.2922 95.2625C70.7833 95.2625 74.4242 91.6217 74.4242 87.1305C74.4242 82.6394 70.7833 78.9985 66.2922 78.9985C61.801 78.9985 58.1602 82.6394 58.1602 87.1305C58.1602 91.6217 61.801 95.2625 66.2922 95.2625Z" fill="#717171"/>
<path d="M68.375 93.7726C69.0629 93.5174 69.7153 93.1752 70.3164 92.7544C70.9558 92.2854 71.5112 91.7117 71.9591 91.0574C72.5167 90.2635 72.8857 89.3528 73.0381 88.3946C73.1904 87.4365 73.122 86.4562 72.8381 85.5286C72.6163 84.7671 72.2649 84.0495 71.7995 83.4073C71.3609 82.8203 70.8475 82.2932 70.2722 81.8393C70.2722 81.8393 70.3232 81.8597 70.4046 81.914C70.5302 81.9922 70.6514 82.0771 70.7678 82.1685C71.1951 82.5051 71.5763 82.8965 71.9014 83.3326C72.3892 83.9789 72.7592 84.7062 72.9942 85.481C73.2961 86.4308 73.3716 87.4379 73.2149 88.4221C73.0581 89.4062 72.6734 90.34 72.0914 91.149C71.6297 91.8098 71.0552 92.3842 70.3944 92.846C69.9508 93.1599 69.4667 93.4122 68.9554 93.5961C68.8179 93.6488 68.6774 93.693 68.5345 93.7284C68.4847 93.7534 68.4305 93.7684 68.375 93.7726Z" fill="#FAFAFA"/>
<path d="M193.599 35.0057C193.874 37.9672 193.264 40.9437 191.847 43.5583C190.429 46.1729 188.267 48.3078 185.635 49.6928C183.003 51.0777 180.019 51.6503 177.061 51.338C174.103 51.0257 171.304 49.8426 169.02 47.9385C166.735 46.0345 165.066 43.4951 164.226 40.6421C163.385 37.7891 163.41 34.7508 164.298 31.912C165.186 29.0733 166.896 26.5618 169.212 24.6958C171.528 22.8297 174.345 21.6931 177.308 21.4297C181.268 21.0732 185.207 22.3025 188.262 24.8478C191.316 27.3931 193.236 31.0464 193.599 35.0057Z" fill="#EDEDED"/>
<g opacity="0.3">
<path d="M190.003 34.9581C189.935 34.9581 189.843 34.4728 189.582 33.6005C189.216 32.3978 188.666 31.2587 187.953 30.2235C187.46 29.517 186.891 28.867 186.256 28.2856C185.529 27.6182 184.719 27.0477 183.846 26.5886C183.376 26.3409 182.888 26.1287 182.387 25.9539C181.865 25.7705 181.331 25.6264 180.788 25.5229C180.228 25.4154 179.661 25.3507 179.091 25.3294C178.502 25.3093 177.912 25.3331 177.326 25.4007C176.742 25.4732 176.164 25.5867 175.595 25.7401C175.045 25.8983 174.507 26.098 173.987 26.3374C173 26.7903 172.086 27.3849 171.271 28.1023C170.532 28.7523 169.88 29.4949 169.33 30.3118C168.853 31.0284 168.457 31.7956 168.149 32.5993C167.702 33.7734 167.441 35.0102 167.375 36.2648C167.324 37.1608 167.355 37.6632 167.284 37.6733C167.212 37.6835 167.09 37.188 167.032 36.2648C166.968 34.9523 167.147 33.6393 167.562 32.3923C168.179 30.5167 169.271 28.833 170.732 27.5049C171.593 26.7158 172.568 26.0603 173.624 25.5602C174.182 25.2961 174.761 25.077 175.354 24.9051C175.966 24.7302 176.59 24.602 177.221 24.5216C177.853 24.4497 178.49 24.4247 179.125 24.447C179.743 24.4745 180.358 24.5494 180.965 24.671C182.109 24.9041 183.211 25.3068 184.237 25.8656C185.972 26.8087 187.434 28.1834 188.482 29.857C189.184 30.9687 189.672 32.2014 189.921 33.4919C190.064 34.449 190.064 34.9581 190.003 34.9581Z" fill="#0C0C0C"/>
</g>
<g opacity="0.3">
<path d="M180.532 43.029L180.739 45.0111L178.968 45.1978L178.767 43.2666C177.003 43.3413 175.265 42.9679 174.213 42.3095L174.959 40.0457C176.049 40.6494 177.277 40.9594 178.523 40.9451L178.214 37.989C176.202 37.714 173.938 37.2898 173.673 34.7545C173.476 32.8776 174.674 31.1263 177.437 30.5154L177.233 28.5503L179.005 28.367L179.205 30.2948C180.479 30.235 181.749 30.4769 182.912 31.0007L182.257 33.2611C181.374 32.8649 180.421 32.648 179.453 32.6231L179.765 35.6335C181.778 35.8881 184.008 36.3123 184.266 38.8171C184.459 40.6702 183.275 42.4045 180.532 43.029ZM177.95 35.3858L177.685 32.8708C176.772 33.1797 176.453 33.7329 176.514 34.3167C176.575 34.9004 177.142 35.2195 177.95 35.3858ZM181.439 39.3364C181.374 38.7153 180.824 38.4336 180.037 38.2469L180.291 40.6906C181.157 40.4055 181.496 39.9032 181.439 39.3364Z" fill="#0C0C0C"/>
</g>
<path d="M167.235 37.3917C167.246 37.4212 167.254 37.4519 167.259 37.4833C167.259 37.5546 167.286 37.6428 167.306 37.7514C167.327 37.86 167.347 38.0195 167.374 38.1858C167.402 38.3849 167.441 38.5822 167.493 38.7764C167.981 40.8919 169.053 42.8277 170.588 44.3629L171.125 44.8516C171.216 44.9297 171.301 45.0179 171.399 45.096L171.701 45.32C171.905 45.4693 172.105 45.6356 172.323 45.7748L173.001 46.1855C173.973 46.7344 175.019 47.1403 176.107 47.3903C178.461 47.9288 180.926 47.7017 183.143 46.7421C184.167 46.2979 185.121 45.708 185.977 44.9908L186.567 44.4647C186.757 44.2882 186.907 44.088 187.093 43.9047C187.178 43.8131 187.266 43.7214 187.348 43.6298C187.429 43.5382 187.5 43.433 187.579 43.3379C187.725 43.1411 187.87 42.951 188.016 42.7609C188.511 42.0323 188.924 41.2515 189.248 40.4327C189.717 39.2407 189.985 37.979 190.039 36.6993C190.053 36.4993 190.053 36.2986 190.039 36.0985C190.039 35.9288 190.039 35.7795 190.039 35.6573C190.039 35.5351 190.039 35.4571 190.039 35.3858C190.036 35.3542 190.036 35.3224 190.039 35.2908C190.043 35.3212 190.043 35.352 190.039 35.3824C190.039 35.4537 190.039 35.5453 190.06 35.6539C190.08 35.7625 190.06 35.9254 190.083 36.0985C190.099 36.2996 190.099 36.5016 190.083 36.7027C190.055 37.9931 189.804 39.2689 189.34 40.4734C189.023 41.31 188.611 42.1072 188.111 42.8492L187.687 43.4431C187.609 43.5416 187.538 43.6468 187.456 43.7418L187.198 44.0235C187.025 44.2102 186.859 44.4104 186.666 44.5903L186.072 45.1299C185.206 45.8606 184.239 46.4619 183.2 46.9152C180.956 47.8906 178.458 48.1214 176.073 47.5736C174.968 47.3175 173.907 46.9013 172.923 46.3382L172.245 45.9207C172.024 45.7782 171.824 45.6085 171.617 45.4592L171.315 45.2284C171.216 45.1503 171.128 45.0587 171.033 44.9772L170.483 44.4613C169.859 43.8236 169.31 43.1177 168.844 42.3571C168.168 41.2565 167.688 40.0474 167.425 38.7832C167.377 38.588 167.343 38.3894 167.323 38.1892C167.303 38.0195 167.286 37.8702 167.269 37.748C167.252 37.6258 167.249 37.5478 167.238 37.4765C167.235 37.4484 167.234 37.42 167.235 37.3917Z" fill="#353535"/>
<path d="M172.417 79.3006C171.67 80.8583 170.477 82.1593 168.99 83.0389C167.503 83.9185 165.789 84.3371 164.064 84.2418C162.339 84.1464 160.681 83.5413 159.3 82.5032C157.919 81.465 156.877 80.0405 156.307 78.4099C155.736 76.7793 155.662 75.016 156.094 73.3433C156.526 71.6706 157.444 70.1636 158.733 69.0132C160.022 67.8628 161.623 67.1207 163.334 66.8809C165.045 66.6411 166.788 66.9143 168.344 67.666C169.375 68.1624 170.299 68.8572 171.062 69.7106C171.825 70.564 172.412 71.5593 172.79 72.6397C173.168 73.7201 173.33 74.8644 173.266 76.0073C173.202 77.1502 172.913 78.2692 172.417 79.3006Z" fill="#EDEDED"/>
<g opacity="0.3">
<path d="M170.647 78.2112C170.682 77.9393 170.746 77.672 170.837 77.4136C171.013 76.7048 171.078 75.9734 171.031 75.2448C170.994 74.7457 170.904 74.2518 170.763 73.7718C170.596 73.2247 170.36 72.7012 170.06 72.214C169.898 71.9515 169.718 71.7008 169.521 71.4639C168.876 70.694 168.063 70.0831 167.145 69.6787C166.831 69.5415 166.508 69.428 166.178 69.3393C165.856 69.2548 165.528 69.1946 165.197 69.1594C164.878 69.1229 164.557 69.1115 164.236 69.1254C163.927 69.1375 163.62 69.1727 163.316 69.2307C162.754 69.3329 162.207 69.5086 161.691 69.7533C161.239 69.9692 160.813 70.2332 160.418 70.5407C159.846 70.9954 159.348 71.5358 158.942 72.1427C158.809 72.3838 158.654 72.6112 158.477 72.8215C158.518 72.5441 158.618 72.2789 158.772 72.0443C159.13 71.3636 159.614 70.7568 160.197 70.2556C160.598 69.9074 161.039 69.6088 161.511 69.3664C162.055 69.0877 162.633 68.8833 163.232 68.7589C163.901 68.6203 164.588 68.5837 165.268 68.6503C165.625 68.6859 165.979 68.7494 166.327 68.8403C166.684 68.9366 167.033 69.0591 167.372 69.2069C167.71 69.3583 168.036 69.5353 168.346 69.7364C168.646 69.9332 168.93 70.1533 169.195 70.3948C169.453 70.6268 169.691 70.8799 169.908 71.1517C170.116 71.4081 170.305 71.6804 170.471 71.9662C170.783 72.4972 171.022 73.0681 171.18 73.6632C171.315 74.1754 171.389 74.7017 171.401 75.2312C171.42 75.9951 171.297 76.7559 171.038 77.4747C170.96 77.7444 170.827 77.9952 170.647 78.2112Z" fill="#0C0C0C"/>
</g>
<g opacity="0.3">
<path d="M163.521 79.4194L163.036 80.4681L162.096 80.0337L162.571 79.0155C161.75 78.6011 161.061 77.9651 160.582 77.1794L161.631 76.2732C161.995 76.8999 162.515 77.4215 163.141 77.7869L163.871 76.2189C162.944 75.4824 161.943 74.5931 162.568 73.2525C163.029 72.2581 164.146 71.7388 165.707 72.2581L166.192 71.2161L167.129 71.654L166.654 72.6721C167.308 73.0208 167.87 73.5199 168.293 74.1282L167.275 75.0649C166.952 74.6042 166.542 74.212 166.067 73.911L165.327 75.5061C166.253 76.2324 167.238 77.1115 166.623 78.4351C166.186 79.4194 165.079 79.9183 163.521 79.4194ZM164.509 74.8341L165.13 73.5037C164.58 73.3849 164.254 73.5648 164.112 73.8736C163.969 74.1825 164.159 74.5049 164.509 74.8273V74.8341ZM165.076 77.848C165.225 77.5086 165.038 77.2133 164.699 76.8841L164.098 78.1806C164.611 78.2892 164.95 78.1399 165.076 77.8412V77.848Z" fill="#0C0C0C"/>
</g>
<path d="M158.566 72.6314C158.566 72.6314 158.464 72.9063 158.298 73.4052C158.073 74.1114 157.968 74.8501 157.986 75.591C157.999 76.1005 158.068 76.607 158.193 77.1013C158.34 77.6723 158.558 78.2229 158.841 78.7406C159.163 79.3002 159.563 79.8111 160.029 80.2577C161.036 81.2243 162.327 81.8429 163.711 82.0226C164.351 82.1056 164.999 82.0965 165.636 81.9954C166.721 81.8217 167.745 81.3796 168.616 80.7091C169.204 80.2578 169.714 79.7132 170.126 79.097C170.408 78.6557 170.54 78.391 170.557 78.4012C170.537 78.4689 170.508 78.5339 170.472 78.5946C170.386 78.7786 170.29 78.9576 170.184 79.1309C169.788 79.772 169.284 80.3394 168.694 80.8075C167.817 81.5134 166.773 81.981 165.663 82.1651C165.01 82.2748 164.344 82.2874 163.688 82.2025C162.983 82.104 162.297 81.9016 161.651 81.6017C161.014 81.288 160.427 80.8807 159.91 80.3935C159.434 79.9344 159.027 79.4084 158.702 78.8322C158.406 78.3088 158.178 77.75 158.023 77.1692C157.903 76.663 157.84 76.145 157.836 75.6249C157.828 74.8723 157.953 74.1242 158.206 73.4154C158.273 73.2235 158.352 73.0364 158.444 72.8554C158.475 72.7761 158.516 72.7009 158.566 72.6314Z" fill="#353535"/>
<path d="M28.3204 78.0618C28.7339 80.8526 28.31 83.7033 27.1023 86.253C25.8946 88.8027 23.9575 90.9367 21.5363 92.3848C19.115 93.8329 16.3185 94.5299 13.5008 94.3877C10.6831 94.2454 7.97105 93.2702 5.70795 91.5856C3.44486 89.9011 1.73253 87.5828 0.787807 84.9244C-0.156921 82.266 -0.291565 79.3871 0.400926 76.6522C1.09342 73.9172 2.5819 71.4492 4.67789 69.5608C6.77388 67.6723 9.38311 66.4483 12.1752 66.0437C14.0245 65.7725 15.909 65.8683 17.7212 66.3256C19.5334 66.7828 21.2379 67.5926 22.7371 68.7086C24.2364 69.8246 25.5011 71.225 26.4591 72.8298C27.4171 74.4347 28.0496 76.2125 28.3204 78.0618Z" fill="#EDEDED"/>
<g opacity="0.3">
<path d="M24.9125 78.2043C24.848 78.2043 24.7326 77.7529 24.4407 76.9554C24.0344 75.8335 23.4549 74.7822 22.7234 73.8397C22.2224 73.1986 21.6534 72.6137 21.0264 72.0952C20.3013 71.5055 19.5027 71.0127 18.6506 70.629C18.1928 70.4189 17.7197 70.2442 17.2353 70.1063C16.7324 69.9534 16.2184 69.8399 15.6978 69.7669C15.1603 69.694 14.6179 69.6622 14.0755 69.6719C13.5168 69.6861 12.9599 69.7405 12.409 69.8348C11.8587 69.9349 11.3164 70.0756 10.7867 70.2556C10.2738 70.435 9.77467 70.6516 9.29337 70.9039C8.82886 71.1485 8.38404 71.4287 7.96292 71.7422C7.55634 72.0398 7.17182 72.3665 6.81236 72.7197C5.5625 73.9481 4.6306 75.4625 4.09717 77.1318C3.73496 78.2686 3.55287 79.455 3.55753 80.648C3.55753 81.4965 3.60844 81.9717 3.55753 81.9819C3.50662 81.992 3.3471 81.5339 3.24868 80.665C3.11481 79.4252 3.21614 78.1712 3.54735 76.9689C3.77205 76.1325 4.09563 75.3258 4.51124 74.566C4.99478 73.6927 5.59289 72.888 6.28969 72.1732C6.66671 71.7852 7.07292 71.4267 7.50474 71.1007C7.9541 70.7576 8.42957 70.4501 8.92682 70.181C9.44222 69.9022 9.97904 69.665 10.5322 69.4716C11.6731 69.0685 12.8724 68.8553 14.0823 68.8403C14.6681 68.834 15.2536 68.8726 15.8336 68.9557C16.3937 69.0352 16.9465 69.1601 17.4865 69.3291C18.0037 69.4873 18.5085 69.6836 18.9968 69.9162C20.6883 70.7194 22.1446 71.9443 23.2257 73.4731C23.9468 74.4913 24.4738 75.6339 24.7801 76.8434C24.9566 77.7224 24.96 78.1976 24.9125 78.2043Z" fill="#0C0C0C"/>
</g>
<g opacity="0.3">
<path d="M16.3664 86.3363L16.665 88.203L14.9986 88.4711L14.7067 86.652C13.0403 86.8149 11.3738 86.5535 10.342 85.9732L10.9326 83.7908C11.9954 84.3118 13.176 84.5458 14.3571 84.4696L13.9125 81.6865C11.9881 81.5338 9.82275 81.2453 9.43923 78.8627C9.15753 77.0945 10.1995 75.3703 12.7857 74.6508L12.487 72.7977L14.1569 72.533L14.4454 74.3487C15.6496 74.2258 16.8659 74.3886 17.9955 74.8239L17.4898 77.0096C16.632 76.6796 15.717 76.5238 14.7983 76.5514L15.2531 79.3854C17.1741 79.5212 19.3056 79.8131 19.6823 82.1651C19.9606 83.896 18.9322 85.5998 16.3664 86.3363ZM13.5188 79.2327L13.1387 76.8569C12.2868 77.1963 12.0153 77.7393 12.1035 78.2892C12.1918 78.839 12.7484 79.1173 13.5188 79.2327ZM17.0316 82.793C16.9366 82.2092 16.4037 81.9682 15.6468 81.8325L16.0134 84.1336C16.8178 83.8316 17.1164 83.3258 17.0316 82.793Z" fill="#0C0C0C"/>
</g>
<path d="M3.47944 81.6936C3.48963 81.7212 3.49758 81.7496 3.5032 81.7785C3.52017 81.843 3.54053 81.9278 3.56429 82.0296L3.65254 82.4369C3.68897 82.624 3.73657 82.8087 3.79508 82.9901C4.13229 84.1555 4.66105 85.2566 5.35971 86.2484C5.8416 86.9305 6.39828 87.5566 7.01937 88.115L7.55223 88.5495C7.64387 88.6207 7.73211 88.6988 7.82714 88.7667L8.12581 88.9635C8.32606 89.0925 8.52291 89.2385 8.73673 89.3606L9.39516 89.7C10.3443 90.169 11.3559 90.4993 12.3988 90.6809C13.5223 90.8587 14.6657 90.8712 15.7928 90.7182C16.9156 90.5368 18.0062 90.1938 19.0307 89.7C19.9755 89.2245 20.8475 88.6165 21.6203 87.8944L22.1498 87.3616C22.3229 87.1851 22.4654 86.9882 22.6215 86.8084L22.8489 86.5334C22.9236 86.4384 22.9847 86.34 23.0492 86.245C23.1815 86.0515 23.3071 85.8614 23.4361 85.6748C23.8655 84.9591 24.216 84.1989 24.4814 83.4076C24.8633 82.2553 25.0503 81.0475 25.0347 79.8337C25.0413 79.6433 25.0334 79.4527 25.0109 79.2635C25.0109 79.104 24.9871 78.9649 24.9804 78.8461C24.9736 78.7273 24.9804 78.6594 24.9634 78.5881C24.9589 78.5589 24.9589 78.5291 24.9634 78.4999C24.9738 78.5282 24.9795 78.558 24.9804 78.5881C24.9804 78.656 25.0007 78.7408 25.0143 78.8427C25.0279 78.9445 25.0448 79.1006 25.0652 79.2601C25.0911 79.4502 25.1036 79.6419 25.1025 79.8337C25.1465 81.0575 24.9765 82.2796 24.6002 83.4449C24.3419 84.2514 23.9923 85.0257 23.5583 85.7528L23.1748 86.3298C23.1069 86.4282 23.0458 86.5301 22.9711 86.6251L22.7437 86.9034C22.5876 87.0901 22.4417 87.2903 22.2686 87.4702C22.0955 87.6501 21.9292 87.8299 21.7323 88.0098C20.9505 88.749 20.0656 89.3709 19.1054 89.8562C17.0263 90.8999 14.6671 91.2485 12.3751 90.8506C11.3131 90.6605 10.2842 90.3175 9.3205 89.8324L8.6417 89.4692C8.42448 89.3471 8.22763 89.1977 8.02399 89.0654L7.72193 88.8651C7.6269 88.7938 7.53865 88.7124 7.44362 88.6411L6.90737 88.1999C6.28309 87.6286 5.72522 86.9888 5.24432 86.2925C4.54756 85.2849 4.03081 84.1641 3.71702 82.9799C3.65879 82.7971 3.61566 82.6098 3.58805 82.4199C3.5609 82.2604 3.53714 82.1247 3.51338 82.0059L3.47266 81.7513C3.47327 81.7319 3.47554 81.7126 3.47944 81.6936Z" fill="#353535"/>
<path d="M207.531 122.93C207.531 122.981 156.855 123.022 94.358 123.022C31.8611 123.022 -18.8281 122.981 -18.8281 122.93C-18.8281 122.879 31.8373 122.842 94.358 122.842C156.879 122.842 207.531 122.883 207.531 122.93Z" fill="#353535"/>
</g>
<defs>
<clipPath id="clip0_2600_26981">
<rect width="193.395" height="124" fill="white"/>
</clipPath>
</defs>
</svg>
