<svg width="268" height="226" viewBox="0 0 268 226" fill="none" xmlns="http://www.w3.org/2000/svg">
<g clip-path="url(#clip0_2541_21029)">
<rect width="268" height="226" fill="white"/>
<path d="M231.554 31.2874L230.299 29.3086C219.716 12.6316 200.58 2.5834 180.404 3.78816C177.807 3.94801 175.227 4.29072 172.683 4.81349C154.341 8.57132 138.368 21.8339 131.763 38.8185C127.87 48.8103 126.787 60.3093 119.404 68.2402C109.791 78.5602 93.4806 78.8831 79.1382 78.4576C64.7957 78.0321 48.4694 78.391 38.9257 88.7519C32.9421 95.2422 31.0387 104.47 31.5212 113.16C32.7973 136.163 49.5632 156.736 70.8866 166.959C92.2099 177.181 117.313 178.099 140.647 173.623C173.353 167.323 204.451 150.015 223.109 123.29C241.768 96.5649 246.502 60.135 231.554 31.2874Z" fill="#F5F5F5"/>
<path d="M64.5162 50.4247C71.8286 43.4341 71.8286 32.1 64.5163 25.1094C57.2039 18.1188 45.3482 18.1188 38.0359 25.1094C30.7235 32.1 30.7235 43.4341 38.0359 50.4247C45.3482 57.4153 57.2039 57.4153 64.5162 50.4247Z" fill="#F5F5F5"/>
<path d="M249.709 209.879C249.709 209.951 197.786 210.012 133.747 210.012C69.707 210.012 17.7739 209.951 17.7739 209.879C17.7739 209.807 69.6855 209.746 133.747 209.746C197.808 209.746 249.709 209.802 249.709 209.879Z" fill="#263238"/>
<path d="M170.576 0.199461H155.188C154.684 0.208776 154.186 0.313229 153.725 0.506822C153.263 0.700414 152.846 0.979331 152.497 1.32755C152.148 1.67578 151.875 2.08645 151.692 2.53598C151.51 2.98551 151.423 3.46504 151.435 3.94703V6.62827C151.447 7.11026 151.359 7.58979 151.177 8.03932C150.995 8.48885 150.721 8.89952 150.373 9.24774C150.024 9.59597 149.607 9.87488 149.145 10.0685C148.683 10.2621 148.186 10.3665 147.682 10.3758H117.656C117.152 10.3658 116.655 10.2609 116.194 10.0671C115.732 9.87329 115.315 9.59435 114.967 9.24627C114.618 8.89818 114.345 8.48778 114.162 8.03855C113.98 7.58932 113.892 7.11009 113.903 6.62827V3.92653C113.915 3.44428 113.828 2.96449 113.645 2.51467C113.463 2.06485 113.19 1.65384 112.841 1.30521C112.493 0.956577 112.075 0.677178 111.613 0.483031C111.152 0.288885 110.654 0.183809 110.15 0.173828H104.82H91.3519C89.7579 0.175172 88.1798 0.476965 86.7078 1.06195C85.2358 1.64693 83.8989 2.50362 82.7735 3.58304C81.6481 4.66245 80.7563 5.9434 80.149 7.35264C79.5418 8.76188 79.231 10.2718 79.2346 11.7959L79.197 198.211C79.1913 201.287 80.4633 204.24 82.7334 206.42C85.0036 208.601 88.0861 209.83 91.3037 209.838L170.528 209.884C172.122 209.883 173.7 209.581 175.172 208.996C176.644 208.411 177.981 207.554 179.106 206.475C180.231 205.395 181.123 204.115 181.73 202.705C182.338 201.296 182.648 199.786 182.645 198.262L182.682 11.8421C182.688 10.3172 182.379 8.80628 181.774 7.39565C181.168 5.98501 180.278 4.70236 179.153 3.62104C178.029 2.53972 176.693 1.68095 175.221 1.09385C173.749 0.506743 172.171 0.20282 170.576 0.199461Z" fill="white"/>
<path d="M170.576 0.199455C170.576 0.199455 170.721 0.199455 170.994 0.199455C171.405 0.203616 171.815 0.234447 172.222 0.291735C173.836 0.488833 175.388 1.01318 176.774 1.82973C177.803 2.40963 178.734 3.13564 179.535 3.98291C180.511 5.00149 181.288 6.17864 181.83 7.45877C182.458 8.95557 182.764 10.5578 182.731 12.1702C182.731 13.8824 182.731 15.7075 182.731 17.6403C182.731 33.1073 182.731 55.4902 182.763 83.1433C182.795 110.796 182.763 143.73 182.763 180.293V197.693C182.763 198.277 182.725 198.877 182.699 199.472C182.625 200.065 182.509 200.653 182.35 201.23C181.71 203.574 180.33 205.671 178.399 207.239C177.426 208.012 176.343 208.647 175.182 209.125C173.999 209.583 172.749 209.863 171.477 209.956L170.517 210.002H148.373H116.638H100.408H92.2205C89.4226 210.153 86.6512 209.414 84.3389 207.9C82.0409 206.359 80.3584 204.118 79.567 201.543C79.1908 200.268 79.0226 198.945 79.0684 197.621V193.71C79.0684 188.497 79.0684 183.321 79.0684 178.181C79.0684 167.907 79.0684 157.791 79.0684 147.831C79.0684 127.93 79.0684 108.735 79.0684 90.4539C79.0684 72.1723 79.0684 54.793 79.0684 38.5313C79.0684 30.4005 79.0684 22.5567 79.0684 15.0001V12.1445C79.0684 11.678 79.1059 11.2063 79.122 10.7398C79.1381 10.2733 79.256 9.8119 79.3365 9.35563C79.7496 7.54554 80.5936 5.85089 81.8028 4.4033C82.9916 3.00435 84.5013 1.88591 86.2149 1.13468C87.9285 0.383439 89.8 0.0195759 91.6844 0.0712891H102.268H109.855C110.692 0.00883793 111.528 0.207335 112.238 0.637068C112.947 1.0668 113.492 1.70466 113.79 2.45518C113.935 2.82063 114.026 3.20377 114.059 3.59329C114.091 3.98804 114.059 4.35716 114.059 4.73653C114.059 5.49014 114.059 6.27452 114.059 6.982C114.132 7.70581 114.425 8.39346 114.9 8.96088C115.37 9.52092 116.008 9.92906 116.729 10.1298C117.456 10.2669 118.198 10.3117 118.938 10.263H123.324H139.333H146.389C146.926 10.263 147.51 10.263 148.046 10.263C148.579 10.2048 149.091 10.0293 149.542 9.75038C149.978 9.49125 150.355 9.15139 150.652 8.7508C150.948 8.35021 151.158 7.89698 151.269 7.41776C151.363 6.9536 151.399 6.48029 151.376 6.00794V4.68014C151.358 4.22821 151.377 3.77563 151.435 3.3267C151.503 2.88984 151.652 2.46804 151.874 2.08093C152.291 1.33348 152.966 0.746718 153.783 0.419901C154.556 0.174759 155.375 0.0874336 156.185 0.163569L164.067 0.199455H168.892H170.538C170.538 0.199455 170.002 0.199455 168.892 0.199455H164.067H156.191C155.39 0.12854 154.583 0.217578 153.821 0.460913C153.023 0.781418 152.366 1.35551 151.96 2.08606C151.748 2.46502 151.604 2.87595 151.537 3.30107C151.483 3.74515 151.465 4.19245 151.483 4.63912V6.02844C151.507 6.50739 151.473 6.98742 151.381 7.45877C151.268 7.95174 151.053 8.41822 150.749 8.83101C150.445 9.24381 150.059 9.59468 149.612 9.86316C149.143 10.1448 148.613 10.3202 148.062 10.3758C147.526 10.4117 146.958 10.3758 146.395 10.3758H117.844C117.46 10.3813 117.077 10.3347 116.707 10.2374C115.954 10.027 115.286 9.60126 114.793 9.01727C114.301 8.42789 113.994 7.71661 113.908 6.96662C113.866 6.20787 113.908 5.46964 113.908 4.70577C113.908 4.33153 113.908 3.94703 113.908 3.57791C113.878 3.20351 113.789 2.83553 113.646 2.48593C113.362 1.76993 112.842 1.16145 112.165 0.751914C111.488 0.342379 110.691 0.153912 109.893 0.214834H91.6844C89.8417 0.176201 88.0142 0.540898 86.3415 1.28105C84.6688 2.0212 83.1952 3.11722 82.0334 4.48532C80.8467 5.91019 80.0176 7.57635 79.6099 9.35563C79.5348 9.80677 79.4491 10.2579 79.4062 10.7142C79.3633 11.1705 79.3365 11.6319 79.3525 12.1035V38.4493C79.3525 54.711 79.3525 72.0852 79.3525 90.3719V147.79C79.3525 157.743 79.3525 167.859 79.3525 178.14C79.3525 183.267 79.3525 188.443 79.3525 193.669V197.575C79.3069 198.873 79.4715 200.17 79.8405 201.42C80.6126 203.937 82.2576 206.129 84.5051 207.633C86.7698 209.117 89.4857 209.838 92.2259 209.684H100.424H116.654H148.389H163.852H170.501L171.439 209.638C172.684 209.548 173.907 209.273 175.064 208.823C176.209 208.362 177.277 207.742 178.232 206.982C180.119 205.47 181.472 203.438 182.109 201.164C182.266 200.6 182.381 200.026 182.452 199.446C182.452 198.862 182.527 198.282 182.516 197.693V194.171C182.516 189.492 182.516 184.866 182.516 180.293C182.516 143.73 182.548 110.802 182.565 83.1433C182.581 55.4851 182.607 33.1073 182.623 17.6403C182.623 15.7075 182.623 13.8824 182.623 12.1702C182.666 10.5688 182.372 8.97559 181.76 7.48441C181.221 6.21349 180.452 5.0437 179.487 4.02905C178.695 3.18126 177.77 2.45504 176.747 1.87587C175.371 1.06425 173.83 0.540121 172.227 0.337874C171.821 0.277194 171.411 0.241236 170.999 0.230216L170.576 0.199455Z" fill="#263238"/>
<path d="M165.102 111.423H92.0973C90.3888 111.423 89.0037 112.748 89.0037 114.381V124.973C89.0037 126.607 90.3888 127.931 92.0973 127.931H165.102C166.81 127.931 168.195 126.607 168.195 124.973V114.381C168.195 112.748 166.81 111.423 165.102 111.423Z" fill="#4169E1"/>
<path d="M118.559 50.0984C118.559 49.9617 118.538 49.8397 118.495 49.7322C118.456 49.6216 118.383 49.5223 118.276 49.4344C118.171 49.3432 118.023 49.2554 117.831 49.1707C117.642 49.0828 117.398 48.9917 117.099 48.8973C116.767 48.7931 116.458 48.6759 116.171 48.5457C115.885 48.4155 115.632 48.2641 115.414 48.0916C115.199 47.9191 115.032 47.7205 114.911 47.4959C114.791 47.268 114.731 47.0044 114.731 46.7049C114.731 46.4119 114.793 46.145 114.916 45.9041C115.043 45.6632 115.222 45.4565 115.453 45.284C115.684 45.1082 115.956 44.9731 116.269 44.8787C116.585 44.7843 116.933 44.7371 117.314 44.7371C117.841 44.7371 118.297 44.8332 118.681 45.0252C119.068 45.2173 119.368 45.4777 119.579 45.8065C119.791 46.1352 119.897 46.5047 119.897 46.9149H118.559C118.559 46.6935 118.512 46.4982 118.417 46.3289C118.326 46.1596 118.186 46.0262 117.997 45.9285C117.812 45.8309 117.577 45.782 117.294 45.782C117.021 45.782 116.793 45.8227 116.611 45.9041C116.432 45.9855 116.296 46.0962 116.205 46.2361C116.117 46.3761 116.073 46.5324 116.073 46.7049C116.073 46.8351 116.104 46.9523 116.166 47.0565C116.228 47.1574 116.321 47.2534 116.445 47.3445C116.568 47.4324 116.721 47.5154 116.904 47.5936C117.089 47.6684 117.304 47.7433 117.548 47.8182C117.939 47.9354 118.281 48.0656 118.573 48.2088C118.87 48.352 119.115 48.5148 119.311 48.6971C119.509 48.8794 119.657 49.0845 119.755 49.3123C119.856 49.5402 119.906 49.799 119.906 50.0887C119.906 50.3947 119.846 50.6681 119.726 50.909C119.605 51.1499 119.433 51.355 119.208 51.5242C118.984 51.6935 118.713 51.8221 118.398 51.91C118.085 51.9979 117.735 52.0418 117.348 52.0418C117.003 52.0418 116.661 51.9962 116.323 51.9051C115.987 51.8107 115.683 51.6707 115.409 51.4852C115.136 51.2964 114.918 51.0587 114.755 50.7723C114.592 50.4826 114.511 50.144 114.511 49.7567H115.859C115.859 49.9813 115.894 50.1733 115.966 50.3328C116.041 50.4891 116.145 50.6177 116.279 50.7186C116.415 50.8162 116.575 50.8878 116.757 50.9334C116.939 50.979 117.136 51.0018 117.348 51.0018C117.621 51.0018 117.846 50.9643 118.022 50.8895C118.201 50.8113 118.334 50.7039 118.422 50.5672C118.513 50.4305 118.559 50.2742 118.559 50.0984ZM122.211 46.6609V51.9442H120.917V46.6609H122.211ZM120.829 45.2791C120.829 45.0871 120.894 44.9276 121.025 44.8006C121.158 44.6736 121.337 44.6102 121.562 44.6102C121.786 44.6102 121.964 44.6736 122.094 44.8006C122.227 44.9276 122.294 45.0871 122.294 45.2791C122.294 45.4679 122.227 45.6258 122.094 45.7527C121.964 45.8797 121.786 45.9432 121.562 45.9432C121.337 45.9432 121.158 45.8797 121.025 45.7527C120.894 45.6258 120.829 45.4679 120.829 45.2791ZM126.801 46.6609H127.973V51.783C127.973 52.2615 127.869 52.6668 127.66 52.9988C127.455 53.3341 127.167 53.588 126.796 53.7606C126.425 53.9363 125.994 54.0242 125.502 54.0242C125.291 54.0242 125.061 53.9949 124.814 53.9363C124.57 53.8777 124.334 53.785 124.106 53.658C123.881 53.5343 123.694 53.3732 123.544 53.1746L124.125 52.4129C124.301 52.618 124.5 52.7726 124.721 52.8768C124.942 52.9842 125.182 53.0379 125.439 53.0379C125.699 53.0379 125.92 52.9891 126.103 52.8914C126.288 52.797 126.43 52.657 126.528 52.4715C126.628 52.2892 126.679 52.0646 126.679 51.7977V47.867L126.801 46.6609ZM123.232 49.366V49.2635C123.232 48.8598 123.281 48.4936 123.378 48.1649C123.476 47.8328 123.616 47.548 123.798 47.3104C123.984 47.0727 124.207 46.8888 124.467 46.7586C124.731 46.6284 125.027 46.5633 125.356 46.5633C125.704 46.5633 125.997 46.6268 126.235 46.7537C126.476 46.8807 126.674 47.0613 126.83 47.2957C126.99 47.5301 127.114 47.8084 127.201 48.1307C127.293 48.4497 127.363 48.8012 127.411 49.1854V49.4637C127.366 49.838 127.293 50.1815 127.192 50.494C127.094 50.8065 126.964 51.0799 126.801 51.3143C126.638 51.5454 126.436 51.7244 126.196 51.8514C125.955 51.9783 125.671 52.0418 125.346 52.0418C125.02 52.0418 124.727 51.9751 124.467 51.8416C124.207 51.7082 123.984 51.521 123.798 51.2801C123.616 51.0392 123.476 50.756 123.378 50.4305C123.281 50.105 123.232 49.7501 123.232 49.366ZM124.521 49.2635V49.366C124.521 49.5939 124.544 49.8071 124.589 50.0057C124.635 50.2042 124.705 50.38 124.799 50.533C124.893 50.6828 125.012 50.7999 125.156 50.8846C125.299 50.9692 125.47 51.0115 125.668 51.0115C125.935 51.0115 126.153 50.9562 126.323 50.8455C126.495 50.7316 126.625 50.577 126.713 50.3817C126.804 50.1831 126.863 49.9601 126.889 49.7127V48.9461C126.873 48.7508 126.837 48.5701 126.781 48.4041C126.729 48.2381 126.656 48.0949 126.562 47.9744C126.467 47.854 126.347 47.7596 126.2 47.6912C126.054 47.6229 125.88 47.5887 125.678 47.5887C125.483 47.5887 125.312 47.6326 125.165 47.7205C125.019 47.8052 124.898 47.924 124.804 48.077C124.71 48.23 124.638 48.4074 124.589 48.6092C124.544 48.811 124.521 49.0291 124.521 49.2635ZM130.4 47.7889V51.9442H129.111V46.6609H130.322L130.4 47.7889ZM130.195 49.1121H129.814C129.817 48.728 129.869 48.3797 129.97 48.0672C130.071 47.7547 130.212 47.4861 130.395 47.2615C130.58 47.0369 130.8 46.8644 131.054 46.744C131.308 46.6235 131.591 46.5633 131.904 46.5633C132.157 46.5633 132.387 46.5991 132.592 46.6707C132.797 46.7423 132.973 46.8563 133.119 47.0125C133.269 47.1688 133.383 47.3738 133.461 47.6277C133.543 47.8784 133.583 48.1876 133.583 48.5555V51.9442H132.284V48.5457C132.284 48.3048 132.249 48.1144 132.177 47.9744C132.109 47.8345 132.008 47.7352 131.874 47.6766C131.744 47.618 131.583 47.5887 131.391 47.5887C131.192 47.5887 131.018 47.6294 130.868 47.7108C130.722 47.7889 130.598 47.8979 130.497 48.0379C130.4 48.1779 130.325 48.339 130.273 48.5213C130.221 48.7036 130.195 48.9005 130.195 49.1121ZM140.356 50.6893V46.6609H141.655V51.9442H140.434L140.356 50.6893ZM140.522 49.5955L140.922 49.5858C140.922 49.9406 140.883 50.2677 140.805 50.5672C140.727 50.8667 140.605 51.1271 140.439 51.3484C140.276 51.5665 140.069 51.7374 139.819 51.8611C139.568 51.9816 139.272 52.0418 138.93 52.0418C138.67 52.0418 138.432 52.006 138.217 51.9344C138.002 51.8595 137.817 51.744 137.66 51.5877C137.507 51.4282 137.389 51.2248 137.304 50.9774C137.219 50.7267 137.177 50.4256 137.177 50.074V46.6609H138.466V50.0838C138.466 50.2596 138.486 50.4061 138.525 50.5233C138.567 50.6404 138.624 50.7365 138.696 50.8113C138.77 50.883 138.857 50.935 138.954 50.9676C139.055 50.9969 139.163 51.0115 139.277 51.0115C139.589 51.0115 139.835 50.9497 140.014 50.826C140.196 50.699 140.326 50.5298 140.405 50.3182C140.483 50.1033 140.522 49.8624 140.522 49.5955ZM144.086 47.6766V53.9754H142.792V46.6609H143.989L144.086 47.6766ZM147.48 49.2488V49.3514C147.48 49.7355 147.434 50.0919 147.343 50.4207C147.255 50.7462 147.125 51.0311 146.952 51.2752C146.78 51.5161 146.565 51.7049 146.308 51.8416C146.054 51.9751 145.761 52.0418 145.429 52.0418C145.103 52.0418 144.82 51.98 144.579 51.8563C144.338 51.7293 144.135 51.5503 143.969 51.3192C143.803 51.088 143.67 50.8195 143.569 50.5135C143.471 50.2042 143.398 49.8673 143.349 49.5027V49.1756C143.398 48.7882 143.471 48.4367 143.569 48.1209C143.67 47.8019 143.803 47.5268 143.969 47.2957C144.135 47.0613 144.337 46.8807 144.574 46.7537C144.815 46.6268 145.097 46.5633 145.419 46.5633C145.754 46.5633 146.049 46.6268 146.303 46.7537C146.56 46.8807 146.777 47.063 146.952 47.3006C147.128 47.5382 147.26 47.8214 147.348 48.1502C147.436 48.479 147.48 48.8452 147.48 49.2488ZM146.186 49.3514V49.2488C146.186 49.0145 146.165 48.798 146.122 48.5994C146.08 48.3976 146.015 48.2218 145.927 48.0721C145.839 47.9191 145.725 47.8003 145.585 47.7156C145.445 47.631 145.276 47.5887 145.077 47.5887C144.879 47.5887 144.708 47.6212 144.565 47.6863C144.421 47.7514 144.304 47.8442 144.213 47.9647C144.122 48.0851 144.05 48.2283 143.998 48.3943C143.949 48.5571 143.917 48.7378 143.901 48.9363V49.7469C143.93 49.9878 143.987 50.2042 144.072 50.3963C144.156 50.5884 144.28 50.7414 144.443 50.8553C144.609 50.9692 144.823 51.0262 145.087 51.0262C145.286 51.0262 145.455 50.9822 145.595 50.8943C145.735 50.8065 145.849 50.686 145.937 50.533C146.025 50.3768 146.088 50.1977 146.127 49.9959C146.166 49.7941 146.186 49.5792 146.186 49.3514Z" fill="#353535"/>
<path d="M121.12 120.427C121.12 120.339 121.107 120.261 121.079 120.193C121.054 120.124 121.008 120.062 120.942 120.005C120.875 119.948 120.781 119.894 120.66 119.841C120.541 119.786 120.389 119.731 120.203 119.674C120 119.612 119.813 119.542 119.641 119.466C119.471 119.388 119.323 119.298 119.196 119.196C119.069 119.093 118.97 118.975 118.9 118.842C118.829 118.707 118.794 118.552 118.794 118.376C118.794 118.202 118.83 118.044 118.903 117.902C118.977 117.759 119.081 117.636 119.216 117.532C119.353 117.427 119.514 117.346 119.699 117.289C119.885 117.231 120.09 117.201 120.315 117.201C120.631 117.201 120.904 117.26 121.132 117.377C121.363 117.494 121.539 117.652 121.662 117.849C121.787 118.046 121.85 118.264 121.85 118.502H121.12C121.12 118.362 121.09 118.237 121.03 118.13C120.971 118.021 120.881 117.935 120.76 117.872C120.641 117.81 120.49 117.779 120.306 117.779C120.132 117.779 119.988 117.805 119.872 117.858C119.757 117.91 119.671 117.982 119.615 118.071C119.558 118.161 119.53 118.263 119.53 118.376C119.53 118.456 119.548 118.529 119.585 118.596C119.622 118.66 119.679 118.721 119.755 118.778C119.831 118.832 119.927 118.884 120.042 118.933C120.157 118.982 120.293 119.029 120.449 119.073C120.686 119.144 120.892 119.222 121.068 119.308C121.243 119.392 121.39 119.487 121.507 119.595C121.624 119.702 121.712 119.824 121.771 119.961C121.829 120.096 121.859 120.249 121.859 120.421C121.859 120.601 121.823 120.763 121.75 120.907C121.678 121.05 121.574 121.172 121.44 121.274C121.307 121.373 121.147 121.45 120.959 121.505C120.774 121.558 120.567 121.584 120.338 121.584C120.133 121.584 119.931 121.557 119.732 121.502C119.534 121.447 119.355 121.364 119.193 121.253C119.031 121.14 118.902 120.999 118.806 120.831C118.71 120.661 118.662 120.463 118.662 120.237H119.398C119.398 120.375 119.421 120.493 119.468 120.591C119.517 120.689 119.584 120.769 119.67 120.831C119.756 120.892 119.856 120.937 119.969 120.966C120.084 120.995 120.207 121.01 120.338 121.01C120.51 121.01 120.654 120.986 120.769 120.937C120.886 120.888 120.974 120.82 121.032 120.732C121.091 120.644 121.12 120.542 121.12 120.427ZM123.195 118.356V121.526H122.486V118.356H123.195ZM122.439 117.524C122.439 117.416 122.474 117.327 122.544 117.257C122.616 117.185 122.716 117.149 122.843 117.149C122.968 117.149 123.067 117.185 123.139 117.257C123.211 117.327 123.247 117.416 123.247 117.524C123.247 117.629 123.211 117.717 123.139 117.787C123.067 117.858 122.968 117.893 122.843 117.893C122.716 117.893 122.616 117.858 122.544 117.787C122.474 117.717 122.439 117.629 122.439 117.524ZM125.998 118.356H126.64V121.438C126.64 121.723 126.579 121.965 126.458 122.164C126.337 122.363 126.168 122.515 125.951 122.618C125.735 122.724 125.484 122.777 125.198 122.777C125.077 122.777 124.943 122.759 124.794 122.724C124.648 122.689 124.505 122.632 124.366 122.554C124.23 122.478 124.115 122.377 124.024 122.252L124.355 121.836C124.468 121.971 124.593 122.07 124.73 122.132C124.866 122.195 125.01 122.226 125.16 122.226C125.323 122.226 125.46 122.195 125.573 122.135C125.689 122.076 125.778 121.989 125.84 121.874C125.903 121.759 125.934 121.618 125.934 121.452V119.073L125.998 118.356ZM123.845 119.976V119.914C123.845 119.674 123.874 119.455 123.933 119.258C123.991 119.059 124.075 118.888 124.185 118.745C124.294 118.601 124.427 118.49 124.583 118.414C124.74 118.336 124.916 118.297 125.114 118.297C125.319 118.297 125.493 118.334 125.638 118.408C125.784 118.483 125.906 118.589 126.004 118.728C126.102 118.864 126.178 119.029 126.233 119.22C126.289 119.409 126.331 119.62 126.359 119.853V120.049C126.333 120.276 126.29 120.483 126.23 120.67C126.169 120.858 126.089 121.02 125.99 121.156C125.89 121.293 125.767 121.399 125.62 121.473C125.476 121.547 125.305 121.584 125.108 121.584C124.914 121.584 124.74 121.544 124.583 121.464C124.429 121.384 124.296 121.272 124.185 121.127C124.075 120.983 123.991 120.813 123.933 120.617C123.874 120.42 123.845 120.206 123.845 119.976ZM124.551 119.914V119.976C124.551 120.12 124.565 120.255 124.592 120.38C124.621 120.505 124.665 120.615 124.724 120.711C124.784 120.805 124.861 120.879 124.952 120.934C125.046 120.987 125.156 121.013 125.283 121.013C125.449 121.013 125.585 120.978 125.691 120.907C125.798 120.837 125.88 120.742 125.937 120.623C125.995 120.502 126.036 120.367 126.06 120.219V119.689C126.048 119.573 126.024 119.466 125.987 119.366C125.951 119.267 125.904 119.18 125.843 119.106C125.782 119.029 125.706 118.971 125.615 118.93C125.523 118.887 125.414 118.865 125.289 118.865C125.162 118.865 125.052 118.893 124.958 118.947C124.865 119.002 124.787 119.077 124.727 119.173C124.668 119.269 124.624 119.38 124.595 119.507C124.566 119.634 124.551 119.77 124.551 119.914ZM128.073 119.032V121.526H127.366V118.356H128.031L128.073 119.032ZM127.947 119.823L127.718 119.82C127.72 119.596 127.751 119.39 127.812 119.202C127.874 119.015 127.96 118.854 128.07 118.719C128.181 118.584 128.314 118.481 128.468 118.408C128.622 118.334 128.794 118.297 128.984 118.297C129.136 118.297 129.274 118.319 129.397 118.362C129.522 118.403 129.628 118.47 129.716 118.564C129.806 118.657 129.874 118.779 129.921 118.93C129.968 119.078 129.991 119.261 129.991 119.478V121.526H129.282V119.475C129.282 119.322 129.26 119.202 129.215 119.114C129.172 119.025 129.109 118.961 129.025 118.924C128.943 118.885 128.84 118.865 128.717 118.865C128.596 118.865 128.488 118.891 128.392 118.942C128.296 118.992 128.215 119.062 128.149 119.15C128.084 119.237 128.034 119.339 127.999 119.454C127.964 119.57 127.947 119.693 127.947 119.823ZM134.114 120.779V118.356H134.823V121.526H134.155L134.114 120.779ZM134.213 120.119L134.45 120.113C134.45 120.326 134.427 120.523 134.38 120.702C134.333 120.88 134.261 121.035 134.163 121.168C134.066 121.299 133.941 121.402 133.788 121.476C133.636 121.548 133.453 121.584 133.24 121.584C133.086 121.584 132.945 121.562 132.816 121.517C132.687 121.472 132.575 121.403 132.482 121.309C132.39 121.215 132.319 121.093 132.268 120.943C132.217 120.792 132.192 120.612 132.192 120.404V118.356H132.898V120.409C132.898 120.525 132.911 120.621 132.939 120.699C132.966 120.776 133.003 120.837 133.05 120.884C133.097 120.931 133.152 120.964 133.214 120.984C133.277 121.003 133.343 121.013 133.413 121.013C133.615 121.013 133.773 120.974 133.888 120.896C134.005 120.816 134.088 120.708 134.137 120.573C134.188 120.439 134.213 120.287 134.213 120.119ZM136.255 118.965V122.744H135.549V118.356H136.199L136.255 118.965ZM138.321 119.911V119.973C138.321 120.203 138.293 120.417 138.239 120.614C138.186 120.81 138.107 120.981 138.001 121.127C137.898 121.272 137.77 121.384 137.617 121.464C137.465 121.544 137.289 121.584 137.09 121.584C136.893 121.584 136.72 121.548 136.572 121.476C136.425 121.402 136.301 121.297 136.199 121.162C136.098 121.028 136.016 120.869 135.953 120.688C135.893 120.504 135.85 120.303 135.824 120.084V119.847C135.85 119.614 135.893 119.404 135.953 119.214C136.016 119.025 136.098 118.862 136.199 118.725C136.301 118.588 136.425 118.483 136.572 118.408C136.718 118.334 136.889 118.297 137.084 118.297C137.283 118.297 137.46 118.336 137.615 118.414C137.769 118.49 137.899 118.6 138.004 118.742C138.11 118.883 138.189 119.053 138.241 119.252C138.294 119.449 138.321 119.669 138.321 119.911ZM137.615 119.973V119.911C137.615 119.765 137.601 119.629 137.573 119.504C137.546 119.377 137.503 119.266 137.445 119.17C137.386 119.074 137.311 119 137.219 118.947C137.129 118.893 137.021 118.865 136.894 118.865C136.769 118.865 136.661 118.887 136.572 118.93C136.482 118.971 136.406 119.029 136.346 119.103C136.285 119.177 136.239 119.264 136.205 119.363C136.172 119.461 136.149 119.568 136.135 119.683V120.251C136.158 120.392 136.198 120.521 136.255 120.638C136.312 120.755 136.392 120.849 136.495 120.919C136.601 120.987 136.736 121.022 136.9 121.022C137.027 121.022 137.135 120.994 137.225 120.94C137.315 120.885 137.388 120.81 137.445 120.714C137.503 120.616 137.546 120.504 137.573 120.377C137.601 120.25 137.615 120.115 137.615 119.973Z" fill="white"/>
<path d="M92.3889 76.415H91.6292V76.1083H92.3889C92.5361 76.1083 92.6552 76.0849 92.7463 76.038C92.8375 75.9911 92.9039 75.926 92.9456 75.8427C92.9885 75.7594 93.01 75.6643 93.01 75.5576C93.01 75.4599 92.9885 75.3681 92.9456 75.2822C92.9039 75.1962 92.8375 75.1272 92.7463 75.0751C92.6552 75.0217 92.5361 74.9951 92.3889 74.9951H91.717V77.5302H91.3401V74.6865H92.3889C92.6038 74.6865 92.7854 74.7236 92.9338 74.7978C93.0823 74.872 93.1949 74.9749 93.2717 75.1064C93.3486 75.2366 93.387 75.3857 93.387 75.5536C93.387 75.7359 93.3486 75.8915 93.2717 76.0204C93.1949 76.1494 93.0823 76.2477 92.9338 76.3154C92.7854 76.3818 92.6038 76.415 92.3889 76.415ZM94.1702 74.5302V77.5302H93.8088V74.5302H94.1702ZM94.0842 76.3935L93.9338 76.3876C93.9351 76.2431 93.9566 76.1096 93.9983 75.9872C94.04 75.8635 94.0986 75.7561 94.1741 75.665C94.2496 75.5738 94.3394 75.5035 94.4436 75.454C94.5491 75.4033 94.6656 75.3779 94.7932 75.3779C94.8974 75.3779 94.9911 75.3922 95.0745 75.4208C95.1578 75.4482 95.2288 75.4925 95.2874 75.5536C95.3472 75.6148 95.3928 75.6943 95.4241 75.7919C95.4553 75.8883 95.4709 76.0061 95.4709 76.1454V77.5302H95.1077V76.1415C95.1077 76.0309 95.0914 75.9423 95.0588 75.8759C95.0263 75.8082 94.9788 75.7594 94.9163 75.7294C94.8538 75.6982 94.7769 75.6826 94.6858 75.6826C94.5959 75.6826 94.5139 75.7014 94.4397 75.7392C94.3668 75.777 94.3036 75.829 94.2502 75.8954C94.1982 75.9619 94.1571 76.038 94.1272 76.124C94.0986 76.2086 94.0842 76.2984 94.0842 76.3935ZM95.9163 76.497V76.4521C95.9163 76.2997 95.9384 76.1585 95.9827 76.0283C96.0269 75.8967 96.0907 75.7828 96.1741 75.6865C96.2574 75.5888 96.3583 75.5133 96.4768 75.4599C96.5953 75.4052 96.7281 75.3779 96.8752 75.3779C97.0237 75.3779 97.1571 75.4052 97.2756 75.4599C97.3954 75.5133 97.497 75.5888 97.5803 75.6865C97.665 75.7828 97.7294 75.8967 97.7737 76.0283C97.818 76.1585 97.8401 76.2997 97.8401 76.4521V76.497C97.8401 76.6494 97.818 76.7906 97.7737 76.9208C97.7294 77.051 97.665 77.165 97.5803 77.2626C97.497 77.359 97.3961 77.4345 97.2776 77.4892C97.1604 77.5426 97.0276 77.5693 96.8792 77.5693C96.7307 77.5693 96.5972 77.5426 96.4788 77.4892C96.3603 77.4345 96.2587 77.359 96.1741 77.2626C96.0907 77.165 96.0269 77.051 95.9827 76.9208C95.9384 76.7906 95.9163 76.6494 95.9163 76.497ZM96.2776 76.4521V76.497C96.2776 76.6025 96.29 76.7021 96.3147 76.7958C96.3394 76.8883 96.3765 76.9703 96.426 77.0419C96.4768 77.1135 96.54 77.1702 96.6155 77.2119C96.691 77.2522 96.7789 77.2724 96.8792 77.2724C96.9781 77.2724 97.0647 77.2522 97.1389 77.2119C97.2144 77.1702 97.2769 77.1135 97.3264 77.0419C97.3759 76.9703 97.413 76.8883 97.4377 76.7958C97.4638 76.7021 97.4768 76.6025 97.4768 76.497V76.4521C97.4768 76.3479 97.4638 76.2496 97.4377 76.1572C97.413 76.0634 97.3752 75.9807 97.3245 75.9091C97.275 75.8362 97.2125 75.7789 97.137 75.7372C97.0627 75.6956 96.9755 75.6747 96.8752 75.6747C96.7763 75.6747 96.689 75.6956 96.6135 75.7372C96.5393 75.7789 96.4768 75.8362 96.426 75.9091C96.3765 75.9807 96.3394 76.0634 96.3147 76.1572C96.29 76.2496 96.2776 76.3479 96.2776 76.4521ZM98.6545 75.8681V77.5302H98.2932V75.4169H98.635L98.6545 75.8681ZM98.5686 76.3935L98.4182 76.3876C98.4195 76.2431 98.441 76.1096 98.4827 75.9872C98.5243 75.8635 98.5829 75.7561 98.6584 75.665C98.734 75.5738 98.8238 75.5035 98.928 75.454C99.0334 75.4033 99.15 75.3779 99.2776 75.3779C99.3818 75.3779 99.4755 75.3922 99.5588 75.4208C99.6422 75.4482 99.7131 75.4925 99.7717 75.5536C99.8316 75.6148 99.8772 75.6943 99.9084 75.7919C99.9397 75.8883 99.9553 76.0061 99.9553 76.1454V77.5302H99.592V76.1415C99.592 76.0309 99.5758 75.9423 99.5432 75.8759C99.5107 75.8082 99.4631 75.7594 99.4006 75.7294C99.3381 75.6982 99.2613 75.6826 99.1702 75.6826C99.0803 75.6826 98.9983 75.7014 98.9241 75.7392C98.8512 75.777 98.788 75.829 98.7346 75.8954C98.6825 75.9619 98.6415 76.038 98.6116 76.124C98.5829 76.2086 98.5686 76.2984 98.5686 76.3935ZM101.381 77.5693C101.234 77.5693 101.101 77.5445 100.981 77.4951C100.862 77.4443 100.76 77.3733 100.674 77.2822C100.589 77.191 100.524 77.0829 100.479 76.9579C100.433 76.8329 100.41 76.6962 100.41 76.5478V76.4658C100.41 76.2939 100.436 76.1409 100.487 76.0068C100.537 75.8714 100.606 75.7568 100.694 75.663C100.781 75.5693 100.88 75.4983 100.99 75.4501C101.101 75.402 101.216 75.3779 101.334 75.3779C101.485 75.3779 101.615 75.4039 101.725 75.456C101.836 75.5081 101.926 75.581 101.996 75.6747C102.067 75.7672 102.119 75.8766 102.153 76.0029C102.186 76.1279 102.203 76.2646 102.203 76.413V76.5751H100.625V76.2802H101.842V76.2529C101.837 76.1591 101.817 76.068 101.783 75.9794C101.751 75.8909 101.699 75.818 101.627 75.7607C101.556 75.7034 101.458 75.6747 101.334 75.6747C101.252 75.6747 101.177 75.6923 101.108 75.7275C101.039 75.7613 100.979 75.8121 100.93 75.8798C100.88 75.9475 100.842 76.0302 100.815 76.1279C100.787 76.2255 100.774 76.3382 100.774 76.4658V76.5478C100.774 76.6481 100.787 76.7425 100.815 76.831C100.843 76.9182 100.884 76.9951 100.938 77.0615C100.992 77.1279 101.058 77.18 101.135 77.2177C101.213 77.2555 101.302 77.2744 101.401 77.2744C101.528 77.2744 101.636 77.2483 101.725 77.1962C101.813 77.1441 101.891 77.0745 101.957 76.9872L102.176 77.1611C102.13 77.2301 102.073 77.2958 102.002 77.3583C101.932 77.4208 101.845 77.4716 101.742 77.5107C101.641 77.5497 101.52 77.5693 101.381 77.5693ZM103.979 75.8681V77.5302H103.617V75.4169H103.959L103.979 75.8681ZM103.893 76.3935L103.742 76.3876C103.744 76.2431 103.765 76.1096 103.807 75.9872C103.849 75.8635 103.907 75.7561 103.983 75.665C104.058 75.5738 104.148 75.5035 104.252 75.454C104.358 75.4033 104.474 75.3779 104.602 75.3779C104.706 75.3779 104.8 75.3922 104.883 75.4208C104.966 75.4482 105.037 75.4925 105.096 75.5536C105.156 75.6148 105.201 75.6943 105.233 75.7919C105.264 75.8883 105.28 76.0061 105.28 76.1454V77.5302H104.916V76.1415C104.916 76.0309 104.9 75.9423 104.867 75.8759C104.835 75.8082 104.787 75.7594 104.725 75.7294C104.662 75.6982 104.586 75.6826 104.494 75.6826C104.405 75.6826 104.323 75.7014 104.248 75.7392C104.175 75.777 104.112 75.829 104.059 75.8954C104.007 75.9619 103.966 76.038 103.936 76.124C103.907 76.2086 103.893 76.2984 103.893 76.3935ZM107.121 77.0419V75.4169H107.485V77.5302H107.139L107.121 77.0419ZM107.19 76.5966L107.34 76.5927C107.34 76.7333 107.325 76.8635 107.295 76.9833C107.267 77.1018 107.22 77.2047 107.155 77.2919C107.089 77.3792 107.004 77.4475 106.899 77.497C106.793 77.5452 106.665 77.5693 106.514 77.5693C106.411 77.5693 106.317 77.5543 106.231 77.5244C106.146 77.4944 106.073 77.4482 106.012 77.3857C105.951 77.3232 105.903 77.2418 105.869 77.1415C105.837 77.0413 105.821 76.9208 105.821 76.7802V75.4169H106.182V76.7841C106.182 76.8792 106.192 76.9579 106.213 77.0204C106.235 77.0816 106.265 77.1305 106.301 77.1669C106.339 77.2021 106.38 77.2268 106.426 77.2411C106.473 77.2555 106.521 77.2626 106.571 77.2626C106.724 77.2626 106.846 77.2333 106.936 77.1747C107.026 77.1148 107.09 77.0348 107.129 76.9345C107.17 76.8329 107.19 76.7203 107.19 76.5966ZM108.395 75.8369V77.5302H108.031V75.4169H108.375L108.395 75.8369ZM108.321 76.3935L108.153 76.3876C108.154 76.2431 108.173 76.1096 108.209 75.9872C108.246 75.8635 108.3 75.7561 108.371 75.665C108.443 75.5738 108.532 75.5035 108.639 75.454C108.746 75.4033 108.869 75.3779 109.01 75.3779C109.109 75.3779 109.2 75.3922 109.283 75.4208C109.367 75.4482 109.439 75.4918 109.5 75.5517C109.561 75.6116 109.609 75.6884 109.643 75.7822C109.677 75.8759 109.694 75.9892 109.694 76.122V77.5302H109.332V76.1396C109.332 76.0289 109.313 75.9404 109.276 75.874C109.239 75.8076 109.187 75.7594 109.119 75.7294C109.052 75.6982 108.972 75.6826 108.881 75.6826C108.774 75.6826 108.685 75.7014 108.614 75.7392C108.542 75.777 108.485 75.829 108.442 75.8954C108.399 75.9619 108.367 76.038 108.348 76.124C108.33 76.2086 108.321 76.2984 108.321 76.3935ZM109.69 76.1943L109.448 76.2685C109.449 76.1526 109.468 76.0413 109.504 75.9345C109.542 75.8277 109.596 75.7327 109.666 75.6494C109.738 75.566 109.826 75.5003 109.93 75.4521C110.034 75.4026 110.153 75.3779 110.287 75.3779C110.401 75.3779 110.501 75.3928 110.588 75.4228C110.677 75.4527 110.751 75.499 110.811 75.5615C110.872 75.6227 110.918 75.7014 110.949 75.7978C110.981 75.8941 110.996 76.0087 110.996 76.1415V77.5302H110.633V76.1376C110.633 76.0191 110.614 75.9273 110.576 75.8622C110.54 75.7958 110.488 75.7496 110.42 75.7236C110.354 75.6962 110.274 75.6826 110.182 75.6826C110.102 75.6826 110.032 75.6962 109.971 75.7236C109.91 75.7509 109.858 75.7887 109.817 75.8369C109.775 75.8837 109.743 75.9378 109.721 75.999C109.7 76.0602 109.69 76.1253 109.69 76.1943ZM111.541 74.5302H111.905V77.1201L111.873 77.5302H111.541V74.5302ZM113.332 76.456V76.497C113.332 76.6507 113.314 76.7932 113.278 76.9247C113.241 77.055 113.188 77.1682 113.117 77.2646C113.047 77.3609 112.961 77.4358 112.86 77.4892C112.758 77.5426 112.642 77.5693 112.51 77.5693C112.376 77.5693 112.258 77.5465 112.156 77.5009C112.056 77.454 111.972 77.387 111.903 77.2997C111.834 77.2125 111.778 77.107 111.737 76.9833C111.696 76.8596 111.668 76.7203 111.653 76.5654V76.3857C111.668 76.2294 111.696 76.0895 111.737 75.9658C111.778 75.8421 111.834 75.7366 111.903 75.6494C111.972 75.5608 112.056 75.4938 112.156 75.4482C112.257 75.4013 112.373 75.3779 112.506 75.3779C112.639 75.3779 112.757 75.4039 112.86 75.456C112.962 75.5068 113.048 75.5797 113.117 75.6747C113.188 75.7698 113.241 75.8837 113.278 76.0165C113.314 76.1481 113.332 76.2945 113.332 76.456ZM112.969 76.497V76.456C112.969 76.3505 112.959 76.2516 112.94 76.1591C112.92 76.0654 112.889 75.9833 112.846 75.913C112.803 75.8414 112.746 75.7854 112.676 75.7451C112.606 75.7034 112.519 75.6826 112.416 75.6826C112.325 75.6826 112.246 75.6982 112.178 75.7294C112.112 75.7607 112.055 75.803 112.008 75.8564C111.961 75.9085 111.923 75.9684 111.893 76.0361C111.864 76.1025 111.843 76.1715 111.828 76.2431V76.7138C111.849 76.805 111.883 76.8928 111.93 76.9775C111.978 77.0608 112.042 77.1292 112.121 77.1826C112.202 77.2359 112.302 77.2626 112.42 77.2626C112.518 77.2626 112.601 77.2431 112.67 77.204C112.74 77.1637 112.797 77.1083 112.84 77.038C112.884 76.9677 112.917 76.8863 112.938 76.7939C112.959 76.7014 112.969 76.6025 112.969 76.497ZM114.666 77.5693C114.519 77.5693 114.386 77.5445 114.266 77.4951C114.147 77.4443 114.045 77.3733 113.959 77.2822C113.875 77.191 113.809 77.0829 113.764 76.9579C113.718 76.8329 113.696 76.6962 113.696 76.5478V76.4658C113.696 76.2939 113.721 76.1409 113.772 76.0068C113.823 75.8714 113.892 75.7568 113.979 75.663C114.066 75.5693 114.165 75.4983 114.276 75.4501C114.386 75.402 114.501 75.3779 114.619 75.3779C114.77 75.3779 114.901 75.4039 115.01 75.456C115.121 75.5081 115.211 75.581 115.281 75.6747C115.352 75.7672 115.404 75.8766 115.438 76.0029C115.472 76.1279 115.489 76.2646 115.489 76.413V76.5751H113.91V76.2802H115.127V76.2529C115.122 76.1591 115.102 76.068 115.069 75.9794C115.036 75.8909 114.984 75.818 114.912 75.7607C114.841 75.7034 114.743 75.6747 114.619 75.6747C114.537 75.6747 114.462 75.6923 114.393 75.7275C114.324 75.7613 114.265 75.8121 114.215 75.8798C114.166 75.9475 114.127 76.0302 114.1 76.1279C114.073 76.2255 114.059 76.3382 114.059 76.4658V76.5478C114.059 76.6481 114.073 76.7425 114.1 76.831C114.128 76.9182 114.17 76.9951 114.223 77.0615C114.278 77.1279 114.343 77.18 114.42 77.2177C114.498 77.2555 114.587 77.2744 114.686 77.2744C114.813 77.2744 114.921 77.2483 115.01 77.1962C115.099 77.1441 115.176 77.0745 115.242 76.9872L115.461 77.1611C115.416 77.2301 115.358 77.2958 115.287 77.3583C115.217 77.4208 115.13 77.4716 115.028 77.5107C114.926 77.5497 114.806 77.5693 114.666 77.5693ZM116.272 75.749V77.5302H115.91V75.4169H116.262L116.272 75.749ZM116.932 75.4052L116.93 75.7411C116.9 75.7346 116.871 75.7307 116.844 75.7294C116.818 75.7268 116.788 75.7255 116.754 75.7255C116.671 75.7255 116.597 75.7385 116.533 75.7646C116.47 75.7906 116.416 75.8271 116.371 75.874C116.327 75.9208 116.292 75.9768 116.266 76.0419C116.241 76.1057 116.225 76.176 116.217 76.2529L116.115 76.3115C116.115 76.1839 116.128 76.0641 116.153 75.9521C116.179 75.8401 116.218 75.7411 116.272 75.6552C116.325 75.568 116.393 75.5003 116.475 75.4521C116.558 75.4026 116.657 75.3779 116.772 75.3779C116.798 75.3779 116.828 75.3811 116.862 75.3876C116.895 75.3928 116.919 75.3987 116.932 75.4052Z" fill="#353535"/>
<path d="M164.437 82.1945H92.7622C90.6864 82.1945 89.0037 83.8034 89.0037 85.7882V94.9803C89.0037 96.9651 90.6864 98.5741 92.7622 98.5741H164.437C166.513 98.5741 168.195 96.9651 168.195 94.9803V85.7882C168.195 83.8034 166.513 82.1945 164.437 82.1945Z" fill="#EBEBEB"/>
<path d="M164.442 98.574H164.56C164.64 98.574 164.764 98.574 164.919 98.5433C165.383 98.4843 165.831 98.3398 166.238 98.1178C166.9 97.7649 167.435 97.2287 167.772 96.5798C167.984 96.1645 168.108 95.7132 168.136 95.252C168.136 94.7393 168.136 94.2267 168.136 93.6627C168.136 91.4121 168.136 88.6489 168.093 85.4601C168.004 84.6476 167.626 83.8891 167.021 83.312C166.377 82.6941 165.514 82.3285 164.603 82.2867H158.598L92.7566 82.3277C91.9822 82.3294 91.2285 82.5675 90.6055 83.0074C89.9824 83.4473 89.5226 84.0659 89.293 84.7731C89.1335 85.5008 89.0794 86.246 89.1322 86.9878V94.8008C89.1189 95.1567 89.1605 95.5126 89.2555 95.8569C89.4411 96.5399 89.8416 97.152 90.4029 97.6102C90.9585 98.0644 91.6441 98.3484 92.3706 98.4254C93.0944 98.4613 93.8611 98.4254 94.6011 98.4254H107.571L137.162 98.451L157.113 98.4971L137.162 98.5382L107.571 98.5689H94.6118C93.8611 98.5689 93.132 98.5689 92.3545 98.5689C91.5837 98.4979 90.8528 98.208 90.2556 97.7366C89.6584 97.2652 89.2224 96.6338 89.0035 95.9236C88.9052 95.557 88.8618 95.179 88.8748 94.8008V85.8549C88.8758 85.4629 88.9335 85.073 89.0464 84.6962C89.2951 83.9311 89.7939 83.2623 90.4693 82.788C91.1448 82.3138 91.9615 82.059 92.7995 82.0611L158.625 82.097H164.635C165.557 82.1335 166.434 82.4871 167.105 83.0928C167.776 83.6985 168.195 84.5155 168.286 85.3935C168.319 88.6079 168.286 91.3506 168.286 93.5961C168.286 94.16 168.286 94.688 168.286 95.1905C168.252 95.6631 168.121 96.1247 167.9 96.549C167.558 97.2172 167.004 97.7659 166.319 98.1178C165.903 98.338 165.445 98.4758 164.973 98.5228C164.798 98.5539 164.62 98.571 164.442 98.574Z" fill="#263238"/>
<path d="M165.102 186.712C165.102 186.712 165.268 186.712 165.584 186.66C166.048 186.585 166.488 186.41 166.871 186.148C167.499 185.72 167.934 185.081 168.088 184.358C168.155 183.897 168.175 183.43 168.147 182.964C168.147 182.451 168.147 181.939 168.147 181.354C168.147 179.083 168.147 176.31 168.12 173.09C168.109 172.683 168.007 172.283 167.822 171.917C167.637 171.55 167.373 171.225 167.048 170.963C166.706 170.688 166.302 170.491 165.868 170.388C165.416 170.298 164.952 170.267 164.49 170.296H158.432L92.1134 170.332C91.3344 170.335 90.5875 170.629 90.0331 171.152C89.7587 171.41 89.5403 171.717 89.3903 172.056C89.2403 172.395 89.1617 172.758 89.1591 173.126C89.1591 174.654 89.1591 176.171 89.1591 177.678V183.282C89.1412 183.64 89.1646 184 89.2288 184.353C89.3868 185.045 89.8118 185.655 90.4191 186.061C90.7178 186.26 91.0521 186.406 91.4057 186.491C91.7667 186.565 92.136 186.594 92.5048 186.578H107.834L137.65 186.609L157.751 186.65L163.214 186.676L157.751 186.701L137.634 186.809L107.818 186.84H92.4887C92.0983 186.859 91.7069 186.828 91.3252 186.748C90.94 186.659 90.576 186.5 90.2529 186.281C89.5884 185.838 89.1231 185.172 88.95 184.415C88.8803 184.043 88.8552 183.664 88.8749 183.287V173.126C88.8749 172.31 89.2139 171.528 89.8172 170.951C90.4205 170.374 91.2387 170.05 92.0919 170.05L158.41 170.091H164.469C164.945 170.061 165.424 170.096 165.89 170.194C166.347 170.305 166.773 170.513 167.134 170.804C167.475 171.082 167.751 171.426 167.945 171.813C168.139 172.199 168.246 172.62 168.26 173.049C168.26 176.274 168.26 179.047 168.26 181.318C168.26 181.887 168.26 182.421 168.26 182.928C168.284 183.399 168.26 183.871 168.19 184.338C168.021 185.076 167.567 185.726 166.919 186.158C166.529 186.424 166.079 186.599 165.606 186.671C165.44 186.701 165.271 186.715 165.102 186.712Z" fill="#EDEDED"/>
<path d="M146.218 178.458C146.218 178.53 138.202 178.591 128.315 178.591C118.428 178.591 110.418 178.53 110.418 178.458C110.418 178.386 118.428 178.324 128.315 178.324C138.202 178.324 146.218 178.386 146.218 178.458Z" fill="#EDEDED"/>
<path d="M136.324 37.6269C138.946 35.1203 138.946 31.0563 136.324 28.5497C133.703 26.0431 129.453 26.0431 126.831 28.5497C124.21 31.0563 124.21 35.1203 126.831 37.6269C129.453 40.1335 133.703 40.1335 136.324 37.6269Z" fill="#F5F5F5"/>
<path d="M135.918 37.9571C135.799 36.9423 135.289 36.0062 134.487 35.3321C133.685 34.658 132.648 34.2943 131.581 34.3121C130.517 34.3194 129.493 34.6938 128.696 35.3665C127.899 36.0392 127.383 36.9647 127.243 37.9725C127.822 38.493 128.504 38.8972 129.249 39.1614C129.994 39.4256 130.787 39.5443 131.581 39.5105C133.183 39.553 134.739 38.9956 135.918 37.9571Z" fill="#EDEDED"/>
<path d="M131.581 34.753C133.035 34.753 134.214 33.626 134.214 32.2358C134.214 30.8456 133.035 29.7187 131.581 29.7187C130.127 29.7187 128.948 30.8456 128.948 32.2358C128.948 33.626 130.127 34.753 131.581 34.753Z" fill="#EDEDED"/>
<path d="M135.886 37.7367C135.801 37.3274 135.665 36.9297 135.478 36.5524C135.235 36.128 134.914 35.7493 134.529 35.4348C134.023 35.0276 133.441 34.7162 132.814 34.5172L132.68 34.471L132.803 34.4095C133.248 34.1724 133.612 33.8161 133.848 33.3842C134.122 32.9005 134.218 32.3431 134.12 31.8012C134.023 31.2593 133.739 30.7642 133.312 30.3954C132.845 29.9912 132.237 29.7673 131.607 29.7673C130.977 29.7673 130.369 29.9912 129.902 30.3954C129.454 30.7707 129.161 31.2872 129.076 31.8513C128.986 32.3782 129.081 32.9188 129.345 33.3893C129.466 33.6058 129.621 33.803 129.806 33.9737C129.98 34.1374 130.174 34.2803 130.385 34.3993L130.503 34.471L130.369 34.5069C129.727 34.6694 129.138 34.9811 128.653 35.4143C128.285 35.7465 127.981 36.1389 127.758 36.573C127.608 36.8491 127.49 37.1395 127.404 37.4394C127.378 37.5168 127.356 37.5956 127.339 37.6752C127.334 37.7034 127.325 37.731 127.312 37.7572C127.312 37.7572 127.312 37.7264 127.312 37.6701C127.312 37.6137 127.312 37.5368 127.361 37.4291C127.438 37.1235 127.547 36.8263 127.688 36.5422C127.91 36.095 128.213 35.6889 128.583 35.3426C129.073 34.891 129.674 34.5648 130.331 34.3941V34.4967C130.113 34.3754 129.91 34.231 129.725 34.066C129.533 33.8837 129.369 33.6766 129.237 33.4508C128.961 32.9585 128.857 32.394 128.942 31.8411C129.035 31.2469 129.342 30.7026 129.811 30.3031C130.309 29.8795 130.951 29.6443 131.618 29.6417C132.089 29.6366 132.553 29.7502 132.964 29.9712C133.374 30.1922 133.717 30.5127 133.956 30.9005C134.196 31.2882 134.325 31.7296 134.329 32.18C134.334 32.6304 134.214 33.0741 133.982 33.4662C133.723 33.9026 133.338 34.2585 132.873 34.4915V34.3839C133.514 34.5939 134.107 34.9193 134.62 35.3426C135.008 35.6692 135.328 36.0621 135.564 36.5012C135.65 36.6658 135.72 36.8373 135.773 37.0138C135.82 37.1382 135.853 37.2671 135.87 37.3983L135.907 37.6444C135.891 37.7111 135.891 37.7367 135.886 37.7367Z" fill="#263238"/>
<path d="M138.293 33.0868C138.287 33.0529 138.287 33.0182 138.293 32.9843C138.293 32.9074 138.293 32.8049 138.293 32.6767C138.293 32.5485 138.293 32.5383 138.293 32.4563C138.293 32.3742 138.267 32.282 138.25 32.1845C138.22 31.961 138.171 31.7399 138.106 31.5232C137.947 30.9252 137.696 30.3533 137.36 29.8263C136.92 29.126 136.343 28.5133 135.661 28.0217C134.819 27.4213 133.839 27.0222 132.803 26.858C131.633 26.6511 130.426 26.7467 129.307 27.1348C129.01 27.2396 128.719 27.3629 128.439 27.5039C128.156 27.6564 127.886 27.8277 127.629 28.0166C127.362 28.2047 127.11 28.4102 126.873 28.6318C126.154 29.3385 125.605 30.1872 125.264 31.1182C124.814 32.4199 124.814 33.8256 125.264 35.1272C125.483 35.7556 125.803 36.3472 126.213 36.8805C126.414 37.1387 126.633 37.3836 126.868 37.6137C127.104 37.8339 127.354 38.0394 127.618 38.2289C127.879 38.4147 128.151 38.5859 128.433 38.7415C128.714 38.8809 129.004 39.0024 129.302 39.1055C130.421 39.4927 131.627 39.59 132.798 39.3875C133.726 39.2192 134.607 38.8655 135.383 38.3496C136.159 37.8337 136.813 37.1672 137.301 36.3935C137.637 35.8665 137.888 35.2946 138.047 34.6966C138.112 34.4799 138.161 34.2589 138.191 34.0353C138.191 33.9379 138.224 33.8507 138.234 33.7687C138.245 33.6867 138.234 33.6098 138.234 33.5431C138.234 33.4765 138.234 33.3124 138.234 33.2355C138.228 33.2016 138.228 33.1669 138.234 33.133V33.5431C138.234 33.6098 138.234 33.6867 138.234 33.7687C138.234 33.8507 138.234 33.943 138.197 34.0404C138.173 34.2655 138.13 34.4883 138.068 34.7069C137.919 35.316 137.672 35.899 137.334 36.4345C136.898 37.1514 136.319 37.7786 135.629 38.2801C134.793 38.8967 133.818 39.3164 132.782 39.5054C131.588 39.7171 130.358 39.6215 129.216 39.2285C128.913 39.1248 128.617 39.0014 128.331 38.8594C128.041 38.7069 127.761 38.5356 127.495 38.3468C127.227 38.1524 126.971 37.9436 126.728 37.7213C126.488 37.4844 126.264 37.2327 126.058 36.9677C125.637 36.4243 125.31 35.8203 125.088 35.1785C124.616 33.8486 124.616 32.4071 125.088 31.0772C125.31 30.4354 125.637 29.8314 126.058 29.288C126.264 29.0247 126.488 28.7746 126.728 28.5395C126.982 28.3008 127.254 28.0814 127.543 27.8833C127.806 27.6917 128.084 27.5203 128.374 27.3706C128.66 27.2286 128.956 27.1053 129.259 27.0015C130.328 26.6286 131.478 26.52 132.603 26.6858C133.728 26.8516 134.791 27.2865 135.693 27.9499C136.381 28.4542 136.959 29.0809 137.398 29.7955C137.736 30.3311 137.984 30.9141 138.132 31.5232C138.194 31.7417 138.237 31.9646 138.261 32.1897C138.261 32.2871 138.293 32.3794 138.299 32.4614C138.304 32.5434 138.299 32.6203 138.299 32.687V33.0971L138.293 33.0868Z" fill="#263238"/>
<path d="M173.053 59.7812C173.053 59.8581 154.196 59.9145 130.943 59.9145C107.689 59.9145 88.8267 59.8581 88.8267 59.7812C88.8267 59.7043 107.678 59.6479 130.943 59.6479C154.207 59.6479 173.053 59.7095 173.053 59.7812Z" fill="#EDEDED"/>
<path d="M173.053 161.099C173.053 161.171 154.196 161.232 130.943 161.232C107.689 161.232 88.8267 161.171 88.8267 161.099C88.8267 161.027 107.678 160.966 130.943 160.966C154.207 160.966 173.053 161.027 173.053 161.099Z" fill="#EDEDED"/>
<path d="M92.1621 21.111C92.1303 21.1113 92.0988 21.1055 92.0694 21.0941C92.0399 21.0826 92.0131 21.0657 91.9905 21.0444L89.4701 18.9322C89.4408 18.9086 89.4172 18.8792 89.401 18.846C89.3848 18.8128 89.3765 18.7766 89.3765 18.7399C89.3765 18.7033 89.3848 18.6671 89.401 18.6339C89.4172 18.6007 89.4408 18.5713 89.4701 18.5477L91.9905 16.5483C92.0166 16.5265 92.0471 16.5099 92.08 16.4996C92.113 16.4893 92.1478 16.4854 92.1824 16.4883C92.2169 16.4912 92.2505 16.5007 92.2812 16.5163C92.3118 16.5319 92.3388 16.5532 92.3605 16.5791C92.3835 16.6044 92.401 16.634 92.4118 16.6659C92.4227 16.6978 92.4267 16.7315 92.4237 16.765C92.4207 16.7985 92.4107 16.831 92.3944 16.8607C92.378 16.8904 92.3555 16.9167 92.3284 16.9379L90.0761 18.7476L92.3605 20.665C92.3873 20.6866 92.4093 20.7132 92.4252 20.7431C92.4411 20.7729 92.4506 20.8056 92.4531 20.839C92.4556 20.8725 92.4511 20.9061 92.4398 20.9378C92.4285 20.9695 92.4107 20.9988 92.3873 21.0239C92.3591 21.0537 92.3242 21.077 92.2852 21.0921C92.2462 21.1072 92.2041 21.1137 92.1621 21.111Z" fill="#263238"/>
<path d="M165.29 18.7989C165.29 19.0534 165.211 19.3022 165.063 19.5138C164.915 19.7254 164.705 19.8903 164.459 19.9877C164.213 20.0851 163.942 20.1106 163.681 20.061C163.42 20.0113 163.18 19.8888 162.992 19.7088C162.804 19.5288 162.675 19.2996 162.624 19.0499C162.572 18.8003 162.598 18.5416 162.7 18.3065C162.802 18.0713 162.975 17.8704 163.196 17.729C163.417 17.5876 163.677 17.5121 163.944 17.5121C164.301 17.5121 164.643 17.6477 164.895 17.889C165.148 18.1303 165.29 18.4576 165.29 18.7989Z" fill="#263238"/>
<path d="M169.172 18.7989C169.172 19.0532 169.093 19.3018 168.945 19.5132C168.798 19.7247 168.588 19.8897 168.342 19.9872C168.096 20.0848 167.826 20.1105 167.565 20.0613C167.304 20.0121 167.064 19.89 166.876 19.7106C166.687 19.5311 166.559 19.3023 166.506 19.0531C166.454 18.8038 166.48 18.5452 166.581 18.31C166.682 18.0748 166.853 17.8735 167.074 17.7314C167.295 17.5894 167.554 17.5131 167.82 17.5121C167.998 17.5114 168.173 17.5442 168.337 17.6086C168.501 17.6729 168.65 17.7676 168.776 17.8872C168.901 18.0067 169.001 18.1488 169.069 18.3053C169.137 18.4617 169.172 18.6295 169.172 18.7989Z" fill="#263238"/>
<path d="M173.053 18.7989C173.053 19.0536 172.974 19.3026 172.826 19.5143C172.678 19.726 172.467 19.891 172.221 19.9882C171.975 20.0854 171.704 20.1106 171.443 20.0606C171.182 20.0105 170.942 19.8874 170.754 19.7069C170.566 19.5265 170.438 19.2967 170.387 19.0468C170.335 18.7968 170.363 18.5379 170.465 18.3029C170.568 18.0679 170.741 17.8672 170.963 17.7265C171.185 17.5857 171.446 17.5111 171.713 17.5121C172.069 17.5135 172.41 17.6496 172.661 17.8908C172.912 18.132 173.053 18.4585 173.053 18.7989Z" fill="#263238"/>
<path d="M237.779 65.7231H205.679C204.336 65.7231 203.049 66.233 202.1 67.1406C201.15 68.0481 200.617 69.2791 200.617 70.5626V78.2013C200.617 79.4848 201.15 80.7158 202.1 81.6234C203.049 82.531 204.336 83.0409 205.679 83.0409H206.011V87.4036L211.153 83.0409H237.779C239.121 83.0409 240.409 82.531 241.358 81.6234C242.307 80.7158 242.84 79.4848 242.84 78.2013V70.5626C242.84 69.2791 242.307 68.0481 241.358 67.1406C240.409 66.233 239.121 65.7231 237.779 65.7231Z" fill="white"/>
<path d="M237.779 65.7231H238.058C238.306 65.7263 238.553 65.7486 238.798 65.7897C238.958 65.8205 239.141 65.8666 239.334 65.9128C239.546 65.9774 239.754 66.0545 239.956 66.1435C240.466 66.3644 240.934 66.666 241.339 67.0355C241.85 67.4993 242.256 68.0574 242.535 68.676C242.844 69.4219 242.981 70.2228 242.937 71.024C242.937 72.7312 242.937 74.6793 242.937 76.8428C242.937 77.3862 242.937 77.9347 242.937 78.5089C242.877 79.4391 242.543 80.3341 241.974 81.0906C241.404 81.8472 240.623 82.4344 239.72 82.7845C239.071 83.0297 238.38 83.1532 237.682 83.1485H235.565H231.136H211.164L211.255 83.1126L206.118 87.4805L205.882 87.6753V83.0152L206.022 83.1485C205.019 83.1928 204.022 82.971 203.143 82.5077C202.28 82.0388 201.572 81.3479 201.1 80.5134C200.875 80.0983 200.708 79.6572 200.601 79.201C200.513 78.7498 200.476 78.291 200.489 77.8322C200.489 76.935 200.489 76.043 200.489 75.1663V71.2547C200.489 70.8292 200.489 70.4037 200.526 69.9679C200.632 69.122 200.962 68.316 201.486 67.6268C202.009 66.9375 202.709 66.3881 203.518 66.0307C204.298 65.694 205.15 65.5377 206.006 65.5744H213.072H221.388L233.393 65.6154H236.642H237.489C237.682 65.6154 237.779 65.6154 237.779 65.6154H237.489H236.642H233.393L221.388 65.6616H213.072H206C205.182 65.623 204.365 65.7724 203.62 66.0973C202.851 66.4364 202.187 66.9587 201.69 67.614C201.193 68.2694 200.881 69.0358 200.783 69.8398C200.748 70.2593 200.738 70.6803 200.751 71.1009V77.6784C200.738 78.12 200.774 78.5616 200.858 78.9959C200.962 79.4271 201.122 79.844 201.336 80.2366C201.783 81.027 202.453 81.6808 203.271 82.1232C204.109 82.5626 205.057 82.7719 206.011 82.7281H206.15V87.2293L205.915 87.1319L211.056 82.7691L211.094 82.7333H211.147H231.12H235.548C236.98 82.6923 238.406 82.9024 239.623 82.3949C240.492 82.0613 241.245 81.4989 241.793 80.773C242.342 80.0471 242.664 79.1874 242.722 78.2936C242.754 77.7399 242.722 77.176 242.722 76.6377C242.722 74.4743 242.722 72.5364 242.722 70.819C242.772 70.0335 242.646 69.247 242.352 68.512C242.086 67.9048 241.694 67.3555 241.2 66.8971C240.807 66.5295 240.352 66.2279 239.854 66.005C239.657 65.9156 239.454 65.8368 239.248 65.7692L238.712 65.6359C238.4 65.6502 238.088 65.6793 237.779 65.7231Z" fill="#263238"/>
<path d="M210.51 74.0795L211.54 74.5922L210.955 75.515L209.883 74.91L209.915 76.0174H208.767L208.794 74.91L207.722 75.515L207.148 74.5922L208.172 74.0795L207.148 73.5412L207.722 72.6133L208.794 73.2336L208.767 72.1109H209.915L209.883 73.2336L210.955 72.6133L211.54 73.5412L210.51 74.0795Z" fill="#EDEDED"/>
<path d="M215.282 74.0795L216.312 74.5922L215.727 75.515L214.655 74.91L214.687 76.0174H213.539V74.91L212.467 75.515L211.893 74.5922L212.917 74.0795L211.893 73.5412L212.467 72.6133L213.539 73.2336V72.1109H214.687L214.655 73.2336L215.727 72.6133L216.312 73.5412L215.282 74.0795Z" fill="#EDEDED"/>
<path d="M220.054 74.0795L221.083 74.5922L220.499 75.515L219.426 74.91L219.453 76.0174H218.306L218.332 74.91L217.26 75.515L216.686 74.5922L217.71 74.0795L216.686 73.5412L217.26 72.6133L218.332 73.2336L218.306 72.1109H219.453L219.426 73.2336L220.499 72.6133L221.083 73.5412L220.054 74.0795Z" fill="#EDEDED"/>
<path d="M224.826 74.0795L225.855 74.5922L225.271 75.515L224.198 74.91L224.225 76.0174H223.078L223.104 74.91L222.032 75.515L221.458 74.5922L222.488 74.0795L221.458 73.5412L222.032 72.6133L223.104 73.2336L223.078 72.1109H224.225L224.198 73.2336L225.271 72.6133L225.855 73.5412L224.826 74.0795Z" fill="#EDEDED"/>
<path d="M229.597 74.0795L230.627 74.5922L230.043 75.515L228.97 74.91L228.997 76.0174H227.871L227.898 74.91L226.825 75.515L226.251 74.5922L227.281 74.0795L226.262 73.5412L226.836 72.6133L227.908 73.2336L227.881 72.1109H229.029L229.002 73.2336L230.075 72.6133L230.659 73.5412L229.597 74.0795Z" fill="#EDEDED"/>
<path d="M234.369 74.0795L235.399 74.5922L234.841 75.5611L233.769 74.9562V76.0635H232.621L232.648 74.9562L231.624 75.5611L231.05 74.6383L232.08 74.1256L231.05 73.5873L231.624 72.6594L232.696 73.2797L232.67 72.157H233.769V73.2797L234.841 72.6594L235.426 73.5873L234.369 74.0795Z" fill="#EDEDED"/>
<path d="M197.869 186.501C197.869 186.501 236.318 167.348 244.655 177.914C252.993 188.48 236.286 196.78 233.058 198.646C229.83 200.513 197.172 211.12 197.172 211.12L188.556 202.327L197.869 186.501Z" fill="#263238"/>
<path d="M213.032 196.75L228.361 204.64L242.371 207.541C242.61 207.592 242.835 207.688 243.033 207.825C243.231 207.962 243.398 208.136 243.523 208.337C243.648 208.538 243.729 208.761 243.76 208.992C243.792 209.224 243.773 209.459 243.706 209.684C243.629 209.945 243.487 210.185 243.291 210.382C243.096 210.58 242.854 210.729 242.585 210.817C239.106 211.976 226.297 216.174 225.208 215.539C223.948 214.801 208.458 208.238 208.458 208.238L213.032 196.75Z" fill="#4169E1"/>
<g opacity="0.6">
<path d="M243.706 209.684L224.163 215.006L224.817 215.329C225.386 215.607 226.04 215.681 226.661 215.539C228.318 215.165 232.876 214.001 242.559 210.843C242.837 210.752 243.087 210.597 243.287 210.391C243.488 210.185 243.632 209.935 243.706 209.664V209.684Z" fill="white"/>
</g>
<g opacity="0.6">
<path d="M220.78 209.546C221.017 209.43 221.29 209.403 221.547 209.469C221.803 209.536 222.025 209.691 222.169 209.905C222.297 210.127 222.331 210.388 222.264 210.634C222.198 210.88 222.035 211.092 221.81 211.227C221.557 211.347 221.268 211.373 220.997 211.301C220.726 211.229 220.492 211.064 220.34 210.838C220.231 210.592 220.226 210.316 220.326 210.067C220.426 209.818 220.623 209.617 220.876 209.505" fill="white"/>
</g>
<path d="M235.122 209.771C235.208 209.71 234.586 208.977 234.586 207.885C234.586 206.793 235.24 206.075 235.154 206.008C235.068 205.942 234.902 206.106 234.666 206.429C234.369 206.86 234.209 207.364 234.205 207.88C234.193 208.395 234.338 208.903 234.623 209.341C234.87 209.669 235.09 209.802 235.122 209.771Z" fill="#263238"/>
<path d="M237.76 209.725C237.867 209.689 237.615 208.966 237.792 208.09C237.969 207.213 238.457 206.618 238.371 206.552C238.286 206.485 237.605 207.023 237.417 208.028C237.229 209.033 237.68 209.787 237.76 209.725Z" fill="#263238"/>
<path d="M231.412 210.443C231.519 210.407 231.128 209.3 231.283 207.91C231.439 206.521 232.023 205.501 231.921 205.45C231.819 205.398 231.047 206.383 230.902 207.874C230.758 209.366 231.331 210.494 231.412 210.443Z" fill="#263238"/>
<path d="M226.544 208.413C226.656 208.413 226.731 207.428 227.262 206.362C227.793 205.296 228.506 204.563 228.431 204.481C228.356 204.399 227.466 205.034 226.914 206.208C226.361 207.382 226.442 208.428 226.544 208.413Z" fill="#263238"/>
<path d="M221.98 206.208C222.093 206.208 222.018 205.127 222.672 204.029C223.327 202.932 224.281 202.404 224.233 202.312C224.185 202.22 223.932 202.343 223.546 202.584C223.042 202.907 222.626 203.341 222.334 203.85C222.039 204.358 221.874 204.925 221.852 205.506C221.846 205.947 221.932 206.213 221.98 206.208Z" fill="#263238"/>
<path d="M221.788 203.635C221.788 203.635 221.611 203.481 221.215 203.327C220.65 203.115 220.046 203.012 219.44 203.025C218.995 202.996 218.552 203.108 218.179 203.342C218.067 203.433 217.985 203.553 217.945 203.689C217.905 203.824 217.908 203.968 217.954 204.101C218.067 204.355 218.273 204.561 218.533 204.681C219.072 204.9 219.675 204.933 220.236 204.774C220.798 204.615 221.284 204.274 221.611 203.809C221.926 203.343 222.089 202.799 222.078 202.244C222.068 201.69 221.885 201.151 221.553 200.697C221.469 200.582 221.361 200.486 221.235 200.415C221.109 200.345 220.969 200.301 220.823 200.287C220.675 200.289 220.532 200.334 220.412 200.418C220.293 200.502 220.204 200.619 220.158 200.754C220.044 201.158 220.044 201.584 220.158 201.989C220.278 202.556 220.503 203.098 220.823 203.589C221.054 203.932 221.22 204.101 221.241 204.101C220.86 203.431 220.586 202.711 220.426 201.963C220.333 201.61 220.333 201.24 220.426 200.887C220.449 200.812 220.496 200.747 220.561 200.701C220.626 200.654 220.705 200.63 220.786 200.63C220.881 200.646 220.972 200.68 221.052 200.732C221.133 200.783 221.201 200.85 221.252 200.928C221.524 201.33 221.668 201.798 221.668 202.276C221.668 202.754 221.524 203.223 221.252 203.624C220.974 204.016 220.566 204.305 220.093 204.446C219.621 204.586 219.113 204.57 218.651 204.399C218.468 204.321 218.318 204.185 218.228 204.014C218.199 203.941 218.195 203.861 218.216 203.786C218.237 203.71 218.283 203.643 218.346 203.594C218.663 203.392 219.038 203.29 219.418 203.301C220.223 203.276 221.026 203.389 221.788 203.635Z" fill="#263238"/>
<path d="M218.528 198.626C218.528 198.626 182.299 177.638 177.404 175.043C173.195 172.803 159.898 167.866 155.212 180.042C150.526 192.218 175.758 210.207 175.758 210.207L197.172 211.125L204.319 208.515L212.437 210.904L218.528 198.626Z" fill="#263238"/>
<path d="M193.055 211.545L176.814 217.569L165.404 225.859C165.21 226.001 164.986 226.103 164.749 226.158C164.511 226.214 164.263 226.223 164.022 226.183C163.781 226.144 163.55 226.057 163.345 225.929C163.141 225.801 162.965 225.634 162.831 225.438C162.677 225.213 162.582 224.956 162.552 224.689C162.522 224.422 162.559 224.151 162.659 223.9C164 220.624 168.997 208.587 170.208 208.213C171.613 207.777 186.899 200.795 186.899 200.795L193.055 211.545Z" fill="#4169E1"/>
<g opacity="0.6">
<path d="M162.831 225.413L171.297 207.741L170.616 208.008C170.025 208.239 169.541 208.665 169.249 209.207C168.471 210.658 166.412 214.713 162.638 223.813C162.53 224.074 162.492 224.357 162.525 224.636C162.559 224.915 162.664 225.182 162.831 225.413Z" fill="white"/>
</g>
<g opacity="0.6">
<path d="M177.849 208.854C177.787 209.101 177.63 209.317 177.41 209.46C177.19 209.603 176.922 209.663 176.659 209.628C176.399 209.577 176.17 209.432 176.018 209.224C175.866 209.016 175.804 208.761 175.844 208.51C175.912 208.249 176.08 208.021 176.313 207.871C176.547 207.72 176.83 207.658 177.109 207.695C177.376 207.774 177.599 207.95 177.733 208.185C177.866 208.419 177.898 208.694 177.823 208.951" fill="white"/>
</g>
<path d="M168.343 219.107C168.343 219.215 169.329 219.225 170.177 219.963C171.024 220.701 171.19 221.614 171.297 221.593C171.405 221.573 171.383 221.347 171.297 220.968C171.147 220.473 170.852 220.029 170.448 219.689C170.043 219.348 169.545 219.125 169.013 219.045C168.589 219.004 168.343 219.076 168.343 219.107Z" fill="#263238"/>
<path d="M166.675 221.065C166.637 221.168 167.372 221.455 167.951 222.157C168.53 222.86 168.697 223.593 168.804 223.577C168.911 223.562 168.927 222.716 168.268 221.927C167.608 221.137 166.675 220.968 166.675 221.065Z" fill="#263238"/>
<path d="M170.225 215.99C170.182 216.092 171.297 216.528 172.321 217.528C173.346 218.528 173.753 219.63 173.86 219.579C173.968 219.527 173.689 218.338 172.595 217.261C171.501 216.185 170.235 215.898 170.225 215.99Z" fill="#263238"/>
<path d="M175.002 213.77C174.921 213.847 175.661 214.549 176.182 215.641C176.702 216.733 176.804 217.718 176.916 217.692C177.029 217.666 177.099 216.631 176.53 215.467C175.962 214.303 175.056 213.688 175.002 213.77Z" fill="#263238"/>
<path d="M179.72 211.894C179.65 211.976 180.557 212.617 181.007 213.811C181.458 215.006 181.238 216.041 181.35 216.062C181.463 216.082 181.522 215.826 181.586 215.385C181.656 214.809 181.579 214.225 181.361 213.683C181.152 213.137 180.81 212.647 180.364 212.253C180.015 211.96 179.747 211.853 179.72 211.894Z" fill="#263238"/>
<path d="M181.892 213.427C182.112 213.399 182.323 213.324 182.508 213.206C183.045 212.935 183.519 212.564 183.902 212.114C184.216 211.81 184.414 211.415 184.466 210.991C184.471 210.85 184.43 210.711 184.348 210.593C184.266 210.476 184.148 210.385 184.01 210.335C183.736 210.252 183.44 210.268 183.179 210.381C182.653 210.63 182.235 211.046 181.995 211.558C181.755 212.07 181.709 212.645 181.865 213.186C182.032 213.716 182.36 214.188 182.808 214.54C183.256 214.893 183.803 215.11 184.38 215.164C184.525 215.178 184.672 215.161 184.81 215.115C184.948 215.069 185.074 214.995 185.179 214.898C185.273 214.789 185.329 214.655 185.34 214.515C185.35 214.374 185.315 214.234 185.238 214.114C184.99 213.768 184.649 213.494 184.251 213.319C183.721 213.039 183.144 212.85 182.546 212.76C182.328 212.717 182.104 212.717 181.886 212.76C182.666 212.92 183.418 213.188 184.117 213.555C184.455 213.724 184.744 213.971 184.959 214.272C185.004 214.337 185.025 214.413 185.019 214.49C185.013 214.567 184.981 214.64 184.927 214.698C184.853 214.757 184.767 214.801 184.675 214.826C184.583 214.852 184.486 214.859 184.39 214.847C183.896 214.782 183.432 214.583 183.052 214.274C182.672 213.966 182.392 213.559 182.245 213.104C182.116 212.647 182.151 212.163 182.346 211.728C182.54 211.293 182.883 210.934 183.318 210.709C183.497 210.624 183.703 210.604 183.897 210.653C183.974 210.679 184.041 210.728 184.087 210.792C184.133 210.857 184.157 210.934 184.155 211.012C184.109 211.369 183.95 211.703 183.699 211.971C183.191 212.554 182.579 213.047 181.892 213.427Z" fill="#263238"/>
<path d="M185.977 215.421C186.433 215.195 204.775 208.054 204.775 208.054L186.545 199.421L175.575 204.86L185.977 215.421Z" fill="#263238"/>
<path d="M163.324 194.314L163.576 194.386L164.3 194.617L167.072 195.535L177.259 198.954L210.85 210.289L212.458 210.766L212.292 210.838L218.41 198.6L218.464 198.759L197.333 186.404L191.253 182.815L189.645 181.852L189.232 181.595C189.141 181.539 189.092 181.508 189.098 181.503L189.242 181.58L189.671 181.816L191.307 182.744L197.43 186.266L218.608 198.539L218.71 198.6L218.662 198.703L212.56 210.956L212.507 211.058L212.394 211.022L210.786 210.545C209.944 210.315 209.14 210.033 208.33 209.751L205.917 208.931L201.183 207.316L192.277 204.276L177.195 199.149L167.034 195.647L164.279 194.684L163.566 194.427C163.483 194.395 163.402 194.357 163.324 194.314Z" fill="#455A64"/>
<path d="M185.977 215.421C185.737 215.228 185.51 215.021 185.296 214.801L183.516 213.042C182.02 211.55 179.967 209.453 177.71 207.172L175.442 204.85L175.318 204.722L175.479 204.645L181.045 202.081L182.653 201.353C182.845 201.261 183.044 201.182 183.248 201.118C183.081 201.239 182.902 201.344 182.712 201.43L181.152 202.189L175.629 204.855L175.667 204.65L177.946 206.967C180.203 209.269 182.235 211.366 183.693 212.893L185.409 214.708C185.621 214.929 185.811 215.167 185.977 215.421Z" fill="#455A64"/>
<path d="M222.973 181.421C223.005 181.488 218.49 183.364 212.893 185.604C207.295 187.845 202.738 189.613 202.705 189.547C202.673 189.48 207.188 187.604 212.785 185.358C218.383 183.113 222.973 181.349 222.973 181.421Z" fill="#455A64"/>
<path d="M195.092 128.596C194.711 128.596 181.484 128.478 178.814 131.031C176.144 133.584 170.6 172.685 170.6 172.685C173.452 173.198 175.307 174.223 177.034 175.033L199.515 187.568L209.247 182.733C209.563 182.566 209.836 182.334 210.048 182.054C210.259 181.773 210.402 181.452 210.468 181.112C210.534 180.772 210.52 180.423 210.427 180.089C210.335 179.755 210.166 179.445 209.933 179.181L222.881 134.43C220.964 133.039 218.839 131.933 216.576 131.149C212.785 129.816 195.092 128.596 195.092 128.596Z" fill="#455A64"/>
<path d="M218.528 132.749C218.528 132.749 222.506 133.589 224.029 135.937C227.6 141.438 238.57 160.976 240.414 165.672C242.366 170.629 240.269 173.449 238.859 175.541C237.342 177.791 229.004 177.786 225.224 173.926C223.616 172.265 214.576 164.436 214.576 164.436L218.528 132.749Z" fill="#455A64"/>
<path d="M223.053 140.003C223.014 140.135 222.963 140.263 222.903 140.387L222.415 141.474C222.013 142.423 221.45 143.802 220.806 145.524C219.509 148.974 217.922 153.799 216.238 159.151C214.555 164.503 213.091 169.348 212.003 172.885C211.466 174.644 211.005 176.064 210.678 177.038L210.292 178.16C210.255 178.293 210.205 178.422 210.142 178.545C210.163 178.409 210.196 178.276 210.239 178.145C210.324 177.861 210.437 177.482 210.576 177.007C210.877 175.982 211.295 174.577 211.815 172.834C212.855 169.307 214.292 164.436 215.97 159.074C217.648 153.711 219.273 148.898 220.619 145.463C221.289 143.74 221.884 142.387 222.318 141.433L222.855 140.367C222.908 140.239 222.974 140.118 223.053 140.003Z" fill="#263238"/>
<path d="M179.447 130.585C179.447 130.585 175.27 132.856 173.742 134.174C172.214 135.491 156.429 157.028 154.408 163.739C153.233 167.625 157.71 175.664 162.536 175.274C168.847 174.761 192.524 166.082 192.524 166.082L187.21 155.024L173.806 157.075L183.538 147.724L179.908 130.334" fill="#455A64"/>
<path d="M235.605 163.365C235.521 163.327 235.442 163.281 235.369 163.227L234.715 162.796L232.339 161.176C230.345 159.792 227.6 157.859 224.576 155.711L222.554 154.27L222.742 154.245C220.817 156.649 219.102 158.746 217.852 160.227C217.227 161.05 216.53 161.821 215.767 162.529L217.713 160.12L222.538 154.086L222.619 153.983L222.726 154.06L224.753 155.496C227.777 157.644 230.5 159.597 232.468 161.027L234.768 162.714L235.39 163.186C235.469 163.237 235.541 163.298 235.605 163.365Z" fill="#263238"/>
<path d="M198.132 151.112L187.516 155.66L191.752 164.462L198.39 160.274L198.132 151.112Z" fill="#FFBE9D"/>
<path d="M208.164 151.974L215.268 147.36C215.517 147.196 215.819 147.12 216.12 147.144L225.407 147.903C225.588 147.917 225.757 147.998 225.879 148.127C226 148.257 226.066 148.426 226.061 148.6C226.071 148.775 226.041 148.95 225.974 149.113C225.906 149.276 225.802 149.423 225.669 149.544L210.587 159.576L199.328 157.869L208.164 151.974Z" fill="#EDEDED"/>
<path d="M198.132 151.112C198.132 151.112 201.966 148.395 202.866 148.246C203.767 148.098 207.815 148.113 207.815 148.113L211.225 149.974L209.113 151.343C207.649 151.035 207.231 150.492 207.231 150.492L204.872 150.641L198.132 151.112Z" fill="#FFBE9D"/>
<path d="M202.443 149.933L208.496 151.948L217.203 153.122C217.219 153.587 217.048 154.04 216.725 154.388C216.401 154.736 215.951 154.953 215.466 154.993C214.394 155.101 212.582 155.219 212.582 155.219C212.582 155.219 212.137 156.757 210.78 157.09C210.469 157.674 210.022 158.181 209.472 158.572C209.388 158.621 209.298 158.659 209.204 158.684C208.367 158.915 206.7 161.084 205.585 161.376C204.47 161.668 198.379 160.294 198.379 160.294L198.121 151.138L202.443 149.933Z" fill="#FFBE9D"/>
<path d="M204.207 154.66C204.207 154.634 204.689 154.757 205.456 154.906C206.463 155.097 207.482 155.224 208.507 155.285C209.528 155.353 210.553 155.353 211.574 155.285C212.362 155.234 212.844 155.167 212.85 155.193C212.74 155.23 212.627 155.256 212.512 155.27C212.298 155.311 211.976 155.357 211.584 155.398C210.558 155.499 209.525 155.516 208.496 155.449C207.465 155.39 206.44 155.246 205.435 155.019C205.049 154.932 204.738 154.85 204.528 154.783C204.417 154.754 204.309 154.712 204.207 154.66Z" fill="#EB996E"/>
<path d="M205.398 157.034C205.423 157.227 205.403 157.423 205.339 157.608C205.284 157.819 205.171 158.012 205.011 158.167C204.904 158.256 204.779 158.325 204.644 158.368C204.508 158.411 204.365 158.428 204.223 158.418C203.95 158.397 203.684 158.323 203.44 158.202C203.22 158.095 203.038 157.982 202.877 157.9C202.566 157.721 202.341 157.654 202.341 157.628C202.542 157.64 202.737 157.698 202.909 157.797C203.308 158.031 203.751 158.187 204.212 158.259C204.333 158.27 204.455 158.258 204.571 158.223C204.687 158.189 204.795 158.133 204.888 158.059C205.035 157.925 205.144 157.757 205.204 157.572C205.258 157.389 205.322 157.209 205.398 157.034Z" fill="#EB996E"/>
<path d="M209.875 157.587C209.662 157.669 209.438 157.725 209.21 157.751C208.678 157.842 208.14 157.905 207.601 157.941C207.053 157.971 206.503 157.971 205.955 157.941C205.725 157.945 205.497 157.921 205.274 157.869C205.274 157.818 206.314 157.869 207.59 157.762C208.867 157.654 209.864 157.556 209.875 157.587Z" fill="#EB996E"/>
<path d="M205.28 160.007C204.99 160.226 204.647 160.37 204.282 160.424C203.918 160.479 203.545 160.443 203.199 160.32C203.199 160.268 203.682 160.356 204.271 160.268C204.861 160.181 205.28 159.966 205.28 160.007Z" fill="#EB996E"/>
<path d="M207.462 159.904C207.462 159.945 207.177 160.017 206.813 160.069C206.59 160.119 206.359 160.119 206.137 160.069C206.338 159.965 206.563 159.909 206.791 159.904C207.156 159.863 207.456 159.858 207.462 159.904Z" fill="#EB996E"/>
<path d="M208.497 151.948C207.525 151.728 206.575 151.425 205.66 151.041C204.888 150.753 204.196 150.482 203.703 150.266C203.428 150.168 203.166 150.037 202.925 149.877C203.205 149.954 203.48 150.05 203.746 150.164L205.719 150.892L207.687 151.625C208.202 151.794 208.497 151.907 208.497 151.948Z" fill="#EB996E"/>
<path d="M217.391 153.999C217.391 153.999 216.721 153.778 217.445 152.768C218.169 151.758 220.195 152.984 220.195 152.984L222.785 154.455C222.785 154.455 223.364 155.742 222.646 156.085L222.109 156.711C222.109 156.711 223.123 157.69 222.715 158.546C222.589 158.793 222.385 158.997 222.133 159.129C221.88 159.261 221.591 159.315 221.305 159.284C221.305 159.284 221.423 161.017 220.833 161.683C220.56 162.046 220.161 162.303 219.707 162.411C219.518 162.87 219.216 163.279 218.827 163.603C218.438 163.927 217.973 164.156 217.472 164.272C215.734 164.698 214.823 164.729 214.351 164.026C214.033 163.528 213.776 162.996 213.584 162.442C213.584 162.442 209.858 160.571 209.778 159.623C209.697 158.674 209.869 158.597 209.869 158.597C209.786 158.376 209.75 158.141 209.763 157.906C209.776 157.671 209.837 157.44 209.944 157.228C210.319 156.649 211.799 157.157 211.799 157.157L216.555 158.223C216.555 158.223 212.748 156.516 212.298 155.957C211.847 155.398 212.33 154.711 213.858 154.886C215.386 155.06 220.002 155.885 220.002 155.885C219.884 155.652 219.698 155.456 219.466 155.321C219.16 155.198 218.206 154.67 218.206 154.67L217.391 153.999Z" fill="#FFBE9D"/>
<path d="M218.528 160.904C218.528 160.945 216.587 160.474 214.238 159.853C211.89 159.233 209.949 158.689 209.976 158.648C210.003 158.607 211.917 159.079 214.265 159.699C216.614 160.32 218.538 160.863 218.528 160.904Z" fill="#EB996E"/>
<path d="M216.26 163.38C215.784 163.326 215.317 163.212 214.871 163.042C214.549 162.942 214.232 162.825 213.922 162.693C213.825 162.654 213.732 162.606 213.643 162.55C213.62 162.534 213.598 162.515 213.579 162.493C213.579 162.493 213.579 162.447 213.579 162.458C213.579 162.468 214.169 162.652 214.914 162.888C215.379 163.01 215.83 163.175 216.26 163.38Z" fill="#EB996E"/>
<path d="M220.335 158.905C220.335 158.946 219.397 158.766 218.249 158.587C217.102 158.407 216.163 158.29 216.169 158.243C216.876 158.234 217.583 158.297 218.276 158.433C218.979 158.516 219.67 158.674 220.335 158.905Z" fill="#EB996E"/>
<path d="M221.498 156.562C221.466 156.603 221.091 156.347 220.565 156.167C220.04 155.988 219.584 155.942 219.584 155.895C219.936 155.834 220.299 155.877 220.624 156.018C220.966 156.112 221.27 156.302 221.498 156.562Z" fill="#EB996E"/>
<path d="M225.653 148.728H225.482L224.983 148.672C224.554 148.616 223.911 148.539 223.166 148.457C221.627 148.288 219.493 148.108 217.128 148.057C216.57 147.984 216.002 148.048 215.477 148.241C215.243 148.371 215.018 148.513 214.801 148.667L214.158 149.103L211.933 150.605L210.426 151.604L210.008 151.871C209.917 151.933 209.863 151.958 209.858 151.953C209.9 151.915 209.945 151.879 209.992 151.845L210.389 151.558L211.869 150.533L214.072 148.995L214.71 148.554C214.932 148.395 215.163 148.248 215.402 148.113C215.666 147.984 215.958 147.913 216.254 147.908C216.549 147.908 216.839 147.908 217.134 147.908C219.155 147.956 221.172 148.105 223.176 148.354C223.948 148.452 224.57 148.549 224.994 148.621L225.487 148.708C225.543 148.706 225.599 148.713 225.653 148.728Z" fill="#263238"/>
<path d="M219.836 149.518C219.786 149.453 219.717 149.404 219.638 149.375C219.56 149.346 219.474 149.339 219.391 149.354H219.316C219.175 149.377 219.046 149.446 218.951 149.549C218.895 149.615 218.865 149.697 218.865 149.782C218.865 149.867 218.895 149.949 218.951 150.015C219.023 150.081 219.115 150.123 219.214 150.133C219.308 150.15 219.404 150.148 219.497 150.126C219.59 150.104 219.676 150.062 219.75 150.005C219.815 149.942 219.858 149.861 219.874 149.774C219.889 149.687 219.876 149.598 219.836 149.518Z" fill="white"/>
<path d="M198.727 100.22L197.698 99.7075C197.24 99.4043 196.678 99.2796 196.127 99.3589C195.617 99.4973 195.264 99.9638 194.738 100.015C194.127 100.082 193.623 99.5537 193.012 99.5845C192.4 99.6152 191.977 100.097 191.403 100.097C190.974 100.097 190.518 99.8049 190.149 100.005C190.073 100.046 190.009 100.102 189.939 100.148C189.713 100.248 189.465 100.293 189.216 100.28C188.968 100.266 188.726 100.195 188.513 100.072C188.086 99.8225 187.576 99.7382 187.087 99.8357C186.801 99.9733 186.549 100.167 186.347 100.405C186.242 100.522 186.108 100.615 185.958 100.673C185.808 100.732 185.645 100.756 185.484 100.743C185.307 100.707 185.162 100.6 184.985 100.559C184.449 100.425 183.972 100.989 183.409 101.133C182.846 101.276 182.283 101.02 181.8 101.246C181.623 101.333 181.485 101.479 181.412 101.656C181.339 101.833 181.336 102.03 181.404 102.209C181.49 102.386 181.62 102.539 181.783 102.656C181.945 102.773 182.135 102.851 182.337 102.881C182.758 102.952 183.191 102.922 183.597 102.794C183.919 102.665 184.261 102.591 184.61 102.573C185.409 102.599 186.036 103.388 186.819 103.224C187.18 103.096 187.509 102.897 187.784 102.64C188.237 102.328 188.781 102.16 189.339 102.158C189.706 102.204 190.078 102.185 190.438 102.102C190.862 101.938 191.103 101.512 191.543 101.399C191.982 101.287 192.486 101.558 192.974 101.512C193.29 101.486 193.585 101.317 193.907 101.302C194.363 101.276 194.776 101.558 195.231 101.522C195.687 101.486 196.089 101.117 196.556 101.153C196.738 101.184 196.918 101.23 197.092 101.292C197.181 101.322 197.276 101.33 197.37 101.317C197.463 101.303 197.552 101.268 197.628 101.215C197.73 101.122 197.762 100.974 197.885 100.907C197.984 100.868 198.092 100.857 198.196 100.876L199.708 101.025L198.727 100.22Z" fill="#263238"/>
<path d="M200.352 100.169C199.842 99.81 199.161 99.4358 198.588 99.7383C198.379 99.8459 198.223 100.025 198.014 100.123C197.532 100.338 196.942 100.056 196.438 100.189C196.003 100.307 195.714 100.702 195.312 100.882C194.663 101.189 193.703 101.01 193.307 101.553C193.087 101.85 193.049 102.327 192.669 102.409C192.531 102.422 192.392 102.407 192.261 102.363C191.797 102.255 191.315 102.241 190.846 102.322C190.577 102.356 190.323 102.459 190.111 102.619C189.725 102.953 189.714 103.522 189.344 103.87C188.808 104.383 187.805 104.142 187.098 104.475C186.781 104.666 186.491 104.896 186.235 105.157C185.669 105.573 185.058 105.929 184.412 106.218C183.763 106.504 183.207 106.952 182.803 107.515C182.615 107.784 182.532 108.108 182.57 108.43C182.607 108.752 182.762 109.051 183.007 109.274C183.131 109.378 183.288 109.438 183.452 109.445C183.617 109.453 183.779 109.407 183.913 109.315C183.993 109.243 184.047 109.141 184.122 109.058C184.308 108.919 184.521 108.816 184.749 108.756C184.969 108.674 185.2 108.515 185.2 108.3C185.2 108.166 185.119 108.008 185.232 107.915C185.282 107.885 185.339 107.867 185.398 107.864C185.966 107.808 186.663 107.833 186.969 107.392C187.071 107.184 187.148 106.966 187.2 106.741C187.279 106.557 187.405 106.394 187.566 106.268C187.727 106.141 187.918 106.053 188.122 106.013C188.47 105.936 188.862 105.988 189.141 105.783C189.419 105.578 189.468 105.111 189.752 104.855C190.229 104.424 191.173 104.737 191.602 104.27C191.709 104.152 191.768 104.004 191.902 103.916C192.288 103.676 192.754 104.173 193.21 104.091C193.666 104.009 193.746 103.578 194.02 103.332C194.426 103.072 194.873 102.875 195.344 102.748C195.907 102.486 196.314 101.979 196.91 101.809C197.446 101.661 198.057 101.763 198.438 101.415C198.582 101.281 198.684 101.092 198.883 101.03C198.999 101.007 199.12 101.007 199.237 101.03C199.825 101.104 200.423 100.988 200.936 100.702L200.352 100.169Z" fill="#263238"/>
<path d="M199.483 101.471C198.836 101.364 198.171 101.401 197.541 101.579C196.91 101.757 196.331 102.071 195.848 102.496C195.648 102.7 195.416 102.873 195.162 103.009C194.727 103.132 194.273 103.181 193.821 103.153C193.319 103.206 192.844 103.395 192.452 103.698C192.059 104.002 191.766 104.407 191.607 104.865C191.403 105.454 191.328 106.229 190.733 106.434C190.62 106.461 190.511 106.499 190.406 106.546C190.009 106.782 190.283 107.387 190.277 107.854C190.277 108.623 189.376 109.151 189.344 109.904C189.353 110.187 189.424 110.465 189.553 110.72C189.864 111.454 190.206 112.172 190.577 112.873C190.744 113.185 190.963 113.534 191.317 113.58C191.853 113.647 192.143 113.068 192.293 112.555C192.442 112.214 192.454 111.832 192.325 111.483C192.175 111.212 191.87 111.053 191.736 110.771C191.526 110.325 191.864 109.827 192.105 109.402C192.592 108.538 192.739 107.536 192.518 106.577C193.055 106.48 193.339 105.752 193.896 105.649C194.053 105.641 194.209 105.622 194.363 105.593C194.733 105.449 194.776 104.911 195.103 104.691C195.43 104.47 196.175 104.639 196.357 104.204C196.411 104.065 196.384 103.901 196.475 103.788C196.55 103.705 196.656 103.652 196.77 103.64L198.121 103.317C198.384 103.276 198.631 103.172 198.84 103.014C199.188 102.696 199.242 102.091 199.682 101.927L199.483 101.471Z" fill="#263238"/>
<path d="M200.915 98.9026C200.861 98.1439 200.711 97.2313 200.009 96.9237C199.596 96.7392 199.092 96.8366 198.684 96.6366C197.901 96.2624 197.837 95.0525 197.076 94.668C196.314 94.2835 195.296 94.8782 194.684 94.3143C194.368 94.022 194.325 93.535 194.068 93.1915C193.894 93.0079 193.681 92.8624 193.444 92.7651C193.206 92.6677 192.949 92.6208 192.69 92.6276C192.178 92.6486 191.666 92.5826 191.178 92.4328C190.374 92.0944 189.859 91.1409 188.996 91.0742C188.261 91.023 187.688 91.6382 187.226 92.2021C187.099 92.3358 187.009 92.498 186.964 92.6737C186.957 92.8331 186.998 92.991 187.082 93.1283C187.167 93.2657 187.292 93.3767 187.441 93.4479C188.025 93.776 188.776 93.7247 189.317 94.1092C189.501 94.2725 189.696 94.4232 189.902 94.5603C190.213 94.7193 190.604 94.6834 190.905 94.8628C191.489 95.2063 191.478 96.1445 192.063 96.4931C192.647 96.8417 193.328 96.4316 193.961 96.57C194.819 96.7648 195.29 97.908 196.17 97.9388C196.554 97.8835 196.934 97.803 197.306 97.6978C197.558 97.6829 197.808 97.7403 198.025 97.8628C198.242 97.9853 198.416 98.1671 198.523 98.3848C198.663 98.6719 198.684 99.0103 198.85 99.2871C198.96 99.4556 199.108 99.5982 199.284 99.7039C199.459 99.8096 199.658 99.8757 199.864 99.8972C200.269 99.9365 200.678 99.914 201.076 99.8305L200.915 98.9026Z" fill="#263238"/>
<path d="M200.25 101.266C199.714 100.297 199.054 99.2615 197.955 98.8104C197.375 98.6554 196.805 98.4653 196.25 98.2413C195.811 97.9952 195.5 97.6005 195.087 97.3185C194.127 96.6674 192.803 96.7084 191.623 96.8879C190.444 97.0673 189.226 97.3493 188.068 97.0775C187.028 96.8315 186.122 96.1599 185.055 96.0984C184.472 96.0999 183.894 96.1952 183.345 96.3803L181.404 96.893C181.192 96.931 181.002 97.0401 180.868 97.2006C180.658 97.5338 181.066 97.9183 181.452 98.0721C182.086 98.3238 182.782 98.3951 183.457 98.2772C183.976 98.1155 184.52 98.0376 185.066 98.0465C185.429 98.1375 185.787 98.247 186.138 98.3746C186.597 98.4516 187.067 98.4516 187.527 98.3746L189.671 98.1593C190.219 98.0579 190.785 98.104 191.307 98.2926C191.693 98.472 191.998 98.8052 192.427 98.8565C192.856 98.9078 193.36 98.5694 193.837 98.636C194.406 98.7232 194.69 99.3281 195.21 99.5588C195.821 99.8305 196.626 99.5127 197.215 99.8254C197.617 100.036 197.789 100.466 198.046 100.82C198.261 101.117 198.541 101.365 198.867 101.548C199.302 101.766 199.765 101.928 200.245 102.03L200.25 101.266Z" fill="#263238"/>
<path d="M201.387 96.9596C201.129 96.6213 200.738 96.2778 200.85 95.8677C200.904 95.6677 201.076 95.5037 201.113 95.2986C201.178 94.9295 200.786 94.6424 200.641 94.2733C200.497 93.9042 200.641 93.3505 200.395 92.9711C200.148 92.5917 199.58 92.5148 199.108 92.4021C198.846 92.3591 198.599 92.2547 198.389 92.0981C198.18 91.9415 198.014 91.7377 197.907 91.5049C197.851 91.1659 197.829 90.8225 197.843 90.4796C197.759 90.041 197.52 89.6435 197.165 89.354C196.81 89.0645 196.362 88.9007 195.896 88.8903C195.625 88.9111 195.352 88.8815 195.092 88.8031C194.636 88.5981 194.556 88.0393 194.272 87.624C194.097 87.3387 193.836 87.111 193.523 86.9709C193.21 86.8308 192.859 86.785 192.518 86.8396C192.197 86.9012 191.843 87.2241 192.031 87.4805C192.106 87.583 192.245 87.624 192.347 87.706C192.711 88.0034 192.449 88.6032 192.663 89.0082C192.878 89.4132 193.564 89.5209 193.773 89.9515C193.934 90.2847 193.746 90.7 193.896 91.0384C194.084 91.4536 194.647 91.551 195.119 91.551C195.591 91.551 196.154 91.6741 196.331 92.0637C196.385 92.2543 196.416 92.4505 196.422 92.6481C196.453 92.82 196.524 92.9827 196.631 93.124C196.738 93.2653 196.877 93.3813 197.038 93.4633C197.494 93.6837 198.111 93.6427 198.406 94.058C198.7 94.4732 198.272 95.1858 198.545 95.6728C198.743 96.0266 199.221 96.1189 199.58 96.3342C199.666 96.3787 199.733 96.4515 199.767 96.5392C199.778 96.6341 199.755 96.7296 199.703 96.811C199.419 97.3646 199.06 98.0003 199.333 98.554C199.464 98.7698 199.63 98.9637 199.826 99.1282C200.412 99.703 200.839 100.408 201.07 101.179L201.569 99.0923C201.737 98.7528 201.809 98.377 201.777 98.0026C201.745 97.6282 201.61 97.2685 201.387 96.9596Z" fill="#263238"/>
<path d="M204.154 89.9156C204.252 89.6176 204.243 89.2966 204.128 89.004C204.014 88.7113 203.8 88.4637 203.521 88.3007C203.377 88.229 203.219 88.187 203.057 88.1776C202.895 88.1683 202.733 88.1917 202.581 88.2464C202.429 88.3011 202.291 88.3858 202.176 88.495C202.061 88.6042 201.971 88.7354 201.912 88.88C201.698 89.5619 202.298 90.3617 201.912 90.9769C201.781 91.1246 201.671 91.2884 201.585 91.4639C201.451 91.915 202.041 92.2944 202.046 92.766C202.052 93.2377 201.365 93.5709 201.226 94.0733C201.086 94.5757 201.671 95.2576 201.451 95.8164C201.375 95.9671 201.279 96.1083 201.167 96.2368C200.539 97.1186 200.861 98.2874 201.204 99.3128L202.625 99.1128C202.363 98.1695 203.752 97.2262 203.28 96.3649C203.054 95.9548 202.438 95.6575 202.577 95.2114C202.625 95.0955 202.698 94.9906 202.792 94.9038L204.116 93.5197C204.334 93.3358 204.482 93.0892 204.54 92.8173C204.599 92.2175 203.816 91.8279 203.714 91.2281C203.671 90.7564 204.009 90.3411 204.154 89.9156Z" fill="#263238"/>
<path d="M204.641 97.6056C204.507 97.1596 203.901 97.0263 203.424 97.0929C202.105 97.2877 201.14 98.3438 200.298 99.3281C199.338 100.39 198.466 101.523 197.692 102.717C197.509 102.976 197.385 103.27 197.328 103.578C197.3 103.732 197.316 103.891 197.375 104.037C197.433 104.183 197.532 104.311 197.66 104.409C197.726 104.453 197.801 104.483 197.88 104.498C197.959 104.512 198.04 104.511 198.119 104.493C198.197 104.476 198.271 104.443 198.335 104.397C198.399 104.35 198.452 104.291 198.491 104.224L198.883 104.132C200.167 102.052 201.869 100.237 203.89 98.7898C204.303 98.4822 204.781 98.067 204.641 97.6056Z" fill="#4169E1"/>
<path d="M197.387 116.892C196.999 114.405 196.836 111.89 196.899 109.376C196.968 106.855 197.691 104.389 199.001 102.199C199.21 101.871 200.851 99.7383 201.232 99.8459C201.505 99.9228 200.342 101.984 200.438 102.24C201.328 104.696 201.151 107.418 200.438 109.93C199.702 112.357 198.684 114.697 197.403 116.907" fill="#263238"/>
<path d="M209.07 133.266C209.445 131.529 209.745 130.16 209.761 130.16C209.778 130.16 216.137 130.724 217.756 124.874C218.539 122.049 219.648 116.108 220.592 110.72C221.086 107.923 220.46 105.05 218.839 102.675C217.217 100.299 214.719 98.5956 211.842 97.9029L211.247 97.7594C204.77 96.5854 200.105 101.184 199.054 107.408L194.652 129.063L204.743 139.203L209.07 133.266Z" fill="#FFBE9D"/>
<path d="M209.761 130.16C206.93 129.472 204.364 128.022 202.368 125.982C202.368 125.982 203.193 130.719 209.45 131.662L209.761 130.16Z" fill="#EB996E"/>
<path d="M217.461 115.375C217.406 115.595 217.263 115.785 217.062 115.905C216.862 116.025 216.62 116.065 216.389 116.015C216.275 115.997 216.166 115.957 216.069 115.898C215.972 115.838 215.888 115.761 215.822 115.67C215.757 115.579 215.711 115.477 215.688 115.369C215.664 115.261 215.664 115.149 215.686 115.041C215.742 114.822 215.886 114.632 216.086 114.512C216.286 114.393 216.528 114.353 216.759 114.4C216.873 114.418 216.982 114.458 217.08 114.517C217.177 114.576 217.261 114.653 217.327 114.744C217.393 114.835 217.438 114.938 217.461 115.046C217.484 115.155 217.484 115.266 217.461 115.375Z" fill="#263238"/>
<path d="M218.641 112.837C218.507 112.919 217.965 112.293 217.032 112.068C216.099 111.842 215.279 112.129 215.203 111.991C215.171 111.929 215.332 111.76 215.686 111.622C216.167 111.453 216.691 111.428 217.188 111.55C217.678 111.666 218.118 111.928 218.442 112.299C218.684 112.581 218.711 112.801 218.641 112.837Z" fill="#263238"/>
<path d="M208.909 113.801C208.854 114.021 208.711 114.212 208.511 114.333C208.31 114.453 208.068 114.494 207.837 114.447C207.723 114.428 207.614 114.388 207.517 114.329C207.42 114.269 207.336 114.192 207.27 114.101C207.205 114.011 207.159 113.908 207.136 113.8C207.112 113.692 207.112 113.581 207.134 113.473C207.189 113.252 207.333 113.062 207.533 112.942C207.734 112.822 207.976 112.782 208.207 112.832C208.32 112.85 208.429 112.889 208.526 112.948C208.624 113.007 208.707 113.083 208.773 113.174C208.838 113.264 208.884 113.366 208.908 113.474C208.931 113.582 208.932 113.693 208.909 113.801Z" fill="#263238"/>
<path d="M209.312 110.981C209.172 111.063 208.631 110.438 207.703 110.212C206.775 109.986 205.949 110.273 205.874 110.135C205.837 110.079 205.998 109.904 206.357 109.771C206.835 109.598 207.358 109.571 207.853 109.694C208.345 109.807 208.785 110.07 209.108 110.443C209.333 110.725 209.376 110.935 209.312 110.981Z" fill="#263238"/>
<path d="M210.871 118.722C211.41 118.692 211.95 118.726 212.48 118.825C212.727 118.861 212.968 118.871 213.049 118.722C213.127 118.487 213.127 118.235 213.049 117.999C212.968 117.389 212.888 116.748 212.797 116.077C212.464 113.344 212.292 111.119 212.405 111.109C212.518 111.099 212.882 113.303 213.215 116.036C213.295 116.707 213.365 117.348 213.435 117.963C213.513 118.277 213.473 118.608 213.322 118.896C213.265 118.968 213.192 119.027 213.109 119.069C213.026 119.11 212.933 119.134 212.839 119.137C212.697 119.143 212.554 119.127 212.416 119.091C211.887 119.03 211.368 118.906 210.871 118.722Z" fill="#263238"/>
<path d="M207.96 118.681C208.116 118.707 207.858 119.707 208.555 120.593C209.252 121.48 210.368 121.65 210.336 121.788C210.304 121.926 210.046 121.921 209.58 121.824C208.979 121.685 208.447 121.349 208.078 120.875C207.723 120.421 207.567 119.853 207.644 119.291C207.687 118.871 207.864 118.656 207.96 118.681Z" fill="#263238"/>
<path d="M210.223 107.31C210.062 107.536 209.151 107.192 208.014 107.054C206.877 106.916 205.901 106.987 205.815 106.731C205.778 106.613 205.992 106.418 206.416 106.27C206.973 106.092 207.566 106.039 208.148 106.116C208.73 106.192 209.286 106.396 209.773 106.71C210.137 106.962 210.293 107.203 210.223 107.31Z" fill="#263238"/>
<path d="M219.043 109.745C218.823 109.909 218.228 109.546 217.434 109.346C216.641 109.146 215.954 109.135 215.858 108.884C215.82 108.766 215.976 108.587 216.319 108.459C216.769 108.322 217.251 108.315 217.705 108.439C218.16 108.563 218.565 108.812 218.872 109.156C219.108 109.433 219.14 109.663 219.043 109.745Z" fill="#263238"/>
<path d="M198.417 111.899C198.32 111.832 194.513 109.694 193.591 113.734C192.668 117.774 197.109 117.835 197.141 117.712C197.173 117.589 198.417 111.899 198.417 111.899Z" fill="#FFBE9D"/>
<path d="M196.197 115.913C196.197 115.913 196.111 115.949 195.977 115.974C195.791 116.007 195.599 115.97 195.441 115.872C195.028 115.621 194.808 114.846 194.953 114.134C195.019 113.785 195.167 113.455 195.387 113.17C195.455 113.052 195.552 112.951 195.67 112.877C195.787 112.803 195.922 112.757 196.063 112.745C196.152 112.74 196.241 112.766 196.312 112.817C196.384 112.869 196.434 112.943 196.454 113.026C196.486 113.15 196.454 113.226 196.454 113.237C196.454 113.247 196.562 113.191 196.567 113.016C196.566 112.912 196.528 112.81 196.46 112.729C196.412 112.675 196.353 112.63 196.286 112.597C196.22 112.565 196.148 112.545 196.074 112.539C195.893 112.537 195.714 112.579 195.555 112.661C195.396 112.742 195.26 112.861 195.162 113.006C194.895 113.317 194.711 113.684 194.626 114.077C194.47 114.898 194.733 115.754 195.307 116.051C195.413 116.105 195.531 116.136 195.652 116.141C195.772 116.146 195.892 116.126 196.004 116.082C196.165 116.01 196.208 115.923 196.197 115.913Z" fill="#EB996E"/>
<path d="M219.316 103.46C220.083 103.235 218.485 100.702 216.962 99.6357C214.657 98.026 210.914 96.5597 208.426 96.7392C205.435 96.9391 202.791 97.8158 200.84 99.9946C198.926 102.227 197.668 104.906 197.194 107.756C196.971 108.611 196.992 109.506 197.253 110.35C197.649 111.376 198.663 112.155 198.325 113.38C198.26 113.601 198.242 113.831 198.272 114.058C198.301 114.285 198.378 114.504 198.497 114.703C199.097 115.646 200.207 115.093 200.807 114.436C202.084 113.037 202.598 111.166 203.075 109.361C203.491 108.1 203.685 106.781 203.649 105.46C203.59 104.742 203.397 104.034 203.376 103.317C203.345 102.957 203.395 102.596 203.524 102.257C203.652 101.918 203.856 101.61 204.121 101.353C204.251 101.256 204.389 101.169 204.534 101.092C205.232 100.716 206.022 100.525 206.823 100.538C207.625 100.552 208.407 100.769 209.091 101.169C211.3 102.45 215.112 104.465 216.346 103.906C218.12 103.096 218.646 102.445 218.646 102.445L219.316 103.46Z" fill="#263238"/>
<path d="M174.24 172.424C174.349 172.364 174.464 172.316 174.584 172.28L175.586 171.906L179.372 170.553L192.475 165.939L192.4 166.113C191.328 163.852 190.127 161.391 188.894 158.843L187.087 155.075L187.232 155.147L174.106 157.075C171.717 157.717 169.434 158.676 167.324 159.925C166.573 160.366 166.01 160.745 165.624 161.002L165.195 161.299C165.149 161.338 165.097 161.369 165.04 161.391L165.174 161.273L165.587 160.955C165.957 160.679 166.514 160.284 167.26 159.828C169.36 158.534 171.647 157.541 174.047 156.88L187.167 154.921H187.269L187.317 155.009C187.902 156.234 188.513 157.495 189.13 158.777C190.352 161.34 191.537 163.785 192.62 166.051L192.685 166.174L192.545 166.226L179.404 170.737L175.597 172.024L174.578 172.357L174.24 172.424Z" fill="#263238"/>
<path d="M182.095 149.385C181.779 149.836 181.42 150.258 181.023 150.646C180.326 151.399 179.35 152.425 178.24 153.537C177.13 154.65 176.096 155.629 175.318 156.3C175.012 156.574 174.686 156.826 174.342 157.054C174.208 157.126 174.117 157.198 173.999 157.177C173.986 157.163 173.979 157.145 173.979 157.126C173.979 157.107 173.986 157.089 173.999 157.075V157.049C173.999 157.049 173.999 157.116 174.031 157.126C174.127 157.092 174.215 157.039 174.289 156.972C174.509 156.798 174.825 156.516 175.19 156.167C175.935 155.46 176.943 154.46 178.047 153.353L180.889 150.518C181.258 150.109 181.662 149.73 182.095 149.385Z" fill="#263238"/>
<path d="M184.648 144.319C184.589 144.319 184.761 143.515 184.761 142.218C184.759 141.462 184.691 140.707 184.557 139.962C184.232 138.13 183.529 136.378 182.487 134.81C182.06 134.171 181.579 133.565 181.05 133C180.138 132.041 179.441 131.559 179.495 131.518C179.672 131.605 179.838 131.711 179.988 131.836C180.177 131.967 180.356 132.109 180.524 132.262C180.759 132.454 180.983 132.657 181.195 132.872C181.753 133.428 182.258 134.032 182.702 134.676C183.238 135.469 183.691 136.31 184.053 137.188C184.398 138.074 184.653 138.989 184.815 139.921C184.937 140.682 184.985 141.453 184.959 142.223C184.952 142.518 184.929 142.812 184.89 143.104C184.872 143.327 184.838 143.548 184.788 143.766C184.765 143.955 184.718 144.141 184.648 144.319Z" fill="#263238"/>
<path d="M198.309 182.549C198.309 182.503 198.985 182.549 200.068 182.549C202.896 182.486 205.656 181.708 208.067 180.293C208.99 179.78 209.515 179.35 209.547 179.386C209.579 179.422 209.44 179.514 209.209 179.709C208.88 179.976 208.535 180.224 208.175 180.452C206.981 181.21 205.676 181.794 204.303 182.185C202.928 182.571 201.501 182.758 200.068 182.739C199.635 182.736 199.204 182.707 198.776 182.651C198.616 182.638 198.459 182.604 198.309 182.549Z" fill="#263238"/>
<path d="M206.287 171.229C206.187 171.388 206.066 171.535 205.928 171.665C205.687 171.937 205.322 172.316 204.856 172.783C203.939 173.711 202.625 174.956 201.102 176.253C199.58 177.55 198.148 178.668 197.081 179.437C196.545 179.821 196.111 180.129 195.8 180.329C195.65 180.447 195.484 180.546 195.306 180.621C195.433 180.48 195.577 180.355 195.735 180.247L196.958 179.288C197.987 178.483 199.403 177.356 200.92 176.059C202.437 174.761 203.762 173.541 204.716 172.649L205.842 171.593C206.116 171.347 206.271 171.214 206.287 171.229Z" fill="#263238"/>
<path d="M27.9343 93.8273C34.2611 96.9597 39.108 102.353 42.5931 108.29C46.0782 114.226 48.3301 120.742 50.5552 127.212L52.5015 160.571C45.1453 148.605 39.2367 134.517 37.6443 120.732L42.5395 120.317C39.2582 119.835 36.5023 117.564 34.749 114.867C32.9957 112.17 32.0682 109.059 31.2103 105.998L37.1832 106.834C32.4677 103.795 29.1559 99.1376 27.9343 93.8273Z" fill="#455A64"/>
<g opacity="0.3">
<path d="M27.9343 93.8273C34.2611 96.9597 39.108 102.353 42.5931 108.29C46.0782 114.226 48.3301 120.742 50.5552 127.212L52.5015 160.571C45.1453 148.605 39.2367 134.517 37.6443 120.732L42.5395 120.317C39.2582 119.835 36.5023 117.564 34.749 114.867C32.9957 112.17 32.0682 109.059 31.2103 105.998L37.1832 106.834C32.4677 103.795 29.1559 99.1376 27.9343 93.8273Z" fill="#0C0C0C"/>
</g>
<path d="M53.6165 168.389C53.6165 168.389 69.5889 150.113 69.4066 132.662H62.9726C62.9726 132.662 69.9803 128.253 69.4066 125.787C68.8329 123.321 68.6667 113.995 68.6667 113.995L62.7689 115.405C62.7689 115.405 67.1923 113.288 67.7445 109.94C68.2968 106.593 66.4577 91.0794 66.4577 91.0794C66.4577 91.0794 59.2677 98.308 57.0534 105.711C54.839 113.114 49.0109 121.747 50.7427 144.309C52.4745 166.872 53.6165 168.389 53.6165 168.389Z" fill="#455A64"/>
<path d="M45.4937 170.117C45.4937 170.117 28.1916 159.095 24.3473 145.027L29.532 143.674C29.532 143.674 22.8943 141.597 22.771 139.5C22.6476 137.404 20.6638 129.852 20.6638 129.852L25.7306 129.75C25.7306 129.75 21.6879 128.976 20.4762 126.397C19.2644 123.818 17.2002 110.966 17.2002 110.966C17.2002 110.966 24.6315 115.272 28.1058 120.763C31.5802 126.253 38.2233 131.98 42.014 150.471C45.8047 168.963 45.4937 170.117 45.4937 170.117Z" fill="#455A64"/>
<path d="M62.0665 107.003C62.0635 107.068 62.0546 107.134 62.0396 107.198L61.9271 107.767C61.8198 108.279 61.6697 109.012 61.4713 109.945C61.2729 110.878 61.0263 112.047 60.7636 113.396C60.5009 114.744 60.1792 116.272 59.8682 117.969C59.2087 121.362 58.5063 125.413 57.7825 129.924C57.0587 134.435 56.367 139.398 55.7236 144.627C55.0802 149.856 54.6084 154.85 54.217 159.397C53.8256 163.944 53.5629 168.046 53.3967 171.491C53.2948 173.213 53.2358 174.772 53.1768 176.141C53.1178 177.509 53.075 178.704 53.0481 179.652C53.0213 180.601 52.9838 181.349 52.9677 181.872C52.9677 182.118 52.9677 182.308 52.9409 182.451C52.9466 182.516 52.9466 182.581 52.9409 182.646C52.9351 182.581 52.9351 182.516 52.9409 182.451C52.9409 182.308 52.9409 182.118 52.9409 181.872C52.9409 181.359 52.9409 180.606 52.9409 179.652C52.9409 178.699 52.9784 177.504 53.0267 176.135C53.075 174.767 53.1125 173.203 53.2036 171.48C53.3484 168.03 53.6111 163.929 53.965 159.376C54.3189 154.824 54.8282 149.831 55.4555 144.596C56.0828 139.362 56.812 134.394 57.5305 129.883C58.249 125.371 58.9942 121.327 59.6752 117.938C59.9969 116.236 60.3293 114.708 60.6135 113.365C60.8976 112.022 61.1496 110.868 61.3694 109.925C61.5893 108.982 61.7555 108.264 61.8734 107.756L62.0128 107.192C62.0249 107.128 62.0428 107.064 62.0665 107.003Z" fill="#263238"/>
<path d="M55.8096 179.581C55.8096 179.581 70.4255 163.724 74.9614 154.142L71.5353 152.743C74.0178 153.132 76.5646 152.112 78.5055 150.564C80.4464 149.016 81.8458 146.975 83.2291 144.966L78.7039 144.258C82.8497 143.124 86.3802 140.508 88.564 136.953C83.2345 137.793 78.4197 140.587 74.4467 144.084C71.2962 146.975 68.4333 150.14 65.8949 153.537C64.6174 155.174 63.5061 156.923 62.576 158.761C60.1204 163.616 55.7989 173.762 55.8096 179.581Z" fill="#455A64"/>
<path d="M24.1274 120.194C24.164 120.24 24.1963 120.29 24.224 120.342C24.2829 120.46 24.3687 120.604 24.4706 120.793C24.6958 121.204 25.0068 121.788 25.4089 122.531C26.2239 124.039 27.3659 126.238 28.7331 128.981C30.1003 131.723 31.6767 135.004 33.3549 138.68C35.0331 142.356 36.7917 146.442 38.5449 150.759C40.2982 155.075 41.8424 159.238 43.2042 163.037C44.5661 166.836 45.6974 170.281 46.6089 173.188C47.5204 176.094 48.2174 178.458 48.6892 180.098L49.2254 181.985L49.3594 182.498C49.3771 182.553 49.3879 182.609 49.3916 182.667C49.3623 182.616 49.3424 182.56 49.3326 182.503C49.2897 182.385 49.2361 182.221 49.1718 182.021C49.0377 181.575 48.8447 180.944 48.5981 180.144C48.1048 178.514 47.3702 176.161 46.4534 173.265C45.5366 170.368 44.3463 166.933 42.9898 163.134C41.6333 159.335 40.0569 155.198 38.3144 150.877C36.5719 146.555 34.8025 142.484 33.1511 138.798C31.4997 135.112 29.9341 131.826 28.583 129.058C27.2318 126.289 26.1327 124.1 25.366 122.577L24.476 120.819C24.3794 120.624 24.3044 120.476 24.2508 120.358C24.2034 120.308 24.162 120.252 24.1274 120.194Z" fill="#263238"/>
<path d="M54.5656 186.378C54.5549 186.28 54.5549 186.18 54.5656 186.081C54.5656 185.856 54.6193 185.568 54.6514 185.23C54.6836 184.892 54.7479 184.41 54.8337 183.892C54.9195 183.374 54.9999 182.774 55.134 182.123C55.3699 180.816 55.7291 179.273 56.2063 177.576C56.6835 175.879 57.2786 174.044 58.0293 172.147C58.7799 170.25 59.6056 168.486 60.4152 166.913C61.2248 165.339 62.0237 163.96 62.7636 162.811C63.1121 162.237 63.4606 161.74 63.7609 161.273C64.0611 160.807 64.297 160.458 64.549 160.156C64.801 159.853 64.9297 159.643 65.0852 159.464C65.141 159.378 65.2077 159.298 65.2836 159.228C65.2425 159.321 65.1922 159.41 65.1335 159.494L64.6563 160.212C64.4418 160.525 64.1898 160.904 63.9057 161.355C63.6215 161.806 63.2837 162.309 62.9459 162.893C62.2489 164.031 61.4661 165.421 60.6618 166.995C59.8576 168.569 59.0533 170.327 58.3081 172.214C57.5628 174.1 56.9623 175.935 56.469 177.617C55.9758 179.299 55.6165 180.837 55.3538 182.134C55.209 182.78 55.1125 183.369 55.016 183.887C54.9195 184.405 54.8444 184.851 54.7855 185.22C54.7265 185.589 54.6836 185.84 54.6461 186.061C54.6328 186.169 54.6058 186.276 54.5656 186.378Z" fill="#263238"/>
<path d="M67.2675 182.646H35.2798V188.885H67.2675V182.646Z" fill="#4169E1"/>
<path d="M64.2221 188.885L60.7638 209.874H41.435L38.2073 188.885H64.2221Z" fill="#4169E1"/>
<path d="M37.2422 188.885C37.2422 188.814 43.2955 188.752 50.7589 188.752C58.2224 188.752 64.2757 188.814 64.2757 188.885C64.2757 188.957 58.2224 189.019 50.7589 189.019C43.2955 189.019 37.2422 188.962 37.2422 188.885Z" fill="#263238"/>
</g>
<defs>
<clipPath id="clip0_2541_21029">
<rect width="268" height="226" fill="white"/>
</clipPath>
</defs>
</svg>
