<svg width="338" height="136" viewBox="0 0 338 136" fill="none" xmlns="http://www.w3.org/2000/svg">
<path d="M264.717 0.135376H223.449V135.56H264.717V0.135376Z" fill="#4169E1"/>
<path opacity="0.2" d="M235.104 0H223.442V135.585H235.104V0Z" fill="#0C0C0C"/>
<path d="M215.101 54.295H173.833V135.56H215.101V54.295Z" fill="#4169E1"/>
<path opacity="0.2" d="M186.234 54.295H173.833V135.475H186.234V54.295Z" fill="#0C0C0C"/>
<path d="M165.498 71.5499H124.23V135.56H165.498V71.5499Z" fill="#4169E1"/>
<path opacity="0.2" d="M136.505 71.5499H124.23V135.475H136.505V71.5499Z" fill="#0C0C0C"/>
<path d="M115.917 88.8047H74.6494V135.56H115.917V88.8047Z" fill="#4169E1"/>
<path opacity="0.2" d="M86.3175 88.7623H74.6562V135.475H86.3175V88.7623Z" fill="#0C0C0C"/>
<g clip-path="url(#clip0_3065_13937)">
<path d="M337.156 135.361C337.156 135.434 261.723 135.496 168.687 135.496C75.6506 135.496 0.196289 135.413 0.196289 135.361C0.196289 135.31 75.6144 135.227 168.687 135.227C261.759 135.227 337.156 135.284 337.156 135.361Z" fill="#263238"/>
<path d="M86.2578 96.5554C85.0021 99.6458 82.8577 102.294 80.0962 104.165C77.3347 106.036 74.0802 107.046 70.7446 107.067C67.4089 107.087 64.1422 106.118 61.3578 104.281C58.5734 102.444 56.3965 99.8223 55.1028 96.7477C53.809 93.6731 53.4565 90.2838 54.0899 87.0088C54.7232 83.7338 56.314 80.7203 58.6608 78.3498C61.0076 75.9792 64.0049 74.3582 67.2734 73.692C70.5418 73.0257 73.9345 73.344 77.022 74.6068C81.1566 76.2934 84.4522 79.553 86.1842 83.6689C87.9161 87.7848 87.9426 92.42 86.2578 96.5554Z" fill="#F4B740"/>
<path d="M82.5432 95.0549C81.586 97.4101 79.9515 99.4283 77.8468 100.854C75.742 102.28 73.2615 103.049 70.7193 103.065C68.1771 103.08 65.6875 102.341 63.5656 100.941C61.4437 99.5407 59.7848 97.5425 58.7991 95.1991C57.8133 92.8558 57.545 90.2727 58.0279 87.7767C58.5109 85.2808 59.7236 82.9842 61.5124 81.1778C63.3012 79.3713 65.5857 78.1362 68.0767 77.6288C70.5678 77.1213 73.1535 77.3643 75.5064 78.327C77.0668 78.9632 78.4867 79.9006 79.6849 81.0857C80.883 82.2707 81.836 83.6801 82.4895 85.2335C83.1429 86.7868 83.484 88.4537 83.4932 90.1388C83.5024 91.824 83.1796 93.4945 82.5432 95.0549Z" fill="#F4B740"/>
<path d="M82.5434 95.0549C82.557 94.9862 82.576 94.9188 82.6003 94.8531L82.7918 94.2736L82.9315 93.8493C82.9781 93.689 83.0143 93.513 83.0557 93.3319C83.1746 92.8977 83.2594 92.4548 83.3092 92.0073C83.4807 90.786 83.4668 89.5457 83.2678 88.3285C82.8162 85.4033 81.3612 82.7263 79.1523 80.7562C76.9433 78.7861 74.1179 77.6456 71.1603 77.5301C70.5582 77.5027 69.9548 77.5165 69.3546 77.5715C69.0493 77.6077 68.7492 77.6647 68.4439 77.7112C68.1358 77.7534 67.8313 77.8191 67.5333 77.9078C66.9215 78.0652 66.3202 78.2604 65.7327 78.4925C65.1439 78.7499 64.5734 79.0473 64.0252 79.3825C62.8906 80.0629 61.8736 80.9226 61.0139 81.9282C59.2238 84.0042 58.1593 86.6072 57.9818 89.3427C57.8909 90.6624 58.0114 91.9882 58.3388 93.2698C58.6369 94.5122 59.1331 95.6985 59.8083 96.7831C60.4309 97.8369 61.2148 98.7867 62.1315 99.5978C64.3247 101.584 67.139 102.747 70.0943 102.89C73.0496 103.032 75.9628 102.145 78.3369 100.379C79.3253 99.6528 80.1976 98.7805 80.9239 97.792C81.2004 97.4379 81.4512 97.0644 81.6742 96.6744C81.7777 96.5037 81.876 96.3536 81.9536 96.2088C82.0312 96.0639 82.0933 95.9293 82.1502 95.8052L82.4244 95.2619C82.4527 95.1975 82.4856 95.1353 82.5227 95.0756C82.5051 95.1434 82.4808 95.2092 82.4503 95.2722L82.2019 95.831L82.0157 96.2398C81.938 96.3898 81.8397 96.5451 81.7466 96.7158C81.5269 97.1121 81.2796 97.4924 81.0067 97.8541C80.2862 98.8669 79.4136 99.7622 78.4196 100.508C77.1043 101.513 75.6048 102.249 74.0061 102.676C72.0638 103.208 70.0238 103.275 68.0507 102.873C65.7837 102.405 63.6819 101.342 61.9607 99.7944C61.503 99.3813 61.0726 98.9389 60.6724 98.4698C60.2732 97.9794 59.91 97.4606 59.5858 96.9176C59.2518 96.3661 58.9528 95.7941 58.6907 95.205C58.4439 94.5956 58.2399 93.9697 58.0801 93.3319C57.7401 92.026 57.6143 90.6734 57.7076 89.3272C57.8117 87.9413 58.1239 86.579 58.6338 85.2862C59.1782 84.0066 59.9107 82.8155 60.8069 81.7522C61.6858 80.7304 62.7236 79.8569 63.8803 79.1652C64.4425 78.8264 65.0268 78.5256 65.6292 78.2649C66.2271 78.0247 66.8408 77.8259 67.466 77.6698C67.7692 77.5794 68.0788 77.5119 68.3922 77.4681C68.7026 77.4267 69.0131 77.3646 69.3235 77.3335C72.2536 77.0627 75.1904 77.7764 77.6694 79.3618C79.2053 80.3628 80.5114 81.6782 81.5014 83.2212C82.4915 84.7642 83.1429 86.4997 83.4127 88.313C83.6007 89.546 83.6007 90.8003 83.4127 92.0332C83.352 92.4827 83.2587 92.9271 83.1333 93.363C83.0867 93.5544 83.0453 93.7303 82.9987 93.8804L82.8435 94.3047C82.7504 94.5427 82.678 94.7341 82.6262 94.8738C82.6045 94.9367 82.5768 94.9974 82.5434 95.0549Z" fill="#263238"/>
<g opacity="0.3">
<path d="M82.4036 95.1222C82.326 95.0963 82.4916 94.5531 82.6726 93.57C82.929 92.1822 82.9674 90.763 82.7865 89.3634C82.6638 88.4088 82.4383 87.4703 82.1138 86.5642C81.7349 85.5341 81.2254 84.5568 80.5978 83.6563C79.907 82.6651 79.0756 81.7796 78.1298 81.0279C77.6305 80.632 77.1011 80.2756 76.5465 79.962C75.4043 79.314 74.1659 78.8529 72.878 78.596C72.2539 78.4696 71.6206 78.3935 70.9843 78.3684C70.3698 78.3378 69.7538 78.3568 69.1423 78.4253C68.5541 78.4849 67.9712 78.5887 67.3986 78.7357C66.3332 79.0064 65.3072 79.4134 64.3459 79.9465C63.5068 80.4198 62.721 80.9818 62.002 81.6229C60.9578 82.5679 60.0644 83.6672 59.3528 84.8826C58.8354 85.7467 58.6129 86.2641 58.5405 86.2382C58.4681 86.2124 58.5974 85.6536 59.0165 84.686C59.6258 83.344 60.4784 82.1265 61.5312 81.0951C62.2599 80.3777 63.071 79.749 63.9475 79.2221C64.9571 78.6193 66.043 78.1547 67.1761 77.8406C67.7886 77.6711 68.413 77.5483 69.044 77.4733C69.701 77.3891 70.3638 77.3597 71.0257 77.3853C71.7208 77.406 72.413 77.4839 73.0953 77.6181C73.789 77.7552 74.4707 77.9472 75.1339 78.1925C75.7947 78.442 76.4348 78.743 77.0484 79.0928C77.646 79.4327 78.2153 79.8203 78.7507 80.2518C79.2644 80.6696 79.7453 81.1263 80.1891 81.6177C80.6178 82.0895 81.0104 82.5928 81.3636 83.1234C82.5863 84.9573 83.32 87.0732 83.4953 89.2703C83.6144 90.7395 83.4618 92.2181 83.0452 93.6321C82.7399 94.6462 82.4553 95.1429 82.4036 95.1222Z" fill="#0C0C0C"/>
</g>
<g opacity="0.3">
<path d="M69.1005 97.8128L68.2829 99.8824L66.4203 99.1529L67.2171 97.1246C65.4216 96.2916 63.8798 95.0187 63.1709 93.8183L65.0802 91.9505C65.8604 93.1164 66.9302 94.0596 68.1846 94.6876L69.4006 91.5831C67.5327 90.2689 65.4993 88.6753 66.5393 86.0158C67.3154 84.0444 69.4109 82.9113 72.4792 83.734L73.2915 81.6643L75.149 82.3939L74.3574 84.4221C75.6579 85.0168 76.7983 85.9125 77.6843 87.0351L75.8579 88.9598C75.1816 88.1121 74.3424 87.4084 73.3898 86.8902L72.1532 90.0516C74.0262 91.3451 76.0234 92.9232 74.999 95.5465C74.228 97.4868 72.1584 98.6044 69.1005 97.8128ZM70.4664 88.8615L71.5013 86.2227C70.425 86.0571 69.8248 86.4452 69.5816 87.0558C69.3385 87.6663 69.7472 88.282 70.4664 88.846V88.8615ZM71.9204 94.5996C72.1739 93.9477 71.7755 93.3837 71.0821 92.7887L70.0784 95.3758C71.0718 95.5206 71.672 95.1947 71.9204 94.5996Z" fill="#0C0C0C"/>
</g>
<path d="M133.969 117.656H101.6V123.533H133.969V117.656Z" fill="#F4B740"/>
<path d="M104.771 123.575C104.592 121.635 104.592 119.683 104.771 117.743C104.951 119.683 104.951 121.635 104.771 123.575Z" fill="#263238"/>
<path d="M103.002 123.575C102.822 121.635 102.822 119.683 103.002 117.743C103.181 119.683 103.181 121.635 103.002 123.575Z" fill="#263238"/>
<path d="M108.657 123.575C108.478 121.635 108.478 119.683 108.657 117.743C108.836 119.683 108.836 121.635 108.657 123.575Z" fill="#263238"/>
<path d="M106.887 123.575C106.708 121.635 106.708 119.683 106.887 117.743C107.067 119.683 107.067 121.635 106.887 123.575Z" fill="#263238"/>
<path d="M112.548 123.575C112.368 121.635 112.368 119.683 112.548 117.743C112.727 119.683 112.727 121.635 112.548 123.575Z" fill="#263238"/>
<path d="M110.778 123.575C110.599 121.635 110.599 119.683 110.778 117.743C110.957 119.683 110.957 121.635 110.778 123.575Z" fill="#263238"/>
<path d="M116.418 123.575C116.238 121.635 116.238 119.683 116.418 117.743C116.597 119.683 116.597 121.635 116.418 123.575Z" fill="#263238"/>
<path d="M114.664 123.575C114.484 121.635 114.484 119.683 114.664 117.743C114.85 119.683 114.85 121.635 114.664 123.575Z" fill="#263238"/>
<path d="M120.324 123.575C120.145 121.635 120.145 119.683 120.324 117.743C120.503 119.683 120.503 121.635 120.324 123.575Z" fill="#263238"/>
<path d="M118.554 123.575C118.375 121.635 118.375 119.683 118.554 117.743C118.734 119.683 118.734 121.635 118.554 123.575Z" fill="#263238"/>
<path d="M124.216 123.575C124.036 121.635 124.036 119.683 124.216 117.743C124.395 119.683 124.395 121.635 124.216 123.575Z" fill="#263238"/>
<path d="M122.446 123.575C122.267 121.635 122.267 119.683 122.446 117.743C122.625 119.683 122.625 121.635 122.446 123.575Z" fill="#263238"/>
<path d="M128.106 123.575C127.927 121.635 127.927 119.683 128.106 117.743C128.286 119.683 128.286 121.635 128.106 123.575Z" fill="#263238"/>
<path d="M126.332 123.575C126.152 121.635 126.152 119.683 126.332 117.743C126.511 119.683 126.511 121.635 126.332 123.575Z" fill="#263238"/>
<path d="M131.992 123.575C131.813 121.635 131.813 119.683 131.992 117.743C132.171 119.683 132.171 121.635 131.992 123.575Z" fill="#263238"/>
<path d="M130.222 123.575C130.043 121.635 130.043 119.683 130.222 117.743C130.402 119.683 130.402 121.635 130.222 123.575Z" fill="#263238"/>
<path d="M133.964 117.656C133.964 117.733 126.668 117.79 117.671 117.79C108.673 117.79 101.372 117.733 101.372 117.656C101.372 117.578 108.668 117.521 117.671 117.521C126.674 117.521 133.964 117.583 133.964 117.656Z" fill="#263238"/>
<path d="M131.428 123.487H99.0586V129.365H131.428V123.487Z" fill="#F4B740"/>
<path d="M102.23 129.406C102.051 127.466 102.051 125.514 102.23 123.575C102.41 125.514 102.41 127.466 102.23 129.406Z" fill="#263238"/>
<path d="M100.461 129.406C100.281 127.466 100.281 125.514 100.461 123.575C100.64 125.514 100.64 127.466 100.461 129.406Z" fill="#263238"/>
<path d="M106.122 129.406C105.942 127.466 105.942 125.514 106.122 123.575C106.301 125.514 106.301 127.466 106.122 129.406Z" fill="#263238"/>
<path d="M104.352 129.406C104.173 127.466 104.173 125.514 104.352 123.575C104.532 125.514 104.532 127.466 104.352 129.406Z" fill="#263238"/>
<path d="M110.012 129.406C109.833 127.466 109.833 125.514 110.012 123.575C110.192 125.514 110.192 127.466 110.012 129.406Z" fill="#263238"/>
<path d="M108.238 129.406C108.059 127.466 108.059 125.514 108.238 123.575C108.417 125.514 108.417 127.466 108.238 129.406Z" fill="#263238"/>
<path d="M113.898 129.406C113.719 127.466 113.719 125.514 113.898 123.575C114.078 125.514 114.078 127.466 113.898 129.406Z" fill="#263238"/>
<path d="M112.129 129.406C111.949 127.466 111.949 125.514 112.129 123.575C112.308 125.514 112.308 127.466 112.129 129.406Z" fill="#263238"/>
<path d="M117.789 129.406C117.609 127.466 117.609 125.514 117.789 123.575C117.968 125.514 117.968 127.466 117.789 129.406Z" fill="#263238"/>
<path d="M116.019 129.406C115.84 127.466 115.84 125.514 116.019 123.575C116.199 125.514 116.199 127.466 116.019 129.406Z" fill="#263238"/>
<path d="M121.68 129.406C121.501 127.466 121.501 125.514 121.68 123.575C121.86 125.514 121.86 127.466 121.68 129.406Z" fill="#263238"/>
<path d="M119.905 129.406C119.726 127.466 119.726 125.514 119.905 123.575C120.084 125.514 120.084 127.466 119.905 129.406Z" fill="#263238"/>
<path d="M125.566 129.406C125.387 127.466 125.387 125.514 125.566 123.575C125.746 125.514 125.746 127.466 125.566 129.406Z" fill="#263238"/>
<path d="M123.797 129.406C123.617 127.466 123.617 125.514 123.797 123.575C123.976 125.514 123.976 127.466 123.797 129.406Z" fill="#263238"/>
<path d="M129.457 129.406C129.277 127.466 129.277 125.514 129.457 123.575C129.636 125.514 129.636 127.466 129.457 129.406Z" fill="#263238"/>
<path d="M127.687 129.406C127.508 127.466 127.508 125.514 127.687 123.575C127.867 125.514 127.867 127.466 127.687 129.406Z" fill="#263238"/>
<path d="M131.423 123.513C131.423 123.59 124.143 123.647 115.166 123.647C106.188 123.647 98.9033 123.59 98.9033 123.513C98.9033 123.435 106.183 123.378 115.166 123.378C124.148 123.378 131.423 123.414 131.423 123.513Z" fill="#263238"/>
<path d="M129.348 129.406H96.9785V135.284H129.348V129.406Z" fill="#F4B740"/>
<path d="M100.15 135.325C99.9708 133.386 99.9708 131.434 100.15 129.494C100.33 131.434 100.33 133.386 100.15 135.325Z" fill="#263238"/>
<path d="M98.3806 135.325C98.2012 133.386 98.2012 131.434 98.3806 129.494C98.56 131.434 98.56 133.386 98.3806 135.325Z" fill="#263238"/>
<path d="M104.042 135.325C103.862 133.386 103.862 131.434 104.042 129.494C104.221 131.434 104.221 133.386 104.042 135.325Z" fill="#263238"/>
<path d="M102.272 135.325C102.093 133.386 102.093 131.434 102.272 129.494C102.452 131.434 102.452 133.386 102.272 135.325Z" fill="#263238"/>
<path d="M107.932 135.325C107.753 133.386 107.753 131.434 107.932 129.494C108.112 131.434 108.112 133.386 107.932 135.325Z" fill="#263238"/>
<path d="M106.163 135.325C105.983 133.386 105.983 131.434 106.163 129.494C106.342 131.434 106.342 133.386 106.163 135.325Z" fill="#263238"/>
<path d="M111.818 135.325C111.639 133.386 111.639 131.434 111.818 129.494C111.998 131.434 111.998 133.386 111.818 135.325Z" fill="#263238"/>
<path d="M110.049 135.325C109.869 133.386 109.869 131.434 110.049 129.494C110.228 131.434 110.228 133.386 110.049 135.325Z" fill="#263238"/>
<path d="M115.709 135.325C115.529 133.386 115.529 131.434 115.709 129.494C115.888 131.434 115.888 133.386 115.709 135.325Z" fill="#263238"/>
<path d="M113.939 135.325C113.76 133.386 113.76 131.434 113.939 129.494C114.119 131.434 114.119 133.386 113.939 135.325Z" fill="#263238"/>
<path d="M119.6 135.325C119.421 133.386 119.421 131.434 119.6 129.494C119.78 131.434 119.78 133.386 119.6 135.325Z" fill="#263238"/>
<path d="M117.825 135.325C117.646 133.386 117.646 131.434 117.825 129.494C118.011 131.433 118.011 133.386 117.825 135.325Z" fill="#263238"/>
<path d="M123.486 135.325C123.307 133.386 123.307 131.434 123.486 129.494C123.665 131.434 123.665 133.386 123.486 135.325Z" fill="#263238"/>
<path d="M121.717 135.325C121.537 133.386 121.537 131.434 121.717 129.494C121.896 131.434 121.896 133.386 121.717 135.325Z" fill="#263238"/>
<path d="M127.377 135.325C127.197 133.386 127.197 131.434 127.377 129.494C127.556 131.434 127.556 133.386 127.377 135.325Z" fill="#263238"/>
<path d="M125.607 135.325C125.428 133.386 125.428 131.434 125.607 129.494C125.787 131.434 125.787 133.386 125.607 135.325Z" fill="#263238"/>
<path d="M129.353 129.406C129.353 129.484 122.073 129.541 113.096 129.541C104.119 129.541 96.834 129.484 96.834 129.406C96.834 129.328 104.114 129.271 113.096 129.271C122.079 129.271 129.353 129.334 129.353 129.406Z" fill="#263238"/>
<g opacity="0.3">
<path d="M103.482 123.549C108.383 124.668 113.425 125.034 118.436 124.635C123.403 124.304 128.417 123.575 133.394 123.637L103.482 123.549Z" fill="#0C0C0C"/>
</g>
<g opacity="0.3">
<path d="M97.377 129.484C102.277 130.603 107.32 130.969 112.33 130.57C117.297 130.239 122.311 129.509 127.289 129.572L97.377 129.484Z" fill="#0C0C0C"/>
</g>
<path d="M102.313 118.142C102.539 118.142 102.722 118.082 102.722 118.007C102.722 117.933 102.539 117.873 102.313 117.873C102.087 117.873 101.904 117.933 101.904 118.007C101.904 118.082 102.087 118.142 102.313 118.142Z" fill="white"/>
<path d="M107.213 118.023C105.981 118.202 104.73 118.202 103.498 118.023C104.73 117.844 105.981 117.844 107.213 118.023Z" fill="white"/>
<path d="M112.351 118.023C111.119 118.202 109.868 118.202 108.636 118.023C109.868 117.844 111.119 117.844 112.351 118.023Z" fill="white"/>
<path d="M232.965 112.606C234.143 115.726 234.369 119.126 233.614 122.375C232.859 125.624 231.157 128.576 228.723 130.857C226.289 133.139 223.234 134.647 219.943 135.191C216.652 135.734 213.273 135.29 210.235 133.913C207.197 132.536 204.636 130.288 202.875 127.455C201.115 124.622 200.235 121.33 200.346 117.996C200.458 114.662 201.556 111.436 203.501 108.727C205.447 106.017 208.152 103.946 211.275 102.775C215.455 101.203 220.088 101.356 224.156 103.199C228.223 105.043 231.392 108.426 232.965 112.606Z" fill="#F4B740"/>
<path d="M229.214 114.018C230.113 116.396 230.285 118.988 229.711 121.464C229.136 123.94 227.84 126.191 225.985 127.93C224.131 129.669 221.803 130.819 219.295 131.234C216.786 131.65 214.212 131.312 211.896 130.263C209.58 129.214 207.627 127.502 206.285 125.343C204.943 123.183 204.271 120.675 204.356 118.134C204.44 115.593 205.276 113.134 206.758 111.069C208.241 109.004 210.302 107.424 212.683 106.531C214.26 105.937 215.938 105.659 217.623 105.713C219.307 105.767 220.965 106.153 222.5 106.849C224.035 107.544 225.418 108.535 226.57 109.765C227.722 110.995 228.621 112.441 229.214 114.018Z" fill="#F4B740"/>
<path d="M229.214 114.018C229.176 113.958 229.144 113.896 229.115 113.832L228.862 113.278L228.675 112.869C228.603 112.719 228.505 112.569 228.412 112.399C228.199 112.001 227.959 111.619 227.692 111.255C226.987 110.242 226.132 109.342 225.157 108.585C222.838 106.747 219.953 105.773 216.994 105.828C214.036 105.884 211.189 106.967 208.941 108.891C208.481 109.281 208.049 109.703 207.648 110.153C207.446 110.386 207.265 110.634 207.068 110.872C206.88 111.116 206.707 111.372 206.551 111.638C206.21 112.168 205.902 112.72 205.63 113.289C205.374 113.879 205.158 114.486 204.983 115.105C204.613 116.374 204.453 117.695 204.507 119.016C204.6 121.758 205.589 124.393 207.322 126.519C208.151 127.55 209.141 128.439 210.256 129.152C210.795 129.502 211.357 129.817 211.937 130.094C212.507 130.352 213.093 130.573 213.691 130.756C214.286 130.926 214.891 131.055 215.502 131.144C216.103 131.216 216.708 131.248 217.313 131.243C219.586 131.215 221.811 130.585 223.76 129.416C225.308 128.479 226.641 127.224 227.67 125.735C228.699 124.246 229.402 122.555 229.731 120.776C229.965 119.564 230.015 118.324 229.881 117.097C229.84 116.649 229.77 116.205 229.669 115.767C229.628 115.576 229.602 115.394 229.56 115.25C229.519 115.105 229.467 114.949 229.431 114.82C229.358 114.572 229.302 114.38 229.255 114.235C229.233 114.17 229.217 114.102 229.208 114.034C229.238 114.095 229.262 114.159 229.281 114.225C229.333 114.37 229.4 114.561 229.483 114.805L229.622 115.234C229.669 115.394 229.705 115.57 229.747 115.751C229.86 116.192 229.939 116.639 229.985 117.092C230.142 118.328 230.107 119.581 229.881 120.807C229.562 122.615 228.862 124.334 227.827 125.851C226.792 127.367 225.446 128.646 223.879 129.603C221.357 131.122 218.398 131.751 215.476 131.388C214.852 131.301 214.235 131.171 213.629 131C213.009 130.822 212.4 130.604 211.808 130.348C211.215 130.069 210.641 129.751 210.09 129.396C208.953 128.668 207.941 127.761 207.094 126.71C206.227 125.623 205.529 124.411 205.025 123.114C204.554 121.807 204.282 120.436 204.217 119.047C204.165 117.698 204.331 116.349 204.709 115.053C205.041 113.792 205.585 112.597 206.318 111.519C206.478 111.246 206.659 110.986 206.861 110.743C207.058 110.495 207.244 110.225 207.451 110.008C207.862 109.549 208.304 109.121 208.776 108.725C210.541 107.226 212.673 106.224 214.954 105.822C216.761 105.511 218.613 105.588 220.388 106.047C222.164 106.507 223.821 107.338 225.25 108.487C226.226 109.263 227.076 110.184 227.77 111.219C228.036 111.585 228.271 111.973 228.474 112.378C228.567 112.554 228.66 112.709 228.732 112.859L228.903 113.278L229.136 113.842C229.167 113.898 229.193 113.957 229.214 114.018Z" fill="#263238"/>
<g opacity="0.3">
<path d="M229.168 114.199C229.095 114.23 228.847 113.718 228.309 112.869C227.557 111.678 226.627 110.608 225.551 109.698C224.812 109.082 224.009 108.548 223.155 108.104C222.173 107.604 221.129 107.234 220.051 107.002C219.474 106.872 218.887 106.788 218.297 106.748C217.682 106.699 217.064 106.699 216.45 106.748C215.816 106.798 215.186 106.895 214.566 107.038C213.93 107.194 213.306 107.395 212.698 107.638C212.095 107.894 211.51 108.193 210.95 108.534C210.403 108.864 209.884 109.238 209.397 109.651C208.927 110.047 208.489 110.479 208.088 110.945C207.696 111.39 207.338 111.864 207.017 112.362C206.422 113.285 205.947 114.279 205.605 115.322C205.306 116.239 205.11 117.187 205.02 118.147C204.899 119.55 204.991 120.963 205.294 122.338C205.512 123.321 205.693 123.854 205.62 123.89C205.548 123.927 205.268 123.425 204.927 122.442C204.477 121.034 204.291 119.555 204.378 118.08C204.434 117.058 204.608 116.046 204.896 115.063C205.227 113.934 205.709 112.855 206.329 111.855C206.661 111.31 207.035 110.791 207.447 110.303C207.872 109.793 208.34 109.319 208.844 108.885C209.363 108.436 209.916 108.027 210.499 107.664C211.705 106.92 213.025 106.378 214.406 106.06C215.722 105.752 217.08 105.656 218.426 105.776C220.243 105.931 222.006 106.469 223.6 107.354C224.491 107.854 225.32 108.455 226.074 109.144C227.159 110.14 228.052 111.327 228.707 112.647C229.09 113.599 229.214 114.158 229.168 114.199Z" fill="#0C0C0C"/>
</g>
<g opacity="0.3">
<path d="M221.241 125.194L222.058 127.264L220.195 127.993L219.383 125.981C217.5 126.591 215.508 126.705 214.173 126.307L214.302 123.637C215.666 123.966 217.093 123.934 218.441 123.544L217.22 120.439C214.959 120.75 212.382 120.957 211.342 118.302C210.571 116.331 211.342 114.08 214.147 112.611L213.334 110.541L215.197 109.812L215.989 111.84C217.349 111.393 218.796 111.274 220.211 111.493L220.18 114.147C219.104 113.983 218.007 114.034 216.951 114.298L218.193 117.459C220.449 117.133 222.984 116.941 224.014 119.554C224.78 121.469 224.04 123.699 221.241 125.194ZM216.154 117.702L215.12 115.063C214.224 115.669 214.043 116.362 214.281 116.978C214.519 117.593 215.244 117.764 216.154 117.702ZM221.111 120.931C220.858 120.279 220.18 120.139 219.269 120.17L220.304 122.757C221.127 122.173 221.344 121.526 221.111 120.926V120.931Z" fill="#0C0C0C"/>
</g>
<path d="M281.861 117.625H249.491V123.502H281.861V117.625Z" fill="#F4B740"/>
<path d="M252.663 123.544C252.483 121.604 252.483 119.652 252.663 117.712C252.842 119.652 252.842 121.604 252.663 123.544Z" fill="#263238"/>
<path d="M250.893 123.544C250.714 121.604 250.714 119.652 250.893 117.712C251.073 119.652 251.073 121.604 250.893 123.544Z" fill="#263238"/>
<path d="M256.554 123.544C256.375 121.604 256.375 119.652 256.554 117.712C256.734 119.652 256.734 121.604 256.554 123.544Z" fill="#263238"/>
<path d="M254.785 123.544C254.606 121.604 254.606 119.652 254.785 117.712C254.964 119.652 254.964 121.604 254.785 123.544Z" fill="#263238"/>
<path d="M260.445 123.544C260.266 121.604 260.266 119.652 260.445 117.712C260.624 119.652 260.624 121.604 260.445 123.544Z" fill="#263238"/>
<path d="M258.671 123.544C258.491 121.604 258.491 119.652 258.671 117.712C258.85 119.652 258.85 121.604 258.671 123.544Z" fill="#263238"/>
<path d="M264.331 123.544C264.151 121.604 264.151 119.652 264.331 117.712C264.51 119.652 264.51 121.604 264.331 123.544Z" fill="#263238"/>
<path d="M262.561 123.544C262.382 121.604 262.382 119.652 262.561 117.712C262.741 119.652 262.741 121.604 262.561 123.544Z" fill="#263238"/>
<path d="M268.221 123.544C268.042 121.604 268.042 119.652 268.221 117.712C268.401 119.652 268.401 121.604 268.221 123.544Z" fill="#263238"/>
<path d="M266.468 123.544C266.288 121.604 266.288 119.652 266.468 117.712C266.647 119.652 266.647 121.604 266.468 123.544Z" fill="#263238"/>
<path d="M272.112 123.544C271.926 121.604 271.926 119.652 272.112 117.712C272.292 119.652 272.292 121.604 272.112 123.544Z" fill="#263238"/>
<path d="M270.338 123.544C270.158 121.604 270.158 119.652 270.338 117.712C270.517 119.652 270.517 121.604 270.338 123.544Z" fill="#263238"/>
<path d="M275.999 123.544C275.819 121.604 275.819 119.652 275.999 117.712C276.178 119.652 276.178 121.604 275.999 123.544Z" fill="#263238"/>
<path d="M274.229 123.544C274.05 121.604 274.05 119.652 274.229 117.712C274.409 119.652 274.409 121.604 274.229 123.544Z" fill="#263238"/>
<path d="M279.889 123.544C279.71 121.604 279.71 119.652 279.889 117.712C280.069 119.652 280.069 121.604 279.889 123.544Z" fill="#263238"/>
<path d="M278.12 123.544C277.941 121.604 277.941 119.652 278.12 117.712C278.299 119.652 278.299 121.604 278.12 123.544Z" fill="#263238"/>
<path d="M281.861 117.624C281.861 117.702 274.565 117.759 265.562 117.759C256.559 117.759 249.264 117.702 249.264 117.624C249.264 117.547 256.559 117.49 265.562 117.49C274.565 117.49 281.861 117.552 281.861 117.624Z" fill="#263238"/>
<path d="M279.325 123.456H246.956V129.334H279.325V123.456Z" fill="#F4B740"/>
<path d="M250.128 129.375C249.948 127.435 249.948 125.483 250.128 123.544C250.307 125.483 250.307 127.435 250.128 129.375Z" fill="#263238"/>
<path d="M248.358 129.375C248.179 127.435 248.179 125.483 248.358 123.544C248.538 125.483 248.538 127.435 248.358 129.375Z" fill="#263238"/>
<path d="M254.019 129.375C253.84 127.435 253.84 125.483 254.019 123.544C254.199 125.483 254.199 127.435 254.019 129.375Z" fill="#263238"/>
<path d="M252.244 129.375C252.065 127.435 252.065 125.483 252.244 123.544C252.423 125.483 252.423 127.435 252.244 129.375Z" fill="#263238"/>
<path d="M257.905 129.375C257.726 127.435 257.726 125.483 257.905 123.544C258.084 125.483 258.084 127.435 257.905 129.375Z" fill="#263238"/>
<path d="M256.12 129.375C255.941 127.435 255.941 125.483 256.12 123.544C256.299 125.483 256.299 127.435 256.12 129.375Z" fill="#263238"/>
<path d="M261.811 129.375C261.632 127.435 261.632 125.483 261.811 123.544C261.991 125.483 261.991 127.435 261.811 129.375Z" fill="#263238"/>
<path d="M260.026 129.375C259.847 127.435 259.847 125.483 260.026 123.544C260.206 125.483 260.206 127.435 260.026 129.375Z" fill="#263238"/>
<path d="M265.681 129.375C265.502 127.435 265.502 125.483 265.681 123.544C265.868 125.483 265.868 127.436 265.681 129.375Z" fill="#263238"/>
<path d="M263.912 129.375C263.732 127.435 263.732 125.483 263.912 123.544C264.091 125.483 264.091 127.435 263.912 129.375Z" fill="#263238"/>
<path d="M269.572 129.375C269.393 127.435 269.393 125.483 269.572 123.544C269.751 125.483 269.751 127.435 269.572 129.375Z" fill="#263238"/>
<path d="M267.803 129.375C267.623 127.435 267.623 125.483 267.803 123.544C267.982 125.483 267.982 127.435 267.803 129.375Z" fill="#263238"/>
<path d="M273.464 129.375C273.284 127.435 273.284 125.483 273.464 123.544C273.643 125.483 273.643 127.435 273.464 129.375Z" fill="#263238"/>
<path d="M271.693 129.375C271.514 127.435 271.514 125.483 271.693 123.544C271.873 125.483 271.873 127.435 271.693 129.375Z" fill="#263238"/>
<path d="M277.334 129.375C277.154 127.435 277.154 125.483 277.334 123.544C277.513 125.483 277.513 127.435 277.334 129.375Z" fill="#263238"/>
<path d="M275.58 129.375C275.4 127.435 275.4 125.483 275.58 123.544C275.759 125.483 275.759 127.435 275.58 129.375Z" fill="#263238"/>
<path d="M279.32 123.456C279.32 123.533 272.045 123.59 263.063 123.59C254.08 123.59 246.806 123.513 246.806 123.456C246.806 123.399 254.086 123.321 263.063 123.321C272.04 123.321 279.32 123.383 279.32 123.456Z" fill="#263238"/>
<path d="M277.245 129.375H244.876V135.253H277.245V129.375Z" fill="#F4B740"/>
<path d="M248.048 135.294C247.868 133.355 247.868 131.403 248.048 129.463C248.227 131.403 248.227 133.355 248.048 135.294Z" fill="#263238"/>
<path d="M246.289 135.294C246.109 133.355 246.109 131.403 246.289 129.463C246.468 131.403 246.468 133.355 246.289 135.294Z" fill="#263238"/>
<path d="M251.939 135.294C251.76 133.355 251.76 131.403 251.939 129.463C252.119 131.403 252.119 133.355 251.939 135.294Z" fill="#263238"/>
<path d="M250.169 135.294C249.983 133.355 249.983 131.402 250.169 129.463C250.348 131.403 250.348 133.355 250.169 135.294Z" fill="#263238"/>
<path d="M255.825 135.294C255.646 133.355 255.646 131.403 255.825 129.463C256.004 131.403 256.004 133.355 255.825 135.294Z" fill="#263238"/>
<path d="M254.05 135.294C253.87 133.355 253.87 131.403 254.05 129.463C254.229 131.403 254.229 133.355 254.05 135.294Z" fill="#263238"/>
<path d="M259.741 135.294C259.562 133.355 259.562 131.403 259.741 129.463C259.92 131.403 259.92 133.355 259.741 135.294Z" fill="#263238"/>
<path d="M257.946 135.294C257.767 133.355 257.767 131.403 257.946 129.463C258.125 131.403 258.125 133.355 257.946 135.294Z" fill="#263238"/>
<path d="M263.606 135.294C263.427 133.355 263.427 131.403 263.606 129.463C263.786 131.403 263.786 133.355 263.606 135.294Z" fill="#263238"/>
<path d="M261.811 135.294C261.632 133.355 261.632 131.403 261.811 129.463C261.991 131.403 261.991 133.355 261.811 135.294Z" fill="#263238"/>
<path d="M267.503 135.294C267.323 133.355 267.323 131.403 267.503 129.463C267.682 131.403 267.682 133.355 267.503 135.294Z" fill="#263238"/>
<path d="M265.722 135.294C265.543 133.355 265.543 131.403 265.722 129.463C265.902 131.403 265.902 133.355 265.722 135.294Z" fill="#263238"/>
<path d="M271.384 135.294C271.204 133.355 271.204 131.403 271.384 129.463C271.563 131.403 271.563 133.355 271.384 135.294Z" fill="#263238"/>
<path d="M269.614 135.294C269.435 133.355 269.435 131.403 269.614 129.463C269.793 131.403 269.793 133.355 269.614 135.294Z" fill="#263238"/>
<path d="M275.264 135.294C275.077 133.355 275.077 131.402 275.264 129.463C275.443 131.403 275.443 133.355 275.264 135.294Z" fill="#263238"/>
<path d="M273.5 135.294C273.32 133.355 273.32 131.403 273.5 129.463C273.679 131.403 273.679 133.355 273.5 135.294Z" fill="#263238"/>
<path d="M277.245 129.375C277.245 129.453 269.965 129.509 260.983 129.509C252 129.509 244.726 129.453 244.726 129.375C244.726 129.297 252.006 129.24 260.983 129.24C269.96 129.24 277.245 129.302 277.245 129.375Z" fill="#263238"/>
<g opacity="0.3">
<path d="M251.354 123.513C256.253 124.632 261.294 124.998 266.303 124.599C271.27 124.268 276.289 123.539 281.266 123.601L251.354 123.513Z" fill="#0C0C0C"/>
</g>
<g opacity="0.3">
<path d="M245.254 129.453C250.153 130.572 255.193 130.938 260.202 130.539C265.169 130.208 270.188 129.478 275.166 129.541L245.254 129.453Z" fill="#0C0C0C"/>
</g>
<path d="M250.211 118.111C250.436 118.111 250.619 118.051 250.619 117.976C250.619 117.902 250.436 117.842 250.211 117.842C249.985 117.842 249.802 117.902 249.802 117.976C249.802 118.051 249.985 118.111 250.211 118.111Z" fill="white"/>
<path d="M255.111 117.992C253.879 118.171 252.627 118.171 251.396 117.992C252.627 117.812 253.879 117.812 255.111 117.992Z" fill="white"/>
<path d="M260.259 117.992C259.027 118.171 257.776 118.171 256.544 117.992C257.776 117.812 259.027 117.812 260.259 117.992Z" fill="white"/>
<path d="M86.3049 105.859H53.9355V111.736H86.3049V105.859Z" fill="#F4B740"/>
<path d="M57.1072 111.778C56.9278 109.838 56.9278 107.886 57.1072 105.946C57.2866 107.886 57.2866 109.838 57.1072 111.778Z" fill="#263238"/>
<path d="M55.3631 111.778C55.1837 109.838 55.1837 107.886 55.3631 105.946C55.5424 107.886 55.5424 109.838 55.3631 111.778Z" fill="#263238"/>
<path d="M60.9978 111.778C60.8184 109.838 60.8184 107.886 60.9978 105.946C61.1772 107.886 61.1772 109.838 60.9978 111.778Z" fill="#263238"/>
<path d="M59.2283 111.778C59.0489 109.838 59.0489 107.886 59.2283 105.946C59.4077 107.886 59.4077 109.838 59.2283 111.778Z" fill="#263238"/>
<path d="M64.8884 111.778C64.7091 109.838 64.7091 107.886 64.8884 105.946C65.0678 107.886 65.0678 109.838 64.8884 111.778Z" fill="#263238"/>
<path d="M63.1248 111.778C62.9454 109.838 62.9454 107.886 63.1248 105.946C63.3042 107.886 63.3042 109.838 63.1248 111.778Z" fill="#263238"/>
<path d="M68.7742 111.778C68.5948 109.838 68.5948 107.886 68.7742 105.946C68.9536 107.886 68.9536 109.838 68.7742 111.778Z" fill="#263238"/>
<path d="M67.0047 111.778C66.8253 109.838 66.8253 107.886 67.0047 105.946C67.184 107.886 67.184 109.838 67.0047 111.778Z" fill="#263238"/>
<path d="M72.6658 111.778C72.4864 109.838 72.4864 107.886 72.6658 105.946C72.8452 107.886 72.8452 109.838 72.6658 111.778Z" fill="#263238"/>
<path d="M70.8855 111.778C70.7061 109.838 70.7061 107.886 70.8855 105.946C71.0649 107.886 71.0649 109.838 70.8855 111.778Z" fill="#263238"/>
<path d="M76.5769 111.778C76.3975 109.838 76.3975 107.886 76.5769 105.946C76.7563 107.886 76.7563 109.838 76.5769 111.778Z" fill="#263238"/>
<path d="M74.782 111.778C74.6026 109.838 74.6026 107.886 74.782 105.946C74.9683 107.886 74.9683 109.838 74.782 111.778Z" fill="#263238"/>
<path d="M80.4422 111.778C80.2628 109.838 80.2628 107.886 80.4422 105.946C80.6215 107.886 80.6215 109.838 80.4422 111.778Z" fill="#263238"/>
<path d="M78.6726 111.778C78.4932 109.838 78.4932 107.886 78.6726 105.946C78.852 107.886 78.852 109.838 78.6726 111.778Z" fill="#263238"/>
<path d="M84.3386 111.778C84.1593 109.838 84.1593 107.886 84.3386 105.946C84.518 107.886 84.518 109.838 84.3386 111.778Z" fill="#263238"/>
<path d="M82.5632 111.778C82.3839 109.838 82.3839 107.886 82.5632 105.946C82.7426 107.886 82.7426 109.838 82.5632 111.778Z" fill="#263238"/>
<path d="M86.3041 105.859C86.3041 105.936 79.0241 105.993 70.047 105.993C61.0699 105.993 53.8105 105.921 53.8105 105.859C53.8105 105.796 61.0905 105.724 70.0728 105.724C79.0551 105.724 86.3041 105.786 86.3041 105.859Z" fill="#263238"/>
<path d="M84.1887 111.829H51.8193V117.707H84.1887V111.829Z" fill="#F4B740"/>
<path d="M54.991 117.749C54.8116 115.809 54.8116 113.857 54.991 111.917C55.1704 113.857 55.1704 115.809 54.991 117.749Z" fill="#263238"/>
<path d="M53.2215 117.749C53.0421 115.809 53.0421 113.857 53.2215 111.917C53.4008 113.857 53.4008 115.809 53.2215 117.749Z" fill="#263238"/>
<path d="M58.8816 117.749C58.7022 115.809 58.7022 113.857 58.8816 111.917C59.061 113.857 59.061 115.809 58.8816 117.749Z" fill="#263238"/>
<path d="M57.1072 117.749C56.9278 115.809 56.9278 113.857 57.1072 111.917C57.2866 113.857 57.2866 115.809 57.1072 117.749Z" fill="#263238"/>
<path d="M62.7673 117.749C62.588 115.809 62.588 113.857 62.7673 111.917C62.9467 113.857 62.9467 115.809 62.7673 117.749Z" fill="#263238"/>
<path d="M60.9978 117.749C60.8184 115.809 60.8184 113.857 60.9978 111.917C61.1772 113.857 61.1772 115.809 60.9978 117.749Z" fill="#263238"/>
<path d="M66.658 117.749C66.4786 115.809 66.4786 113.857 66.658 111.917C66.8374 113.857 66.8374 115.809 66.658 117.749Z" fill="#263238"/>
<path d="M64.8884 117.749C64.7091 115.809 64.7091 113.857 64.8884 111.917C65.0678 113.857 65.0678 115.809 64.8884 117.749Z" fill="#263238"/>
<path d="M70.5489 117.749C70.3626 115.809 70.3626 113.857 70.5489 111.917C70.7283 113.857 70.7283 115.809 70.5489 117.749Z" fill="#263238"/>
<path d="M68.7742 117.749C68.5948 115.809 68.5948 113.857 68.7742 111.917C68.9536 113.857 68.9536 115.809 68.7742 117.749Z" fill="#263238"/>
<path d="M74.4353 117.749C74.2559 115.809 74.2559 113.857 74.4353 111.917C74.6147 113.857 74.6147 115.809 74.4353 117.749Z" fill="#263238"/>
<path d="M72.6658 117.749C72.4864 115.809 72.4864 113.857 72.6658 111.917C72.8452 113.857 72.8452 115.809 72.6658 117.749Z" fill="#263238"/>
<path d="M78.3259 117.749C78.1466 115.809 78.1466 113.857 78.3259 111.917C78.5053 113.857 78.5053 115.809 78.3259 117.749Z" fill="#263238"/>
<path d="M76.5769 117.749C76.3975 115.809 76.3975 113.857 76.5769 111.917C76.7563 113.857 76.7563 115.809 76.5769 117.749Z" fill="#263238"/>
<path d="M82.2117 117.749C82.0323 115.809 82.0323 113.857 82.2117 111.917C82.3911 113.857 82.3911 115.809 82.2117 117.749Z" fill="#263238"/>
<path d="M80.4422 117.749C80.2628 115.809 80.2628 113.857 80.4422 111.917C80.6215 113.857 80.6215 115.809 80.4422 117.749Z" fill="#263238"/>
<path d="M84.1884 111.829C84.1884 111.907 76.9083 111.964 67.9261 111.964C58.9438 111.964 51.6689 111.907 51.6689 111.829C51.6689 111.752 58.9489 111.695 67.9261 111.695C76.9032 111.695 84.1884 111.757 84.1884 111.829Z" fill="#263238"/>
<path d="M86.8322 117.749H54.4629V123.626H86.8322V117.749Z" fill="#F4B740"/>
<path d="M57.6345 123.668C57.4552 121.728 57.4552 119.776 57.6345 117.837C57.8139 119.776 57.8139 121.728 57.6345 123.668Z" fill="#263238"/>
<path d="M55.8804 123.668C55.7 121.723 55.7 119.766 55.8804 117.821C56.0598 119.761 56.0598 121.713 55.8804 123.652V123.668Z" fill="#263238"/>
<path d="M61.5261 123.668C61.3468 121.728 61.3468 119.776 61.5261 117.837C61.7055 119.776 61.7055 121.728 61.5261 123.668Z" fill="#263238"/>
<path d="M59.7556 123.668C59.5762 121.728 59.5762 119.776 59.7556 117.837C59.935 119.776 59.935 121.728 59.7556 123.668Z" fill="#263238"/>
<path d="M65.4119 123.668C65.2325 121.728 65.2325 119.776 65.4119 117.837C65.5913 119.776 65.5913 121.728 65.4119 123.668Z" fill="#263238"/>
<path d="M63.6421 123.668C63.4618 121.723 63.4618 119.766 63.6421 117.821C63.8215 119.761 63.8215 121.713 63.6421 123.652V123.668Z" fill="#263238"/>
<path d="M69.3025 123.668C69.1231 121.728 69.1231 119.776 69.3025 117.837C69.4819 119.776 69.4819 121.728 69.3025 123.668Z" fill="#263238"/>
<path d="M67.533 123.668C67.3536 121.728 67.3536 119.776 67.533 117.837C67.7124 119.776 67.7124 121.728 67.533 123.668Z" fill="#263238"/>
<path d="M73.1931 123.668C73.0137 121.728 73.0137 119.776 73.1931 117.837C73.3725 119.776 73.3725 121.728 73.1931 123.668Z" fill="#263238"/>
<path d="M71.4028 123.668C71.2225 121.723 71.2225 119.766 71.4028 117.821C71.5822 119.761 71.5822 121.713 71.4028 123.652V123.668Z" fill="#263238"/>
<path d="M77.0942 123.668C76.9139 121.723 76.9139 119.766 77.0942 117.821C77.2736 119.761 77.2736 121.713 77.0942 123.652V123.668Z" fill="#263238"/>
<path d="M75.3093 123.668C75.13 121.728 75.13 119.776 75.3093 117.837C75.4887 119.776 75.4887 121.728 75.3093 123.668Z" fill="#263238"/>
<path d="M80.9705 123.668C80.7911 121.728 80.7911 119.776 80.9705 117.837C81.1499 119.776 81.1499 121.728 80.9705 123.668Z" fill="#263238"/>
<path d="M79.2009 123.668C79.0216 121.728 79.0216 119.776 79.2009 117.837C79.3803 119.776 79.3803 121.728 79.2009 123.668Z" fill="#263238"/>
<path d="M84.856 123.668C84.6756 121.723 84.6756 119.766 84.856 117.821C85.0353 119.761 85.0353 121.713 84.856 123.652V123.668Z" fill="#263238"/>
<path d="M83.0867 123.668C82.9073 121.728 82.9073 119.776 83.0867 117.837C83.2729 119.776 83.2729 121.729 83.0867 123.668Z" fill="#263238"/>
<path d="M86.8324 117.749C86.8324 117.826 79.5317 117.883 70.5339 117.883C61.536 117.883 54.2354 117.826 54.2354 117.749C54.2354 117.671 61.5309 117.614 70.5339 117.614C79.5368 117.614 86.8324 117.676 86.8324 117.749Z" fill="#263238"/>
<path d="M84.2971 123.58H51.9277V129.458H84.2971V123.58Z" fill="#F4B740"/>
<path d="M55.0994 129.499C54.92 127.559 54.92 125.607 55.0994 123.668C55.2788 125.607 55.2788 127.559 55.0994 129.499Z" fill="#263238"/>
<path d="M53.3298 129.499C53.1505 127.559 53.1505 125.607 53.3298 123.668C53.5092 125.607 53.5092 127.559 53.3298 129.499Z" fill="#263238"/>
<path d="M58.9851 129.499C58.8057 127.559 58.8057 125.607 58.9851 123.668C59.1645 125.607 59.1645 127.559 58.9851 129.499Z" fill="#263238"/>
<path d="M57.2156 129.499C57.0362 127.559 57.0362 125.607 57.2156 123.668C57.395 125.607 57.395 127.559 57.2156 129.499Z" fill="#263238"/>
<path d="M62.8757 129.499C62.6964 127.559 62.6964 125.607 62.8757 123.668C63.0551 125.607 63.0551 127.559 62.8757 129.499Z" fill="#263238"/>
<path d="M61.1062 129.499C60.9268 127.559 60.9268 125.607 61.1062 123.668C61.2856 125.607 61.2856 127.559 61.1062 129.499Z" fill="#263238"/>
<path d="M66.7468 129.499C66.5675 127.559 66.5675 125.607 66.7468 123.668C66.9262 125.607 66.9262 127.559 66.7468 129.499Z" fill="#263238"/>
<path d="M64.9978 129.499C64.8184 127.559 64.8184 125.607 64.9978 123.668C65.1772 125.607 65.1772 127.559 64.9978 129.499Z" fill="#263238"/>
<path d="M70.6531 129.499C70.4737 127.559 70.4737 125.607 70.6531 123.668C70.8325 125.607 70.8325 127.559 70.6531 129.499Z" fill="#263238"/>
<path d="M68.8836 129.499C68.7042 127.559 68.7042 125.607 68.8836 123.668C69.0629 125.607 69.0629 127.559 68.8836 129.499Z" fill="#263238"/>
<path d="M74.5437 129.499C74.3643 127.559 74.3643 125.607 74.5437 123.668C74.7231 125.607 74.7231 127.559 74.5437 129.499Z" fill="#263238"/>
<path d="M72.7742 129.499C72.5948 127.559 72.5948 125.607 72.7742 123.668C72.9536 125.607 72.9536 127.559 72.7742 129.499Z" fill="#263238"/>
<path d="M78.4343 129.499C78.255 127.559 78.255 125.607 78.4343 123.668C78.6137 125.607 78.6137 127.559 78.4343 129.499Z" fill="#263238"/>
<path d="M76.6599 129.499C76.4805 127.559 76.4805 125.607 76.6599 123.668C76.8462 125.607 76.8462 127.56 76.6599 129.499Z" fill="#263238"/>
<path d="M82.3201 129.499C82.1407 127.559 82.1407 125.607 82.3201 123.668C82.4995 125.607 82.4995 127.559 82.3201 129.499Z" fill="#263238"/>
<path d="M80.5506 129.499C80.3712 127.559 80.3712 125.607 80.5506 123.668C80.7299 125.607 80.7299 127.559 80.5506 129.499Z" fill="#263238"/>
<path d="M84.2916 123.58C84.2916 123.652 77.0116 123.714 68.0345 123.714C59.0573 123.714 51.7773 123.652 51.7773 123.58C51.7773 123.507 59.0522 123.445 68.0345 123.445C77.0167 123.445 84.2916 123.513 84.2916 123.58Z" fill="#263238"/>
<path d="M87.5412 129.541H55.1719V135.418H87.5412V129.541Z" fill="#F4B740"/>
<path d="M58.3435 135.46C58.1641 133.52 58.1641 131.568 58.3435 129.628C58.5229 131.568 58.5229 133.52 58.3435 135.46Z" fill="#263238"/>
<path d="M56.574 135.46C56.3946 133.52 56.3946 131.568 56.574 129.628C56.7534 131.568 56.7534 133.52 56.574 135.46Z" fill="#263238"/>
<path d="M62.2293 135.46C62.0499 133.52 62.0499 131.568 62.2293 129.628C62.4086 131.568 62.4086 133.52 62.2293 135.46Z" fill="#263238"/>
<path d="M60.4597 135.46C60.2803 133.52 60.2803 131.568 60.4597 129.628C60.6391 131.568 60.6391 133.52 60.4597 135.46Z" fill="#263238"/>
<path d="M66.1199 135.46C65.9405 133.52 65.9405 131.568 66.1199 129.628C66.2993 131.568 66.2993 133.52 66.1199 135.46Z" fill="#263238"/>
<path d="M64.3504 135.46C64.171 133.52 64.171 131.568 64.3504 129.628C64.5297 131.568 64.5297 133.52 64.3504 135.46Z" fill="#263238"/>
<path d="M70.0115 135.46C69.8321 133.52 69.8321 131.568 70.0115 129.628C70.1909 131.568 70.1909 133.52 70.0115 135.46Z" fill="#263238"/>
<path d="M68.2361 135.46C68.0567 133.52 68.0567 131.568 68.2361 129.628C68.4224 131.568 68.4224 133.52 68.2361 135.46Z" fill="#263238"/>
<path d="M73.8972 135.46C73.7178 133.52 73.7178 131.568 73.8972 129.628C74.0766 131.568 74.0766 133.52 73.8972 135.46Z" fill="#263238"/>
<path d="M72.1277 135.46C71.9483 133.52 71.9483 131.568 72.1277 129.628C72.3071 131.568 72.3071 133.52 72.1277 135.46Z" fill="#263238"/>
<path d="M77.7879 135.46C77.6085 133.52 77.6085 131.568 77.7879 129.628C77.9672 131.568 77.9672 133.52 77.7879 135.46Z" fill="#263238"/>
<path d="M76.0183 135.46C75.8389 133.52 75.8389 131.568 76.0183 129.628C76.1977 131.568 76.1977 133.52 76.0183 135.46Z" fill="#263238"/>
<path d="M81.6785 135.46C81.4991 133.52 81.4991 131.568 81.6785 129.628C81.8579 131.568 81.8579 133.52 81.6785 135.46Z" fill="#263238"/>
<path d="M79.9041 135.46C79.7247 133.52 79.7247 131.568 79.9041 129.628C80.0834 131.568 80.0834 133.52 79.9041 135.46Z" fill="#263238"/>
<path d="M85.5642 135.46C85.3848 133.52 85.3848 131.568 85.5642 129.628C85.7436 131.568 85.7436 133.52 85.5642 135.46Z" fill="#263238"/>
<path d="M83.8211 135.46C83.6417 133.52 83.6417 131.568 83.8211 129.628C84.0004 131.568 84.0004 133.52 83.8211 135.46Z" fill="#263238"/>
<path d="M87.5357 129.541C87.5357 129.618 80.2557 129.675 71.2786 129.675C62.3015 129.675 55.0215 129.618 55.0215 129.541C55.0215 129.463 62.2963 129.406 71.2786 129.406C80.2609 129.406 87.5357 129.468 87.5357 129.541Z" fill="#263238"/>
<g opacity="0.3">
<path d="M54.4629 117.749C59.3629 118.87 64.4055 119.237 69.4161 118.835C74.3833 118.509 79.397 117.8 84.3745 117.837L54.4629 117.749Z" fill="#0C0C0C"/>
</g>
<g opacity="0.3">
<path d="M54.7578 111.897C59.6562 113.017 64.6967 113.386 69.7059 112.988C74.673 112.657 79.6919 111.928 84.6695 111.985L54.7578 111.897Z" fill="#0C0C0C"/>
</g>
<g opacity="0.3">
<path d="M56.3203 123.637C61.2205 124.757 66.2626 125.125 71.2735 124.729C76.2407 124.397 81.2544 123.668 86.232 123.725L56.3203 123.637Z" fill="#0C0C0C"/>
</g>
<g opacity="0.3">
<path d="M55.0527 129.509C59.9535 130.626 64.9953 130.992 70.006 130.596C74.9731 130.265 79.9869 129.535 84.9644 129.592L55.0527 129.509Z" fill="#0C0C0C"/>
</g>
<path d="M54.53 109.879C54.3507 108.814 54.3507 107.726 54.53 106.661C54.7094 107.726 54.7094 108.814 54.53 109.879Z" fill="white"/>
<path d="M52.4919 116.16C52.3126 115.017 52.3126 113.852 52.4919 112.709C52.6713 113.852 52.6713 115.017 52.4919 116.16Z" fill="white"/>
<path d="M55.3943 122.204C55.2149 121.192 55.2149 120.157 55.3943 119.146C55.5737 120.157 55.5737 121.192 55.3943 122.204Z" fill="white"/>
<path d="M52.4141 127.781C52.2279 126.875 52.2279 125.94 52.4141 125.034C52.5934 125.941 52.5934 126.874 52.4141 127.781Z" fill="white"/>
<path d="M64.2683 112.316C64.2683 112.388 61.8778 112.45 58.9286 112.45C55.9793 112.45 53.5889 112.388 53.5889 112.316C55.3653 112.179 57.1475 112.135 58.9286 112.181C60.7096 112.135 62.4919 112.179 64.2683 112.316Z" fill="white"/>
<path d="M67.7186 106.661C65.9301 106.797 64.1358 106.842 62.3427 106.795C60.5496 106.842 58.7553 106.797 56.9668 106.661C56.9668 106.588 59.3728 106.526 62.3427 106.526C65.3127 106.526 67.7186 106.588 67.7186 106.661Z" fill="white"/>
<path d="M72.8989 106.743C71.7295 106.923 70.5395 106.923 69.3701 106.743C70.5395 106.564 71.7295 106.564 72.8989 106.743Z" fill="white"/>
</g>
<defs>
<clipPath id="clip0_3065_13937">
<rect width="337.353" height="104" fill="white" transform="translate(0 31.4131)"/>
</clipPath>
</defs>
</svg>
