<svg width="39" height="108" viewBox="0 0 39 108" fill="none" xmlns="http://www.w3.org/2000/svg">
<path d="M13.2463 55.5334L13.8808 54.8603L13.8684 54.8486L13.8556 54.8373L13.2463 55.5334ZM32.0591 43.4L31.4067 44.0557L32.0591 43.4ZM9.28572 65.8L8.36156 65.8394L9.28572 65.8ZM38.1883 105.906C38.6885 105.802 39.0096 105.312 38.9056 104.812L37.2109 96.661C37.1069 96.1609 36.6172 95.8397 36.117 95.9437C35.6168 96.0477 35.2957 96.5375 35.3997 97.0376L36.9061 104.283L29.661 105.789C29.1609 105.893 28.8397 106.383 28.9437 106.883C29.0477 107.383 29.5375 107.704 30.0376 107.6L38.1883 105.906ZM12.5684 0.770719C7.85967 5.84335 2.20493 14.683 0.550776 24.7703C-1.11392 34.9219 1.28772 46.2954 12.6371 56.2294L13.8556 54.8373C3.02566 45.358 0.806603 34.6426 2.37639 25.0697C3.95673 15.4326 9.39164 6.91225 13.9243 2.02933L12.5684 0.770719ZM12.6119 56.2065C17.8981 61.1894 26.2708 61.3494 31.6333 58.6136C34.3355 57.235 36.4339 55.0371 36.879 52.1764C37.3259 49.3044 36.059 46.075 32.7115 42.7443L31.4067 44.0557C34.5221 47.1556 35.3727 49.8249 35.051 51.892C34.7276 53.9703 33.1715 55.752 30.7925 56.9657C25.9925 59.4146 18.496 59.2107 13.8808 54.8603L12.6119 56.2065ZM32.7115 42.7443C29.7356 39.7832 26.5849 38.6996 23.5248 39.1603C20.5125 39.6138 17.7736 41.5368 15.5079 44.2007C10.9831 49.5208 8.03368 58.1521 8.36156 65.8394L10.2099 65.7606C9.90083 58.5147 12.71 50.3459 16.9171 45.3993C19.0173 42.93 21.3877 41.3529 23.8002 40.9897C26.1649 40.6337 28.7546 41.4169 31.4067 44.0557L32.7115 42.7443ZM8.36156 65.8394C8.74042 74.7222 14.5204 90.7097 37.4928 105.774L38.5072 104.227C15.9328 89.4237 10.5587 73.938 10.2099 65.7606L8.36156 65.8394Z" fill="#ADADAD"/>
</svg>
