<svg width="360" height="226" viewBox="0 0 360 226" fill="none" xmlns="http://www.w3.org/2000/svg">
<g clip-path="url(#clip0_2541_19271)">
<path d="M216.427 202.306C271.99 181.235 290.789 142.648 299.975 101.231C304.5 80.8187 303.233 58.6874 293.736 40.055C284.238 21.4225 265.89 6.88041 245.115 4.54787C224.34 2.21533 202.019 13.5823 193.922 32.862C188.498 45.7971 188.81 62.0133 178.297 71.3099C171.294 77.5096 161.149 78.7875 151.841 77.8946C142.533 77.0018 133.466 74.2619 124.141 73.5476C103.678 71.9796 77.9867 81.918 67.9367 99.8306C60.8498 112.481 54.1088 131.599 60.6656 156.029C65.9836 175.85 84.1529 200.995 122.171 207.764C122.171 207.764 176.009 217.63 216.427 202.306Z" fill="#EBEBEB"/>
<path d="M344.499 225.687C344.499 225.771 288.981 225.833 220.512 225.833C152.042 225.833 96.5132 225.771 96.5132 225.687C96.5132 225.604 152.02 225.542 220.512 225.542C289.004 225.542 344.499 225.609 344.499 225.687Z" fill="#263238"/>
<path d="M88.523 208.556C89.1536 206.118 87.5521 203.662 85.7329 201.893C83.9137 200.124 81.7932 198.545 80.8613 196.196C79.3491 192.401 81.3803 187.491 78.8022 184.327C77.2844 182.463 74.5613 181.838 73.222 179.863C72.5133 178.819 72.2845 177.536 72.0055 176.308C70.5806 170.001 67.4852 164.194 63.0436 159.495C62.7472 165.107 63.9653 170.697 66.5703 175.677C67.6138 177.664 68.8973 179.584 69.2433 181.816C69.8013 185.42 67.7924 189.137 68.6852 192.675C69.6953 196.726 74.2655 199.438 74.4608 203.606C74.645 207.133 71.5702 210.225 71.799 213.746C71.9862 215.243 72.5234 216.675 73.3671 217.925C76.1014 222.479 80.0913 225.598 86.1458 225.498L93.5787 225.754L88.523 208.556Z" fill="#4169E1"/>
<g opacity="0.3">
<path d="M88.523 208.556C89.1536 206.118 87.5521 203.662 85.7329 201.893C83.9137 200.124 81.7932 198.545 80.8613 196.196C79.3491 192.401 81.3803 187.491 78.8022 184.327C77.2844 182.463 74.5613 181.838 73.222 179.863C72.5133 178.819 72.2845 177.536 72.0055 176.308C70.5806 170.001 67.4852 164.194 63.0436 159.495C62.7472 165.107 63.9653 170.697 66.5703 175.677C67.6138 177.664 68.8973 179.584 69.2433 181.816C69.8013 185.42 67.7924 189.137 68.6852 192.675C69.6953 196.726 74.2655 199.438 74.4608 203.606C74.645 207.133 71.5702 210.225 71.799 213.746C71.9862 215.243 72.5234 216.675 73.3671 217.925C76.1014 222.479 80.0913 225.598 86.1458 225.498L93.5787 225.754L88.523 208.556Z" fill="#0C0C0C"/>
</g>
<path d="M95.0743 225.704C95.754 225.81 96.447 225.797 97.1222 225.665C97.9434 225.54 98.7506 225.336 99.5329 225.057C100.612 224.681 101.621 224.129 102.518 223.422C103.057 222.987 103.479 222.425 103.746 221.787C103.972 221.064 104.089 220.312 104.092 219.555C104.109 218.75 104.168 217.948 104.27 217.15C104.413 216.302 104.72 215.491 105.174 214.761C106.051 213.221 107.507 211.765 107.965 209.672C108.422 207.58 108.11 205.392 107.764 203.16C107.418 200.928 107.083 198.501 107.937 196.179C108.79 193.858 110.364 191.754 111.179 189.137C111.994 186.52 111.614 183.64 111.782 180.833C111.837 179.409 112.166 178.009 112.752 176.71C113.355 175.393 114.187 174.154 114.839 172.764C116.156 169.974 116.391 166.794 116.754 163.685C116.928 162.115 117.114 160.533 117.312 158.937C117.424 157.328 117.701 155.735 118.137 154.182C118.639 152.616 119.234 151.08 119.918 149.584C120.269 148.807 120.556 148.003 120.777 147.179C120.903 146.332 120.983 145.479 121.017 144.623C121.099 142.906 121.034 141.184 120.822 139.478C120.621 137.765 120.308 136.063 120.124 134.344L120.09 134.049L120.051 133.708L119.75 133.859C118.175 134.662 116.805 135.817 115.749 137.235C114.718 138.621 113.89 140.147 113.288 141.766C112.049 144.958 111.614 148.306 110.978 151.498C110.342 154.69 109.583 157.843 107.909 160.499C107.1 161.822 106.112 163.027 105.247 164.321C104.328 165.58 103.699 167.026 103.406 168.557C102.965 171.699 104.695 174.461 104.337 177.245C104.166 178.613 103.704 179.928 102.981 181.101C102.306 182.29 101.514 183.389 100.749 184.5C99.9809 185.579 99.3122 186.726 98.7516 187.926C98.2284 189.104 97.9204 190.367 97.8421 191.654C97.6579 194.159 98.015 196.536 97.8421 198.78C97.6369 200.916 97.0151 202.992 96.0117 204.89C95.1077 206.715 94.1089 208.372 93.2718 209.973C92.8533 210.777 92.4627 211.558 92.1558 212.34C91.8586 213.1 91.6399 213.889 91.5029 214.694C91.2837 216.098 91.2668 217.527 91.4527 218.935C91.6507 220.895 92.3886 222.761 93.5843 224.326C93.7653 224.559 93.965 224.778 94.1814 224.979C94.3309 225.132 94.4954 225.271 94.6725 225.392C94.9459 225.598 95.0966 225.687 95.0966 225.687C94.5636 225.27 94.0805 224.793 93.6569 224.265C92.5097 222.691 91.8114 220.836 91.6368 218.896C91.4727 217.504 91.5047 216.095 91.7317 214.711C91.8748 213.927 92.0953 213.158 92.3902 212.418C92.7082 211.653 93.0988 210.872 93.5062 210.08C94.3544 208.495 95.3644 206.849 96.2963 205.007C97.3337 203.081 97.9785 200.968 98.1936 198.791C98.3889 196.497 98.0485 194.114 98.2382 191.665C98.318 190.421 98.6204 189.202 99.1311 188.065C99.685 186.891 100.346 185.77 101.106 184.717C101.854 183.601 102.658 182.513 103.339 181.297C104.094 180.076 104.579 178.708 104.762 177.284C105.119 174.316 103.4 171.537 103.846 168.618C104.131 167.152 104.739 165.768 105.626 164.567C106.475 163.295 107.468 162.089 108.305 160.733C109.979 157.999 110.811 154.802 111.43 151.593C112.049 148.384 112.507 145.07 113.729 141.939C114.314 140.363 115.12 138.879 116.123 137.531C117.134 136.17 118.446 135.062 119.957 134.294L119.611 134.104L119.644 134.406C119.834 136.141 120.141 137.849 120.342 139.54C120.551 141.22 120.616 142.915 120.537 144.606C120.507 145.438 120.431 146.267 120.308 147.09C120.096 147.883 119.818 148.658 119.477 149.405C118.79 150.919 118.192 152.471 117.685 154.054C117.239 155.631 116.958 157.251 116.848 158.886C116.67 160.49 116.495 162.075 116.324 163.641C115.967 166.76 115.732 169.885 114.466 172.569C113.835 173.914 113.004 175.158 112.384 176.52C111.779 177.867 111.44 179.319 111.385 180.794C111.223 183.663 111.597 186.469 110.827 189.009C110.057 191.548 108.439 193.646 107.619 196.045C106.798 198.445 107.105 200.978 107.457 203.199C107.808 205.42 108.177 207.613 107.697 209.594C107.217 211.575 105.855 213.031 104.962 214.616C104.495 215.375 104.183 216.219 104.042 217.099C103.942 217.907 103.89 218.719 103.885 219.532C103.885 220.264 103.777 220.991 103.567 221.692C103.319 222.301 102.922 222.838 102.412 223.254C101.539 223.957 100.557 224.513 99.505 224.901C98.7327 225.189 97.9349 225.404 97.1222 225.542C96.623 225.633 96.1173 225.684 95.61 225.693C95.2751 225.699 95.0743 225.704 95.0743 225.704Z" fill="#263238"/>
<path d="M118.578 138.15C118.546 138.224 118.522 138.3 118.506 138.379C118.461 138.558 118.411 138.775 118.344 139.049C118.199 139.634 118.02 140.516 117.741 141.621C117.462 142.726 116.776 143.965 116.201 145.499C115.522 147.226 114.932 148.986 114.432 150.773C113.874 152.754 113.361 154.958 112.836 157.313C112.312 159.668 111.754 162.19 110.459 164.567C109.851 165.772 109.164 166.994 108.617 168.334C108.082 169.704 107.724 171.136 107.552 172.597C107.177 175.62 106.64 178.621 105.945 181.587C104.455 187.68 103.037 193.478 101.743 198.763L98.2215 212.769C97.245 216.731 96.447 219.951 95.889 222.217C95.6323 223.333 95.4258 224.17 95.2751 224.795C95.2193 225.068 95.1691 225.291 95.13 225.47C95.1078 225.544 95.0966 225.621 95.0966 225.699C95.132 225.629 95.16 225.556 95.1803 225.481L95.37 224.817C95.543 224.198 95.7718 223.344 96.0675 222.267C96.6646 220.001 97.5128 216.798 98.5507 212.847L102.172 198.869C103.478 193.584 104.907 187.786 106.413 181.693C107.107 178.714 107.641 175.7 108.015 172.664C108.179 171.247 108.518 169.856 109.025 168.523C109.549 167.223 110.225 166.007 110.833 164.785C112.144 162.363 112.685 159.762 113.21 157.419C113.735 155.075 114.198 152.86 114.739 150.879C115.28 148.898 115.855 147.14 116.413 145.617C116.971 144.093 117.613 142.826 117.886 141.682C118.16 140.538 118.288 139.679 118.405 139.082C118.45 138.809 118.489 138.585 118.522 138.407C118.551 138.324 118.57 138.238 118.578 138.15Z" fill="#263238"/>
<path d="M96.4079 225.754C101.263 222.869 102.658 214.332 100.632 209.058C98.6066 203.785 95.0519 198.969 94.4939 193.35C94.0698 189.031 95.4872 184.595 94.4939 180.37C93.1435 174.662 87.58 170.259 87.647 164.4C87.6804 161.113 89.5498 158.021 89.4047 154.735C89.2206 150.711 86.1291 147.514 84.2151 143.965C81.2799 138.535 81.0902 132.112 80.0857 126.024C79.0813 119.936 76.7376 113.413 71.3694 110.4C70.5714 115.567 69.2098 119.11 69.6395 126.114C69.7902 128.63 72.7142 133.44 73.1104 138.948C73.3504 142.246 73.5122 145.544 73.7131 148.842C73.9084 152.051 74.1149 155.315 75.27 158.328C76.1516 160.633 77.5634 162.72 78.2219 165.097C79.4496 169.561 77.8313 174.405 78.8246 178.931C79.6672 182.764 82.3234 186.068 82.8647 189.957C83.6292 195.42 80.0746 201.118 81.8993 206.307C82.7977 208.897 84.9294 210.972 85.532 213.64C86.0008 215.716 85.4874 217.909 85.9115 219.99C86.5979 223.338 92.9928 225.95 96.4079 225.738" fill="#4169E1"/>
<path d="M72.703 115.55C72.6943 115.649 72.6943 115.748 72.703 115.846C72.703 116.064 72.77 116.343 72.8146 116.694C72.9262 117.442 73.049 118.536 73.3001 119.953C73.5512 121.37 74.3101 122.983 74.8961 124.919C75.482 126.856 76.1293 129.077 76.6762 131.565C77.223 134.054 77.6918 136.816 78.1772 139.78C78.6627 142.743 79.1984 145.979 80.666 149.071C81.3468 150.622 82.1113 152.173 82.6861 153.831C83.2463 155.529 83.5894 157.292 83.7073 159.076C83.9799 162.868 84.4568 166.642 85.1358 170.382C86.6202 178.043 88.0375 185.337 89.3266 191.983C90.6156 198.629 91.9102 204.555 92.937 209.572C93.9638 214.588 94.8231 218.595 95.4146 221.424C95.7104 222.797 95.9447 223.874 96.1122 224.644C96.1903 224.99 96.2572 225.263 96.3075 225.475C96.3236 225.571 96.3498 225.664 96.3856 225.754C96.3892 225.657 96.3779 225.559 96.3521 225.464C96.313 225.252 96.2684 224.973 96.207 224.622C96.0619 223.852 95.8555 222.769 95.5988 221.385C95.0407 218.55 94.2483 214.499 93.2718 209.505C92.2953 204.51 91.0788 198.517 89.7563 191.894L85.6045 170.304C84.9353 166.576 84.4659 162.815 84.1983 159.037C84.0723 157.216 83.716 155.417 83.1381 153.686C82.5466 152.012 81.7765 150.438 81.0901 148.898C79.6281 145.856 79.1147 142.676 78.5902 139.718C78.0656 136.761 77.6025 133.993 77.0277 131.499C76.4529 129.004 75.8168 126.772 75.1695 124.841C74.5222 122.911 73.7967 121.309 73.4954 119.919C73.1941 118.53 73.0602 117.42 72.9374 116.683C72.8704 116.337 72.8202 116.058 72.7811 115.84C72.7683 115.741 72.742 115.643 72.703 115.55Z" fill="#263238"/>
<path d="M284.245 192.519C284.999 192.878 285.673 193.386 286.226 194.012C286.779 194.638 287.2 195.37 287.464 196.162C287.981 197.755 288.128 199.443 287.894 201.101C287.531 204.31 285.707 207.541 283.748 210.102C281.047 207.747 280.4 203.64 280.244 201.536C279.953 198.188 281.443 192.022 284.245 192.519Z" fill="#4169E1"/>
<path d="M286.878 215.398C286.698 214.484 286.762 213.539 287.062 212.657C287.363 211.775 287.89 210.988 288.592 210.375C289.306 209.774 290.132 209.321 291.023 209.042C291.914 208.764 292.852 208.665 293.781 208.751C294.212 208.747 294.639 208.835 295.032 209.012C295.425 209.188 295.775 209.448 296.058 209.773C296.27 210.117 296.385 210.512 296.392 210.917C296.399 211.321 296.297 211.72 296.097 212.072C295.688 212.77 295.1 213.348 294.395 213.746C292.057 215.213 289.524 216.207 286.878 215.42" fill="#4169E1"/>
<path d="M283.419 225.208C283.432 224.986 283.463 224.766 283.514 224.549C283.597 224.086 283.709 223.489 283.843 222.769C284.141 220.783 284.761 218.858 285.679 217.072C286.628 215.289 288.036 213.792 289.758 212.736C290.283 212.422 290.846 212.175 291.432 211.999C291.59 211.949 291.75 211.908 291.912 211.876C292.024 211.876 292.085 211.843 292.085 211.876C290.75 212.307 289.514 213.001 288.45 213.916C287.387 214.831 286.516 215.95 285.891 217.206C284.993 218.962 284.361 220.843 284.016 222.786C283.848 223.534 283.715 224.136 283.614 224.549C283.572 224.775 283.507 224.996 283.419 225.208Z" fill="#263238"/>
<path d="M283.519 197.312C283.537 197.408 283.548 197.505 283.553 197.602C283.553 197.814 283.581 198.088 283.603 198.428C283.642 199.142 283.681 200.18 283.726 201.469C283.804 204.036 283.871 207.608 283.854 211.514C283.837 215.42 283.742 218.986 283.636 221.558C283.586 222.842 283.53 223.88 283.486 224.599C283.486 224.934 283.447 225.208 283.43 225.425C283.429 225.521 283.418 225.616 283.396 225.71C283.388 225.613 283.388 225.516 283.396 225.42C283.396 225.208 283.396 224.934 283.396 224.594C283.396 223.846 283.441 222.814 283.469 221.553C283.536 218.986 283.603 215.414 283.62 211.508C283.636 207.602 283.62 204.042 283.558 201.464C283.558 200.203 283.525 199.17 283.508 198.422V197.597C283.504 197.502 283.507 197.406 283.519 197.312Z" fill="#263238"/>
<path d="M282.208 217.328C281.882 215.386 281.099 213.549 279.921 211.97C278.744 210.391 277.207 209.116 275.439 208.249C274.54 207.814 273.357 207.535 272.621 208.205C271.884 208.874 272.063 210.085 272.403 210.995C273.198 212.929 274.547 214.585 276.28 215.755C278.014 216.925 280.055 217.556 282.146 217.568" fill="#4169E1"/>
<path d="M275.874 211.29C276.068 211.353 276.255 211.435 276.432 211.536C276.654 211.639 276.871 211.754 277.08 211.882C277.364 212.041 277.639 212.214 277.905 212.401C278.232 212.62 278.547 212.857 278.849 213.11C279.199 213.395 279.534 213.699 279.853 214.019C280.577 214.762 281.215 215.584 281.756 216.469C282.282 217.365 282.703 218.318 283.011 219.309C283.141 219.742 283.247 220.182 283.329 220.626C283.404 221.014 283.458 221.405 283.491 221.798C283.524 222.121 283.539 222.445 283.536 222.769C283.551 223.012 283.551 223.257 283.536 223.5C283.534 223.71 283.512 223.919 283.469 224.125C283.413 224.125 283.508 223.232 283.352 221.815C283.309 221.429 283.245 221.045 283.162 220.665C283.075 220.23 282.963 219.799 282.827 219.376C282.515 218.403 282.096 217.467 281.577 216.586C281.047 215.714 280.424 214.902 279.719 214.164C279.409 213.845 279.083 213.541 278.743 213.255C278.453 212.996 278.149 212.754 277.833 212.529C276.667 211.703 275.874 211.335 275.874 211.29Z" fill="#263238"/>
<path d="M234.542 103.352C234.542 103.352 208.488 84.8867 205.19 83.0732C202.048 81.3433 192.076 80.0877 191.183 79.8701L173.327 75.9639L146.05 76.7786L138.238 81.4828L118.439 90.6232C113.043 93.1089 108.79 97.5477 106.537 103.045L94.0369 133.574L125.08 142.748L126.045 174.952L118.729 225.688H209.509L204.939 128.452L214.392 130.533L234.542 103.352Z" fill="#263238"/>
<path d="M125.638 129.78C125.638 129.78 125.309 130.02 124.678 130.388C123.789 130.928 122.803 131.288 121.776 131.448C120.238 131.556 118.694 131.332 117.251 130.79C115.47 130.197 113.745 129.45 112.095 128.558C110.326 127.637 108.668 126.705 107.117 125.957C105.749 125.274 104.327 124.705 102.865 124.255C101.878 123.958 100.865 123.753 99.8403 123.642C99.4776 123.602 99.1986 123.586 99.0032 123.58H98.7131C99.0855 123.567 99.4585 123.58 99.8291 123.619C100.859 123.703 101.878 123.89 102.87 124.177C104.34 124.612 105.77 125.173 107.145 125.851C108.707 126.599 110.365 127.525 112.134 128.452C113.779 129.338 115.497 130.085 117.267 130.684C118.691 131.221 120.213 131.451 121.732 131.359C122.75 131.21 123.729 130.865 124.617 130.343C124.935 130.165 125.175 130.02 125.342 129.919C125.509 129.819 125.638 129.78 125.638 129.78Z" fill="white"/>
<path d="M124.31 114.735H124.103L123.512 114.708C122.998 114.68 122.256 114.624 121.341 114.535C116.574 114.055 111.887 112.975 107.39 111.32C106.525 111.002 105.833 110.729 105.359 110.528L104.801 110.294L104.611 110.204L104.812 110.271L105.37 110.483C105.85 110.673 106.548 110.935 107.413 111.242C111.921 112.855 116.603 113.932 121.363 114.451C122.273 114.551 123.037 114.624 123.523 114.663L124.114 114.713L124.31 114.735Z" fill="white"/>
<path d="M143.824 83.0731C143.824 83.0731 143.589 83.4526 143.098 84.0887C142.398 84.9821 141.595 85.7894 140.704 86.4938C139.371 87.5264 137.92 88.3957 136.38 89.083C134.496 89.9257 132.555 90.6343 130.571 91.2035C128.467 91.8285 126.458 92.381 124.656 92.9725C123.053 93.4797 121.49 94.1046 119.979 94.8419C118.962 95.3376 117.987 95.9181 117.067 96.5773C116.732 96.8005 116.509 97.007 116.33 97.1353C116.151 97.2637 116.068 97.3251 116.068 97.3251C116.068 97.3251 116.397 97.0237 117.039 96.5383C117.954 95.8656 118.925 95.2719 119.94 94.7637C121.452 94.0184 123.017 93.3861 124.622 92.872C126.425 92.2694 128.439 91.7169 130.537 91.0919C132.516 90.5256 134.453 89.8227 136.335 88.9882C137.869 88.3057 139.318 87.4481 140.654 86.4324C141.554 85.743 142.372 84.9529 143.093 84.0776C143.355 83.7762 143.517 83.5195 143.651 83.3466C143.785 83.1736 143.824 83.0731 143.824 83.0731Z" fill="white"/>
<path d="M199.654 87.2305C199.654 87.2305 199.57 87.1914 199.414 87.1021C199.258 87.0128 199.046 86.8789 198.744 86.7282C197.914 86.285 197.048 85.9117 196.155 85.6122C194.828 85.1668 193.47 84.8181 192.093 84.5687C190.541 84.2729 188.817 84.0441 187.009 83.7875L177.757 82.4761L174.967 82.0632L174.203 81.946L173.94 81.8958L174.208 81.9237L174.973 82.0185L177.763 82.3924L187.02 83.6703C188.828 83.9214 190.553 84.1558 192.11 84.4571C193.489 84.7107 194.847 85.0689 196.172 85.5285C197.068 85.8379 197.934 86.2263 198.761 86.6892C199.353 87.0184 199.654 87.2305 199.654 87.2305Z" fill="white"/>
<path d="M187.021 93.391C187.021 93.391 186.814 93.4914 186.418 93.6644C186.022 93.8374 185.43 94.0885 184.666 94.3954C183.131 95.0037 180.893 95.8463 178.059 96.6722C174.742 97.6555 171.359 98.4014 167.936 98.9043C164.069 99.4958 159.755 99.4958 155.263 99.3451C150.771 99.1944 146.469 99.0047 142.574 99.2502C139.123 99.4175 135.71 100.04 132.423 101.103C130.209 101.831 128.106 102.862 126.173 104.166C125.509 104.646 124.99 105.026 124.667 105.316C124.343 105.606 124.153 105.734 124.153 105.734C124.153 105.734 124.321 105.578 124.65 105.299C124.979 105.02 125.482 104.618 126.151 104.127C128.076 102.805 130.178 101.76 132.395 101.025C135.688 99.9497 139.109 99.3173 142.568 99.1442C146.474 98.8931 150.766 99.0828 155.263 99.2279C159.761 99.373 164.063 99.3842 167.925 98.7983C171.344 98.2939 174.723 97.548 178.036 96.5662C180.865 95.7514 183.109 94.92 184.649 94.3341C185.419 94.0327 186.01 93.776 186.407 93.6198L187.021 93.391Z" fill="white"/>
<path d="M195.569 98.8485C195.539 98.8708 195.505 98.8878 195.469 98.8988L195.173 99.0048C194.917 99.0996 194.543 99.2224 194.057 99.3563C192.835 99.7052 191.573 99.8928 190.302 99.9144C189.029 99.9156 187.763 99.7275 186.546 99.3563C186.077 99.2168 185.704 99.0885 185.43 98.988L185.14 98.8708L185.04 98.8206H185.151L185.447 98.9155C185.704 99.0048 186.077 99.122 186.563 99.2503C187.778 99.5891 189.035 99.7581 190.296 99.7525C191.56 99.7161 192.815 99.5288 194.035 99.1945C194.498 99.0662 194.878 98.9601 195.151 98.8764L195.447 98.7927L195.569 98.8485Z" fill="white"/>
<path d="M177.964 114.641C177.964 114.641 175.285 115.199 170.916 115.857C168.728 116.186 166.117 116.51 163.21 116.8C160.302 117.09 157.071 117.308 153.723 117.436C150.375 117.565 147.138 117.554 144.237 117.492C141.335 117.431 138.656 117.275 136.48 117.107C132.072 116.772 129.365 116.404 129.365 116.404L129.856 116.443L131.274 116.583C132.501 116.711 134.282 116.867 136.486 117.023C138.69 117.18 141.318 117.308 144.237 117.381C147.155 117.453 150.375 117.436 153.723 117.319C157.071 117.202 160.291 116.962 163.21 116.694C166.128 116.426 168.728 116.091 170.916 115.773C173.103 115.455 174.867 115.176 176.083 114.959L177.484 114.713L177.964 114.641Z" fill="white"/>
<path d="M199.816 113.056H199.615H199.057C198.549 113.056 197.818 113.056 196.914 113.056C195.106 113.056 192.606 112.983 189.861 112.749C187.115 112.515 184.632 112.141 182.858 111.817C181.965 111.661 181.251 111.516 180.754 111.41L180.196 111.287L180.001 111.237H180.201L180.759 111.337L182.863 111.711C184.643 112.012 187.115 112.369 189.861 112.604C192.606 112.838 195.106 112.916 196.909 112.944H199.052H199.61L199.816 113.056Z" fill="white"/>
<path d="M171.954 136.058C171.954 136.058 171.792 136.091 171.496 136.13L170.179 136.314C169.621 136.398 168.907 136.493 168.087 136.549C167.266 136.604 166.34 136.716 165.297 136.733C164.253 136.75 163.137 136.828 161.948 136.805C161.34 136.805 160.715 136.805 160.068 136.805L158.076 136.738C155.347 136.632 152.356 136.426 149.22 136.18C146.084 135.935 143.082 135.622 140.375 135.46C137.669 135.299 135.202 135.176 133.121 135.209H131.653L130.342 135.276C129.527 135.31 128.818 135.349 128.249 135.421L126.927 135.55L126.464 135.589C126.464 135.589 126.625 135.561 126.927 135.527L128.244 135.371C128.802 135.293 129.522 135.254 130.342 135.209L131.653 135.137H133.121C135.186 135.098 137.646 135.198 140.375 135.366C143.104 135.533 146.084 135.812 149.22 136.074C152.356 136.337 155.358 136.554 158.07 136.671L160.057 136.744C160.704 136.744 161.329 136.744 161.937 136.744C163.148 136.744 164.275 136.716 165.285 136.688C166.295 136.66 167.244 136.565 168.076 136.515C168.907 136.465 169.593 136.381 170.168 136.303L171.485 136.141L171.954 136.058Z" fill="white"/>
<path d="M204.794 129.506L204.548 129.545L203.834 129.618C203.22 129.685 202.322 129.757 201.217 129.836C198.985 129.986 195.932 130.092 192.545 130.009C189.158 129.925 186.094 129.646 183.89 129.378C182.774 129.244 181.898 129.121 181.284 129.026L180.581 128.915L180.335 128.865L180.581 128.893L181.29 128.982C181.903 129.066 182.796 129.177 183.901 129.3C186.105 129.545 189.158 129.802 192.545 129.891C195.932 129.981 198.996 129.891 201.211 129.752C202.327 129.69 203.214 129.624 203.834 129.573L204.542 129.518L204.794 129.506Z" fill="white"/>
<path d="M205.19 149.785L204.375 149.74C203.817 149.74 203.053 149.629 202.037 149.601C200.006 149.495 197.065 149.473 193.432 149.651C189.799 149.83 185.497 150.259 180.732 150.89C175.966 151.52 170.743 152.341 165.258 153.033C160.077 153.731 154.86 154.128 149.633 154.221C145.371 154.294 141.111 153.986 136.904 153.301C134.069 152.833 131.279 152.127 128.562 151.191C128.076 151.041 127.658 150.879 127.295 150.734L126.369 150.365C125.872 150.17 125.615 150.058 125.615 150.058L126.38 150.343L127.306 150.7C127.669 150.845 128.093 151.002 128.579 151.152C131.298 152.07 134.088 152.76 136.921 153.217C141.124 153.888 145.377 154.189 149.633 154.115C154.86 154.01 160.077 153.604 165.258 152.899C170.754 152.19 175.977 151.375 180.748 150.762C185.519 150.148 189.811 149.735 193.432 149.551C196.299 149.404 199.171 149.404 202.037 149.551C204.068 149.668 205.19 149.785 205.19 149.785Z" fill="white"/>
<path d="M174.504 170.622C174.504 170.622 171.82 171.079 167.445 171.548C165.263 171.782 162.652 171.994 159.75 172.162C156.848 172.329 153.645 172.407 150.291 172.391C146.938 172.374 143.74 172.218 140.838 172.028C137.937 171.838 135.331 171.57 133.149 171.302C128.779 170.744 126.107 170.276 126.107 170.276L126.598 170.337L127.998 170.544C128.601 170.638 129.349 170.744 130.23 170.85C131.112 170.956 132.083 171.107 133.171 171.219C135.359 171.475 137.965 171.721 140.861 171.922C143.757 172.123 146.954 172.24 150.308 172.273C153.662 172.307 156.859 172.201 159.761 172.056C162.663 171.911 165.269 171.693 167.456 171.464C168.572 171.364 169.538 171.235 170.403 171.141C171.267 171.046 172.015 170.945 172.635 170.862L174.035 170.677L174.504 170.622Z" fill="white"/>
<path d="M204.877 166.626C204.877 166.626 204.771 166.665 204.576 166.721L203.722 166.983C202.974 167.207 201.892 167.513 200.547 167.876C197.863 168.596 194.119 169.489 189.945 170.253C185.771 171.018 181.948 171.515 179.18 171.794C177.796 171.933 176.675 172.028 175.899 172.084L175.006 172.145H174.694L175.001 172.106L175.893 172.022C176.669 171.955 177.791 171.844 179.169 171.693C181.959 171.392 185.748 170.89 189.922 170.125C194.096 169.361 197.835 168.479 200.525 167.776C201.87 167.43 202.952 167.134 203.7 166.922L204.565 166.682L204.877 166.626Z" fill="white"/>
<path d="M153.215 193.886C151.777 194.109 150.328 194.253 148.874 194.315C147.529 194.388 145.922 194.394 144.136 194.315C140.267 194.13 136.432 193.488 132.714 192.401C131 191.894 129.483 191.363 128.249 190.856C126.896 190.318 125.572 189.711 124.282 189.036L124.561 189.159L125.348 189.522C125.688 189.684 126.107 189.879 126.603 190.08C127.1 190.281 127.647 190.538 128.277 190.772C129.527 191.274 131.067 191.793 132.741 192.295C134.6 192.82 136.485 193.249 138.389 193.579C140.295 193.88 142.215 194.085 144.142 194.193C145.922 194.271 147.524 194.276 148.868 194.193C149.544 194.193 150.152 194.12 150.688 194.087C151.223 194.053 151.675 194.003 152.055 193.964L152.914 193.875L153.215 193.886Z" fill="white"/>
<path d="M206.897 192.463L206.339 192.563L204.743 192.82C203.359 193.037 201.351 193.344 198.867 193.696C193.901 194.405 187.021 195.286 179.403 196.045C171.786 196.804 164.861 197.284 159.873 197.563C157.367 197.703 155.336 197.803 153.935 197.859L152.323 197.92H151.765L152.323 197.887L153.935 197.803L159.867 197.474C164.889 197.172 171.786 196.67 179.398 195.917C187.009 195.164 193.907 194.293 198.862 193.607L204.743 192.764L206.339 192.53L206.897 192.463Z" fill="white"/>
<path d="M209.821 213.015C209.821 213.015 208.605 213.272 206.378 213.634C204.152 213.997 200.926 214.449 196.892 214.784C192.187 215.167 187.464 215.283 182.746 215.13C177.417 214.957 171.586 214.36 165.486 213.612C159.387 212.864 153.573 212.111 148.266 211.698C143.566 211.293 138.845 211.186 134.131 211.38C130.948 211.528 127.779 211.89 124.645 212.462C123.528 212.674 122.68 212.853 122.105 212.992L121.224 213.193C121.224 213.193 121.525 213.11 122.1 212.97C122.675 212.831 123.528 212.641 124.633 212.412C127.766 211.82 130.936 211.447 134.12 211.296C138.834 211.084 143.558 211.179 148.26 211.581C153.578 211.994 159.387 212.747 165.486 213.495C171.586 214.242 177.417 214.84 182.74 215.013C187.454 215.173 192.173 215.067 196.875 214.694C200.887 214.371 204.13 213.93 206.362 213.578C207.478 213.4 208.337 213.26 208.923 213.154L209.821 213.015Z" fill="white"/>
<path d="M226.194 98.3574C226.194 98.3574 226.032 98.7983 225.669 99.5683C225.146 100.651 224.538 101.69 223.85 102.677C222.827 104.135 221.709 105.523 220.502 106.834C219.152 108.329 217.6 109.903 216.038 111.611C214.546 113.199 213.184 114.905 211.964 116.711C210.971 118.187 210.167 119.783 209.57 121.46C209.164 122.602 208.9 123.79 208.784 124.998C208.728 125.416 208.745 125.751 208.728 125.974C208.711 126.197 208.728 126.314 208.728 126.314C208.713 125.873 208.724 125.432 208.761 124.992C208.857 123.789 209.106 122.604 209.503 121.465C210.092 119.779 210.893 118.173 211.886 116.689C213.105 114.872 214.47 113.157 215.965 111.56C217.539 109.858 219.096 108.285 220.43 106.795C221.633 105.49 222.751 104.108 223.778 102.66C224.473 101.683 225.09 100.653 225.625 99.5795C225.826 99.2 225.943 98.8931 226.043 98.6922C226.144 98.4914 226.194 98.3574 226.194 98.3574Z" fill="white"/>
<path d="M200.491 107.972L200.681 107.833L201.239 107.453C201.73 107.135 202.416 106.644 203.242 106.008C204.068 105.372 205.022 104.579 206.032 103.642C207.121 102.62 208.155 101.542 209.129 100.411C210.092 99.2676 210.995 98.0756 211.836 96.8396C212.595 95.6901 213.236 94.6075 213.728 93.7091C214.219 92.8107 214.598 92.0351 214.844 91.477L215.128 90.8688L215.234 90.6567C214.815 91.7127 214.338 92.7448 213.806 93.7482C213.32 94.6745 212.69 95.7459 211.925 96.8955C211.093 98.1415 210.192 99.3394 209.224 100.484C208.247 101.619 207.207 102.7 206.111 103.72C205.089 104.652 204.135 105.45 203.32 106.075C202.414 106.76 201.469 107.393 200.491 107.972Z" fill="white"/>
<path d="M160.609 134.065C160.65 134.038 160.696 134.018 160.743 134.004L161.145 133.848C161.508 133.725 162.015 133.502 162.668 133.201C164.483 132.286 166.149 131.101 167.607 129.685C169.757 127.574 171.654 125.22 173.26 122.671C175.275 119.577 177.116 116.372 178.773 113.073C181.745 107.055 184.354 100.865 186.585 94.535C187.461 92.1132 188.142 90.1378 188.622 88.7818L189.18 87.2137C189.241 87.0463 189.292 86.9179 189.331 86.8063C189.37 86.6947 189.387 86.6724 189.387 86.6724C189.384 86.7218 189.374 86.7706 189.359 86.8175C189.325 86.9291 189.28 87.063 189.23 87.2304C189.113 87.6155 188.946 88.1456 188.728 88.8152C188.287 90.188 187.612 92.1634 186.775 94.602C184.594 100.964 182.001 107.176 179.013 113.201C177.353 116.51 175.503 119.721 173.472 122.816C171.842 125.371 169.917 127.726 167.735 129.83C166.257 131.245 164.561 132.415 162.713 133.295C162.21 133.528 161.694 133.731 161.167 133.904L160.754 134.032C160.708 134.05 160.659 134.062 160.609 134.065Z" fill="#455A64"/>
<path d="M159.677 145.873C159.769 145.785 159.87 145.706 159.979 145.639L160.883 145.02C161.658 144.461 162.78 143.675 164.13 142.642C166.837 140.583 170.391 137.508 174.208 133.999C176.128 132.246 177.964 130.589 179.549 129.004C180.965 127.611 182.282 126.119 183.488 124.54C184.297 123.471 185.018 122.339 185.642 121.153C185.877 120.74 186.022 120.399 186.133 120.176C186.186 120.06 186.248 119.948 186.317 119.841C186.289 119.967 186.246 120.089 186.189 120.204C186.089 120.433 185.96 120.762 185.737 121.203C185.149 122.417 184.448 123.573 183.644 124.657C182.46 126.265 181.155 127.78 179.738 129.188C178.154 130.795 176.323 132.458 174.404 134.211C171.168 137.245 167.78 140.113 164.253 142.804C162.886 143.825 161.748 144.595 160.944 145.114C160.548 145.377 160.23 145.561 160.018 145.672C159.909 145.747 159.795 145.814 159.677 145.873Z" fill="#455A64"/>
<path d="M144.611 205.532L144.678 205.403C144.739 205.314 144.811 205.197 144.901 205.052C145.096 204.739 145.397 204.293 145.799 203.724C146.608 202.608 147.853 201.006 149.493 199.142C152.802 195.426 157.434 190.365 162.54 184.756L175.659 170.443L179.66 166.124L180.776 164.958L181.066 164.662C181.133 164.595 181.167 164.561 181.172 164.567C181.178 164.573 181.144 164.606 181.089 164.679L180.815 164.997L179.766 166.196C178.818 167.246 177.478 168.741 175.832 170.571L162.769 184.946L149.633 199.271C147.959 201.118 146.709 202.68 145.877 203.791C145.459 204.349 145.146 204.784 144.934 205.08L144.694 205.42C144.672 205.461 144.644 205.499 144.611 205.532Z" fill="#455A64"/>
<path d="M196.708 105.238C196.617 104.961 196.548 104.677 196.501 104.39C196.44 104.116 196.373 103.776 196.323 103.38C196.273 102.983 196.189 102.531 196.167 102.029C196.144 101.527 196.083 100.975 196.088 100.355C196.094 99.7357 196.088 99.1275 196.133 98.4579C196.327 95.5661 197.034 92.7318 198.22 90.0875C198.505 89.4848 198.778 88.9101 199.068 88.4134C199.358 87.9168 199.626 87.4201 199.911 86.996C200.195 86.5719 200.469 86.1981 200.681 85.88C200.876 85.5991 201.087 85.329 201.311 85.0709C201.481 84.8396 201.667 84.6214 201.869 84.418C201.725 84.6719 201.559 84.9128 201.373 85.1378C201.205 85.361 200.999 85.6345 200.787 85.9693C200.575 86.3041 200.301 86.6668 200.056 87.0853C199.81 87.5038 199.498 87.9837 199.247 88.5083C198.996 89.0328 198.689 89.6243 198.432 90.1824C197.279 92.8136 196.581 95.6212 196.367 98.4858C196.334 99.1442 196.284 99.7692 196.295 100.355C196.306 100.941 196.295 101.471 196.339 101.99C196.384 102.509 196.418 102.939 196.457 103.335C196.496 103.731 196.54 104.072 196.585 104.351C196.655 104.642 196.696 104.939 196.708 105.238Z" fill="#455A64"/>
<path d="M204.827 125.26C204.76 125.26 203.756 123.072 202.595 120.305C201.434 117.537 200.541 115.282 200.608 115.238C201.435 116.851 202.18 118.505 202.84 120.193C203.591 121.846 204.254 123.537 204.827 125.26Z" fill="#455A64"/>
<path d="M125.08 107.565C125.035 107.593 124.6 106.795 123.78 105.584C121.637 102.423 118.867 99.7353 115.644 97.6878C114.41 96.9066 113.601 96.4936 113.623 96.449C113.829 96.509 114.027 96.5913 114.215 96.6945C114.589 96.8675 115.113 97.1465 115.75 97.5204C117.401 98.5061 118.933 99.6802 120.314 101.019C121.692 102.363 122.911 103.861 123.947 105.483C124.338 106.108 124.633 106.627 124.817 106.996C124.924 107.176 125.012 107.367 125.08 107.565Z" fill="#455A64"/>
<path d="M146.982 94.3731C146.95 94.1885 146.95 93.9997 146.982 93.8151C147.077 92.7664 147.528 91.7818 148.26 91.025L148.294 90.9915V91.0306C148.333 91.1084 148.363 91.1909 148.383 91.2761C148.383 91.2761 148.321 91.2036 148.243 91.0585H148.294C147.932 91.4861 147.636 91.9658 147.417 92.4814C147.185 93.0888 147.039 93.7254 146.982 94.3731Z" fill="#455A64"/>
<path d="M154.37 98.2123C154.3 98.0344 154.26 97.8457 154.253 97.6543C154.205 97.1972 154.216 96.7357 154.287 96.2816C154.358 95.8279 154.487 95.3852 154.672 94.9646C154.739 94.7874 154.833 94.6217 154.951 94.4736C154.699 95.0617 154.512 95.6754 154.393 96.3039C154.317 96.9374 154.31 97.5772 154.37 98.2123Z" fill="#455A64"/>
<path d="M162.423 97.565C162.397 97.0447 162.326 96.5275 162.211 96.0193C162.055 95.5191 161.851 95.0351 161.602 94.574C161.714 94.6834 161.808 94.8096 161.881 94.9479C162.075 95.2724 162.223 95.6216 162.322 95.9858C162.419 96.3502 162.469 96.7251 162.473 97.1019C162.483 97.258 162.466 97.4147 162.423 97.565Z" fill="#455A64"/>
<path d="M169.465 94.4792C169.228 93.9832 168.948 93.509 168.628 93.0618C168.271 92.6443 167.879 92.2579 167.456 91.9067C167.608 91.9684 167.749 92.0531 167.875 92.1578C168.19 92.398 168.473 92.6774 168.717 92.9892C168.96 93.3029 169.163 93.646 169.32 94.0104C169.393 94.1579 169.442 94.3162 169.465 94.4792Z" fill="#455A64"/>
<path d="M174.314 89.6969C174.135 89.11 173.802 88.5819 173.349 88.1679C172.879 87.7762 172.309 87.5231 171.703 87.4369C171.703 87.4369 171.759 87.4369 171.853 87.4369C171.987 87.4414 172.119 87.4582 172.25 87.4871C172.685 87.5907 173.089 87.7974 173.427 88.0898C173.766 88.3806 174.029 88.7505 174.191 89.1668C174.244 89.2902 174.281 89.4194 174.303 89.5518C174.313 89.5995 174.317 89.6482 174.314 89.6969Z" fill="#455A64"/>
<path d="M176.909 80.8634C176.48 80.5202 175.978 80.2797 175.441 80.1602C174.897 80.0769 174.341 80.1228 173.818 80.2942C174.322 80.0307 174.899 79.9426 175.459 80.0436C176.019 80.1446 176.529 80.4291 176.909 80.8522V80.8634Z" fill="#455A64"/>
<path d="M142.139 88.419C142.149 88.2534 142.189 88.091 142.256 87.9391C142.553 87.1914 143.115 86.5795 143.835 86.2204C143.981 86.1412 144.139 86.0883 144.304 86.0641C143.798 86.2831 143.344 86.6059 142.971 87.0116C142.598 87.4172 142.314 87.8967 142.139 88.419Z" fill="#455A64"/>
<path d="M140.375 82.5375C140.442 82.374 140.537 82.2231 140.654 82.091C140.916 81.7506 141.23 81.4547 141.586 81.2149C141.942 80.9704 142.334 80.7822 142.747 80.6569C142.914 80.5985 143.089 80.5683 143.266 80.5676C142.106 80.8656 141.085 81.5556 140.375 82.5207V82.5375Z" fill="#455A64"/>
<path d="M126.503 116.834C126.503 116.834 126.503 116.8 126.469 116.834C126.446 116.891 126.429 116.951 126.419 117.012C126.391 117.185 126.363 117.436 126.33 117.766C126.263 118.418 126.19 119.367 126.112 120.556C125.95 122.905 125.766 126.136 125.593 129.746C125.42 133.357 125.286 136.588 125.208 138.943C125.169 140.059 125.141 141.03 125.119 141.733C125.119 142.034 125.119 142.291 125.085 142.492C125.094 142.579 125.094 142.667 125.085 142.754C125.061 142.669 125.051 142.58 125.057 142.492C125.057 142.285 125.057 142.034 125.057 141.733C125.057 141.074 125.057 140.12 125.057 138.943C125.057 136.588 125.18 133.329 125.359 129.735C125.537 126.142 125.749 122.894 125.961 120.545C126.067 119.367 126.173 118.418 126.274 117.754C126.324 117.431 126.374 117.196 126.419 117.007C126.434 116.94 126.461 116.875 126.497 116.817C126.497 116.767 126.514 116.845 126.503 116.834Z" fill="#263238"/>
<path d="M187.986 4.11823C183.332 2.69527 178.499 6.86371 173.7 5.92623C170.799 5.36821 168.611 3.04125 166.028 1.60154C162.172 -0.552434 156.714 -0.903988 152.775 1.09932C148.835 3.10263 146.285 5.23428 145.755 9.62594C142.166 7.56683 136.184 12.0812 134.148 16.4394C132.111 20.7976 132.619 25.2953 133.774 29.9659C135.781 38.0216 139.349 45.6052 144.276 52.2869C144.711 52.8784 145.392 53.5313 146.067 53.2188C146.275 53.0731 146.446 52.8805 146.566 52.6567C146.687 52.4328 146.753 52.1838 146.759 51.9298C147.445 47.6609 146.904 43.3027 146.53 38.9948C146.156 34.6868 145.972 30.2449 147.339 26.1602C148.707 22.0755 151.915 18.3144 156.156 17.4773C159.292 16.8579 162.546 17.8735 165.33 19.4416C168.115 21.0096 170.564 23.0967 173.215 24.8768C175.866 26.6569 178.845 28.1579 182.037 28.2919C185.229 28.4258 188.656 26.9303 190.012 24.0397C191.368 21.1491 189.85 17.0421 186.725 16.378C188.18 16.2505 189.545 15.62 190.586 14.5948C191.627 13.5696 192.278 12.2139 192.427 10.7607C192.576 9.30759 192.214 7.84783 191.404 6.63249C190.593 5.41715 189.385 4.52218 187.986 4.10149V4.11823Z" fill="#263238"/>
<path d="M173.628 78.9772L173.176 69.7531C173.176 69.7531 185.352 67.4205 185.079 55.1719C184.945 49.2624 183.672 37.1031 182.4 26.1156C181.744 20.4134 178.964 15.1677 174.613 11.424C170.262 7.68022 164.66 5.71325 158.924 5.91506L157.741 5.95413C145.035 7.1483 138.941 18.6101 140.487 31.2829L143.416 80.6123C143.653 84.6016 145.458 88.3354 148.437 90.9983C151.417 93.6613 155.329 95.037 159.32 94.8251C163.316 94.6115 167.064 92.8243 169.745 89.8544C172.426 86.8845 173.822 82.9737 173.628 78.9772Z" fill="#FFBE9D"/>
<path d="M173.193 69.7531C173.193 69.7531 165.475 70.6515 157.071 65.7744C157.071 65.7744 161.156 74.4572 173.332 72.9226L173.193 69.7531Z" fill="#EB996E"/>
<path d="M178.276 34.4022C178.295 34.857 178.136 35.3011 177.833 35.6406C177.53 35.9802 177.106 36.1884 176.652 36.2214C176.431 36.2469 176.206 36.2277 175.992 36.1651C175.777 36.1024 175.578 35.9976 175.405 35.8567C175.232 35.7158 175.088 35.5417 174.984 35.3446C174.879 35.1475 174.814 34.9315 174.794 34.7091C174.773 34.254 174.93 33.8085 175.232 33.4675C175.534 33.1266 175.958 32.9174 176.412 32.8844C176.635 32.8582 176.861 32.8769 177.076 32.9395C177.291 33.0021 177.492 33.1073 177.666 33.2489C177.839 33.3904 177.983 33.5655 178.088 33.7636C178.193 33.9617 178.257 34.1789 178.276 34.4022Z" fill="#263238"/>
<path d="M179.978 32.1757C179.766 32.4101 178.41 31.4782 176.53 31.5507C174.649 31.6233 173.304 32.611 173.092 32.3878C172.986 32.2873 173.193 31.8688 173.779 31.4112C174.572 30.8181 175.529 30.4848 176.518 30.457C177.498 30.4184 178.464 30.6941 179.275 31.2438C179.872 31.6623 180.079 32.0697 179.978 32.1757Z" fill="#263238"/>
<path d="M159.794 35.7136C159.815 36.1693 159.656 36.6148 159.353 36.9556C159.05 37.2963 158.626 37.5054 158.171 37.5383C157.949 37.5638 157.724 37.5447 157.51 37.482C157.296 37.4194 157.096 37.3145 156.923 37.1736C156.75 37.0327 156.607 36.8586 156.502 36.6615C156.397 36.4645 156.332 36.2484 156.312 36.0261C156.292 35.5704 156.451 35.1249 156.754 34.7841C157.057 34.4434 157.481 34.2343 157.936 34.2014C158.158 34.1759 158.383 34.195 158.597 34.2577C158.811 34.3203 159.011 34.4252 159.184 34.5661C159.357 34.707 159.5 34.8811 159.605 35.0782C159.71 35.2752 159.774 35.4913 159.794 35.7136Z" fill="#263238"/>
<path d="M161.496 33.1746C161.29 33.4089 159.928 32.477 158.048 32.5496C156.167 32.6221 154.822 33.6098 154.61 33.3866C154.504 33.2862 154.711 32.8677 155.297 32.4101C156.092 31.8168 157.051 31.4836 158.042 31.4559C159.02 31.4177 159.984 31.6934 160.793 32.2427C161.39 32.6668 161.602 33.0685 161.496 33.1746Z" fill="#263238"/>
<path d="M168.812 46.8741C168.812 46.7625 169.962 46.5225 171.848 46.2156C172.328 46.1487 172.78 46.037 172.852 45.7022C172.872 45.2048 172.742 44.7128 172.478 44.2904C171.987 43.1465 171.474 41.9411 170.933 40.6856C168.773 35.5462 167.194 31.3108 167.406 31.1992C167.618 31.0876 169.526 35.2114 171.68 40.3508C172.205 41.6156 172.702 42.8265 173.17 43.9835C173.493 44.552 173.605 45.2155 173.488 45.8585C173.425 46.0302 173.323 46.1852 173.19 46.3119C173.058 46.4385 172.898 46.5334 172.724 46.5895C172.46 46.6711 172.186 46.7179 171.909 46.729C170.006 46.9466 168.823 46.9969 168.812 46.8741Z" fill="#263238"/>
<path d="M163.321 48.3863C163.628 48.3529 163.706 50.3952 165.503 51.7847C167.3 53.1742 169.465 52.8728 169.493 53.1574C169.526 53.2858 169.024 53.5704 168.103 53.6262C166.901 53.6932 165.714 53.3292 164.755 52.5994C163.849 51.8992 163.249 50.8753 163.081 49.7423C162.975 48.8885 163.182 48.3752 163.321 48.3863Z" fill="#263238"/>
<path d="M161.351 23.5319C161.184 24.0453 159.298 23.8723 157.099 24.2127C154.901 24.5531 153.137 25.2227 152.83 24.7707C152.691 24.5531 152.981 24.062 153.684 23.5431C154.623 22.9002 155.696 22.4804 156.822 22.316C157.948 22.1516 159.096 22.2468 160.179 22.5944C160.994 22.879 161.418 23.2864 161.351 23.5319Z" fill="#263238"/>
<path d="M179.096 26.7852C178.778 27.2204 177.467 26.8243 175.91 26.8577C174.353 26.8912 173.042 27.2484 172.718 26.8075C172.579 26.5955 172.774 26.1602 173.338 25.7361C174.087 25.211 174.984 24.9357 175.899 24.9493C176.81 24.917 177.709 25.1686 178.471 25.6691C179.035 26.11 179.236 26.5397 179.096 26.7852Z" fill="#263238"/>
<path d="M141.82 40.3117C141.608 40.228 133.322 38.1187 133.88 46.45C134.438 54.7813 142.719 52.5213 142.719 52.2813C142.719 52.0414 141.82 40.3117 141.82 40.3117Z" fill="#FFBE9D"/>
<path d="M139.934 49.3126C139.895 49.3126 139.795 49.4242 139.555 49.5526C139.223 49.7312 138.834 49.7713 138.472 49.6642C137.563 49.3963 136.726 48.0459 136.586 46.5393C136.517 45.825 136.608 45.1042 136.854 44.4299C136.914 44.1625 137.038 43.9138 137.216 43.7056C137.394 43.4974 137.62 43.3361 137.875 43.2358C138.04 43.1797 138.218 43.1831 138.381 43.2453C138.543 43.3075 138.678 43.4246 138.763 43.5761C138.891 43.8049 138.846 43.9723 138.891 43.9835C138.935 43.9947 139.064 43.8328 138.969 43.4924C138.908 43.289 138.78 43.112 138.606 42.9902C138.363 42.834 138.069 42.7779 137.786 42.834C137.447 42.924 137.138 43.0996 136.886 43.3439C136.635 43.5882 136.451 43.893 136.352 44.229C136.046 44.9778 135.927 45.79 136.006 46.5951C136.173 48.2691 137.122 49.7925 138.372 50.0604C138.6 50.1111 138.837 50.1099 139.065 50.0568C139.293 50.0037 139.506 49.9 139.689 49.7535C139.934 49.5191 139.962 49.3294 139.934 49.3126Z" fill="#EB996E"/>
<path d="M184.9 23.437C182.213 24.2278 179.377 24.3695 176.625 23.8505C173.873 23.3315 171.283 22.1666 169.069 20.4516C166 18.0298 163.578 14.4808 159.806 13.4596C158.52 13.1659 157.19 13.1306 155.891 13.3558C154.592 13.5809 153.35 14.0619 152.239 14.7709C150.021 16.1999 148.121 18.071 146.659 20.2675C149.242 26.4057 147.897 33.409 146.513 39.9211C146.437 40.6605 146.117 41.3535 145.604 41.8909C144.644 42.6833 143.137 42.142 142.256 41.2715C140.822 39.8709 140.213 37.8452 139.795 35.8922C138.758 31.4405 138.62 26.8268 139.388 22.321C140.173 17.7999 142.269 13.6088 145.414 10.2677C149.51 6.20534 155.025 3.89589 160.793 3.82806C166.532 3.80387 172.131 5.58849 176.797 8.92841C178.963 10.4462 180.972 12.2766 182.143 14.6705" fill="#263238"/>
<path d="M191.602 6.94743C191.637 7.19191 191.62 7.44106 191.552 7.67844C191.375 8.36918 190.984 8.98637 190.436 9.4418C189.556 10.1455 188.475 10.5519 187.35 10.6025C186.658 10.6637 185.961 10.645 185.274 10.5467C184.484 10.4403 183.738 10.1222 183.114 9.62595C182.764 9.34847 182.481 8.99466 182.287 8.59143C182.094 8.1882 181.995 7.74618 181.998 7.29898C182.043 6.81222 182.223 6.34777 182.519 5.9589C182.815 5.57002 183.215 5.27247 183.672 5.10037C184.147 4.90327 184.661 4.81922 185.173 4.85484C185.707 4.90776 186.213 5.11529 186.63 5.45192C187.049 5.80632 187.387 6.24707 187.62 6.74404C187.853 7.241 187.976 7.78244 187.98 8.33133C188.001 9.48953 187.566 10.6095 186.769 11.4507C185.957 12.3111 184.93 12.9407 183.795 13.2754C181.496 13.9953 178.929 13.6493 176.619 12.7509C174.378 11.8293 172.25 10.6515 170.28 9.24091C168.464 7.95315 166.543 6.8201 164.538 5.8537C162.73 4.99104 160.741 4.57936 158.74 4.65395C157.005 4.78028 155.319 5.28706 153.801 6.13829C151.589 7.39791 149.737 9.20395 148.422 11.3837C148.05 11.962 147.709 12.56 147.401 13.175C147.306 13.3981 147.196 13.6144 147.072 13.8223C147.082 13.7604 147.1 13.7003 147.127 13.6437C147.166 13.5321 147.228 13.3591 147.323 13.1415C147.593 12.499 147.908 11.8762 148.266 11.2777C149.545 9.0292 151.397 7.15968 153.634 5.85928C155.193 4.97265 156.929 4.4446 158.718 4.31355C160.779 4.21731 162.832 4.62531 164.7 5.50214C166.735 6.47741 168.684 7.62361 170.525 8.92841C172.469 10.3156 174.564 11.4781 176.77 12.3937C179.03 13.2643 181.496 13.5991 183.684 12.9183C184.748 12.5856 185.706 11.9795 186.462 11.1605C187.183 10.4108 187.583 9.41011 187.579 8.37039C187.579 7.87567 187.472 7.38673 187.266 6.93698C187.06 6.48723 186.759 6.08727 186.384 5.76442C186.022 5.47777 185.588 5.29645 185.129 5.24034C184.67 5.18424 184.205 5.25551 183.784 5.44634C183.379 5.58842 183.022 5.8418 182.755 6.17739C182.487 6.51298 182.32 6.91719 182.272 7.34362C182.272 7.74404 182.361 8.13937 182.534 8.50055C182.707 8.86172 182.959 9.17955 183.271 9.43064C183.854 9.89657 184.552 10.1989 185.291 10.3067C185.959 10.411 186.636 10.4391 187.311 10.3904C188.418 10.3661 189.489 9.99097 190.369 9.31903C190.898 8.88389 191.287 8.30122 191.485 7.64496C191.538 7.41516 191.578 7.18218 191.602 6.94743Z" fill="#455A64"/>
<path d="M132.892 23.6993C133.732 23.9645 134.595 24.1513 135.47 24.2573C136.417 24.3083 137.364 24.1756 138.26 23.8667C139.361 23.4759 140.401 22.929 141.346 22.2429C143.055 20.9679 144.302 19.1719 144.901 17.1258C145.11 16.2659 145.265 15.3936 145.364 14.5142C145.425 14.7509 145.447 14.9958 145.431 15.2397C145.429 15.9023 145.345 16.5621 145.18 17.2039C144.645 19.361 143.374 21.2636 141.586 22.5833C140.609 23.3023 139.526 23.8669 138.377 24.2573C137.43 24.569 136.428 24.6774 135.437 24.5754C134.775 24.4996 134.128 24.3266 133.517 24.062C133.289 23.979 133.077 23.8562 132.892 23.6993Z" fill="#455A64"/>
<path d="M133.483 29.7427C133.483 29.6646 134.477 29.8487 136.056 29.7036C138.109 29.5287 140.077 28.8056 141.754 27.61C143.432 26.4144 144.757 24.7901 145.593 22.9069C146.245 21.4616 146.391 20.4739 146.469 20.4907C146.484 20.7253 146.461 20.9608 146.402 21.1882C146.279 21.8158 146.092 22.4292 145.844 23.0185C145.057 24.9975 143.718 26.7083 141.985 27.9462C140.252 29.1842 138.2 29.897 136.073 29.9994C135.435 30.0323 134.796 30.0024 134.164 29.9101C133.93 29.8905 133.7 29.834 133.483 29.7427Z" fill="#455A64"/>
<path d="M155.526 41.3943C155.498 41.3999 155.469 41.3999 155.441 41.3942C155.413 41.3884 155.387 41.3772 155.363 41.361C155.34 41.3449 155.32 41.3242 155.305 41.3002C155.289 41.2762 155.279 41.2494 155.274 41.2213C155.265 41.1942 155.261 41.1655 155.264 41.1369C155.266 41.1084 155.274 41.0806 155.288 41.0554C155.302 41.0302 155.32 41.0081 155.343 40.9906C155.366 40.973 155.392 40.9604 155.42 40.9534C155.475 40.9479 155.53 40.9624 155.575 40.9944C155.62 41.0265 155.652 41.0738 155.665 41.1276C155.678 41.1814 155.671 41.238 155.645 41.2871C155.62 41.3361 155.577 41.3742 155.526 41.3943Z" fill="#EB996E"/>
<path d="M159.119 40.4512C159.059 40.4508 159.001 40.4301 158.954 40.3924C158.907 40.3548 158.874 40.3023 158.86 40.2436C158.847 40.1849 158.853 40.1233 158.879 40.0689C158.905 40.0144 158.948 39.9702 159.002 39.9434C159.064 39.9384 159.125 39.957 159.174 39.9952C159.222 40.0335 159.255 40.0888 159.264 40.1499C159.284 40.2091 159.28 40.2737 159.253 40.33C159.226 40.3863 159.178 40.4298 159.119 40.4512Z" fill="#EB996E"/>
<path d="M161.513 40.3061C161.396 40.3061 161.284 40.189 161.251 40.0048C161.217 39.8207 161.29 39.6533 161.402 39.6365C161.513 39.6198 161.63 39.7537 161.664 39.9378C161.697 40.122 161.625 40.2894 161.513 40.3061Z" fill="#EB996E"/>
<path d="M157.373 43.5873C157.261 43.5873 157.161 43.5371 157.161 43.4645C157.161 43.392 157.25 43.325 157.361 43.325C157.473 43.325 157.574 43.3753 157.574 43.4478C157.574 43.5204 157.49 43.5817 157.373 43.5873Z" fill="#EB996E"/>
<path d="M160.643 42.7056C160.584 42.7087 160.527 42.6888 160.483 42.6502C160.44 42.6116 160.413 42.5574 160.408 42.4992C160.403 42.4702 160.403 42.4404 160.409 42.4115C160.415 42.3826 160.426 42.3552 160.443 42.3308C160.459 42.3064 160.481 42.2855 160.505 42.2694C160.53 42.2533 160.558 42.2423 160.587 42.2369C160.646 42.2353 160.703 42.2565 160.747 42.296C160.79 42.3354 160.817 42.3902 160.821 42.4489C160.831 42.5066 160.818 42.5658 160.784 42.6138C160.751 42.6618 160.7 42.6948 160.643 42.7056Z" fill="#EB996E"/>
<path d="M177.729 40.055C177.701 40.0606 177.671 40.0604 177.643 40.0544C177.614 40.0484 177.587 40.0368 177.563 40.0201C177.539 40.0035 177.519 39.9822 177.503 39.9575C177.488 39.9328 177.477 39.9052 177.473 39.8764C177.463 39.849 177.46 39.8199 177.462 39.791C177.464 39.7621 177.472 39.7339 177.486 39.7083C177.5 39.6827 177.518 39.6601 177.541 39.642C177.564 39.6239 177.59 39.6106 177.618 39.603C177.675 39.5958 177.732 39.6098 177.78 39.6423C177.827 39.6748 177.861 39.7236 177.875 39.7794C177.889 39.8351 177.881 39.894 177.855 39.9448C177.828 39.9957 177.783 40.0349 177.729 40.055Z" fill="#EB996E"/>
<path d="M180.168 39.7481C180.107 39.7428 180.05 39.7168 180.006 39.6745C179.962 39.6322 179.934 39.5761 179.926 39.5156C179.918 39.455 179.931 39.3936 179.963 39.3415C179.995 39.2894 180.043 39.2498 180.101 39.2292C180.213 39.2292 180.319 39.3184 180.341 39.4579C180.355 39.5193 180.344 39.5835 180.312 39.6375C180.28 39.6915 180.228 39.7311 180.168 39.7481Z" fill="#EB996E"/>
<path d="M175.564 40.1778C175.529 40.1812 175.493 40.1744 175.462 40.1582C175.43 40.1419 175.404 40.1169 175.387 40.0861C175.369 40.0553 175.361 40.0201 175.362 39.9847C175.364 39.9493 175.376 39.9151 175.397 39.8864C175.418 39.8577 175.447 39.8356 175.48 39.8228C175.513 39.81 175.549 39.807 175.584 39.8142C175.618 39.8214 175.65 39.8385 175.676 39.8634C175.701 39.8883 175.718 39.9199 175.726 39.9546C175.733 40.0054 175.72 40.0568 175.69 40.0983C175.659 40.1398 175.615 40.1682 175.564 40.1778Z" fill="#EB996E"/>
<path d="M177.467 42.5829C177.411 42.6017 177.351 42.599 177.297 42.5753C177.243 42.5515 177.2 42.5084 177.177 42.4545C177.162 42.4289 177.152 42.4006 177.149 42.3713C177.145 42.3419 177.147 42.3121 177.155 42.2835C177.162 42.255 177.176 42.2283 177.194 42.2049C177.212 42.1816 177.235 42.1621 177.261 42.1476C177.316 42.1337 177.374 42.1393 177.425 42.1635C177.477 42.1877 177.518 42.229 177.543 42.2804C177.567 42.3318 177.573 42.39 177.559 42.4452C177.545 42.5003 177.513 42.549 177.467 42.5829Z" fill="#EB996E"/>
<path d="M179.543 42.0862C179.518 42.0828 179.494 42.0745 179.472 42.0616C179.45 42.0488 179.431 42.0317 179.416 42.0114C179.401 41.9912 179.39 41.9681 179.384 41.9436C179.378 41.919 179.377 41.8936 179.381 41.8686C179.399 41.821 179.434 41.7821 179.48 41.7602C179.526 41.7383 179.579 41.7352 179.627 41.7514C179.676 41.7584 179.721 41.7845 179.751 41.8242C179.781 41.8639 179.795 41.9139 179.788 41.9635C179.772 42.0121 179.737 42.0523 179.691 42.0753C179.645 42.0982 179.592 42.1022 179.543 42.0862Z" fill="#EB996E"/>
<path d="M175.402 181.157L175.268 168.752C175.268 168.752 166.993 157.285 170.246 144.846C170.246 144.846 175.642 141.052 190.112 143.273C190.112 143.273 208.276 125.578 232.622 130.081C256.969 134.584 259.234 155.795 259.469 161.57C259.703 167.346 259.647 178.562 251.266 189.528L250.708 200.409C250.708 200.409 248.71 204.505 242.935 204.226C237.159 203.947 237.483 203.11 237.483 203.11C237.483 203.11 230.228 208.963 229.916 210.492C229.603 212.021 228.465 217.819 228.465 217.819C228.465 217.819 225.948 221.24 220.519 221.642C218.371 221.794 216.223 221.354 214.308 220.37C213.582 220.002 212.936 219.493 212.408 218.873C211.88 218.253 211.481 217.535 211.233 216.759C210.714 215.041 209.838 213.453 208.662 212.098C207.486 210.743 206.036 209.652 204.409 208.897L200.659 207.914C200.659 207.914 199.146 209.293 193.884 209.856C188.622 210.42 188.6 208.556 188.6 208.556C188.6 208.556 180.413 210.448 174.264 202.418C169.409 196.068 166.77 184.645 175.402 181.157Z" fill="#4169E1"/>
<path d="M225.87 181.871C225.952 181.739 226.044 181.612 226.144 181.492C226.328 181.246 226.601 180.889 226.942 180.421C227.628 179.489 228.588 178.11 229.648 176.33C230.882 174.243 231.953 172.064 232.851 169.812C233.359 168.54 233.833 167.184 234.252 165.761C234.67 164.338 235.022 162.798 234.653 161.297C234.21 159.842 233.26 158.595 231.975 157.781C230.791 156.987 229.522 156.326 228.192 155.812C225.939 154.923 223.572 154.359 221.16 154.138C219.535 153.983 217.898 153.983 216.272 154.138C215.714 154.188 215.251 154.244 214.944 154.288C214.792 154.32 214.637 154.337 214.481 154.338C214.63 154.291 214.783 154.256 214.938 154.232C215.234 154.171 215.681 154.093 216.261 154.026C217.892 153.823 219.54 153.791 221.177 153.931C223.624 154.115 226.029 154.662 228.314 155.555C229.666 156.069 230.956 156.733 232.159 157.536C233.503 158.387 234.494 159.695 234.949 161.219C235.34 162.82 234.949 164.416 234.542 165.839C234.135 167.262 233.632 168.629 233.113 169.913C232.201 172.172 231.108 174.354 229.843 176.436C228.99 177.838 228.058 179.19 227.053 180.488C226.696 180.951 226.406 181.297 226.211 181.525C226.109 181.652 225.995 181.768 225.87 181.871Z" fill="#263238"/>
<path d="M191.831 143.814C191.873 143.904 191.901 144 191.914 144.099C191.968 144.384 191.982 144.675 191.953 144.964C191.813 146.031 191.322 147.022 190.558 147.782C189.649 148.786 188.265 149.606 186.914 150.711C185.435 151.901 184.07 153.225 182.835 154.668C180.588 157.29 178.776 160.255 177.467 163.451C176.965 164.679 176.636 165.683 176.412 166.409C176.318 166.738 176.234 167.011 176.167 167.229C176.144 167.325 176.11 167.419 176.066 167.508C176.067 167.408 176.082 167.308 176.111 167.212C176.167 166.989 176.228 166.715 176.306 166.375C176.572 165.358 176.896 164.358 177.277 163.378C178.538 160.13 180.344 157.12 182.618 154.478C183.863 153.024 185.246 151.693 186.747 150.505C188.125 149.389 189.509 148.602 190.413 147.642C191.162 146.92 191.663 145.978 191.842 144.953C191.879 144.574 191.875 144.192 191.831 143.814Z" fill="#263238"/>
<g opacity="0.5">
<path d="M201.562 145.332L208.967 147.224C208.967 147.224 219.81 135.042 231.718 131.956L227.254 130.901C217.468 133.108 208.539 138.123 201.562 145.332Z" fill="#0C0C0C"/>
</g>
<path d="M229.302 131.37C219.564 133.56 210.704 138.613 203.862 145.879L201.562 145.321C201.562 145.321 212.065 133.798 227.26 130.89L229.302 131.37Z" fill="#4169E1"/>
<g opacity="0.7">
<path d="M229.302 131.37C219.564 133.56 210.704 138.613 203.862 145.879L201.562 145.321C201.562 145.321 212.065 133.798 227.26 130.89L229.302 131.37Z" fill="#0C0C0C"/>
</g>
<path d="M171.826 183.685C175.927 177.815 186.217 179.611 190.91 184.89C195.603 190.169 197.684 197.435 194.632 203.696C193.326 206.369 190.826 208.718 187.852 208.662C189.336 206.998 190.399 205.001 190.953 202.841C191.506 200.681 191.534 198.419 191.033 196.246C190.078 191.866 187.316 187.999 183.823 185.186C182.054 183.758 180.062 182.189 177.796 181.966C175.531 181.743 173.717 181.676 171.826 183.685Z" fill="#4169E1"/>
<g opacity="0.3">
<path d="M171.826 183.685C175.927 177.815 186.217 179.611 190.91 184.89C195.603 190.169 197.684 197.435 194.632 203.696C193.326 206.369 190.826 208.718 187.852 208.662C189.336 206.998 190.399 205.001 190.953 202.841C191.506 200.681 191.534 198.419 191.033 196.246C190.078 191.866 187.316 187.999 183.823 185.186C182.054 183.758 180.062 182.189 177.796 181.966C175.531 181.743 173.717 181.676 171.826 183.685Z" fill="#0C0C0C"/>
</g>
<g opacity="0.3">
<path d="M226.283 181.525C226.205 182.77 227.343 183.869 228.577 184.014C229.199 184.052 229.822 183.941 230.393 183.69C230.965 183.44 231.469 183.058 231.863 182.575C232.64 181.599 233.21 180.475 233.537 179.271C234.821 175.248 235.485 169.227 234.81 165.08C233.035 170.477 229.866 177.206 226.188 181.537" fill="#0C0C0C"/>
</g>
<g opacity="0.3">
<path d="M230.173 162.971C229.375 160.611 226.93 159.232 224.592 158.418C222.194 157.581 219.69 157.089 217.154 156.956C216.356 156.869 215.549 156.947 214.782 157.184C214.402 157.308 214.059 157.527 213.787 157.82C213.515 158.113 213.321 158.47 213.225 158.859C213.175 159.177 213.224 159.503 213.366 159.793C213.508 160.082 213.735 160.321 214.018 160.477C218.062 165.157 221.079 170.634 222.874 176.553C222.95 176.814 223.095 177.049 223.294 177.233C223.492 177.418 223.737 177.546 224.002 177.603C224.267 177.66 224.543 177.645 224.8 177.558C225.057 177.472 225.286 177.317 225.463 177.112C227.36 174.946 228.454 172.028 229.436 169.26C230.139 167.229 230.864 165.008 230.173 162.971Z" fill="#0C0C0C"/>
</g>
<g opacity="0.3">
<path d="M176.82 164.059C174.283 160.113 172.978 155.502 173.07 150.812C173.07 149.824 173.215 148.753 173.901 148.05C174.733 147.196 176.083 147.179 177.25 147.257C180.537 147.462 183.804 147.921 187.021 148.63C187.272 148.686 187.579 148.769 187.657 149.009C187.745 149.194 187.771 149.402 187.732 149.603C187.693 149.804 187.59 149.987 187.439 150.125C182.445 153.189 178.901 158.825 177.015 164.338" fill="#0C0C0C"/>
</g>
<path d="M170.598 145.287C170.608 145.569 170.595 145.851 170.559 146.13C170.514 146.688 170.464 147.452 170.43 148.418C170.261 152.322 170.752 156.228 171.881 159.969C172.261 161.191 172.657 162.268 173.036 163.161C173.416 164.054 173.745 164.762 173.985 165.242C174.127 165.486 174.243 165.744 174.331 166.012C174.162 165.787 174.013 165.548 173.885 165.298C173.611 164.829 173.254 164.126 172.852 163.239C172.381 162.202 171.971 161.138 171.625 160.053C171.211 158.718 170.88 157.36 170.631 155.985C170.21 153.491 170.073 150.959 170.224 148.435C170.285 147.469 170.363 146.682 170.447 146.147C170.47 145.856 170.52 145.568 170.598 145.287Z" fill="#FAFAFA"/>
<path d="M226.824 130.5C226.732 130.546 226.635 130.581 226.534 130.606L225.697 130.851C225.329 130.952 224.882 131.074 224.369 131.242C223.856 131.409 223.253 131.571 222.634 131.8C221.345 132.23 219.844 132.804 218.197 133.507C216.551 134.211 214.782 135.081 212.98 136.085C211.177 137.09 209.526 138.167 208.058 139.188C206.59 140.209 205.324 141.214 204.291 142.09C203.761 142.508 203.309 142.927 202.902 143.278C202.495 143.63 202.154 143.942 201.881 144.205L201.233 144.791C201.083 144.925 200.999 144.992 200.993 144.98C201.052 144.897 201.119 144.82 201.194 144.752L201.803 144.121C202.065 143.848 202.394 143.524 202.796 143.161C203.198 142.799 203.633 142.369 204.157 141.934C205.179 141.035 206.445 140.025 207.902 138.97C209.494 137.843 211.142 136.796 212.84 135.834C214.546 134.888 216.298 134.029 218.091 133.262C219.765 132.57 221.272 132.012 222.556 131.588C223.203 131.37 223.794 131.22 224.313 131.069C224.832 130.918 225.284 130.807 225.658 130.723L226.506 130.533C226.61 130.506 226.717 130.495 226.824 130.5Z" fill="#FAFAFA"/>
<path d="M233.336 159.986C233.292 160.036 232.449 159.177 230.831 158.144C229.882 157.545 228.885 157.024 227.851 156.587C226.589 156.059 225.282 155.646 223.945 155.354C221.502 154.818 218.991 154.665 216.501 154.902C214.592 155.097 213.437 155.416 213.421 155.354C213.684 155.255 213.954 155.177 214.23 155.12C214.963 154.93 215.709 154.79 216.462 154.701C218.976 154.397 221.523 154.522 223.995 155.07C225.353 155.368 226.68 155.794 227.957 156.342C229 156.795 229.999 157.342 230.943 157.977L231.501 158.362L231.986 158.747C232.25 158.943 232.5 159.157 232.734 159.389C232.95 159.571 233.152 159.771 233.336 159.986Z" fill="#FAFAFA"/>
<path d="M183.421 207.758C183.329 207.747 183.239 207.723 183.153 207.686C182.902 207.609 182.654 207.52 182.411 207.418C181.508 207.061 180.636 206.628 179.805 206.123C177.036 204.466 174.73 202.135 173.103 199.348C171.476 196.56 170.579 193.407 170.497 190.18C170.465 189.211 170.515 188.24 170.648 187.279C170.687 186.938 170.749 186.676 170.776 186.497C170.792 186.407 170.814 186.317 170.843 186.23C170.839 186.584 170.811 186.939 170.76 187.29C170.671 188.249 170.65 189.213 170.698 190.175C170.837 193.355 171.748 196.453 173.354 199.202C174.959 201.951 177.21 204.267 179.911 205.95C180.728 206.462 181.578 206.919 182.456 207.317C183.075 207.585 183.427 207.736 183.421 207.758Z" fill="#FAFAFA"/>
<g opacity="0.2">
<path d="M184.883 194.868C184.449 194.72 183.982 194.702 183.538 194.816C183.093 194.93 182.692 195.171 182.383 195.51C182.082 195.854 181.861 196.263 181.739 196.704C181.616 197.145 181.594 197.609 181.675 198.06C181.759 198.933 182.134 199.753 182.74 200.387C183.244 200.874 183.888 201.188 184.582 201.285C185.015 201.275 185.437 201.147 185.802 200.914C186.167 200.68 186.461 200.351 186.652 199.963C186.893 199.516 187.038 199.025 187.078 198.519C187.118 198.014 187.054 197.505 186.887 197.026C186.721 196.548 186.457 196.108 186.112 195.737C185.767 195.365 185.349 195.069 184.883 194.868Z" fill="#0C0C0C"/>
</g>
<path d="M184.018 194.751C183.616 195.236 183.344 195.815 183.228 196.434C183.111 197.054 183.154 197.692 183.352 198.29C183.55 198.888 183.897 199.426 184.36 199.854C184.823 200.281 185.387 200.583 185.999 200.733C185.748 200.958 185.448 201.12 185.122 201.207C184.796 201.293 184.454 201.301 184.124 201.229C183.305 200.957 182.601 200.417 182.125 199.697C181.65 198.976 181.43 198.117 181.502 197.256C181.537 196.551 181.824 195.881 182.311 195.37C182.784 194.959 183.392 194.738 184.018 194.751Z" fill="#4169E1"/>
<g opacity="0.4">
<path d="M184.018 194.751C183.616 195.236 183.344 195.815 183.228 196.434C183.111 197.054 183.154 197.692 183.352 198.29C183.55 198.888 183.897 199.426 184.36 199.854C184.823 200.281 185.387 200.583 185.999 200.733C185.748 200.958 185.448 201.12 185.122 201.207C184.796 201.293 184.454 201.301 184.124 201.229C183.305 200.957 182.601 200.417 182.125 199.697C181.65 198.976 181.43 198.117 181.502 197.256C181.537 196.551 181.824 195.881 182.311 195.37C182.784 194.959 183.392 194.738 184.018 194.751Z" fill="#0C0C0C"/>
</g>
<g opacity="0.2">
<path d="M176.658 191.693C176.239 191.553 175.788 191.538 175.36 191.648C174.932 191.759 174.546 191.992 174.247 192.318C173.956 192.65 173.743 193.044 173.624 193.47C173.505 193.896 173.484 194.343 173.561 194.779C173.653 195.615 174.016 196.399 174.593 197.011C175.081 197.479 175.704 197.782 176.373 197.876C176.79 197.867 177.197 197.743 177.548 197.519C177.899 197.295 178.182 196.978 178.366 196.603C178.597 196.172 178.736 195.697 178.775 195.209C178.813 194.721 178.75 194.231 178.59 193.768C178.429 193.306 178.175 192.882 177.842 192.523C177.51 192.163 177.107 191.877 176.658 191.681" fill="#0C0C0C"/>
</g>
<path d="M175.827 191.592C175.437 192.06 175.172 192.619 175.059 193.217C174.946 193.815 174.987 194.432 175.178 195.01C175.37 195.587 175.706 196.107 176.154 196.518C176.603 196.93 177.149 197.22 177.741 197.362C177.498 197.58 177.207 197.737 176.892 197.822C176.577 197.906 176.246 197.915 175.927 197.848C175.137 197.583 174.458 197.061 174 196.365C173.541 195.669 173.33 194.839 173.399 194.008C173.431 193.33 173.707 192.687 174.175 192.195C174.638 191.791 175.235 191.576 175.849 191.592" fill="#4169E1"/>
<g opacity="0.4">
<path d="M175.827 191.592C175.437 192.06 175.172 192.619 175.059 193.217C174.946 193.815 174.987 194.432 175.178 195.01C175.37 195.587 175.706 196.107 176.154 196.518C176.603 196.93 177.149 197.22 177.741 197.362C177.498 197.58 177.207 197.737 176.892 197.822C176.577 197.906 176.246 197.915 175.927 197.848C175.137 197.583 174.458 197.061 174 196.365C173.541 195.669 173.33 194.839 173.399 194.008C173.431 193.33 173.707 192.687 174.175 192.195C174.638 191.791 175.235 191.576 175.849 191.592" fill="#0C0C0C"/>
</g>
<path d="M197.829 176.336C197.829 176.336 197.885 176.336 197.908 176.297H197.947L197.829 176.336Z" fill="#263238"/>
<path d="M202.048 178.077C201.783 177.363 201.27 176.769 200.603 176.403C200.073 176.137 199.488 176.002 198.895 176.007H198.845C198.515 176.027 198.195 176.122 197.908 176.286C197.288 176.594 196.758 177.056 196.367 177.627C195.976 178.199 195.738 178.861 195.675 179.55C195.636 180.432 195.859 181.305 196.316 182.06C196.773 182.814 197.443 183.417 198.242 183.791C198.77 184.062 199.372 184.153 199.956 184.048C200.534 183.882 201.039 183.526 201.39 183.038C201.923 182.341 202.265 181.516 202.381 180.645C202.496 179.775 202.382 178.889 202.048 178.077Z" fill="#263238"/>
<path d="M180.581 170.906C180.604 170.893 180.628 170.882 180.653 170.873H180.687L180.581 170.906Z" fill="#263238"/>
<path d="M184.23 172.43C184.006 171.802 183.559 171.278 182.975 170.956C182.518 170.726 182.013 170.607 181.502 170.61H181.44C181.155 170.629 180.879 170.713 180.631 170.856C180.093 171.122 179.632 171.522 179.293 172.018C178.954 172.513 178.748 173.087 178.695 173.685C178.662 174.449 178.856 175.205 179.254 175.858C179.651 176.51 180.233 177.03 180.927 177.351C181.376 177.617 181.911 177.699 182.419 177.578C182.927 177.457 183.369 177.144 183.65 176.704C184.108 176.103 184.403 175.393 184.505 174.643C184.606 173.894 184.512 173.131 184.23 172.43Z" fill="#263238"/>
<path d="M185.346 181.754C185.464 181.762 185.58 181.784 185.692 181.821C186.021 181.905 186.345 182.005 186.663 182.123C187.838 182.553 188.943 183.153 189.945 183.903C191.443 185.011 192.717 186.393 193.7 187.976C194.892 189.921 195.685 192.083 196.033 194.338C196.389 196.588 196.362 198.882 195.954 201.123C195.659 202.978 194.858 204.716 193.639 206.145C192.8 207.092 191.714 207.786 190.503 208.149C190.066 208.292 189.606 208.355 189.147 208.333C189.595 208.272 190.037 208.175 190.469 208.043C191.639 207.646 192.682 206.942 193.488 206.006C194.653 204.594 195.414 202.893 195.692 201.084C196.082 198.871 196.099 196.607 195.742 194.388C195.402 192.171 194.63 190.042 193.471 188.121C192.515 186.557 191.278 185.184 189.822 184.07C188.841 183.32 187.766 182.701 186.624 182.229C185.826 181.916 185.346 181.782 185.346 181.754Z" fill="#263238"/>
<path d="M180.017 175.153C179.989 175.153 179.844 175.052 179.694 174.79C179.512 174.446 179.415 174.063 179.409 173.674C179.411 173.285 179.507 172.902 179.688 172.558C179.839 172.296 179.978 172.173 180.012 172.195C179.848 172.68 179.744 173.182 179.699 173.691C179.75 174.188 179.857 174.679 180.017 175.153Z" fill="#FAFAFA"/>
<path d="M196.842 181.319C196.809 181.319 196.669 181.191 196.546 180.895C196.396 180.502 196.355 180.076 196.429 179.662C196.492 179.249 196.67 178.862 196.942 178.546C197.154 178.3 197.333 178.211 197.355 178.239C197.065 178.695 196.848 179.194 196.714 179.717C196.666 180.255 196.709 180.796 196.842 181.319Z" fill="#FAFAFA"/>
<path d="M207.427 210.805C207.4 210.85 206.724 210.381 205.541 209.789C203.992 209.042 202.39 208.408 200.748 207.892C198.823 207.267 197.071 206.731 195.815 206.285C195.19 206.067 194.699 205.878 194.342 205.727C194.159 205.664 193.985 205.58 193.823 205.476C194.52 205.644 195.207 205.849 195.882 206.09C197.143 206.486 198.906 206.988 200.837 207.619C202.495 208.134 204.101 208.8 205.636 209.611C205.932 209.761 206.194 209.923 206.412 210.063C206.606 210.178 206.792 210.304 206.97 210.442C207.138 210.543 207.291 210.665 207.427 210.805Z" fill="#263238"/>
<path d="M247.019 192.831C246.869 193.107 246.698 193.37 246.506 193.618C246.171 194.115 245.641 194.812 244.966 195.649C243.17 197.808 241.219 199.833 239.129 201.709C236.69 203.941 234.419 205.833 232.812 207.262L230.915 208.936C230.694 209.156 230.455 209.357 230.2 209.538C230.393 209.294 230.606 209.066 230.837 208.858C231.261 208.428 231.891 207.825 232.678 207.089C234.252 205.621 236.501 203.679 238.928 201.475C241.008 199.605 242.97 197.609 244.804 195.498C245.501 194.684 246.054 194.008 246.417 193.534C246.599 193.285 246.801 193.05 247.019 192.831Z" fill="#263238"/>
<g opacity="0.2">
<path d="M237.533 203.166C240.535 203.411 243.945 202.49 246.076 200.376C247.146 199.286 247.869 197.904 248.152 196.404C248.435 194.904 248.266 193.353 247.667 191.949C245.914 194.449 243.939 197.105 241.528 199.148C240.011 200.437 239.001 201.999 237.533 203.182" fill="#0C0C0C"/>
</g>
<g opacity="0.5">
<path d="M226.841 132.983C230.747 138.731 238.755 140.55 242.628 146.309C244.129 148.541 244.86 151.174 245.585 153.764L254.513 185.978C254.882 178.998 253.202 172.089 251.528 165.298C249.884 158.602 248.234 151.905 246.578 145.209C246.306 143.711 245.761 142.276 244.971 140.974C244.09 139.707 242.778 138.82 241.5 137.96C236.913 134.88 232.192 131.744 226.813 130.516" fill="#0C0C0C"/>
</g>
<g opacity="0.3">
<path d="M199.453 150.382C199.699 151.163 198.627 152.229 196.959 153.552C196.116 154.21 195.134 154.963 194.052 155.784C192.969 156.604 191.819 157.502 190.609 158.473C189.398 159.444 188.304 160.41 187.26 161.264C186.217 162.117 185.307 162.971 184.47 163.658C182.835 165.025 181.58 165.856 180.86 165.454C180.14 165.053 180.19 163.468 181.144 161.247C181.715 159.958 182.44 158.744 183.304 157.631C185.418 154.891 188.138 152.677 191.25 151.163C192.517 150.548 193.853 150.085 195.229 149.785C197.623 149.322 199.219 149.634 199.453 150.382Z" fill="white"/>
</g>
<path d="M184.526 194.421C184.116 194.57 183.692 194.673 183.259 194.728C182.848 194.87 182.424 194.969 181.993 195.024C182.322 194.713 182.743 194.517 183.192 194.466C183.621 194.312 184.088 194.296 184.526 194.421Z" fill="#FAFAFA"/>
<path d="M176.055 191.347C175.667 191.439 175.274 191.508 174.878 191.553C174.247 191.693 173.762 191.955 173.728 191.882C173.695 191.81 174.119 191.425 174.811 191.269C175.013 191.198 175.227 191.169 175.441 191.182C175.655 191.196 175.864 191.252 176.055 191.347Z" fill="#FAFAFA"/>
<path d="M213.622 217.295C213.543 217.334 212.801 216.084 211.769 214.616C210.737 213.149 209.816 212.027 209.877 211.971C210.701 212.692 211.419 213.526 212.009 214.449C212.676 215.318 213.218 216.276 213.622 217.295Z" fill="#FAFAFA"/>
<path d="M180.38 158.73C180.458 158.78 179.359 160.404 178.405 162.581C177.45 164.757 176.993 166.66 176.904 166.637C176.916 166.21 176.991 165.787 177.127 165.382C177.382 164.383 177.72 163.406 178.137 162.463C178.55 161.519 179.041 160.61 179.604 159.746C179.819 159.376 180.079 159.034 180.38 158.73Z" fill="#FAFAFA"/>
<path d="M207.433 147.927C206.359 147.822 205.304 147.564 204.303 147.162C203.269 146.847 202.284 146.393 201.373 145.812C201.412 145.734 202.729 146.303 204.397 146.883C206.066 147.464 207.455 147.843 207.433 147.927Z" fill="#FAFAFA"/>
<path d="M250.959 138.881C249.654 140.662 247.736 141.897 245.574 142.347C246.553 141.907 247.508 141.417 248.437 140.879C249.311 140.256 250.153 139.589 250.959 138.881Z" fill="#EB996E"/>
<path d="M267.304 135.148C264.301 128.228 234.313 103.664 234.313 103.664L217.405 125.617C217.65 125.288 244.988 141.939 244.988 141.939L253.052 178.702L254.441 185.264C254.441 185.264 250.814 188.428 250.965 191.765C251.059 193.997 245.942 198.802 245.942 198.802C244.726 197.792 243.945 197.507 243.331 197.624L237.89 202.719L239.185 203.902C240.628 205.219 242.528 205.922 244.48 205.861L253.783 205.576C255.109 205.538 256.369 204.983 257.293 204.031C260.155 201.09 266.193 194.511 266.31 191.341C266.383 189.567 266.394 187.876 266.388 186.514C266.36 186.497 270.3 142.068 267.304 135.148Z" fill="#FFBE9D"/>
<path d="M258.397 193.936C258.244 194.075 258.068 194.188 257.878 194.271C257.538 194.46 257.014 194.684 256.405 195.018C255.705 195.423 255.086 195.955 254.581 196.587C253.941 197.383 253.19 198.083 252.348 198.662C250.793 199.698 248.947 200.206 247.081 200.113C246.754 200.113 246.429 200.056 246.121 199.946C245.997 199.902 245.888 199.823 245.808 199.717C245.729 199.612 245.682 199.486 245.674 199.354C245.669 199.272 245.684 199.19 245.718 199.115C245.753 199.04 245.804 198.975 245.87 198.925C245.965 198.869 246.026 198.88 246.026 198.886C246.026 198.891 245.976 198.886 245.903 198.969C245.855 199.019 245.819 199.079 245.799 199.145C245.778 199.211 245.774 199.281 245.786 199.349C245.802 199.454 245.848 199.553 245.918 199.633C245.988 199.713 246.08 199.771 246.182 199.801C246.475 199.888 246.781 199.926 247.086 199.912C248.899 199.948 250.68 199.43 252.192 198.428C253.011 197.865 253.745 197.188 254.374 196.419C254.907 195.772 255.561 195.236 256.299 194.84C256.935 194.522 257.466 194.332 257.823 194.17C258.007 194.076 258.199 193.997 258.397 193.936Z" fill="#EB996E"/>
<path d="M254.145 198.78C254.184 198.852 253.414 199.304 252.588 200.007C251.763 200.71 251.182 201.386 251.115 201.335C251.419 200.727 251.863 200.199 252.41 199.795C252.896 199.319 253.492 198.97 254.145 198.78Z" fill="#EB996E"/>
<path d="M257.89 183.551C257.89 183.635 257.069 183.685 256.171 184.109C255.273 184.533 254.703 185.13 254.642 185.069C254.993 184.543 255.481 184.122 256.053 183.853C256.626 183.583 257.26 183.475 257.89 183.54V183.551Z" fill="#EB996E"/>
<path d="M252.086 201.648C252.086 201.698 251.489 201.408 250.485 201.174C248.814 200.761 247.06 200.834 245.429 201.386C245.247 201.454 245.061 201.51 244.871 201.553C244.663 201.591 244.448 201.545 244.274 201.425L242.823 200.331C242.355 200.022 241.916 199.67 241.512 199.282C242.013 199.536 242.492 199.831 242.946 200.163L244.447 201.185C244.687 201.369 245.005 201.229 245.356 201.101C245.722 200.974 246.094 200.87 246.472 200.788C247.823 200.522 249.217 200.579 250.54 200.956C250.937 201.069 251.324 201.217 251.696 201.397C251.958 201.547 252.097 201.631 252.086 201.648Z" fill="#EB996E"/>
<path d="M188.99 116.382C185.413 115.36 183.829 114.92 183.829 114.92V113.279H185.252C186.68 113.279 188.734 111.499 188.734 111.499L191.786 106.828L192.177 103.832C191.853 100.138 187.4 101.6 187.4 101.6C187.188 100.311 181.485 99.0159 177.199 98.2179C175.764 97.9497 174.287 98.0038 172.875 98.3763C171.463 98.7488 170.152 99.4305 169.035 100.372L164.923 103.843L152.602 114.618L120.794 141.487L99.8849 135.315C99.8849 135.315 93.2333 155.655 92.1563 162.943C90.0749 176.944 109.321 186.274 117.825 179.07C124.421 173.49 162.892 132.04 169.264 125.171H169.314C173.221 124.674 179.85 120.706 179.85 120.706L183.248 121.108C183.248 121.108 192.277 122.832 193.348 121.063C194.152 119.696 192.567 117.403 188.99 116.382Z" fill="#FFBE9D"/>
<path d="M170.47 112.319C170.47 112.319 170.559 112.448 170.665 112.71C170.82 113.08 170.943 113.463 171.033 113.854C171.336 115.147 171.386 116.487 171.178 117.799C170.973 119.112 170.51 120.371 169.817 121.504C169.611 121.848 169.375 122.172 169.114 122.475C168.929 122.693 168.818 122.805 168.801 122.788C168.784 122.771 169.158 122.274 169.638 121.404C170.905 119.118 171.33 116.46 170.838 113.893C170.642 112.916 170.419 112.336 170.47 112.319Z" fill="#EB996E"/>
<path d="M172.774 100.924C172.888 100.895 173.003 100.875 173.12 100.863C173.354 100.829 173.678 100.785 174.13 100.746C175.377 100.609 176.636 100.622 177.88 100.785C178.743 100.912 179.584 101.164 180.374 101.533C181.293 101.951 182.104 102.573 182.746 103.352C183.478 104.219 183.883 105.314 183.89 106.449C183.879 107.05 183.729 107.641 183.449 108.173C183.152 108.71 182.776 109.199 182.333 109.624C181.499 110.431 180.584 111.15 179.604 111.772C179.141 112.085 178.649 112.354 178.137 112.576C177.871 112.682 177.585 112.729 177.3 112.715C177.151 112.708 177.006 112.67 176.873 112.603C176.74 112.535 176.623 112.441 176.53 112.325C176.358 112.096 176.273 111.813 176.29 111.527C176.296 111.266 176.343 111.008 176.429 110.762C176.59 110.306 176.809 109.873 177.082 109.473C177.574 108.752 178.232 108.161 179.002 107.749L179.035 107.944L175.229 107.219L174.197 107.007C174.075 106.989 173.955 106.958 173.84 106.912C173.963 106.912 174.087 106.923 174.208 106.945L175.246 107.107L179.069 107.738L179.364 107.788L179.102 107.933C178.372 108.34 177.749 108.914 177.283 109.607C177.025 109.991 176.821 110.408 176.675 110.846C176.58 111.054 176.536 111.282 176.548 111.51C176.56 111.738 176.626 111.96 176.742 112.157C176.914 112.317 177.133 112.418 177.366 112.446C177.6 112.474 177.836 112.428 178.042 112.314C178.535 112.099 179.006 111.837 179.448 111.532C180.411 110.921 181.308 110.212 182.127 109.417C182.553 109.042 182.901 108.586 183.151 108.075C183.401 107.565 183.548 107.01 183.583 106.443C183.578 105.374 183.201 104.341 182.517 103.519C181.902 102.767 181.126 102.163 180.246 101.75C179.48 101.382 178.664 101.126 177.824 100.991C176.598 100.811 175.355 100.767 174.119 100.857L173.103 100.919C172.994 100.935 172.884 100.936 172.774 100.924Z" fill="#EB996E"/>
<path d="M187.445 101.773C187.501 101.969 187.533 102.171 187.539 102.375C187.594 102.931 187.617 103.49 187.606 104.049C187.61 105.9 187.131 107.719 186.217 109.328C185.101 111.198 183.354 112.403 181.909 112.593C181.621 112.632 181.328 112.602 181.054 112.505C180.781 112.408 180.534 112.247 180.335 112.035C180.232 111.917 180.152 111.781 180.101 111.633C180.078 111.584 180.069 111.53 180.073 111.477C180.169 111.65 180.285 111.811 180.419 111.957C180.616 112.133 180.851 112.261 181.105 112.333C181.359 112.404 181.627 112.417 181.887 112.369C183.215 112.152 184.9 110.963 185.966 109.166C186.852 107.594 187.344 105.831 187.4 104.027C187.472 102.638 187.394 101.773 187.445 101.773Z" fill="#EB996E"/>
<path d="M179.549 117.71C179.515 117.671 179.805 117.42 180.151 116.917C180.595 116.272 180.871 115.526 180.955 114.747C181.026 113.965 180.897 113.177 180.581 112.459C180.341 111.901 180.107 111.599 180.146 111.571C180.417 111.78 180.63 112.055 180.765 112.369C181.158 113.106 181.325 113.942 181.245 114.773C181.165 115.604 180.84 116.393 180.313 117.04C180.117 117.323 179.855 117.553 179.549 117.71Z" fill="#EB996E"/>
<path d="M174.125 107.141C174.326 107.515 174.389 107.947 174.303 108.363C174.267 108.821 174.134 109.266 173.913 109.669C173.66 110.16 173.34 110.615 172.964 111.019C172.254 111.728 171.399 112.274 170.458 112.621C170.088 112.8 169.696 112.932 169.292 113.011C169.631 112.785 169.994 112.598 170.375 112.453C171.258 112.062 172.064 111.514 172.752 110.835C173.112 110.447 173.424 110.016 173.678 109.551C173.896 109.183 174.04 108.775 174.102 108.352C174.151 107.95 174.159 107.544 174.125 107.141Z" fill="#EB996E"/>
<path d="M197.852 108.781L182.155 117.336C182.155 117.336 190.553 119.417 198.181 127.481C202.328 131.873 205.574 137.035 207.734 142.676L223.359 132.274C223.359 132.274 214.95 113.223 197.852 108.781Z" fill="#455A64"/>
<path d="M184.922 117.018L197.595 109.763H197.634H197.673C199.914 110.367 202.069 111.254 204.085 112.403C206.376 113.729 208.514 115.305 210.458 117.102C212.613 119.078 214.589 121.243 216.361 123.569C218.284 126.05 219.988 128.691 221.456 131.465L221.518 131.582L221.406 131.655L220.586 132.213L208.521 140.276L208.376 140.371L208.315 140.215C206.609 135.994 204.264 132.06 201.362 128.552C199.056 125.803 196.388 123.377 193.432 121.343C191.504 120.004 189.448 118.86 187.294 117.927C186.535 117.604 185.943 117.369 185.536 117.241L185.079 117.085L184.922 117.029L185.084 117.062L185.553 117.196C185.966 117.325 186.563 117.531 187.327 117.838C189.512 118.738 191.599 119.86 193.555 121.186C196.541 123.21 199.235 125.634 201.563 128.39C204.497 131.91 206.869 135.863 208.594 140.109L208.387 140.047L220.446 131.973L221.266 131.415L221.216 131.599C219.757 128.843 218.066 126.216 216.161 123.748C214.401 121.432 212.441 119.277 210.301 117.308C208.368 115.518 206.244 113.946 203.968 112.621C201.974 111.471 199.842 110.578 197.623 109.964H197.701L184.922 117.018Z" fill="white"/>
<path d="M210.619 122.174C210.206 124.59 207.148 126.052 203.784 125.438C200.419 124.825 198.014 122.369 198.427 119.953C198.839 117.537 201.897 116.075 205.262 116.689C208.627 117.302 211.016 119.758 210.619 122.174Z" fill="#FAFAFA"/>
<path d="M203.304 122.95L202.746 123.552L202.121 122.944L202.645 122.386C202.196 121.915 201.87 121.339 201.697 120.712L202.751 120.254C202.892 120.838 203.191 121.371 203.616 121.794C204.046 122.213 204.325 122.246 204.487 122.068C205.045 121.465 202.561 119.886 203.834 118.48C204.392 117.888 205.24 117.782 206.177 118.48L206.735 117.888L207.36 118.497L206.83 119.055C207.182 119.443 207.445 119.904 207.6 120.405L206.563 120.89C206.423 120.41 206.168 119.972 205.82 119.613C205.385 119.194 205.089 119.194 204.922 119.378C204.397 119.936 206.858 121.538 205.597 122.933C205.078 123.508 204.23 123.619 203.304 122.95Z" fill="#455A64"/>
<path d="M188.505 115.003C188.505 115.003 191.167 116.354 188.611 118.351L184.705 116.834L188.505 115.003Z" fill="#FAFAFA"/>
<path d="M195.653 110.986C195.653 110.986 198.22 113.698 200.675 110.874L197.651 109.864L195.653 110.986Z" fill="#FAFAFA"/>
<path d="M206.853 136.588C206.853 136.588 210.307 133.798 212.321 137.57L208.465 140.148L206.853 136.588Z" fill="#FAFAFA"/>
<path d="M219.598 128.457C219.598 128.457 217.104 130.02 218.794 133.24L221.35 131.532L219.598 128.457Z" fill="#FAFAFA"/>
<path d="M210.352 137.508C210.345 137.715 210.278 137.914 210.158 138.082C210.039 138.251 209.872 138.38 209.68 138.454C209.487 138.528 209.277 138.544 209.076 138.499C208.875 138.455 208.691 138.352 208.548 138.203C208.405 138.055 208.308 137.867 208.271 137.664C208.234 137.461 208.257 137.252 208.338 137.062C208.42 136.873 208.555 136.711 208.727 136.598C208.9 136.485 209.102 136.425 209.308 136.426C209.448 136.428 209.586 136.458 209.714 136.514C209.842 136.569 209.958 136.65 210.055 136.75C210.152 136.851 210.228 136.97 210.279 137.1C210.33 137.23 210.355 137.369 210.352 137.508Z" fill="#455A64"/>
<path d="M220.82 130.851C220.812 131.056 220.745 131.254 220.626 131.42C220.506 131.586 220.341 131.714 220.15 131.787C219.958 131.86 219.75 131.875 219.55 131.831C219.35 131.786 219.168 131.684 219.026 131.536C218.884 131.389 218.788 131.203 218.751 131.002C218.714 130.801 218.737 130.593 218.817 130.404C218.897 130.216 219.03 130.055 219.201 129.942C219.372 129.829 219.572 129.769 219.777 129.769C219.916 129.771 220.054 129.801 220.182 129.856C220.311 129.912 220.426 129.992 220.523 130.093C220.62 130.194 220.696 130.312 220.747 130.443C220.798 130.573 220.823 130.712 220.82 130.851Z" fill="#455A64"/>
<path d="M199.258 110.88C199.258 111.265 198.7 111.577 198.058 111.577C197.417 111.577 196.864 111.265 196.864 110.88C196.864 110.495 197.422 110.182 198.064 110.182C198.706 110.182 199.258 110.489 199.258 110.88Z" fill="#455A64"/>
<path d="M189.057 116.666C189.112 116.906 189.09 117.158 188.995 117.385C188.901 117.612 188.738 117.805 188.529 117.936C188.321 118.066 188.076 118.129 187.83 118.115C187.585 118.101 187.349 118.011 187.157 117.857C186.964 117.704 186.824 117.494 186.756 117.258C186.688 117.021 186.695 116.769 186.776 116.536C186.857 116.304 187.009 116.102 187.209 115.96C187.41 115.817 187.65 115.74 187.897 115.74C188.173 115.713 188.448 115.795 188.665 115.968C188.882 116.141 189.022 116.391 189.057 116.666Z" fill="#455A64"/>
<path d="M198.678 116.069C198.678 116.661 197.941 117.141 197.032 117.141C196.122 117.141 195.391 116.677 195.391 116.069C195.391 115.461 196.128 114.998 197.037 114.998C197.947 114.998 198.678 115.511 198.678 116.069Z" fill="#FAFAFA"/>
<path d="M211.897 130.422C211.155 130.762 210.223 130.293 209.855 129.378C209.65 128.989 209.603 128.537 209.722 128.114C209.842 127.692 210.119 127.331 210.497 127.107C211.239 126.766 212.171 127.235 212.539 128.156C212.743 128.544 212.791 128.995 212.671 129.417C212.552 129.839 212.275 130.198 211.897 130.422Z" fill="#FAFAFA"/>
<path d="M188.739 111.499L195.184 118.301C195.184 118.301 197.762 121.253 199.498 119.858C201.233 118.463 198.795 115.863 198.281 115.104C197.768 114.345 191.451 106.683 191.451 106.683L188.739 111.499Z" fill="#FFBE9D"/>
<path d="M192.043 105.383C192.017 105.786 191.933 106.182 191.792 106.56C191.526 107.492 191.151 108.389 190.676 109.233C190.19 110.083 189.57 110.848 188.84 111.499C188.552 111.784 188.216 112.015 187.846 112.18C188.114 111.886 188.399 111.608 188.7 111.348C189.367 110.68 189.946 109.93 190.424 109.116C191.535 107.141 191.965 105.349 192.043 105.383Z" fill="#EB996E"/>
<path d="M132.1 131.934C132.009 132.042 131.908 132.141 131.798 132.23L130.9 133.033L127.552 135.94C124.711 138.379 120.766 141.733 116.391 145.388C112.016 149.043 107.948 152.341 104.991 154.617C103.518 155.778 102.307 156.688 101.459 157.313L100.476 158.01C100.367 158.098 100.25 158.175 100.125 158.239C100.224 158.141 100.331 158.049 100.443 157.966L101.392 157.218C102.217 156.571 103.406 155.639 104.863 154.461C107.781 152.112 111.776 148.82 116.174 145.165C120.571 141.509 124.511 138.2 127.412 135.784L130.822 132.944L131.759 132.185C131.865 132.091 131.979 132.007 132.1 131.934Z" fill="#EB996E"/>
</g>
<defs>
<clipPath id="clip0_2541_19271">
<rect width="360" height="226" fill="white"/>
</clipPath>
</defs>
</svg>
