<svg width="360" height="226" viewBox="0 0 360 226" fill="none" xmlns="http://www.w3.org/2000/svg">
<path d="M148.759 104.062L148.144 103.267C142.863 96.7161 141.472 87.8226 144.796 80.1737C145.223 79.1899 145.723 78.2388 146.289 77.328C148.396 74.0467 151.281 71.3363 154.687 69.4375C158.093 67.5386 161.915 66.51 165.814 66.4429C170.412 66.3989 175.23 67.6681 179.482 65.9547C185.017 63.7436 187.433 57.4614 189.273 51.8383C191.114 46.2151 193.539 39.9574 199.085 37.7658C202.56 36.3941 206.567 37.0092 210.028 38.4735C219.18 42.3443 225.16 51.8627 226.331 61.6349C227.503 71.4071 224.34 81.272 219.239 89.6677C212.098 101.422 200.72 110.94 187.257 114.269C173.795 117.598 158.361 114.093 148.759 104.062Z" fill="#F5F5F5"/>
<path d="M35.4587 179.855C26.7587 171.155 26.7587 157.049 35.4587 148.349C44.1588 139.649 58.2643 139.649 66.9643 148.349C75.6644 157.049 75.6644 171.155 66.9643 179.855C58.2643 188.555 44.1588 188.555 35.4587 179.855Z" fill="#F5F5F5"/>
<path d="M15.8559 225.605C15.8559 225.678 89.3865 225.731 180.074 225.731C270.762 225.731 344.312 225.678 344.312 225.605C344.312 225.531 270.797 225.478 180.074 225.478C89.3523 225.478 15.8559 225.536 15.8559 225.605Z" fill="#263238"/>
<path d="M236.325 34.4032C236.458 27.0151 230.576 20.9183 223.188 20.7854C215.8 20.6526 209.703 26.5341 209.571 33.9222C209.438 41.3102 215.319 47.4071 222.707 47.5399C230.095 47.6727 236.192 41.7912 236.325 34.4032Z" fill="#4169E1"/>
<g opacity="0.1">
<path d="M225.468 21.0283C223.742 20.6968 221.969 20.7084 220.248 21.0626C218.527 21.4168 216.893 22.1066 215.439 23.0925C213.985 24.0784 212.739 25.3411 211.773 26.8086C210.807 28.276 210.14 29.9194 209.809 31.6449C209.809 31.6449 218.961 33.8268 221.919 30.5368C224.877 27.2469 225.468 21.0283 225.468 21.0283Z" fill="white"/>
</g>
<path d="M232.765 35.833C232.384 37.8067 231.426 39.6232 230.012 41.0526C228.599 42.4821 226.793 43.4605 224.824 43.8642C222.854 44.2678 220.81 44.0786 218.948 43.3205C217.086 42.5624 215.491 41.2693 214.363 39.6048C213.236 37.9402 212.628 35.9789 212.615 33.9686C212.602 31.9584 213.185 29.9894 214.291 28.3106C215.397 26.6318 216.976 25.3185 218.828 24.5366C220.68 23.7548 222.722 23.5395 224.696 23.9179C226.009 24.1696 227.259 24.6775 228.375 25.4127C229.491 26.1479 230.452 27.0959 231.201 28.2026C231.95 29.3092 232.474 30.5528 232.743 31.8621C233.011 33.1714 233.019 34.5207 232.765 35.833Z" fill="#4169E1"/>
<g opacity="0.2">
<path d="M232.765 35.833C232.384 37.8067 231.426 39.6232 230.012 41.0526C228.599 42.4821 226.793 43.4605 224.824 43.8642C222.854 44.2678 220.81 44.0786 218.948 43.3205C217.086 42.5624 215.491 41.2693 214.363 39.6048C213.236 37.9402 212.628 35.9789 212.615 33.9686C212.602 31.9584 213.185 29.9894 214.291 28.3106C215.397 26.6318 216.976 25.3185 218.828 24.5366C220.68 23.7548 222.722 23.5395 224.696 23.9179C226.009 24.1696 227.259 24.6775 228.375 25.4127C229.491 26.1479 230.452 27.0959 231.201 28.2026C231.95 29.3092 232.474 30.5528 232.743 31.8621C233.011 33.1714 233.019 34.5207 232.765 35.833Z" fill="#0C0C0C"/>
</g>
<path d="M232.97 36.3016C232.597 38.2511 231.654 40.0461 230.26 41.4596C228.866 42.8731 227.085 43.8415 225.141 44.2424C223.197 44.6433 221.177 44.4587 219.338 43.712C217.499 42.9652 215.923 41.6898 214.808 40.0471C213.694 38.4043 213.092 36.4681 213.078 34.4831C213.064 32.4982 213.64 30.5537 214.731 28.8957C215.822 27.2377 217.381 25.9405 219.209 25.1683C221.038 24.3961 223.055 24.1835 225.004 24.5574C227.618 25.0587 229.925 26.5775 231.419 28.7799C232.913 30.9823 233.471 33.6879 232.97 36.3016Z" fill="#4169E1"/>
<g opacity="0.2">
<path d="M232.97 36.3016C232.597 38.2511 231.654 40.0461 230.26 41.4596C228.866 42.8731 227.085 43.8415 225.141 44.2424C223.197 44.6433 221.177 44.4587 219.338 43.712C217.499 42.9652 215.923 41.6898 214.808 40.0471C213.694 38.4043 213.092 36.4681 213.078 34.4831C213.064 32.4982 213.64 30.5537 214.731 28.8957C215.822 27.2377 217.381 25.9405 219.209 25.1683C221.038 24.3961 223.055 24.1835 225.004 24.5574C227.618 25.0587 229.925 26.5775 231.419 28.7799C232.913 30.9823 233.471 33.6879 232.97 36.3016Z" fill="white"/>
</g>
<path d="M223.672 33.6364L224.16 31.1128C224.609 31.2551 225.036 31.4588 225.429 31.7181C225.628 31.8732 225.813 32.0464 225.98 32.2355L226.029 32.1623L226.595 31.3276L226.722 31.1372L226.366 30.5808L226.132 30.6345C225.62 30.229 225.033 29.9302 224.404 29.7558L224.672 28.3696L224.306 27.94L224.238 28.2866L223.647 28.1743L223.384 29.5899C221.402 29.4044 220.264 30.3367 220.02 31.6107C219.684 33.3484 221.084 34.0855 222.407 34.6859L221.919 37.185C221.026 36.938 220.222 36.442 219.601 35.7549L218.8 36.9117C219.569 37.7276 220.566 38.2925 221.66 38.5323L221.46 39.5817L220.972 39.4939L221.392 39.9185L222.417 40.1187L222.686 38.7177C224.687 38.8935 225.834 37.9758 226.102 36.7018C226.42 34.9641 224.994 34.2368 223.672 33.6364ZM222.695 33.1776C222.012 32.8261 221.529 32.4454 221.646 31.845C221.763 31.2446 222.212 30.9176 223.11 30.9517L222.695 33.1776ZM222.964 37.3559L223.384 35.1447C224.091 35.501 224.584 35.8964 224.467 36.5066C224.36 37.0435 223.896 37.3949 222.959 37.3559H222.964Z" fill="#4169E1"/>
<g opacity="0.3">
<path d="M223.672 33.6364L224.16 31.1128C224.609 31.2551 225.036 31.4588 225.429 31.7181C225.628 31.8732 225.813 32.0464 225.98 32.2355L226.029 32.1623L226.595 31.3276L226.722 31.1372L226.366 30.5808L226.132 30.6345C225.62 30.229 225.033 29.9302 224.404 29.7558L224.672 28.3696L224.306 27.94L224.238 28.2866L223.647 28.1743L223.384 29.5899C221.402 29.4044 220.264 30.3367 220.02 31.6107C219.684 33.3484 221.084 34.0855 222.407 34.6859L221.919 37.185C221.026 36.938 220.222 36.442 219.601 35.7549L218.8 36.9117C219.569 37.7276 220.566 38.2925 221.66 38.5323L221.46 39.5817L220.972 39.4939L221.392 39.9185L222.417 40.1187L222.686 38.7177C224.687 38.8935 225.834 37.9758 226.102 36.7018C226.42 34.9641 224.994 34.2368 223.672 33.6364ZM222.695 33.1776C222.012 32.8261 221.529 32.4454 221.646 31.845C221.763 31.2446 222.212 30.9176 223.11 30.9517L222.695 33.1776ZM222.964 37.3559L223.384 35.1447C224.091 35.501 224.584 35.8964 224.467 36.5066C224.36 37.0435 223.896 37.3949 222.959 37.3559H222.964Z" fill="#0C0C0C"/>
</g>
<path d="M222.339 38.2931L222.071 39.694L221.046 39.4987L221.314 38.1125C220.217 37.8708 219.219 37.3044 218.449 36.487L219.254 35.3302C219.874 36.0188 220.679 36.5151 221.573 36.7604L222.061 34.2612C220.738 33.6608 219.337 32.9237 219.669 31.186C219.913 29.912 221.051 28.9797 223.037 29.1652L223.311 27.7545L224.331 27.9498L224.067 29.3361C224.955 29.5485 225.777 29.9778 226.459 30.5856L225.693 31.7279C225.142 31.2461 224.497 30.8852 223.799 30.6686L223.311 33.1922C224.633 33.7926 226.059 34.5199 225.727 36.2576C225.488 37.5511 224.36 38.4688 222.339 38.2931ZM222.339 32.7529L222.769 30.5271C221.851 30.4929 221.392 30.8736 221.304 31.4203C221.216 31.967 221.656 32.4015 222.339 32.7529ZM224.111 36.0819C224.228 35.4717 223.735 35.0764 223.023 34.72L222.598 36.9312C223.54 36.9703 224.009 36.6091 224.111 36.0819Z" fill="#4169E1"/>
<path d="M210.575 38.1808C210.575 38.1808 210.575 38.1466 210.536 38.0685L210.434 37.7366C210.378 37.5638 210.332 37.3878 210.297 37.2095C210.235 36.9747 210.187 36.7368 210.151 36.4968C210.126 36.365 210.107 36.2234 210.082 36.0819C210.058 35.9403 210.048 35.7841 210.033 35.6279C209.99 35.3107 209.98 34.9739 209.965 34.6175C209.951 33.8452 210 33.0731 210.112 32.3087C210.233 31.5455 210.414 30.7931 210.653 30.0585C210.775 29.7266 210.883 29.4044 211.015 29.1164C211.078 28.97 211.132 28.8284 211.2 28.6966L211.386 28.3159C211.498 28.0718 211.63 27.8668 211.732 27.6813C211.835 27.4958 211.937 27.3396 212.025 27.2176L212.215 26.9296C212.239 26.895 212.265 26.8624 212.293 26.832C212.276 26.8689 212.257 26.9048 212.235 26.9394L212.054 27.2371C211.976 27.3641 211.883 27.5203 211.781 27.7253C211.678 27.9303 211.556 28.1206 211.449 28.3647L211.268 28.7406C211.205 28.8723 211.151 29.0188 211.093 29.1603C210.966 29.4483 210.858 29.7705 210.741 30.1024C210.261 31.5633 210.03 33.0946 210.058 34.6322C210.058 34.9836 210.058 35.3204 210.112 35.6084C210.112 35.7646 210.136 35.9159 210.16 36.0624C210.185 36.2088 210.199 36.3455 210.219 36.4773C210.253 36.7409 210.307 36.9654 210.351 37.185C210.382 37.3645 210.422 37.5421 210.473 37.7171C210.507 37.8538 210.531 37.966 210.556 38.0539C210.567 38.0953 210.574 38.1379 210.575 38.1808Z" fill="white"/>
<path d="M220.313 32.3966C220.21 32.3024 220.129 32.1854 220.079 32.0549C219.944 31.7479 219.91 31.4062 219.981 31.0787C220.056 30.7442 220.24 30.4439 220.503 30.2244C220.603 30.1237 220.728 30.0513 220.865 30.0146C220.865 30.0146 220.733 30.1024 220.552 30.2733C220.313 30.495 220.143 30.7816 220.064 31.0982C219.987 31.4226 220.009 31.7628 220.128 32.0744C220.23 32.2599 220.328 32.3868 220.313 32.3966Z" fill="white"/>
<path d="M223.276 28.9993C223.257 28.8585 223.269 28.7153 223.31 28.5795C223.354 28.355 223.408 28.1744 223.437 28.1792C223.458 28.3196 223.448 28.4629 223.408 28.599C223.384 28.8236 223.305 29.0042 223.276 28.9993Z" fill="white"/>
<path d="M225.648 23.8447C225.539 23.8314 225.431 23.8069 225.326 23.7715C225.229 23.7422 225.102 23.708 224.955 23.6787C224.809 23.6495 224.648 23.6055 224.467 23.5811C224.287 23.5567 224.082 23.5128 223.862 23.4884C223.642 23.464 223.384 23.4298 223.154 23.4298C222.619 23.4028 222.082 23.4142 221.548 23.464C221.013 23.5198 220.483 23.6144 219.962 23.7471C219.723 23.8154 219.498 23.874 219.288 23.9472C219.078 24.0204 218.888 24.0839 218.712 24.1522C218.537 24.2206 218.385 24.2938 218.249 24.3523C218.13 24.3986 218.014 24.4524 217.902 24.5134C217.807 24.5674 217.708 24.6115 217.604 24.6452C217.692 24.5823 217.785 24.5268 217.882 24.4793C217.975 24.4256 218.087 24.3621 218.224 24.2987C218.361 24.2352 218.507 24.1571 218.688 24.0888C218.868 24.0204 219.049 23.9374 219.264 23.8691C219.479 23.8008 219.698 23.7275 219.937 23.6592C220.463 23.5204 220.998 23.4225 221.539 23.3663C222.077 23.3182 222.619 23.3084 223.159 23.3371C223.408 23.3371 223.647 23.3761 223.867 23.4103C224.086 23.4444 224.291 23.4786 224.477 23.5128C224.662 23.5469 224.824 23.5958 224.965 23.6299C225.107 23.6641 225.234 23.7031 225.336 23.7373L225.648 23.8447Z" fill="white"/>
<path d="M222.159 46.9328H221.91C221.685 46.9443 221.46 46.9443 221.236 46.9328C220.496 46.8851 219.764 46.7541 219.054 46.5423C218.342 46.3272 217.658 46.0308 217.014 45.6588C216.765 45.5173 216.574 45.3952 216.443 45.3025C216.374 45.2563 216.309 45.2058 216.247 45.1512C216.326 45.1786 216.4 45.2181 216.467 45.2683C216.599 45.3513 216.799 45.4636 217.048 45.6003C217.695 45.948 218.375 46.2309 219.079 46.4447C219.784 46.6551 220.508 46.7941 221.241 46.8596C221.524 46.8889 221.753 46.8987 221.91 46.9035C221.994 46.9031 222.077 46.9129 222.159 46.9328Z" fill="white"/>
<path d="M235.692 105.244C236.127 106.813 236.087 108.476 235.577 110.023C235.066 111.569 234.109 112.93 232.826 113.932C231.542 114.935 229.991 115.534 228.367 115.655C226.743 115.775 225.119 115.412 223.702 114.61C222.284 113.808 221.137 112.604 220.403 111.15C219.67 109.696 219.385 108.057 219.583 106.441C219.781 104.824 220.454 103.303 221.517 102.069C222.58 100.835 223.985 99.944 225.554 99.5083C226.596 99.219 227.685 99.1378 228.759 99.2695C229.832 99.4011 230.87 99.743 231.811 100.276C232.753 100.808 233.58 101.521 234.246 102.374C234.912 103.226 235.403 104.201 235.692 105.244Z" fill="#4169E1"/>
<g opacity="0.1">
<path d="M225.554 99.5084C224.511 99.7972 223.536 100.289 222.684 100.955C221.831 101.62 221.118 102.448 220.586 103.389C220.053 104.331 219.711 105.368 219.579 106.442C219.448 107.515 219.529 108.604 219.818 109.647C219.818 109.647 225.466 108.348 226.164 105.742C226.862 103.135 225.554 99.5084 225.554 99.5084Z" fill="white"/>
</g>
<path d="M233.627 105.683C233.957 106.877 233.927 108.142 233.538 109.318C233.15 110.494 232.422 111.529 231.445 112.291C230.469 113.053 229.289 113.509 228.053 113.6C226.818 113.691 225.584 113.414 224.506 112.804C223.428 112.194 222.555 111.278 221.998 110.172C221.441 109.065 221.224 107.819 221.376 106.59C221.527 105.36 222.039 104.203 222.848 103.265C223.657 102.327 224.726 101.65 225.919 101.319C226.712 101.1 227.54 101.038 228.356 101.139C229.173 101.239 229.961 101.5 230.677 101.905C231.393 102.31 232.021 102.852 232.528 103.501C233.034 104.149 233.407 104.89 233.627 105.683Z" fill="#4169E1"/>
<g opacity="0.2">
<path d="M233.627 105.683C233.957 106.877 233.927 108.142 233.538 109.318C233.15 110.494 232.422 111.529 231.445 112.291C230.469 113.053 229.289 113.509 228.053 113.6C226.818 113.691 225.584 113.414 224.506 112.804C223.428 112.194 222.555 111.278 221.998 110.172C221.441 109.065 221.224 107.819 221.376 106.59C221.527 105.36 222.039 104.203 222.848 103.265C223.657 102.327 224.726 101.65 225.919 101.319C226.712 101.1 227.54 101.038 228.356 101.139C229.173 101.239 229.961 101.5 230.677 101.905C231.393 102.31 232.021 102.852 232.528 103.501C233.034 104.149 233.407 104.89 233.627 105.683Z" fill="#0C0C0C"/>
</g>
<path d="M233.866 105.883C234.194 107.061 234.165 108.31 233.782 109.471C233.4 110.632 232.682 111.654 231.719 112.407C230.756 113.16 229.591 113.611 228.371 113.702C227.152 113.792 225.933 113.52 224.869 112.917C223.805 112.315 222.944 111.411 222.394 110.319C221.844 109.227 221.63 107.997 221.779 106.783C221.929 105.57 222.435 104.428 223.234 103.502C224.032 102.577 225.088 101.909 226.266 101.583C227.844 101.147 229.531 101.355 230.956 102.161C232.381 102.967 233.427 104.306 233.866 105.883Z" fill="#4169E1"/>
<g opacity="0.2">
<path d="M233.866 105.883C234.194 107.061 234.165 108.31 233.782 109.471C233.4 110.632 232.682 111.654 231.719 112.407C230.756 113.16 229.591 113.611 228.371 113.702C227.152 113.792 225.933 113.52 224.869 112.917C223.805 112.315 222.944 111.411 222.394 110.319C221.844 109.227 221.63 107.997 221.779 106.783C221.929 105.57 222.435 104.428 223.234 103.502C224.032 102.577 225.088 101.909 226.266 101.583C227.844 101.147 229.531 101.355 230.956 102.161C232.381 102.967 233.427 104.306 233.866 105.883Z" fill="white"/>
</g>
<path d="M228.008 106.952L227.584 105.429C227.872 105.39 228.164 105.39 228.453 105.429C228.605 105.46 228.754 105.506 228.897 105.566V105.512L228.98 104.897V104.756L228.633 104.546L228.516 104.643C228.123 104.56 227.718 104.56 227.325 104.643L227.096 103.809L226.774 103.667L226.832 103.877L226.476 103.98L226.71 104.829C225.568 105.268 225.192 106.098 225.407 106.864C225.7 107.914 226.671 107.938 227.564 107.909L227.984 109.417C227.424 109.525 226.845 109.471 226.315 109.261L226.188 110.12C226.835 110.361 227.539 110.4 228.209 110.232L228.384 110.867L228.091 110.95L228.443 111.072L229.058 110.896L228.824 110.052C229.976 109.603 230.356 108.783 230.146 108.016C229.888 106.938 228.902 106.923 228.008 106.952ZM227.345 106.952C226.857 106.952 226.5 106.869 226.403 106.508C226.305 106.147 226.461 105.839 226.974 105.61L227.345 106.952ZM228.633 109.188L228.262 107.875C228.75 107.875 229.131 107.963 229.239 108.329C229.346 108.695 229.16 108.968 228.633 109.202V109.188Z" fill="#4169E1"/>
<g opacity="0.3">
<path d="M228.008 106.952L227.584 105.429C227.872 105.39 228.164 105.39 228.453 105.429C228.605 105.46 228.754 105.506 228.897 105.566V105.512L228.98 104.897V104.756L228.633 104.546L228.516 104.643C228.123 104.56 227.718 104.56 227.325 104.643L227.096 103.809L226.774 103.667L226.832 103.877L226.476 103.98L226.71 104.829C225.568 105.268 225.192 106.098 225.407 106.864C225.7 107.914 226.671 107.938 227.564 107.909L227.984 109.417C227.424 109.525 226.845 109.471 226.315 109.261L226.188 110.12C226.835 110.361 227.539 110.4 228.209 110.232L228.384 110.867L228.091 110.95L228.443 111.072L229.058 110.896L228.824 110.052C229.976 109.603 230.356 108.783 230.146 108.016C229.888 106.938 228.902 106.923 228.008 106.952ZM227.345 106.952C226.857 106.952 226.5 106.869 226.403 106.508C226.305 106.147 226.461 105.839 226.974 105.61L227.345 106.952ZM228.633 109.188L228.262 107.875C228.75 107.875 229.131 107.963 229.239 108.329C229.346 108.695 229.16 108.968 228.633 109.202V109.188Z" fill="#0C0C0C"/>
</g>
<path d="M228.546 109.891L228.78 110.735L228.165 110.906L227.931 110.066C227.261 110.234 226.557 110.195 225.91 109.954L226.037 109.1C226.568 109.306 227.146 109.358 227.706 109.251L227.286 107.743C226.393 107.772 225.417 107.743 225.129 106.698C224.914 105.932 225.285 105.102 226.432 104.663L226.198 103.814L226.813 103.643L227.047 104.477C227.595 104.351 228.165 104.363 228.707 104.512L228.609 105.361C228.173 105.247 227.717 105.224 227.272 105.293L227.696 106.815C228.59 106.791 229.576 106.815 229.868 107.85C230.069 108.617 229.698 109.437 228.546 109.891ZM227.032 106.83L226.661 105.488C226.173 105.717 225.998 106.054 226.09 106.386C226.183 106.718 226.559 106.825 227.032 106.83ZM228.921 108.182C228.819 107.816 228.433 107.733 227.945 107.728L228.316 109.066C228.848 108.851 229.009 108.509 228.921 108.182Z" fill="#4169E1"/>
<path d="M222.029 113.039C222.029 113.039 222.029 113.039 221.976 112.99L221.829 112.834C221.75 112.753 221.675 112.669 221.605 112.58C221.526 112.478 221.424 112.365 221.331 112.229L221.18 112.019L221.029 111.78C220.921 111.619 220.824 111.433 220.716 111.243C220.271 110.4 219.978 109.484 219.852 108.539C219.828 108.319 219.799 108.114 219.794 107.919C219.794 107.821 219.794 107.728 219.794 107.64V107.387C219.786 107.239 219.786 107.09 219.794 106.942C219.794 106.811 219.794 106.698 219.823 106.606L219.852 106.396V106.323C219.852 106.323 219.852 106.323 219.852 106.396C219.852 106.469 219.852 106.523 219.852 106.61C219.846 106.721 219.846 106.832 219.852 106.942C219.852 107.074 219.852 107.226 219.852 107.387C219.852 107.47 219.852 107.557 219.852 107.645C219.852 107.733 219.852 107.831 219.852 107.928C219.852 108.119 219.891 108.324 219.916 108.539C219.987 109.006 220.093 109.468 220.233 109.92C220.38 110.368 220.561 110.803 220.775 111.223C220.882 111.418 220.975 111.599 221.082 111.765C221.131 111.843 221.18 111.926 221.229 111.999L221.375 112.214C221.468 112.351 221.566 112.463 221.644 112.57C221.722 112.678 221.795 112.761 221.854 112.829C221.912 112.897 221.956 112.951 221.995 112.99L222.029 113.039Z" fill="white"/>
<path d="M225.817 107.187C225.732 107.167 225.655 107.124 225.592 107.064C225.431 106.927 225.316 106.743 225.265 106.537C225.218 106.331 225.238 106.116 225.324 105.922C225.352 105.841 225.4 105.769 225.465 105.712C225.465 105.712 225.416 105.795 225.363 105.942C225.293 106.127 225.28 106.329 225.324 106.523C225.378 106.709 225.481 106.877 225.621 107.011C225.734 107.138 225.822 107.177 225.817 107.187Z" fill="white"/>
<path d="M226.525 104.507C226.477 104.432 226.444 104.349 226.427 104.263C226.395 104.182 226.382 104.095 226.388 104.009C226.437 104.081 226.471 104.162 226.486 104.248C226.518 104.33 226.531 104.419 226.525 104.507Z" fill="white"/>
<path d="M226.423 101.012C226.36 101.035 226.294 101.052 226.227 101.061L225.998 101.109L225.695 101.192L225.339 101.305C225.207 101.349 225.075 101.407 224.934 101.466C224.631 101.598 224.337 101.752 224.055 101.925C223.777 102.101 223.511 102.297 223.26 102.51C223.147 102.613 223.035 102.705 222.942 102.803C222.85 102.901 222.757 102.993 222.679 103.076C222.601 103.159 222.537 103.242 222.479 103.311L222.332 103.496C222.254 103.599 222.205 103.652 222.205 103.652C222.235 103.592 222.271 103.534 222.313 103.482C222.355 103.416 222.4 103.352 222.449 103.291C222.508 103.218 222.571 103.135 222.649 103.047C222.727 102.959 222.81 102.867 222.908 102.769C223.006 102.671 223.108 102.574 223.22 102.466C223.474 102.249 223.743 102.05 224.026 101.871C224.311 101.697 224.608 101.544 224.914 101.412C225.056 101.353 225.192 101.3 225.319 101.261C225.439 101.217 225.562 101.18 225.685 101.148C225.798 101.114 225.9 101.1 225.988 101.08C226.065 101.061 226.144 101.046 226.222 101.036L226.423 101.012Z" fill="white"/>
<path d="M230.806 114.708L230.679 114.787C230.591 114.83 230.464 114.894 230.303 114.962C229.881 115.139 229.441 115.267 228.99 115.343C228.539 115.419 228.08 115.444 227.623 115.416L227.213 115.372L227.062 115.343C227.112 115.335 227.163 115.335 227.213 115.343C227.311 115.343 227.452 115.343 227.628 115.343C228.081 115.36 228.534 115.33 228.98 115.255C229.425 115.177 229.862 115.056 230.283 114.894C230.449 114.83 230.576 114.772 230.664 114.733C230.71 114.72 230.758 114.712 230.806 114.708Z" fill="white"/>
<path d="M155.466 93.8998C155.758 94.9646 155.728 96.0922 155.38 97.1401C155.032 98.1879 154.381 99.109 153.509 99.7868C152.637 100.465 151.584 100.869 150.483 100.948C149.381 101.027 148.281 100.779 147.321 100.233C146.361 99.6869 145.585 98.8688 145.09 97.8817C144.595 96.8947 144.403 95.783 144.54 94.6872C144.677 93.5915 145.135 92.5609 145.857 91.7257C146.58 90.8904 147.534 90.2881 148.598 89.9949C149.305 89.8 150.044 89.7464 150.772 89.8373C151.5 89.9281 152.203 90.1615 152.841 90.5241C153.479 90.8868 154.039 91.3716 154.49 91.9508C154.94 92.53 155.272 93.1923 155.466 93.8998Z" fill="#4169E1"/>
<g opacity="0.1">
<path d="M148.598 90.0095C147.89 90.2038 147.227 90.5357 146.648 90.9864C146.068 91.4371 145.583 91.9977 145.22 92.6361C144.858 93.2744 144.624 93.978 144.534 94.7067C144.444 95.4353 144.498 96.1746 144.693 96.8823C144.693 96.8823 148.52 96.0036 149.008 94.2269C149.496 92.4501 148.598 90.0095 148.598 90.0095Z" fill="white"/>
</g>
<path d="M154.07 94.2073C154.296 95.0167 154.276 95.8749 154.014 96.6731C153.751 97.4714 153.258 98.1738 152.596 98.6916C151.935 99.2094 151.134 99.5193 150.296 99.582C149.458 99.6447 148.621 99.4574 147.889 99.0438C147.158 98.6303 146.565 98.009 146.187 97.2587C145.809 96.5084 145.662 95.6627 145.764 94.8288C145.867 93.9948 146.215 93.21 146.763 92.5737C147.312 91.9374 148.037 91.4782 148.847 91.2542C149.931 90.9557 151.09 91.0988 152.069 91.6523C153.047 92.2057 153.767 93.1244 154.07 94.2073Z" fill="#4169E1"/>
<g opacity="0.2">
<path d="M154.07 94.2073C154.296 95.0167 154.276 95.8749 154.014 96.6731C153.751 97.4714 153.258 98.1738 152.596 98.6916C151.935 99.2094 151.134 99.5193 150.296 99.582C149.458 99.6447 148.621 99.4574 147.889 99.0438C147.158 98.6303 146.565 98.009 146.187 97.2587C145.809 96.5084 145.662 95.6627 145.764 94.8288C145.867 93.9948 146.215 93.21 146.763 92.5737C147.312 91.9374 148.037 91.4782 148.847 91.2542C149.931 90.9557 151.09 91.0988 152.069 91.6523C153.047 92.2057 153.767 93.1244 154.07 94.2073Z" fill="#0C0C0C"/>
</g>
<path d="M151.472 99.4441C153.675 98.7386 154.889 96.3809 154.183 94.1781C153.478 91.9754 151.12 90.7616 148.917 91.4671C146.714 92.1727 145.501 94.5303 146.206 96.7331C146.912 98.9359 149.269 100.15 151.472 99.4441Z" fill="#4169E1"/>
<g opacity="0.2">
<path d="M151.472 99.4441C153.675 98.7386 154.889 96.3809 154.183 94.1781C153.478 91.9754 151.12 90.7616 148.917 91.4671C146.714 92.1727 145.501 94.5303 146.206 96.7331C146.912 98.9359 149.269 100.15 151.472 99.4441Z" fill="white"/>
</g>
<path d="M150.263 95.0566L149.975 94.0267C150.169 93.9998 150.366 93.9998 150.561 94.0267C150.664 94.0465 150.765 94.0759 150.863 94.1146V94.0804L150.922 93.6655V93.5679L150.687 93.4263L150.609 93.4898C150.342 93.436 150.066 93.436 149.799 93.4898L149.643 92.9236L149.428 92.8308L149.467 92.9724L149.223 93.0407L149.384 93.6167C148.608 93.9144 148.354 94.4758 148.501 94.9981C148.696 95.7107 149.36 95.7254 149.965 95.7059L150.248 96.726C149.868 96.7985 149.476 96.763 149.116 96.6235L149.028 97.2044C149.467 97.3672 149.945 97.3944 150.399 97.2825L150.521 97.7071L150.321 97.7657L150.556 97.8487L150.975 97.7315L150.863 97.136C151.644 96.8285 151.903 96.2721 151.756 95.7498C151.537 95.0469 150.863 95.0371 150.263 95.0566ZM149.814 95.0566C149.492 95.0566 149.238 94.9981 149.169 94.754C149.101 94.5099 149.213 94.3049 149.56 94.1487L149.814 95.0566ZM150.683 96.5698L150.434 95.6668C150.761 95.6668 151.019 95.7254 151.093 95.9743C151.166 96.2233 151.039 96.4234 150.683 96.5796V96.5698Z" fill="#4169E1"/>
<g opacity="0.3">
<path d="M150.263 95.0566L149.975 94.0267C150.169 93.9998 150.366 93.9998 150.561 94.0267C150.664 94.0465 150.765 94.0759 150.863 94.1146V94.0804L150.922 93.6655V93.5679L150.687 93.4263L150.609 93.4898C150.342 93.436 150.066 93.436 149.799 93.4898L149.643 92.9236L149.428 92.8308L149.467 92.9724L149.223 93.0407L149.384 93.6167C148.608 93.9144 148.354 94.4758 148.501 94.9981C148.696 95.7107 149.36 95.7254 149.965 95.7059L150.248 96.726C149.868 96.7985 149.476 96.763 149.116 96.6235L149.028 97.2044C149.467 97.3672 149.945 97.3944 150.399 97.2825L150.521 97.7071L150.321 97.7657L150.556 97.8487L150.975 97.7315L150.863 97.136C151.644 96.8285 151.903 96.2721 151.756 95.7498C151.537 95.0469 150.863 95.0371 150.263 95.0566ZM149.814 95.0566C149.492 95.0566 149.238 94.9981 149.169 94.754C149.101 94.5099 149.213 94.3049 149.56 94.1487L149.814 95.0566ZM150.683 96.5698L150.434 95.6668C150.761 95.6668 151.019 95.7254 151.093 95.9743C151.166 96.2233 151.039 96.4234 150.683 96.5796V96.5698Z" fill="#0C0C0C"/>
</g>
<path d="M150.624 97.0482L150.785 97.6193L150.365 97.7365L150.209 97.1703C149.755 97.2825 149.277 97.2553 148.838 97.0922L148.926 96.5113C149.284 96.653 149.675 96.6886 150.053 96.6138L149.77 95.5936C149.165 95.5936 148.506 95.5936 148.306 94.8859C148.164 94.3636 148.413 93.8022 149.194 93.5045L149.033 92.9285L149.453 92.8113L149.609 93.3776C149.977 93.284 150.363 93.284 150.732 93.3776L150.668 93.9535C150.372 93.8741 150.063 93.8592 149.76 93.9096L150.048 94.9395C150.653 94.9395 151.322 94.9395 151.513 95.6376C151.664 96.1843 151.405 96.7407 150.624 97.0482ZM149.599 94.9737L149.345 94.0658C148.999 94.222 148.896 94.4465 148.96 94.6711C149.023 94.8956 149.277 94.9688 149.599 94.9737ZM150.878 95.8914C150.81 95.6424 150.551 95.5839 150.219 95.5839L150.473 96.4918C150.829 96.3307 150.941 96.111 150.863 95.8914H150.878Z" fill="#4169E1"/>
<path d="M146.207 99.1862L146.168 99.152L146.07 99.0446C146.026 99.0007 145.977 98.9421 145.919 98.8738C145.86 98.8054 145.797 98.7274 145.733 98.6346C145.67 98.5419 145.67 98.5419 145.631 98.4882L145.528 98.3271C145.455 98.2197 145.392 98.0928 145.318 97.9659C145.169 97.6786 145.044 97.3799 144.942 97.0726C144.845 96.7652 144.775 96.45 144.733 96.1305C144.733 95.9841 144.694 95.8426 144.689 95.7108C144.684 95.579 144.689 95.5838 144.689 95.5204V95.3447C144.683 95.2439 144.683 95.1428 144.689 95.042C144.693 94.9668 144.701 94.8919 144.713 94.8175V94.6711C144.713 94.6418 144.713 94.6223 144.713 94.6223C144.714 94.6401 144.714 94.6581 144.713 94.6759V94.8175C144.713 94.881 144.713 94.9542 144.713 95.042C144.708 95.1429 144.708 95.2439 144.713 95.3447V95.5204C144.713 95.5838 144.713 95.6473 144.713 95.7108C144.713 95.7742 144.737 95.9792 144.752 96.1257C144.802 96.4427 144.874 96.7558 144.967 97.0629C145.07 97.3657 145.193 97.661 145.338 97.9464C145.406 98.0798 145.475 98.2018 145.543 98.3124L145.645 98.4735L145.743 98.6151C145.806 98.7078 145.87 98.7859 145.924 98.8591L146.07 99.0349L146.163 99.1423L146.207 99.1862Z" fill="white"/>
<path d="M148.774 95.2178C148.718 95.1996 148.666 95.1696 148.623 95.1299C148.513 95.0396 148.436 94.9163 148.403 94.7784C148.37 94.6384 148.382 94.4914 148.437 94.3587C148.46 94.3052 148.493 94.257 148.535 94.2171C148.509 94.2663 148.487 94.3168 148.467 94.3684C148.43 94.4994 148.43 94.6377 148.467 94.7687C148.502 94.8981 148.571 95.016 148.667 95.1104C148.72 95.1836 148.779 95.2129 148.774 95.2178Z" fill="white"/>
<path d="M149.257 93.397C149.257 93.397 149.213 93.3287 149.189 93.236C149.168 93.1797 149.158 93.1201 149.159 93.0602C149.159 93.0602 149.203 93.1286 149.228 93.2213C149.248 93.2776 149.258 93.3372 149.257 93.397Z" fill="white"/>
<path d="M149.184 91.0297L149.052 91.0638L148.896 91.098L148.691 91.1517C148.61 91.1726 148.53 91.1986 148.452 91.2298C148.364 91.2591 148.271 91.2981 148.179 91.3372C147.973 91.4261 147.774 91.5289 147.583 91.6447C147.394 91.7663 147.213 91.9 147.041 92.045C146.966 92.108 146.895 92.1748 146.826 92.2451C146.764 92.3031 146.705 92.3651 146.651 92.4306C146.597 92.4843 146.553 92.5428 146.509 92.5916L146.412 92.7137C146.385 92.7516 146.356 92.7875 146.324 92.8211L146.397 92.7039L146.495 92.577C146.534 92.5282 146.573 92.4696 146.626 92.411C146.68 92.3525 146.734 92.2841 146.802 92.2207C146.87 92.1572 146.939 92.0889 147.017 92.0157C147.187 91.8675 147.368 91.7321 147.559 91.6105C147.751 91.4922 147.952 91.3878 148.159 91.2981L148.437 91.1956L148.686 91.1224L148.891 91.0736L149.052 91.0443L149.184 91.0297Z" fill="white"/>
<path d="M152.157 100.309C152.131 100.332 152.101 100.35 152.069 100.363C152.011 100.397 151.923 100.436 151.815 100.485C151.242 100.726 150.62 100.831 150 100.792L149.721 100.763L149.619 100.738H149.721C149.79 100.738 149.882 100.738 150 100.738C150.307 100.745 150.614 100.724 150.917 100.675C151.221 100.625 151.519 100.543 151.806 100.431L152.064 100.323L152.157 100.309Z" fill="white"/>
<path d="M168.912 156.135H201.059V225.356H168.912V156.135Z" fill="#4169E1"/>
<g opacity="0.3">
<path d="M168.911 156.135H178.879V225.356H168.911V156.135Z" fill="#0C0C0C"/>
</g>
<path d="M178.879 225.356C178.952 225.356 179.016 210.034 179.016 191.138C179.016 172.243 178.952 156.916 178.879 156.916C178.806 156.916 178.742 172.238 178.742 191.138C178.742 210.038 178.801 225.356 178.879 225.356Z" fill="#263238"/>
<path d="M208.147 131.734H240.294V225.356H208.147V131.734Z" fill="#4169E1"/>
<g opacity="0.3">
<path d="M208.142 131.734H218.109V225.356H208.142V131.734Z" fill="#0C0C0C"/>
</g>
<path d="M218.119 225.356C218.197 225.356 218.256 204.635 218.256 179.077C218.256 153.519 218.187 132.769 218.119 132.769C218.051 132.769 217.982 153.49 217.982 179.057C217.982 204.625 218.036 225.356 218.119 225.356Z" fill="#263238"/>
<path d="M129.247 176.29H161.395V225.361H129.247V176.29Z" fill="#4169E1"/>
<g opacity="0.3">
<path d="M129.247 176.29H139.214V225.361H129.247V176.29Z" fill="#0C0C0C"/>
</g>
<path d="M139.214 225.356C139.292 225.356 139.351 214.495 139.351 201.101C139.351 187.707 139.292 176.841 139.214 176.841C139.136 176.841 139.078 187.702 139.078 201.101C139.078 214.5 139.141 225.356 139.214 225.356Z" fill="#263238"/>
<path d="M90.4461 198.582H122.594V225.356H90.4461V198.582Z" fill="#4169E1"/>
<g opacity="0.3">
<path d="M90.4411 198.582H100.409V225.356H90.4411V198.582Z" fill="#0C0C0C"/>
</g>
<path d="M100.409 225.356C100.487 225.356 100.545 219.43 100.545 212.123C100.545 204.815 100.487 198.885 100.409 198.885C100.331 198.885 100.272 204.811 100.272 212.123C100.272 219.435 100.335 225.356 100.409 225.356Z" fill="#263238"/>
<path d="M51.2108 207.847H83.3584V225.356H51.2108V207.847Z" fill="#4169E1"/>
<g opacity="0.3">
<path d="M51.2109 207.847H61.1783V225.356H51.2109V207.847Z" fill="#0C0C0C"/>
</g>
<path d="M61.1784 225.356C61.2516 225.356 61.3151 221.48 61.3151 216.701C61.3151 211.923 61.2516 208.042 61.1784 208.042C61.1052 208.042 61.0417 211.918 61.0417 216.701C61.0417 221.485 61.1003 225.356 61.1784 225.356Z" fill="#263238"/>
<path d="M247.377 100.953H279.525V225.336H247.377V100.953Z" fill="#4169E1"/>
<g opacity="0.3">
<path d="M247.377 100.953H257.344V225.336H247.377V100.953Z" fill="#0C0C0C"/>
</g>
<path d="M257.344 225.844C257.418 225.844 257.481 198.201 257.481 164.106C257.481 130.011 257.418 102.359 257.344 102.359C257.271 102.359 257.208 130.001 257.208 164.106C257.208 198.211 257.271 225.844 257.344 225.844Z" fill="#263238"/>
<path d="M286.612 75.7075H318.76V225.844H286.612V75.7075Z" fill="#4169E1"/>
<g opacity="0.3">
<path d="M286.612 75.7075H296.58V225.844H286.612V75.7075Z" fill="#0C0C0C"/>
</g>
<path d="M296.58 225.844C296.653 225.844 296.716 192.613 296.716 151.649C296.716 110.686 296.653 77.4257 296.58 77.4257C296.506 77.4257 296.443 110.647 296.443 151.649C296.443 192.652 296.501 225.844 296.58 225.844Z" fill="#263238"/>
<path d="M293.248 62.3857C283.903 56.059 281.457 43.3551 287.784 34.0107C294.11 24.6663 306.814 22.22 316.158 28.5466C325.503 34.8732 327.949 47.5771 321.623 56.9215C315.296 66.2659 302.592 68.7123 293.248 62.3857Z" fill="#4169E1"/>
<path opacity="0.3" d="M293.248 62.3857C283.903 56.059 281.457 43.3551 287.784 34.0107C294.11 24.6663 306.814 22.22 316.158 28.5466C325.503 34.8732 327.949 47.5771 321.623 56.9215C315.296 66.2659 302.592 68.7123 293.248 62.3857Z" fill="#0C0C0C"/>
<path d="M293.248 60.1327C283.903 53.806 281.457 41.1022 287.784 31.7578C294.11 22.4133 306.814 19.967 316.159 26.2936C325.503 32.6202 327.949 45.3241 321.623 54.6685C315.296 64.0129 302.592 66.4593 293.248 60.1327Z" fill="#4169E1"/>
<path d="M304.702 56.9003C297.143 56.9003 291.015 50.7724 291.015 43.2133C291.015 35.6543 297.143 29.5264 304.702 29.5264C312.261 29.5264 318.389 35.6543 318.389 43.2133C318.389 50.7724 312.261 56.9003 304.702 56.9003Z" fill="white"/>
<path d="M299.965 47.9459C297.35 45.3305 297.35 41.0902 299.965 38.4749C302.581 35.8595 306.821 35.8595 309.436 38.4749C312.052 41.0902 312.052 45.3305 309.436 47.9459C306.821 50.5612 302.581 50.5612 299.965 47.9459Z" fill="#4169E1"/>
<path d="M288.277 25.9094L288.833 21.5505L284.391 16.8011L284.074 21.5066L288.277 25.9094Z" fill="#455A64"/>
<path d="M278.753 22.4438L283.254 22.0777L287.764 26.4171L283.254 26.9003L278.753 22.4438Z" fill="#455A64"/>
<path opacity="0.3" d="M303.809 43.1157L288.189 31.186C288.775 30.3399 289.428 29.5417 290.141 28.7991L303.809 42.0516V43.1157Z" fill="#0C0C0C"/>
<path d="M283.669 20.34L290.849 27.6032L302.217 39.1229L304.834 41.7734C305.664 42.6129 304.346 43.9065 303.54 43.0669L296.37 35.8037L284.992 24.284L282.375 21.6335C281.55 20.7939 282.863 19.5004 283.674 20.34H283.669Z" fill="#263238"/>
<path d="M304.702 17.5723C304.775 17.5723 304.829 13.6674 304.829 8.83985C304.829 4.01233 304.775 0.107361 304.702 0.107361C304.629 0.107361 304.575 4.01233 304.575 8.83985C304.575 13.6674 304.634 17.5723 304.702 17.5723Z" fill="#263238"/>
<path d="M291.508 8.45913C291.454 8.50306 292.85 10.4653 294.627 12.8522C296.404 15.2391 297.893 17.1233 297.951 17.0793C298.01 17.0354 296.609 15.078 294.832 12.6863C293.055 10.2945 291.567 8.42008 291.508 8.45913Z" fill="#263238"/>
<path d="M318.057 8.05886C317.994 8.02469 316.783 10.1041 315.348 12.7009C313.913 15.2977 312.805 17.4357 312.863 17.4698C312.922 17.504 314.137 15.4246 315.572 12.8229C317.008 10.2212 318.116 8.09302 318.057 8.05886Z" fill="#263238"/>
<path d="M113.539 53.5142C113.134 50.9722 114.758 48.4207 114.288 45.8881C114.072 44.7486 113.451 43.7261 112.538 43.0108C111.625 42.2956 110.484 41.9362 109.326 41.9997C109.679 40.1168 108.384 38.1726 106.581 37.4759C104.778 36.7792 102.608 37.1934 100.932 38.2102C99.6755 38.9634 98.6069 40.0226 97.2841 40.6628C96.0837 41.2418 94.728 41.4537 93.5182 42.0751C93.1602 42.2614 92.8213 42.4821 92.5061 42.7341C92.3272 42.8283 92.1483 42.9224 91.9741 43.0307C91.5931 43.2685 91.2422 43.5514 90.9291 43.8733C90.4077 44.2477 89.9898 44.7481 89.7145 45.3279C89.1073 46.7072 89.4556 48.5196 88.3917 49.5929C87.5162 50.4779 86.038 50.4638 85.0965 51.2876C83.7643 52.4786 84.155 54.7993 82.9923 56.141C82.1308 57.1107 80.6715 57.2755 79.3817 57.1389C78.0918 57.0024 76.802 56.6305 75.5168 56.7906C75.0743 56.8471 74.5753 57.026 74.4482 57.4543C74.4235 57.6439 74.4397 57.8365 74.4958 58.0192C74.5518 58.2019 74.6463 58.3705 74.773 58.5135L76.4772 61.0603L76.7125 61.4039C76.7144 61.4227 76.7144 61.4416 76.7125 61.4604C77.9396 63.3246 79.1667 65.1871 80.3938 67.0482L84.6917 64.4214C85.0118 66.0784 82.3379 67.0811 82.4509 68.7664C82.556 69.372 82.8473 69.9298 83.2841 70.3622L87.0501 74.919C87.4879 75.451 87.9916 76.0206 88.6601 76.1524C89.6298 76.3407 90.5054 75.5828 91.2021 74.8861C93.344 72.763 95.6554 70.6494 98.541 69.7079C101.427 68.7664 104.722 69.0818 107.038 67.227C108.37 66.1585 109.128 64.5391 110.333 63.3293C111.915 61.724 114.386 60.6131 114.725 58.3958C114.918 56.7482 113.803 55.2136 113.539 53.5142Z" fill="#263238"/>
<path d="M95.6883 49.7341L95.0858 69.0347C95.0581 69.8152 95.1898 70.5931 95.4728 71.321C95.7558 72.0489 96.1842 72.7114 96.7317 73.2683C97.2793 73.8251 97.9346 74.2645 98.6577 74.5597C99.3807 74.8548 100.156 74.9995 100.937 74.985C104.002 74.9285 106.247 73.9634 106.393 69.4396C106.44 67.985 106.586 66.2714 106.6 66.1443C106.6 66.1443 111.496 65.3864 112.004 60.533C112.249 58.1793 112.475 54.2345 112.508 49.8236C112.547 47.5299 111.717 45.3064 110.185 43.5994C108.652 41.8923 106.531 40.8281 104.246 40.6205L103.776 40.5781C98.6964 40.4275 95.7166 44.6501 95.6883 49.7341Z" fill="#FFBE9D"/>
<path d="M106.643 66.1302C104.396 65.966 102.249 65.1368 100.476 63.7482C100.476 63.7482 101.653 67.3824 106.539 67.3918L106.643 66.1302Z" fill="#EB996E"/>
<path d="M111.077 54.0273C111.061 54.208 110.976 54.3755 110.839 54.4941C110.702 54.6128 110.524 54.6733 110.343 54.6628C110.254 54.6616 110.166 54.6427 110.084 54.6071C110.003 54.5714 109.929 54.5199 109.868 54.4554C109.806 54.391 109.758 54.3149 109.727 54.2317C109.695 54.1485 109.68 54.0598 109.684 53.9708C109.699 53.7902 109.785 53.6227 109.922 53.504C110.059 53.3854 110.237 53.3249 110.418 53.3353C110.507 53.3359 110.595 53.3544 110.677 53.3898C110.759 53.4252 110.833 53.4767 110.894 53.5413C110.956 53.6059 111.004 53.6822 111.035 53.7657C111.067 53.8492 111.081 53.9382 111.077 54.0273Z" fill="#263238"/>
<path d="M111.289 52.3891C111.195 52.4691 110.705 52.0313 109.957 51.9654C109.208 51.8995 108.629 52.2244 108.544 52.1255C108.46 52.0266 108.61 51.9231 108.864 51.7724C109.209 51.5792 109.605 51.4954 109.999 51.5324C110.39 51.5734 110.758 51.7383 111.049 52.0031C111.27 52.1867 111.331 52.3562 111.289 52.3891Z" fill="#263238"/>
<path d="M103.983 53.5424C103.97 53.7232 103.885 53.8913 103.749 54.0104C103.612 54.1294 103.434 54.1896 103.253 54.178C103.164 54.178 103.076 54.1601 102.994 54.1252C102.912 54.0904 102.838 54.0393 102.777 53.975C102.715 53.9108 102.667 53.8348 102.636 53.7515C102.605 53.6683 102.59 53.5796 102.594 53.4907C102.609 53.3091 102.694 53.1405 102.831 53.0209C102.968 52.9012 103.147 52.84 103.328 52.8504C103.417 52.8516 103.505 52.8706 103.586 52.9063C103.668 52.9419 103.741 52.9936 103.802 53.0581C103.863 53.1226 103.91 53.1987 103.941 53.2819C103.973 53.3651 103.987 53.4537 103.983 53.5424Z" fill="#263238"/>
<path d="M104.129 52.0078C104.035 52.0926 103.545 51.6548 102.796 51.5889C102.048 51.5229 101.469 51.8431 101.384 51.7442C101.3 51.6453 101.445 51.5465 101.704 51.3958C102.047 51.2021 102.442 51.1183 102.834 51.1558C103.225 51.1993 103.592 51.3639 103.884 51.6265C104.091 51.8007 104.176 51.9749 104.129 52.0078Z" fill="#263238"/>
<path d="M106.125 57.3273C106.528 57.2405 106.941 57.2042 107.353 57.219C107.546 57.219 107.73 57.1954 107.777 57.0683C107.81 56.8737 107.784 56.6737 107.702 56.494C107.565 56.0233 107.419 55.5149 107.269 54.9876C106.676 52.8505 106.266 51.0993 106.327 51.0757C106.388 51.0522 106.967 52.7657 107.561 54.9076C107.702 55.4349 107.838 55.9338 107.965 56.4187C108.065 56.6599 108.075 56.9287 107.994 57.1766C107.96 57.2416 107.912 57.298 107.854 57.3414C107.795 57.3847 107.727 57.4137 107.655 57.4261C107.547 57.4396 107.438 57.4396 107.33 57.4261C106.926 57.4446 106.521 57.4114 106.125 57.3273Z" fill="#263238"/>
<path d="M104.091 49.0563C103.997 49.2493 103.263 49.0563 102.378 49.0563C101.493 49.0563 100.754 49.2116 100.659 49.0139C100.622 48.9197 100.768 48.7456 101.074 48.5855C101.492 48.3496 101.978 48.2618 102.453 48.336C102.88 48.3223 103.304 48.4145 103.686 48.6043C103.997 48.7879 104.138 48.9668 104.091 49.0563Z" fill="#263238"/>
<path d="M111.778 49.5646C111.609 49.72 111.02 49.4987 110.296 49.4328C109.571 49.3669 108.949 49.4328 108.822 49.2492C108.77 49.1598 108.879 48.995 109.161 48.8585C109.544 48.686 109.968 48.6225 110.385 48.6749C110.802 48.7097 111.201 48.8596 111.538 49.108C111.783 49.2963 111.854 49.4752 111.778 49.5646Z" fill="#263238"/>
<path d="M106.191 59.7375C106.172 59.5848 106.13 59.4357 106.068 59.295C105.99 59.1383 105.874 59.0034 105.732 58.9023C105.589 58.8013 105.423 58.7373 105.249 58.7159C104.9 58.677 104.549 58.7749 104.27 58.989C104.147 59.0804 104.046 59.1971 103.972 59.331C103.898 59.465 103.853 59.6132 103.842 59.7657C103.839 59.8478 103.854 59.9295 103.884 60.0058C103.957 60.2211 104.08 60.4156 104.244 60.573C104.408 60.7303 104.607 60.8458 104.825 60.9096C105.045 60.968 105.277 60.9617 105.493 60.8916C105.71 60.8215 105.901 60.6904 106.045 60.5142C106.127 60.4098 106.184 60.2871 106.209 60.1564C106.226 60.0167 106.22 59.8751 106.191 59.7375Z" fill="#EB996E"/>
<path d="M96.0272 56.2822C96.02 56.2799 96.0123 56.2794 96.0048 56.2807C95.9974 56.2821 95.9903 56.2852 95.9843 56.2898C95.9783 56.2944 95.9735 56.3004 95.9703 56.3073C95.9671 56.3142 95.9656 56.3217 95.966 56.3293C95.9668 56.3366 95.9694 56.3437 95.9735 56.3498C95.9775 56.356 95.983 56.3611 95.9894 56.3648C95.9958 56.3685 96.003 56.3706 96.0104 56.371C96.0178 56.3713 96.0251 56.37 96.0319 56.3669C96.0378 56.3621 96.0426 56.356 96.0458 56.3491C96.0491 56.3421 96.0508 56.3346 96.0508 56.3269C96.0508 56.3193 96.0491 56.3117 96.0458 56.3048C96.0426 56.2979 96.0378 56.2918 96.0319 56.2869C96.0257 56.2827 96.0183 56.2804 96.0107 56.2804C96.0032 56.2804 95.9958 56.2827 95.9895 56.2869" fill="#263238"/>
<path d="M96.1119 56.0798C96.1047 56.0775 96.097 56.077 96.0895 56.0783C96.0821 56.0796 96.075 56.0827 96.069 56.0873C96.063 56.092 96.0582 56.098 96.055 56.1048C96.0518 56.1117 96.0504 56.1193 96.0507 56.1268C96.0511 56.1343 96.0535 56.1416 96.0576 56.1478C96.0617 56.1541 96.0674 56.1591 96.0741 56.1625C96.0808 56.1658 96.0882 56.1674 96.0957 56.1669C96.1032 56.1664 96.1104 56.164 96.1166 56.1598C96.1225 56.1554 96.1272 56.1497 96.1305 56.1432C96.1337 56.1366 96.1354 56.1294 96.1354 56.1221C96.1354 56.1148 96.1337 56.1076 96.1305 56.1011C96.1272 56.0945 96.1225 56.0889 96.1166 56.0845C96.1104 56.0802 96.103 56.0779 96.0954 56.0779C96.0879 56.0779 96.0805 56.0802 96.0742 56.0845" fill="#263238"/>
<path d="M106.812 60.1141C106.812 60.1706 106.614 60.2647 106.247 60.2977C105.756 60.3407 105.264 60.234 104.835 59.9917C104.403 59.7421 104.071 59.3514 103.893 58.8854C103.766 58.5418 103.776 58.3111 103.832 58.2923C103.969 58.2358 104.242 59.102 105.07 59.5822C105.436 59.78 105.835 59.9092 106.247 59.9635C106.591 60.0199 106.807 60.0435 106.812 60.1141Z" fill="#263238"/>
<path d="M93.5981 53.8296C92.7555 49.8283 93.6264 45.3562 96.352 42.3293C99.0776 39.3024 103.733 37.9278 107.504 39.5048C108.043 39.702 108.527 40.0247 108.916 40.4463C109.109 40.6624 109.242 40.9246 109.304 41.2074C109.366 41.4902 109.354 41.7842 109.269 42.061C108.949 42.913 107.857 43.186 106.967 43.1672C106.078 43.1484 105.084 42.9648 104.279 43.3696C102.867 44.0852 102.735 46.1235 101.667 47.3192C101.144 47.9123 100.396 48.2607 99.9109 48.9056C98.6069 50.5956 99.5154 51.7301 98.621 53.6649C98.3715 54.2015 97.3782 54.6393 96.7851 54.6817C96.192 54.724 96.6627 54.7476 95.4246 54.5263L93.5981 53.8296Z" fill="#263238"/>
<path d="M97.0958 54.7429C97.0158 54.6958 93.9089 53.3636 93.6123 56.6635C93.3157 59.9635 96.6957 59.5822 96.7098 59.488C96.7239 59.3939 97.0958 54.7429 97.0958 54.7429Z" fill="#FFBE9D"/>
<path d="M95.8154 58.1464C95.8154 58.1464 95.7542 58.1793 95.6506 58.217C95.5095 58.2628 95.3562 58.2527 95.2223 58.1887C95.0194 58.0357 94.8615 57.8306 94.7654 57.5953C94.6693 57.36 94.6385 57.1032 94.6762 56.8518C94.6921 56.5682 94.7709 56.2916 94.9069 56.0421C94.9481 55.9424 95.0121 55.8538 95.0939 55.7835C95.1757 55.7132 95.2729 55.6631 95.3776 55.6373C95.4452 55.6264 95.5144 55.6392 95.5736 55.6735C95.6328 55.7078 95.6783 55.7615 95.7024 55.8256C95.7354 55.9244 95.7024 55.9856 95.7024 55.9951C95.7024 56.0045 95.7825 55.948 95.7636 55.8068C95.7542 55.7241 95.7158 55.6474 95.6554 55.5902C95.6141 55.5511 95.5652 55.5208 95.5118 55.5014C95.4583 55.4819 95.4014 55.4737 95.3447 55.4772C95.205 55.4929 95.0717 55.5446 94.9579 55.6271C94.844 55.7096 94.7535 55.8201 94.695 55.948C94.5309 56.2224 94.4356 56.5325 94.4173 56.8518C94.3796 57.5203 94.6621 58.1699 95.1281 58.3535C95.2151 58.3868 95.3084 58.4003 95.4012 58.3929C95.4941 58.3856 95.5841 58.3577 95.6648 58.3111C95.8013 58.2264 95.8248 58.1511 95.8154 58.1464Z" fill="#EB996E"/>
<path d="M75.7616 55.1383C75.8782 55.1674 75.993 55.2035 76.1052 55.2466C76.3265 55.3219 76.6513 55.4443 77.075 55.5667C77.5878 55.722 78.1209 55.7997 78.6567 55.7973C79.3519 55.7855 80.0199 55.5249 80.5397 55.063C81.114 54.5216 81.2505 53.6272 81.4341 52.7092C81.5157 52.2181 81.6967 51.7487 81.966 51.33C82.2963 50.8902 82.7837 50.595 83.3265 50.5062C83.8609 50.4122 84.3999 50.3462 84.9412 50.3084C85.4837 50.2697 86.0035 50.0752 86.4381 49.7483C86.8616 49.3738 87.1852 48.8998 87.3796 48.369C87.5828 47.8131 87.7403 47.2416 87.8504 46.6602C87.9712 46.0625 88.1574 45.48 88.4058 44.9231C88.6607 44.3725 89.0611 43.9021 89.5639 43.5626C90.5339 42.9944 91.6278 42.6713 92.7508 42.6211C93.7387 42.57 94.717 42.4009 95.6648 42.1175C96.4623 41.8061 97.1821 41.3241 97.7737 40.7052C98.3386 40.1497 98.8282 39.6178 99.3178 39.2082C99.7311 38.849 100.196 38.5538 100.697 38.3326C101.015 38.1944 101.354 38.11 101.7 38.0832C101.819 38.068 101.939 38.068 102.057 38.0832C101.601 38.1086 101.153 38.2171 100.735 38.4033C100.252 38.6364 99.8047 38.9376 99.4072 39.2977C98.9365 39.7072 98.4657 40.2392 97.8914 40.8135C97.2945 41.466 96.5573 41.9746 95.7354 42.301C94.7793 42.5942 93.7915 42.7712 92.7932 42.8283C91.7074 42.8883 90.6524 43.2114 89.7192 43.7698C89.2527 44.0882 88.8817 44.5276 88.6459 45.0408C88.3969 45.575 88.209 46.1356 88.0857 46.7119C87.9761 47.3058 87.8187 47.8899 87.615 48.4584C87.405 49.0257 87.0552 49.5309 86.5982 49.9271C86.1308 50.2829 85.5695 50.494 84.9835 50.5344C84.428 50.6003 83.8867 50.6097 83.3877 50.718C82.9014 50.7957 82.4634 51.0569 82.1637 51.4476C81.9072 51.8431 81.7342 52.2869 81.6553 52.7516C81.5725 53.198 81.4656 53.6396 81.3352 54.0744C81.215 54.4905 80.9915 54.8694 80.6856 55.176C80.1267 55.6672 79.4055 55.9339 78.6614 55.9244C78.1136 55.9161 77.5704 55.8224 77.0514 55.6467C76.6231 55.5102 76.303 55.3737 76.0864 55.2842C75.9739 55.2456 75.8652 55.1967 75.7616 55.1383Z" fill="#263238"/>
<path d="M100.433 179.354L95.6108 197.89L114.132 199.111C114.57 197.436 106.252 191.076 106.252 191.076L109.505 182.343L100.433 179.354Z" fill="#4169E1"/>
<g opacity="0.6">
<path d="M100.876 188.491C100.783 188.485 100.69 188.496 100.602 188.525C100.514 188.554 100.432 188.601 100.362 188.662C100.291 188.722 100.233 188.796 100.192 188.879C100.15 188.962 100.125 189.053 100.118 189.146C100.111 189.238 100.123 189.332 100.152 189.42C100.181 189.508 100.228 189.59 100.288 189.66C100.349 189.731 100.423 189.788 100.506 189.83C100.589 189.872 100.68 189.897 100.772 189.904C100.969 189.917 101.164 189.855 101.316 189.73C101.468 189.605 101.567 189.426 101.592 189.23C101.574 189.033 101.483 188.85 101.336 188.716C101.19 188.583 100.999 188.509 100.801 188.51" fill="white"/>
</g>
<g opacity="0.6">
<path d="M95.5274 198.053L95.6627 196.593L113.917 198.131C113.917 198.131 114.744 198.528 114.617 199.088L95.5274 198.053Z" fill="white"/>
</g>
<path d="M106.577 191.08C106.544 191.165 106.106 191.057 105.56 191.184C105.014 191.311 104.689 191.589 104.618 191.528C104.548 191.466 104.84 191.029 105.48 190.883C106.12 190.737 106.619 191.01 106.577 191.08Z" fill="#263238"/>
<path d="M108.234 192.45C108.234 192.54 107.796 192.554 107.377 192.813C106.958 193.072 106.751 193.411 106.661 193.382C106.572 193.354 106.661 192.855 107.203 192.544C107.744 192.234 108.262 192.37 108.234 192.45Z" fill="#263238"/>
<path d="M108.606 194.959C108.521 194.959 108.535 194.489 108.916 194.107C109.298 193.726 109.768 193.674 109.782 193.754C109.797 193.834 109.462 193.999 109.156 194.319C108.85 194.639 108.7 194.978 108.606 194.959Z" fill="#263238"/>
<path d="M107.08 189.009C107.019 189.07 106.652 188.821 106.139 188.689C105.626 188.557 105.197 188.581 105.164 188.496C105.131 188.411 105.635 188.232 106.214 188.392C106.793 188.553 107.146 188.957 107.08 189.009Z" fill="#263238"/>
<path d="M107.32 186.83C106.997 186.809 106.684 186.705 106.412 186.528C106.102 186.367 105.813 186.17 105.55 185.94C105.395 185.805 105.249 185.661 105.113 185.507C105.029 185.421 104.959 185.322 104.906 185.215C104.863 185.137 104.85 185.046 104.87 184.959C104.89 184.872 104.941 184.796 105.014 184.744C105.082 184.697 105.16 184.667 105.241 184.655C105.323 184.644 105.406 184.652 105.485 184.678C105.6 184.713 105.71 184.765 105.809 184.834C105.988 184.942 106.158 185.065 106.318 185.201C106.579 185.43 106.803 185.698 106.982 185.996C107.283 186.505 107.325 186.863 107.287 186.872C107.25 186.881 107.118 186.557 106.817 186.109C106.623 185.85 106.397 185.616 106.144 185.413C105.995 185.294 105.838 185.187 105.673 185.093C105.499 184.98 105.334 184.923 105.259 184.989C105.183 185.055 105.221 185.027 105.259 185.093C105.301 185.169 105.353 185.241 105.414 185.304C105.536 185.453 105.668 185.593 105.809 185.723C106.05 185.947 106.308 186.15 106.581 186.331C106.838 186.481 107.085 186.648 107.32 186.83Z" fill="#263238"/>
<path d="M107.165 186.914C107.073 186.617 107.084 186.296 107.198 186.006C107.288 185.68 107.436 185.374 107.636 185.102C107.752 184.94 107.887 184.792 108.036 184.659C108.126 184.56 108.24 184.486 108.367 184.443C108.494 184.4 108.629 184.39 108.761 184.415C108.84 184.441 108.911 184.488 108.964 184.552C109.017 184.617 109.051 184.694 109.062 184.777C109.079 184.891 109.079 185.007 109.062 185.121C109.03 185.323 108.965 185.519 108.869 185.7C108.714 186.009 108.48 186.272 108.191 186.462C107.937 186.669 107.613 186.768 107.287 186.74C107.287 186.688 107.631 186.627 108.045 186.269C108.283 186.077 108.473 185.832 108.601 185.554C108.675 185.396 108.724 185.228 108.747 185.055C108.78 184.862 108.747 184.692 108.676 184.688C108.599 184.686 108.523 184.7 108.453 184.73C108.382 184.76 108.318 184.805 108.267 184.862C107.892 185.184 107.604 185.595 107.429 186.058C107.226 186.552 107.217 186.914 107.165 186.914Z" fill="#263238"/>
<path d="M79.6594 172.246L68.7852 181.844L81.4012 196.212C82.6298 194.992 78.7132 185.281 78.7132 185.281L85.958 179.425L79.6594 172.246Z" fill="#4169E1"/>
<g opacity="0.6">
<path d="M75.3756 180.338C75.2221 180.233 75.0345 180.189 74.8504 180.216C74.6663 180.244 74.4991 180.339 74.3823 180.484C74.2851 180.645 74.2511 180.836 74.2867 181.02C74.3224 181.205 74.4252 181.369 74.5753 181.482C74.738 181.594 74.9369 181.639 75.1319 181.609C75.3268 181.58 75.5031 181.477 75.6251 181.322C75.7099 181.143 75.7246 180.939 75.6662 180.75C75.6078 180.561 75.4806 180.4 75.3097 180.3" fill="white"/>
</g>
<g opacity="0.6">
<path d="M68.7852 181.844L69.9244 180.903L81.5942 195.025C81.5942 195.025 81.8907 195.896 81.4012 196.197L68.7852 181.844Z" fill="white"/>
</g>
<path d="M78.9673 185.464C78.9014 185.521 78.5625 185.196 78.0258 185.041C77.4892 184.885 77.0844 184.942 77.0373 184.852C76.9902 184.763 77.508 184.537 78.1059 184.739C78.7037 184.942 79.0427 185.427 78.9673 185.464Z" fill="#263238"/>
<path d="M79.7018 187.493C79.6501 187.564 79.2688 187.362 78.7603 187.366C78.2519 187.371 77.913 187.564 77.8565 187.493C77.8 187.423 78.1343 187.051 78.7415 187.051C79.3488 187.051 79.763 187.432 79.7018 187.493Z" fill="#263238"/>
<path d="M78.7414 189.847C78.6755 189.795 78.9202 189.409 79.4428 189.268C79.9653 189.127 80.3843 189.334 80.3843 189.414C80.3843 189.494 79.9841 189.456 79.5557 189.579C79.1274 189.701 78.812 189.899 78.7414 189.847Z" fill="#263238"/>
<path d="M80.4597 183.939C80.3749 183.963 80.1819 183.563 79.81 183.186C79.4381 182.809 79.0474 182.607 79.071 182.522C79.0945 182.438 79.5935 182.522 80.0125 182.97C80.4314 183.417 80.5538 183.93 80.4597 183.939Z" fill="#263238"/>
<path d="M81.7778 182.188C81.7495 182.188 81.4671 181.972 81.147 181.463C80.9646 181.167 80.8162 180.851 80.7045 180.522C80.641 180.326 80.5892 180.126 80.5491 179.924C80.5239 179.808 80.5144 179.689 80.5209 179.571C80.5259 179.484 80.5612 179.403 80.6206 179.34C80.68 179.277 80.7597 179.237 80.8457 179.227C80.9248 179.223 81.0039 179.236 81.0772 179.266C81.1505 179.296 81.2162 179.342 81.2694 179.401C81.3493 179.492 81.4159 179.593 81.4671 179.703C81.569 179.885 81.6526 180.078 81.7166 180.277C81.8258 180.608 81.8829 180.954 81.886 181.303C81.886 181.891 81.7401 182.221 81.7025 182.207C81.6648 182.193 81.7025 181.849 81.6648 181.303C81.6316 180.981 81.5572 180.665 81.4435 180.362C81.3761 180.183 81.2959 180.01 81.2035 179.844C81.1046 179.655 80.9916 179.528 80.8928 179.542C80.7939 179.557 80.8457 179.542 80.8316 179.627C80.8189 179.713 80.8189 179.8 80.8316 179.886C80.8624 180.075 80.9049 180.262 80.9587 180.446C81.0493 180.77 81.1691 181.085 81.3164 181.388C81.4895 181.643 81.6437 181.91 81.7778 182.188Z" fill="#263238"/>
<path d="M81.5988 182.179C81.5706 182.179 81.6836 181.816 82.0696 181.416C82.3121 181.181 82.5962 180.992 82.9075 180.861C83.0923 180.781 83.2848 180.721 83.4818 180.682C83.61 180.643 83.7458 180.638 83.8766 180.666C84.0074 180.694 84.1291 180.754 84.2303 180.842C84.2829 180.907 84.3171 180.985 84.3295 181.068C84.3419 181.15 84.332 181.235 84.3009 181.312C84.2565 181.419 84.1944 181.518 84.1173 181.604C83.9829 181.762 83.824 181.897 83.6466 182.004C83.355 182.189 83.0213 182.296 82.6768 182.315C82.3462 182.366 82.0088 182.287 81.7354 182.094C82.0301 182.11 82.3256 182.11 82.6204 182.094C82.9227 182.05 83.211 181.937 83.463 181.764C83.6056 181.663 83.7338 181.542 83.8443 181.407C83.9667 181.256 84.0373 181.101 83.9714 181.054C83.9021 181.01 83.8239 180.982 83.7424 180.972C83.661 180.962 83.5784 180.971 83.5007 180.997C83.3223 181.029 83.1474 181.078 82.9781 181.143C82.6879 181.259 82.4166 181.418 82.1732 181.614C81.8295 181.915 81.6459 182.207 81.5988 182.179Z" fill="#263238"/>
<path d="M113.755 93.8666C113.755 93.8666 114.673 92.1578 115.074 91.3246C115.474 90.4914 118.19 88.9708 118.19 88.9708L121.231 86.071C121.352 86.251 121.429 86.4562 121.458 86.6709C121.486 86.8855 121.465 87.1039 121.396 87.3091C121.104 88.0764 120.925 88.7213 120.784 88.3777C120.784 88.3777 122.902 88.0199 123.302 88.6131C123.538 88.9655 123.662 89.3803 123.66 89.8041L123.458 91.6306C123.458 91.6306 123.66 93.1793 122.987 93.8572C122.926 94.3433 122.776 94.8141 122.544 95.2459C121.684 95.887 120.791 96.484 119.87 97.0347L116.072 98.2869L113.76 94.0502" fill="#FFBE9D"/>
<path d="M123.227 89.9312C122.817 90.127 122.39 90.2846 121.951 90.4019L120.539 90.835C119.964 91.0687 119.346 91.1763 118.727 91.1504C118.548 91.129 118.379 91.0543 118.243 90.9359C118.107 90.8175 118.01 90.661 117.964 90.4867C117.93 90.3263 117.936 90.1602 117.979 90.0022C118.022 89.8442 118.103 89.6988 118.214 89.5781C118.583 89.2236 119.045 88.9791 119.546 88.872C119.951 88.759 120.275 88.679 120.487 88.599C120.699 88.519 120.821 88.4719 120.831 88.4907C120.84 88.5095 120.737 88.5849 120.525 88.6884C120.218 88.8233 119.904 88.9397 119.583 89.0368C119.126 89.1572 118.708 89.394 118.369 89.7241C118.286 89.8195 118.225 89.9328 118.193 90.0552C118.16 90.1777 118.156 90.3059 118.181 90.4302C118.218 90.557 118.293 90.6695 118.396 90.7534C118.498 90.8373 118.623 90.8886 118.755 90.9009C119.335 90.9113 119.911 90.8123 120.454 90.6091L121.867 90.2231C122.31 90.0823 122.765 89.9846 123.227 89.9312Z" fill="#EB996E"/>
<path d="M123.09 91.9318C123.062 91.8372 123.051 91.7384 123.057 91.64L123.114 91.6776C122.827 91.8141 122.276 92.0448 121.556 92.332C121.158 92.5037 120.749 92.6484 120.332 92.765C120.077 92.8276 119.81 92.8178 119.56 92.7368C119.419 92.6918 119.294 92.6093 119.197 92.4981C119.099 92.387 119.035 92.2514 119.009 92.106C118.992 91.9268 119.022 91.7463 119.094 91.5816C119.167 91.4169 119.28 91.2733 119.423 91.1645C119.669 90.9811 119.941 90.8337 120.228 90.7267C120.694 90.5283 121.176 90.3708 121.669 90.256C122.001 90.1766 122.34 90.1261 122.681 90.1053C122.804 90.0822 122.93 90.0822 123.053 90.1053C123.053 90.1477 122.526 90.1712 121.711 90.4066C121.229 90.5461 120.757 90.7191 120.299 90.9244C120.036 91.0306 119.788 91.1698 119.56 91.3387C119.449 91.4227 119.361 91.533 119.303 91.6595C119.246 91.7861 119.221 91.9249 119.23 92.0636C119.25 92.1662 119.297 92.2615 119.367 92.3394C119.437 92.4173 119.526 92.4749 119.626 92.5061C119.832 92.5751 120.055 92.5832 120.266 92.5297C120.673 92.4234 121.074 92.293 121.466 92.139C122.191 91.88 122.756 91.6682 123.062 91.5976H123.123V91.6588C123.123 91.8188 123.105 91.9318 123.09 91.9318Z" fill="#EB996E"/>
<path d="M123.175 93.2499C122.812 93.4161 122.434 93.5469 122.045 93.6407L120.803 93.9984C120.563 94.0596 120.332 94.1349 120.059 94.1961C119.915 94.2295 119.768 94.239 119.621 94.2244C119.533 94.2158 119.448 94.1877 119.372 94.1421C119.297 94.0965 119.232 94.0346 119.183 93.9608C119.116 93.8081 119.105 93.6362 119.153 93.4763C119.202 93.3165 119.306 93.1793 119.447 93.0899C119.663 92.942 119.89 92.8098 120.125 92.6944C120.515 92.499 120.924 92.3413 121.344 92.2237C121.722 92.0862 122.123 92.0191 122.526 92.026C122.526 92.0636 122.083 92.1437 121.396 92.3885C120.994 92.5285 120.603 92.7 120.228 92.9016C120.009 93.0122 119.798 93.1397 119.598 93.2829C119.505 93.3384 119.435 93.4238 119.398 93.5249C119.361 93.626 119.36 93.7366 119.395 93.8384C119.489 94.0125 119.776 94.0125 120.017 93.9655C120.257 93.9184 120.516 93.8384 120.746 93.7819L121.998 93.4759C122.381 93.3582 122.776 93.2824 123.175 93.2499Z" fill="#EB996E"/>
<path d="M122.714 94.5539C122.538 94.7491 122.318 94.9006 122.074 94.9964C121.504 95.2751 120.877 95.4184 120.242 95.4154H119.965C119.899 95.416 119.835 95.3983 119.779 95.3642C119.723 95.33 119.678 95.2809 119.649 95.2224C119.632 95.1673 119.626 95.1093 119.631 95.0518C119.637 94.9944 119.654 94.9387 119.682 94.8881C119.719 94.8108 119.76 94.7354 119.805 94.6622C119.965 94.4148 120.183 94.2098 120.44 94.0643C120.883 93.8242 121.207 93.8572 121.203 93.8854C120.973 93.9809 120.75 94.091 120.534 94.215C120.317 94.3625 120.134 94.5552 119.998 94.7799C119.927 94.8975 119.842 95.0811 119.871 95.1329C119.899 95.1847 120.073 95.1847 120.242 95.18C121.1 95.1376 121.94 94.9247 122.714 94.5539Z" fill="#EB996E"/>
<path d="M118.402 95.9285C118.466 95.6773 118.547 95.4305 118.642 95.1894C118.807 94.5965 118.841 93.9749 118.741 93.3676C118.652 92.8387 118.459 92.3328 118.171 91.8801L118.134 91.8189L118.176 91.7671C118.576 91.2963 118.844 90.9903 118.877 91.0186C118.736 91.3321 118.55 91.6237 118.327 91.8848V91.7718C118.664 92.2325 118.888 92.7664 118.981 93.33C119.088 93.9733 119.027 94.6335 118.802 95.2459C118.728 95.5033 118.59 95.738 118.402 95.9285Z" fill="#EB996E"/>
<path d="M108.676 95.0388L113.346 92.5532L116.646 98.8989L106.449 105.245L105.739 99.9816L108.676 95.0388Z" fill="#4169E1"/>
<path d="M113.134 101.818C113.238 101.818 119.108 101.888 119.776 102.34C120.398 102.891 120.897 103.566 121.24 104.322C121.311 104.529 121.871 105.899 121.419 106.257C121.082 106.494 120.701 106.664 120.299 106.756C120.42 107.145 120.395 107.565 120.228 107.937C120.026 108.316 119.708 108.619 119.32 108.803C119.32 108.803 119.249 109.952 118.849 110.333C118.553 110.58 118.188 110.726 117.804 110.752C117.804 110.752 116.754 111.515 116.09 111.03C115.427 110.545 114.48 109.952 114.655 109.641C114.829 109.331 109.476 107.589 109.236 106.718C108.996 105.847 108.766 104.585 108.766 104.585L110.771 101.041L113.134 101.818Z" fill="#FFBE9D"/>
<path d="M96.7004 66.9823C93.8147 67.8579 92.9344 69.8068 91.5222 72.3959C89.3379 76.4443 85.9909 82.8417 84.2115 86.956C81.8907 92.3226 82.9499 96.225 85.153 98.4705C87.3561 100.716 108.478 109.039 108.478 109.039L113.092 101.243L95.1705 90.9903C95.1705 90.9903 102.373 79.8337 103.07 78.2472C103.766 76.6608 106.205 70.8942 101.253 67.3965C99.5249 66.1961 98.5787 66.4033 96.7004 66.9823Z" fill="#4169E1"/>
<path d="M103.07 69.1995C102.599 68.804 101.592 67.067 98.8329 66.4126C97.4442 66.0784 94.6668 67.3777 93.6924 68.8605C91.8376 71.685 90.1053 74.0011 88.7448 78.1719C87.3326 82.5169 88.3259 98.2963 88.3259 98.2963L84.0232 107.283C83.892 107.616 83.8298 107.973 83.8402 108.331C83.8507 108.689 83.9337 109.041 84.0842 109.367C84.2347 109.692 84.4495 109.983 84.7158 110.223C84.982 110.463 85.2941 110.646 85.6332 110.762L104.79 116.451C106.515 114.595 107.54 111.7 107.556 109.166L107.598 102.646L109.401 95.9944C109.401 95.9944 111.939 91.4846 111.939 87.1584C111.939 82.8323 107.433 72.9325 106.69 71.073C106.69 71.0872 103.663 69.6985 103.07 69.1995Z" fill="#4169E1"/>
<path d="M102.448 79.0381C102.448 79.0381 102.42 79.1181 102.345 79.2735C102.269 79.4288 102.156 79.6501 102.006 79.9419C101.695 80.5257 101.224 81.3777 100.594 82.4699C99.3555 84.6494 97.5243 87.794 95.2365 91.6635L95.2035 91.5411L113.177 101.394L113.285 101.455L113.219 101.559L108.61 109.091L108.559 109.175L108.464 109.138L103.903 107.368C100.772 106.13 97.722 104.901 94.7987 103.663C91.8753 102.425 89.0556 101.215 86.4806 99.8169C86.1563 99.6431 85.842 99.4514 85.5391 99.2426C85.3849 99.1389 85.2386 99.024 85.1013 98.8989L84.7247 98.5035C84.2552 97.9701 83.8564 97.3784 83.5384 96.7429C82.9409 95.5204 82.6301 94.1776 82.6299 92.8169C82.6418 91.5524 82.8514 90.2976 83.2513 89.098C83.6348 88.006 84.0812 86.9372 84.5882 85.8969C86.4006 81.872 87.9164 78.638 89.032 76.4349C89.5875 75.3333 90.0347 74.486 90.3501 73.9164L90.7126 73.2762C90.7973 73.1302 90.8444 73.0596 90.8444 73.0596C90.8444 73.0596 90.8115 73.1397 90.7361 73.2856L90.3925 73.9399C90.0959 74.5189 89.6581 75.3522 89.1168 76.4772C88.0293 78.6945 86.5371 81.9332 84.7435 85.9675C84.2494 87.0057 83.811 88.0696 83.4302 89.1545C83.0439 90.3357 82.8422 91.5694 82.8323 92.8122C82.8452 94.1408 83.159 95.4493 83.7503 96.6393C84.0601 97.257 84.4494 97.8315 84.9083 98.3481C85.3896 98.8707 85.9644 99.2986 86.603 99.6097C89.1544 100.994 91.9836 102.189 94.8975 103.432C97.8115 104.675 100.871 105.894 104.002 107.128L108.559 108.902L108.413 108.954L113.026 101.422L113.068 101.587L95.147 91.6965L95.067 91.6541L95.1141 91.5741C97.4207 87.714 99.2755 84.5882 100.537 82.4181C101.163 81.3401 101.648 80.4974 101.982 79.9184C102.142 79.6265 102.265 79.41 102.345 79.2594C102.375 79.1838 102.41 79.11 102.448 79.0381Z" fill="#263238"/>
<path d="M112 86.4712C112.034 86.6368 112.047 86.8061 112.037 86.9749C112.037 87.2997 112.037 87.7705 111.99 88.3495C111.842 89.8577 111.51 91.3422 111.002 92.7698C110.423 94.4456 109.811 95.9191 109.429 97.0065C109.048 98.0939 108.836 98.7765 108.799 98.7671C108.811 98.5977 108.842 98.4303 108.893 98.2681C108.963 97.9527 109.095 97.5008 109.265 96.95C109.608 95.8391 110.206 94.3515 110.771 92.7133C111.271 91.2991 111.621 89.8365 111.816 88.3495C111.948 87.1867 111.957 86.4712 112 86.4712Z" fill="#263238"/>
<path d="M109.006 99.1201C109.062 99.1484 108.182 101.036 107.038 103.357C106.384 104.763 105.655 106.134 104.854 107.462C105.434 106.016 106.089 104.602 106.817 103.225C107.473 101.819 108.204 100.449 109.006 99.1201Z" fill="#263238"/>
<path d="M107.349 106.2C107.349 106.167 107.56 106.125 107.716 106.374C107.762 106.443 107.788 106.523 107.793 106.606C107.798 106.689 107.781 106.771 107.744 106.845C107.69 106.939 107.608 107.013 107.508 107.056C107.409 107.099 107.299 107.11 107.193 107.085C107.087 107.069 106.989 107.02 106.911 106.946C106.834 106.872 106.781 106.776 106.76 106.671C106.746 106.587 106.751 106.501 106.775 106.419C106.8 106.337 106.843 106.262 106.901 106.2C107.099 105.998 107.297 106.045 107.287 106.073C107.278 106.101 107.142 106.139 107.038 106.308C107.002 106.352 106.978 106.405 106.968 106.462C106.959 106.518 106.964 106.576 106.984 106.629C107.004 106.683 107.038 106.73 107.082 106.766C107.126 106.802 107.179 106.826 107.236 106.836C107.293 106.85 107.353 106.848 107.409 106.827C107.464 106.807 107.512 106.771 107.546 106.723C107.569 106.676 107.58 106.626 107.58 106.574C107.58 106.523 107.569 106.472 107.546 106.426C107.495 106.266 107.344 106.233 107.349 106.2Z" fill="#263238"/>
<path d="M113.661 99.6945C112.931 98.9335 112.298 98.0843 111.778 97.1666C111.194 96.2865 110.719 95.3379 110.366 94.3421C110.432 94.3091 111.082 95.5519 111.986 97.0206C112.889 98.4893 113.718 99.6474 113.661 99.6945Z" fill="#263238"/>
<path d="M90.8632 92.3649C90.8632 92.3649 91.0138 92.1248 91.3621 91.8518C91.8209 91.4975 92.3412 91.231 92.8968 91.0656C93.4519 90.9 94.0324 90.8362 94.6103 90.8773C94.8515 90.874 95.0901 90.9272 95.307 91.0327C94.5143 91.0245 93.7237 91.1146 92.9533 91.301C92.2144 91.5659 91.5121 91.9233 90.8632 92.3649Z" fill="#263238"/>
<path d="M103.432 75.1073C103.394 75.1073 103.587 74.6601 103.719 73.921C103.898 72.9632 103.852 71.9767 103.583 71.0401C103.3 70.1052 102.806 69.2481 102.138 68.5357C101.624 67.9896 101.229 67.726 101.253 67.6931C101.636 67.8615 101.98 68.1066 102.265 68.4133C102.992 69.118 103.526 69.9984 103.813 70.9695C104.099 71.9422 104.125 72.9728 103.889 73.9587C103.817 74.3688 103.661 74.7598 103.432 75.1073Z" fill="#263238"/>
<path d="M85.5107 110.62C85.5107 110.62 78.3507 117.286 83.849 126.113C89.3473 134.939 107.499 153.76 107.499 153.76C107.499 153.76 102.834 168.579 102.001 172.246C101.168 175.913 97.9996 186.081 97.9996 186.081L107.495 189.249C107.495 189.249 123.712 153.496 123.971 151.943C124.441 149.208 123.467 147.442 122.135 145.277C120.803 143.111 104.816 116.298 104.816 116.298L85.5107 110.62Z" fill="#263238"/>
<path d="M95.0434 154.984C95.0434 154.984 85.1577 133.273 84.0091 131.941C82.8604 130.608 77.348 119.951 84.0091 113.111L107.659 131.432C107.659 131.432 111.825 153.251 110.159 157.078C108.493 160.906 105.762 163.41 102.881 165.406C100 167.402 80.7562 184.236 80.7562 184.236L73.8503 176.577C73.8503 176.577 84.7717 164.361 87.1772 161.419C90.1758 157.756 95.0434 154.984 95.0434 154.984Z" fill="#263238"/>
<path d="M97.9996 186.081C97.9996 186.081 97.9996 186.025 98.0373 185.916L98.1691 185.446C98.2915 185.013 98.4657 184.391 98.6869 183.596C99.1577 181.972 99.8261 179.641 100.664 176.746C102.359 170.933 104.717 162.859 107.377 153.746L107.405 153.863C106.426 152.79 105.357 151.674 104.294 150.535C97.0534 142.82 90.7172 135.636 86.6029 130.062C85.5672 128.674 84.6822 127.379 83.9478 126.216C83.3062 125.228 82.7336 124.196 82.2343 123.128C81.9129 122.455 81.6652 121.75 81.4953 121.024C81.454 120.768 81.4257 120.511 81.4105 120.252C81.4301 120.316 81.4427 120.383 81.4482 120.45C81.4764 120.577 81.4905 120.77 81.547 121.015C81.7352 121.732 81.9971 122.427 82.3285 123.091C82.8427 124.145 83.4262 125.164 84.0749 126.141C84.814 127.294 85.7084 128.579 86.7488 129.959C90.8914 135.495 97.2464 142.669 104.482 150.342C105.55 151.481 106.61 152.597 107.593 153.675L107.641 153.727V153.793C104.948 162.892 102.566 170.961 100.848 176.77C99.9815 179.655 99.2848 181.981 98.8046 183.596C98.5598 184.386 98.3715 185.008 98.2397 185.436C98.1785 185.634 98.1267 185.794 98.0891 185.907C98.0669 185.969 98.0368 186.027 97.9996 186.081Z" fill="#455A64"/>
<path d="M110.762 152.39C110.24 152.693 109.698 152.957 109.138 153.181C108.612 153.478 108.064 153.735 107.499 153.948C107.942 153.524 108.461 153.189 109.029 152.959C109.565 152.66 110.153 152.467 110.762 152.39Z" fill="#455A64"/>
<path d="M85.9391 149.834C85.9391 149.904 81.773 149.956 76.6325 149.956C71.4919 149.956 67.3258 149.881 67.3258 149.834C67.3258 149.787 71.4919 149.711 76.6325 149.711C81.773 149.711 85.9391 149.744 85.9391 149.834Z" fill="#263238"/>
<path d="M75.8463 146.976C75.8463 147.042 72.6452 147.099 68.6957 147.099C64.7461 147.099 61.545 147.042 61.545 146.976C61.545 146.91 64.7461 146.854 68.6957 146.854C72.6452 146.854 75.8463 146.91 75.8463 146.976Z" fill="#263238"/>
</svg>
