<svg width="275" height="226" viewBox="0 0 275 226" fill="none" xmlns="http://www.w3.org/2000/svg">
<g clip-path="url(#clip0_2541_21870)">
<path d="M233.409 28.2693L232.183 26.2402C221.815 9.161 203.071 -1.13273 183.31 0.115497C180.767 0.27461 178.239 0.621985 175.747 1.15477C157.779 5.00391 142.148 18.5804 135.669 35.9786C131.857 46.2118 130.79 57.9737 123.569 66.1119C114.158 76.6805 98.1806 77.0105 84.1281 76.5596C70.0756 76.1087 54.0926 76.4936 44.7261 87.1062C38.8576 93.7488 36.9931 103.201 37.4661 112.098C38.7201 135.66 55.1431 156.726 76.0266 167.202C96.9101 177.677 121.501 178.611 144.359 174.004C176.374 167.548 206.828 149.809 225.132 122.458C243.436 95.107 248.05 57.8087 233.409 28.2693Z" fill="#EBEBEB"/>
<path d="M158.296 150.117L158.219 179.667L145.156 176.984L134.156 174.685C134.156 174.685 149.215 204.379 165.594 204.379C181.973 204.379 184.091 179.673 184.091 179.673L185.064 150.117H158.296Z" fill="#FFBE9D"/>
<path d="M226.149 73.8872C224.95 74.569 223.3 73.6837 222.75 72.408C222.2 71.1323 222.453 69.6586 222.871 68.3169C223.289 66.9752 223.872 65.6885 223.971 64.2973C224.02 63.0273 223.659 61.7752 222.942 60.7258C222.225 59.6763 221.19 58.885 219.989 58.4686C222.354 56.5935 222.546 52.5739 220.374 50.4788C219.356 49.5001 218.003 48.9667 216.821 48.1968C216.148 47.7527 215.522 47.2424 214.951 46.6737C216.006 46.9337 217.105 46.9675 218.174 46.7727C219.031 46.5846 219.827 46.1838 220.488 45.6072C221.15 45.0306 221.655 44.2968 221.958 43.4734C222.237 42.6395 222.278 41.7442 222.076 40.8883C221.874 40.0324 221.437 39.2499 220.814 38.629C220.172 38.0276 219.361 37.6361 218.491 37.5064C217.62 37.3768 216.731 37.5151 215.941 37.9031C214.412 38.7114 213.576 40.3721 212.833 41.9337L212.14 43.3799C209.99 40.5315 207.966 37.5897 204.649 36.5889C201.641 35.6816 198.407 36.6934 195.272 36.4679C192.989 36.2975 190.8 35.4782 188.523 35.2252C186.246 34.9723 183.656 35.4617 182.314 37.3148C181.522 38.4145 181.274 39.8112 180.477 40.8945C178.827 43.127 175.274 43.4294 173.921 45.8434C172.821 47.8119 173.668 50.2974 173.195 52.5024C172.683 54.8999 170.703 56.654 169.086 58.4961C167.469 60.3382 166.056 62.8676 166.963 65.1441C167.766 67.1512 170.104 68.2289 170.863 70.247C171.413 71.7206 171.017 73.3538 170.989 74.9264C170.962 76.4991 171.589 78.3687 173.123 78.7261L190.575 83.3341C196.586 85.7755 202.785 88.283 209.275 88.25C215.765 88.217 222.689 85.1267 225.225 79.166C224.281 79.1304 223.387 78.7372 222.722 78.0662C223.57 77.6702 224.318 77.0892 224.911 76.3659C225.504 75.6427 225.927 74.7956 226.149 73.8872Z" fill="#263238"/>
<path d="M211.844 79.3585C213.285 74.9594 214.704 70.4779 215.358 65.87C216.013 61.262 215.875 56.456 214.258 52.123C214.016 51.4631 211.921 47.0256 211.217 47.0971C210.716 47.1466 212.003 51.2817 211.767 51.7216C209.347 55.8787 208.687 60.8771 209.077 65.6775C209.494 70.3365 210.429 74.9344 211.866 79.386" fill="#263238"/>
<path d="M196.432 118.037C203.648 117.883 211.832 102.09 211.832 102.09L212.3 61.5864C212.674 49.9235 206.2 39.9817 194.529 39.9267L193.429 39.9817C188.195 40.2678 183.259 42.5105 179.6 46.2648C175.942 50.0191 173.828 55.0109 173.679 60.2502C173.409 70.3625 173.233 81.5415 173.591 86.9413C174.328 98.1148 185.608 99.2531 185.608 99.2531C185.608 99.2531 185.674 101.848 185.707 105.137C185.784 112.516 193.512 118.268 196.405 118.02L196.432 118.037Z" fill="#FFBE9D"/>
<path d="M185.636 99.2695C185.636 99.2695 192.709 99.308 199.969 94.1832C199.969 94.1832 196.856 102.508 185.641 102.101L185.636 99.2695Z" fill="#EB996E"/>
<path d="M178.535 69.0427C178.554 69.4633 178.738 69.8596 179.046 70.1458C179.355 70.4319 179.764 70.5848 180.185 70.5714C180.389 70.5765 180.591 70.541 180.781 70.4668C180.97 70.3926 181.143 70.2813 181.289 70.1394C181.435 69.9976 181.551 69.8279 181.631 69.6406C181.71 69.4532 181.752 69.2518 181.752 69.0482C181.735 68.6267 181.552 68.229 181.243 67.9417C180.934 67.6544 180.524 67.5007 180.103 67.5141C179.899 67.5089 179.696 67.5447 179.506 67.6192C179.316 67.6937 179.143 67.8055 178.997 67.948C178.851 68.0904 178.735 68.2607 178.655 68.4487C178.576 68.6367 178.535 68.8387 178.535 69.0427Z" fill="#263238"/>
<path d="M176.347 64.7812C176.556 64.9791 177.716 64.0168 179.438 63.9289C181.159 63.8409 182.463 64.6382 182.639 64.4128C182.721 64.3193 182.501 63.9509 181.929 63.5824C181.159 63.1053 180.259 62.8804 179.355 62.9391C178.461 62.9835 177.604 63.3108 176.908 63.8739C176.402 64.3358 176.242 64.6932 176.347 64.7812Z" fill="#263238"/>
<path d="M194.018 68.6303C194.037 69.0509 194.22 69.4472 194.529 69.7333C194.838 70.0195 195.247 70.1724 195.668 70.159C195.872 70.1641 196.075 70.1284 196.265 70.0539C196.454 69.9793 196.628 69.8675 196.774 69.7251C196.92 69.5826 197.036 69.4124 197.115 69.2243C197.194 69.0363 197.235 68.8343 197.235 68.6303C197.216 68.2146 197.037 67.8225 196.734 67.5371C196.431 67.2517 196.029 67.0955 195.613 67.1017C195.407 67.0935 195.201 67.127 195.008 67.2001C194.815 67.2732 194.639 67.3844 194.491 67.5271C194.342 67.6698 194.223 67.8411 194.142 68.0306C194.061 68.2202 194.019 68.4241 194.018 68.6303Z" fill="#263238"/>
<path d="M193.221 64.5722C193.43 64.7702 194.596 63.8134 196.312 63.7254C198.028 63.6374 199.337 64.4293 199.513 64.2093C199.601 64.1103 199.381 63.7474 198.803 63.3735C198.032 62.8993 197.133 62.6747 196.229 62.7301C195.335 62.7756 194.478 63.1028 193.782 63.6649C193.281 64.0993 193.122 64.4842 193.221 64.5722Z" fill="#263238"/>
<path d="M187.763 78.1102C187.763 78.0112 186.664 77.8848 184.943 77.7583C184.503 77.7583 184.085 77.6703 183.991 77.3734C183.929 76.9225 184.007 76.4634 184.217 76.0592C184.583 74.9594 184.95 73.8212 185.316 72.6444C186.867 67.7945 187.961 63.8079 187.763 63.7474C187.565 63.6869 186.152 67.5965 184.607 72.43C184.239 73.6232 183.881 74.767 183.546 75.8557C183.296 76.4005 183.247 77.0161 183.408 77.5933C183.481 77.7445 183.587 77.877 183.718 77.9809C183.85 78.0848 184.003 78.1572 184.167 78.1927C184.413 78.2472 184.664 78.2693 184.915 78.2587C186.68 78.2587 187.758 78.2092 187.763 78.1102Z" fill="#263238"/>
<path d="M192.885 79.0285C192.605 79.0285 192.704 80.8926 191.175 82.3003C189.646 83.708 187.655 83.6145 187.655 83.873C187.655 83.9939 188.117 84.2139 188.953 84.1919C190.047 84.1477 191.091 83.7193 191.901 82.9822C192.68 82.2716 193.151 81.2853 193.215 80.2328C193.248 79.4629 193.012 79.012 192.885 79.0285Z" fill="#263238"/>
<path d="M192.94 57.5943C193.138 58.0562 194.843 57.7427 196.873 57.8747C198.902 58.0067 200.563 58.4741 200.805 58.0397C200.915 57.8307 200.607 57.4073 199.925 56.9894C199.017 56.4831 198.007 56.1898 196.969 56.1317C195.931 56.0736 194.894 56.2522 193.936 56.654C193.21 56.9894 192.858 57.3798 192.94 57.5943Z" fill="#263238"/>
<path d="M176.748 59.0295C177.073 59.4034 178.239 58.936 179.658 58.8425C181.077 58.749 182.303 58.9635 182.556 58.5401C182.672 58.3366 182.457 57.9517 181.913 57.6108C181.181 57.2069 180.345 57.0289 179.512 57.0994C178.679 57.1699 177.886 57.4856 177.232 58.0067C176.748 58.4356 176.605 58.837 176.748 59.0295Z" fill="#263238"/>
<path d="M211.833 69.9335C212.02 69.8401 219.395 67.2501 219.566 74.8824C219.736 82.5148 212.003 81.1236 211.987 80.9311C211.97 80.7387 211.833 69.9335 211.833 69.9335Z" fill="#FFBE9D"/>
<path d="M214.264 77.9838C214.297 77.9838 214.401 78.0718 214.626 78.1707C214.946 78.2995 215.302 78.2995 215.622 78.1707C216.425 77.8573 217.079 76.5541 217.09 75.1739C217.092 74.5167 216.949 73.8671 216.672 73.2713C216.595 73.0344 216.462 72.8197 216.283 72.6454C216.105 72.4711 215.888 72.3425 215.649 72.2705C215.495 72.2336 215.332 72.2519 215.189 72.3222C215.047 72.3925 214.933 72.5103 214.868 72.6555C214.769 72.8699 214.824 73.0239 214.78 73.0349C214.736 73.0459 214.615 72.9084 214.67 72.595C214.709 72.4036 214.812 72.231 214.962 72.1056C215.064 72.0237 215.181 71.963 215.306 71.9272C215.432 71.8913 215.564 71.8809 215.693 71.8966C216.009 71.9519 216.305 72.0871 216.553 72.2893C216.801 72.4914 216.994 72.7538 217.112 73.0514C217.455 73.708 217.63 74.4388 217.623 75.1794C217.623 76.7246 216.848 78.1817 215.748 78.5282C215.544 78.5931 215.327 78.611 215.115 78.5805C214.903 78.55 214.7 78.472 214.522 78.3522C214.28 78.1652 214.236 77.9948 214.264 77.9838Z" fill="#7F6358"/>
<path d="M178.503 47.515C177.254 46.8497 180.923 42.7861 183.953 41.3619C188.529 39.2174 195.547 37.8427 199.804 38.9919C204.936 40.3721 209.215 42.8411 211.844 47.482C214.473 52.123 215.507 57.5063 215.424 62.8181C215.397 64.4403 215.254 66.1174 214.401 67.5141C213.356 69.2187 211.316 70.313 211.437 72.65C211.471 73.0724 211.421 73.4975 211.29 73.9005C211.158 74.3035 210.949 74.6765 210.672 74.9979C209.286 76.5046 207.554 75.1244 206.751 73.7332C205.024 70.7529 204.793 67.1732 204.6 63.7419C204.463 61.3005 204.331 58.793 204.991 56.4506C205.348 55.1693 205.937 53.9541 206.223 52.6564C206.509 51.3587 206.454 49.907 205.629 48.8347C205.439 48.6087 205.23 48.4006 205.002 48.2134C203.92 47.2962 202.615 46.6826 201.218 46.4353C199.822 46.1879 198.385 46.3158 197.054 46.8057C192.759 48.3893 185.422 50.7648 183.48 49.3241C180.686 47.2511 180.004 45.8874 180.004 45.8874L178.503 47.515Z" fill="#263238"/>
<path d="M199.391 37.9416C195.167 36.5889 190.371 36.7264 186.461 38.8214C184.382 39.9212 182.512 41.6918 181.907 43.9628C181.302 46.2338 182.303 49.0217 184.492 49.8795L184.646 49.973C187.946 51.0287 190.047 50.5668 193.292 49.3956C196.042 48.4113 198.44 46.6902 201.173 45.7169C204.104 44.6862 207.275 44.5541 210.281 45.3375C207.311 42.0492 203.621 39.3108 199.391 37.9416Z" fill="#263238"/>
<path d="M213.95 45.5299C213.884 45.5849 213.268 44.8536 212.025 43.9903C211.302 43.4853 210.521 43.0681 209.699 42.7476C208.715 42.3333 207.651 42.1453 206.586 42.1977C204.634 42.4147 202.783 43.177 201.245 44.3972C200.057 45.3375 199.507 46.1293 199.436 46.0743C199.364 46.0193 199.518 45.8379 199.771 45.486C200.132 44.987 200.547 44.5297 201.009 44.1223C202.555 42.7558 204.489 41.9045 206.542 41.6863C207.684 41.6207 208.825 41.8242 209.875 42.2802C210.722 42.6349 211.518 43.1029 212.24 43.6714C213.477 44.6666 214.005 45.497 213.95 45.5299Z" fill="#455A64"/>
<path d="M214.726 48.2409C214.662 49.0025 214.464 49.7471 214.143 50.4404C212.766 53.8734 210.238 56.7211 206.993 58.4961C206.348 58.8973 205.636 59.1804 204.892 59.3319C204.798 59.1834 208.109 57.9297 210.887 54.7514C213.664 51.5731 214.566 48.1694 214.726 48.2409Z" fill="#455A64"/>
<path d="M217.844 49.4891C217.904 49.7748 217.913 50.0689 217.871 50.3579C217.831 51.1506 217.721 51.9382 217.541 52.7114C216.953 55.2885 215.737 57.68 214 59.6728C212.263 61.6656 210.06 63.1977 207.586 64.1323C206.844 64.4146 206.078 64.6317 205.298 64.7812C205.017 64.863 204.722 64.8928 204.429 64.8692C204.429 64.7812 205.634 64.5722 207.449 63.7694C209.817 62.7723 211.925 61.2472 213.614 59.3106C215.302 57.3741 216.525 55.0773 217.189 52.5959C217.706 50.7153 217.75 49.4891 217.844 49.4891Z" fill="#455A64"/>
<path d="M190.619 37.2543C190.619 37.3423 189.822 37.5292 188.59 38.0186C185.357 39.3029 182.608 41.5683 180.73 44.4962C180.383 45.1296 180.003 45.7445 179.592 46.3383C179.738 45.6165 180.018 44.9284 180.417 44.3092C181.295 42.7579 182.451 41.3806 183.827 40.2456C185.202 39.1114 186.776 38.2425 188.469 37.6832C189.154 37.4127 189.882 37.2674 190.619 37.2543Z" fill="#455A64"/>
<path d="M220.248 38.2166C220.374 38.2166 220.039 40.4161 218.306 42.4781C216.574 44.5402 214.456 45.255 214.456 45.1285C214.456 45.0021 216.31 44.1058 217.927 42.1482C219.544 40.1906 220.094 38.1671 220.248 38.2166Z" fill="#455A64"/>
<path d="M138.853 174.933L143.396 172.145C144.167 171.676 145.051 171.427 145.953 171.425H154.753L163.839 179.7L166.551 181.053L165.539 195.35L159.632 194.624C159.632 194.624 147.02 195.174 145.799 194.354C144.578 193.535 142.813 190.962 142.813 190.962C142.813 190.962 135.899 188.724 135.223 188.119C132.654 185.815 133.688 185.265 133.688 185.265L132.506 184.715C132.286 185.133 130.564 182.329 130.746 180.921C130.85 180.102 130.608 180.107 130.608 180.107C130.035 179.778 129.541 179.327 129.161 178.787C128.781 178.246 128.524 177.629 128.408 176.978C128.282 176.143 131.708 176.742 131.708 176.742L140.25 176.857L138.853 174.933Z" fill="#FFBE9D"/>
<path d="M146.448 176.665L138.413 165.728C138.122 165.33 137.742 165.006 137.302 164.784C136.862 164.561 136.376 164.446 135.883 164.447H119.999C119.693 164.447 119.399 164.568 119.182 164.785C118.966 165.001 118.844 165.295 118.844 165.601C118.847 165.878 118.946 166.144 119.124 166.355L128.227 176.912L146.448 176.665Z" fill="#455A64"/>
<path d="M142.554 181.146C141.97 181.304 141.367 181.383 140.761 181.383C137.851 181.553 134.932 181.301 132.093 180.635C131.496 180.527 130.916 180.342 130.366 180.085C130.967 180.126 131.563 180.216 132.148 180.355C133.248 180.547 134.75 180.784 136.433 180.905C138.116 181.025 139.645 181.08 140.75 181.075C141.353 181.046 141.956 181.069 142.554 181.146Z" fill="#7F6358"/>
<path d="M144.837 185.936C144.252 186.092 143.649 186.171 143.044 186.172C141.591 186.259 140.133 186.239 138.682 186.112C137.23 185.988 135.789 185.758 134.37 185.425C133.775 185.317 133.196 185.133 132.649 184.875C133.249 184.916 133.845 185.006 134.431 185.144C135.531 185.337 137.032 185.573 138.715 185.694C140.398 185.815 141.927 185.87 143.033 185.864C143.635 185.835 144.239 185.859 144.837 185.936Z" fill="#7F6358"/>
<path d="M128.431 176.978C128.497 177.317 128.585 177.652 128.695 177.979C129.056 178.884 129.753 179.613 130.642 180.014L130.702 180.041V180.107C130.683 181.075 130.896 182.033 131.324 182.901C131.852 183.968 132.726 184.824 133.804 185.331L133.953 185.397L133.881 185.534C133.799 185.706 133.756 185.894 133.756 186.084C133.756 186.275 133.799 186.463 133.881 186.634C134.068 187.005 134.335 187.33 134.662 187.586C135.389 188.145 136.188 188.604 137.038 188.949C138.921 189.731 140.87 190.342 142.863 190.775H142.94L142.978 190.841C143.488 191.58 144.088 192.252 144.766 192.842C145.417 193.488 146.218 193.962 147.098 194.223C147.775 194.389 148.473 194.46 149.171 194.432L151.261 194.487L155.293 194.597L162.553 194.8H162.58L171.232 196.565L173.635 197.082L174.262 197.23C174.337 197.239 174.41 197.262 174.477 197.296C174.403 197.305 174.33 197.305 174.257 197.296L173.619 197.197L171.193 196.769L162.514 195.119H162.542L155.282 194.965L151.256 194.871L149.16 194.822C148.431 194.844 147.701 194.767 146.993 194.591C146.056 194.316 145.202 193.814 144.507 193.128C143.806 192.515 143.187 191.815 142.665 191.044L142.78 191.127C140.767 190.684 138.798 190.056 136.901 189.252C136.024 188.888 135.2 188.407 134.453 187.822C134.086 187.525 133.791 187.149 133.59 186.722C133.494 186.51 133.448 186.28 133.453 186.048C133.459 185.815 133.517 185.587 133.623 185.381L133.7 185.584C132.564 185.039 131.649 184.123 131.104 182.989C130.674 182.079 130.472 181.079 130.515 180.074L130.576 180.168C130.116 179.953 129.704 179.647 129.366 179.269C129.027 178.891 128.769 178.449 128.607 177.968C128.487 177.652 128.428 177.316 128.431 176.978Z" fill="#7F6358"/>
<path d="M147.438 190.142C147.482 190.23 146.415 190.775 144.969 190.967C143.522 191.16 142.356 190.918 142.373 190.824C142.389 190.731 143.533 190.775 144.919 190.582C146.305 190.39 147.4 190.038 147.438 190.142Z" fill="#7F6358"/>
<path d="M151.519 176.648C151.519 176.753 149.776 176.901 147.609 176.984C145.442 177.066 143.688 177.039 143.688 176.929C143.688 176.819 145.431 176.676 147.598 176.593C149.765 176.511 151.519 176.538 151.519 176.648Z" fill="#7F6358"/>
<path d="M166.38 179.882C166.38 179.882 166.215 180.041 165.83 180.102C165.278 180.161 164.721 180.038 164.246 179.75C163.582 179.316 162.961 178.819 162.393 178.265L160.226 176.368L156.266 172.964C155.691 172.524 155.154 172.037 154.66 171.507C155.291 171.865 155.886 172.283 156.436 172.755C157.498 173.569 158.939 174.735 160.484 176.055C161.254 176.725 161.98 177.374 162.629 177.974C163.171 178.527 163.758 179.035 164.384 179.491C164.807 179.774 165.304 179.927 165.814 179.931C166.177 179.937 166.369 179.849 166.38 179.882Z" fill="#7F6358"/>
<path d="M144.755 176.901C144.675 176.83 144.603 176.751 144.54 176.665L143.99 175.961L141.9 173.327L138.886 169.401L137.115 167.081C136.803 166.7 136.392 166.413 135.927 166.25C135.689 166.168 135.441 166.118 135.19 166.102C134.943 166.102 134.64 166.102 134.398 166.102L123.398 166.058L120.06 166.014H119.152C119.045 166.016 118.938 166.007 118.833 165.986C118.937 165.962 119.045 165.952 119.152 165.959L120.06 165.931L123.398 165.882L134.398 165.843C134.673 165.843 134.948 165.843 135.212 165.843C135.488 165.862 135.76 165.918 136.021 166.008C136.533 166.191 136.985 166.511 137.33 166.932L139.095 169.269L142.06 173.234C142.879 174.333 143.55 175.252 144.04 175.923C144.254 176.22 144.425 176.472 144.59 176.659C144.654 176.733 144.71 176.814 144.755 176.901Z" fill="#263238"/>
<path d="M127.479 167.652C127.581 167.574 127.704 167.527 127.833 167.518C127.961 167.509 128.089 167.538 128.201 167.602C128.313 167.665 128.404 167.76 128.462 167.875C128.52 167.99 128.543 168.12 128.528 168.248C128.513 168.376 128.461 168.496 128.377 168.594C128.294 168.693 128.183 168.764 128.06 168.8C127.936 168.835 127.804 168.834 127.681 168.795C127.559 168.756 127.45 168.682 127.369 168.582C127.267 168.447 127.219 168.279 127.235 168.111C127.252 167.943 127.331 167.787 127.457 167.674" fill="#F5F5F5"/>
<path d="M212.619 98.9066L234.993 112.054L239.107 184.638L244.453 225.703H164.043C164.043 225.703 164.928 175.725 165.203 160.608C165.401 150.012 165.115 129.474 168.701 116.844C170.23 111.46 185.201 104.504 185.201 104.504C193.402 111.746 202.57 109.585 212.619 98.9066Z" fill="#4169E1"/>
<path d="M242.088 207.557C242.088 207.634 224.73 207.7 203.313 207.7C181.896 207.7 164.538 207.634 164.538 207.557C164.538 207.48 181.896 207.414 203.313 207.414C224.73 207.414 242.088 207.475 242.088 207.557Z" fill="white"/>
<g opacity="0.3">
<path d="M164.489 195.207C170.715 200.425 180.389 203.252 188.353 204.863C196.317 206.474 204.452 207.062 212.438 208.525C218.02 209.564 223.878 211.032 229.262 209.218C231.943 208.266 234.294 206.565 236.035 204.316C237.777 202.067 238.835 199.365 239.085 196.532C239.125 196.342 239.124 196.146 239.083 195.956C239.041 195.767 238.959 195.588 238.843 195.432C238.683 195.31 238.499 195.223 238.303 195.176C238.107 195.128 237.903 195.122 237.705 195.157C213.664 196.224 188.205 196.076 164.489 195.19" fill="#0C0C0C"/>
</g>
<path d="M160.231 180.162H216.419L216.694 150.562L242.621 147.219C242.621 147.219 242.737 177.281 242.737 187.14C242.737 198.973 232.507 207.2 223.916 205.935C215.325 204.67 160.231 194.387 160.231 194.387V180.162Z" fill="#FFBE9D"/>
<path d="M244.42 153.367L214.203 156.506V121.061C214.203 121.061 217.173 109.085 227.612 109.585C238.051 110.086 244.2 121.375 244.42 131.729C244.64 142.083 244.42 153.367 244.42 153.367Z" fill="#4169E1"/>
<path d="M171.897 112.687C171.897 112.687 162.212 119.06 159.616 126.093C156.893 133.466 153.071 157.353 153.071 157.353H166.65L171.897 112.687Z" fill="#4169E1"/>
<path d="M213.95 122.469C213.986 122.899 213.986 123.331 213.95 123.761C213.922 124.657 213.884 125.845 213.84 127.286C213.752 130.255 213.658 134.363 213.669 138.899C213.68 143.436 213.801 147.543 213.917 150.513C213.972 151.953 214.016 153.141 214.049 154.037C214.082 154.468 214.082 154.9 214.049 155.33C213.962 154.906 213.911 154.475 213.895 154.043C213.818 153.218 213.724 152.014 213.636 150.529C213.455 147.554 213.295 143.447 213.279 138.899C213.262 134.352 213.4 130.244 213.565 127.269C213.642 125.785 213.724 124.586 213.796 123.756C213.814 123.323 213.865 122.893 213.95 122.469Z" fill="#263238"/>
<path d="M229.163 110.157C229.163 110.234 228.151 109.965 226.512 109.992C224.378 110.014 222.29 110.615 220.471 111.731C218.652 112.846 217.17 114.435 216.183 116.327C215.419 117.773 215.204 118.785 215.133 118.768C215.137 118.525 215.178 118.284 215.254 118.053C215.419 117.416 215.65 116.797 215.941 116.206C216.89 114.221 218.393 112.552 220.268 111.401C222.144 110.25 224.312 109.665 226.512 109.717C227.172 109.729 227.83 109.804 228.476 109.943C228.714 109.978 228.946 110.051 229.163 110.157Z" fill="#263238"/>
<path d="M165.676 129.381C165.702 129.513 165.715 129.648 165.715 129.782C165.715 130.09 165.715 130.47 165.748 130.932C165.748 131.927 165.781 133.368 165.781 135.149C165.781 138.712 165.726 143.634 165.621 149.067C165.517 154.499 165.412 159.366 165.341 162.978C165.308 164.716 165.28 166.146 165.258 167.196C165.258 167.658 165.226 168.037 165.215 168.345C165.222 168.478 165.209 168.612 165.176 168.741C165.147 168.611 165.134 168.478 165.138 168.345C165.138 168.037 165.138 167.658 165.105 167.196C165.105 166.201 165.072 164.76 165.072 162.978C165.072 159.415 165.127 154.494 165.231 149.056C165.335 143.617 165.434 138.756 165.506 135.149C165.544 133.406 165.572 131.982 165.594 130.932C165.594 130.47 165.627 130.09 165.632 129.782C165.628 129.647 165.643 129.512 165.676 129.381Z" fill="#263238"/>
<path d="M165.33 141.253C163.801 141.382 162.265 141.417 160.732 141.357C159.197 141.39 157.661 141.328 156.134 141.17C157.663 141.041 159.199 141.006 160.732 141.066C162.267 141.029 163.803 141.092 165.33 141.253Z" fill="white"/>
<path d="M213.433 133.071C213.433 133.148 202.983 133.214 190.14 133.214C177.298 133.214 166.837 133.148 166.837 133.071C166.837 132.994 177.287 132.928 190.14 132.928C202.994 132.928 213.433 132.977 213.433 133.071Z" fill="white"/>
<path d="M243.765 128.221C243.663 128.233 243.56 128.233 243.457 128.221L242.588 128.149L239.398 127.874C236.698 127.649 232.969 127.401 228.844 127.286C224.719 127.17 220.979 127.22 218.273 127.286L215.066 127.385H214.197C214.095 127.4 213.992 127.4 213.889 127.385C213.988 127.359 214.09 127.344 214.192 127.341L215.061 127.264C215.82 127.203 216.909 127.137 218.267 127.071C220.973 126.945 224.713 126.873 228.849 126.983C232.985 127.093 236.72 127.379 239.415 127.654C240.762 127.792 241.851 127.918 242.599 128.023L243.463 128.144C243.567 128.156 243.668 128.182 243.765 128.221Z" fill="white"/>
<path d="M244.052 149.221C244.052 149.303 237.226 149.221 228.817 149.023C220.407 148.825 213.576 148.61 213.582 148.533C213.587 148.456 220.402 148.533 228.822 148.737C237.243 148.94 244.052 149.144 244.052 149.221Z" fill="white"/>
<path d="M216.601 115.414C216.601 115.496 205.832 115.557 192.55 115.557C179.267 115.557 168.498 115.496 168.498 115.414C168.498 115.331 179.267 115.271 192.55 115.271C205.832 115.271 216.601 115.337 216.601 115.414Z" fill="white"/>
<path d="M213.587 155.368C213.587 155.445 202.785 155.511 189.459 155.511C176.132 155.511 165.33 155.445 165.33 155.368C165.33 155.291 176.132 155.225 189.459 155.225C202.785 155.225 213.587 155.286 213.587 155.368Z" fill="white"/>
<path d="M217.052 173.008C217.052 173.085 205.304 173.151 190.817 173.151C176.33 173.151 164.576 173.085 164.576 173.008C164.576 172.931 176.324 172.865 190.817 172.865C205.309 172.865 217.052 172.926 217.052 173.008Z" fill="white"/>
<path d="M243.612 223.872C243.612 223.949 225.896 224.015 204.05 224.015C182.204 224.015 164.489 223.949 164.489 223.872C164.489 223.795 182.199 223.729 204.05 223.729C225.902 223.729 243.612 223.8 243.612 223.872Z" fill="white"/>
<g opacity="0.3">
<path d="M213.835 156.842C213.483 149.836 213.736 143.282 213.378 136.282C210.992 146.555 209.866 157.08 210.023 167.625C210.062 170.127 210.183 172.673 210.991 175.043C211.8 177.413 214.038 179.442 216.326 180.454L216.546 156.539C215.518 156.616 214.869 156.792 213.835 156.842Z" fill="#0C0C0C"/>
</g>
<path d="M259.094 225.813C259.094 225.89 204.644 225.956 137.506 225.956C70.367 225.956 15.906 225.89 15.906 225.813C15.906 225.736 70.356 225.67 137.506 225.67C204.655 225.67 259.094 225.731 259.094 225.813Z" fill="#263238"/>
<path d="M49.852 199.046C49.852 199.046 35.7332 182.798 30.4053 166.551C25.0773 150.303 27.605 152.168 27.605 152.168C27.605 152.168 34.798 167.951 40.2596 175.575C45.7211 183.199 55.4471 194.381 55.4471 194.381L49.852 199.046Z" fill="#455A64"/>
<path d="M52.6628 154.695C52.5676 154.528 52.4167 154.399 52.2363 154.332C52.056 154.264 51.8577 154.262 51.6759 154.325C51.4941 154.389 51.3403 154.514 51.2414 154.679C51.1425 154.845 51.1046 155.039 51.1344 155.229C51.9948 160.941 53.8545 174.33 53.8064 183.012C53.7156 194.296 53.8064 198.656 53.8064 198.656H59.6848C59.6848 198.656 58.616 175.329 57.3121 168.202C56.3609 163.228 54.3836 157.692 52.6628 154.695Z" fill="#455A64"/>
<path d="M55.8694 196.754C58.3325 191.175 59.962 185.265 60.7057 179.213C61.1866 175.062 60.3263 169.447 59.0437 161.956C58.5457 159.217 58.297 156.438 58.3009 153.653C58.3038 153.343 58.4095 153.043 58.6014 152.8C58.7933 152.556 59.0606 152.384 59.3614 152.308C59.6621 152.233 59.9793 152.26 60.2632 152.384C60.5471 152.509 60.7817 152.724 60.9301 152.996C61.6409 154.262 63.693 158.585 64.2167 161.294C65.6382 168.688 67.2467 172.385 66.0176 179.406C64.7885 186.426 60.2301 197.229 60.2301 197.229L55.8694 196.754Z" fill="#455A64"/>
<path d="M61.1599 197.229C61.1599 197.229 76.6574 163.922 77.7262 158.98C78.795 154.038 82.4556 142.653 82.8832 143.299C83.3107 143.945 83.9519 149.956 81.1677 156.832C78.3835 163.708 66.4451 198.244 66.4451 198.244H61.1599" fill="#455A64"/>
<path d="M54.1698 195.739C54.0164 195.653 53.8714 195.553 53.737 195.439C53.4591 195.231 53.0423 194.937 52.5346 194.526C51.5032 193.714 50.055 192.479 48.3663 190.85C44.011 186.552 40.238 181.703 37.1439 176.424C34.0527 171.143 31.4809 165.575 29.4647 159.798C28.6844 157.586 28.118 155.774 27.7492 154.519C27.5569 153.888 27.4286 153.397 27.3378 153.066C27.2812 152.892 27.2401 152.713 27.2148 152.531C27.2912 152.69 27.3538 152.854 27.4019 153.023C27.5194 153.381 27.6744 153.862 27.8722 154.46C28.2783 155.705 28.8822 157.5 29.6838 159.701C31.7603 165.436 34.352 170.97 37.4272 176.237C40.5206 181.49 44.2583 186.336 48.5533 190.663C50.2153 192.314 51.6314 193.569 52.6361 194.403C53.1331 194.83 53.5392 195.14 53.7958 195.365C53.9304 195.479 54.0555 195.604 54.1698 195.739Z" fill="#263238"/>
<path d="M55.8683 179.758C55.7877 179.438 55.7412 179.11 55.7294 178.78C55.6546 178.091 55.5585 177.178 55.4409 176.109C55.1952 173.854 54.8105 170.766 54.2655 167.331C53.7205 163.895 53.1061 160.845 52.6306 158.633C52.4009 157.564 52.2139 156.683 52.0643 156.004C51.9779 155.686 51.9206 155.36 51.8933 155.032C52.0199 155.336 52.12 155.651 52.1925 155.972C52.3635 156.587 52.5932 157.473 52.8604 158.579C53.3946 160.786 54.0411 163.858 54.5914 167.283C55.1417 170.708 55.489 173.822 55.66 176.088C55.7508 177.215 55.8149 178.134 55.8416 178.759C55.8782 179.091 55.8872 179.425 55.8683 179.758Z" fill="#263238"/>
<path d="M59.4979 152.734C59.5739 152.868 59.6349 153.009 59.6796 153.156L60.1445 154.396C60.3529 154.93 60.5881 155.593 60.8125 156.378C61.037 157.164 61.3469 158.04 61.566 159.05L61.9508 160.615C62.079 161.149 62.1699 161.737 62.2875 162.33C62.544 163.511 62.6989 164.793 62.886 166.139C63.22 169.069 63.345 172.018 63.2601 174.966C63.1344 177.914 62.7987 180.849 62.2554 183.749C61.9722 185.074 61.721 186.346 61.3897 187.489C61.224 188.072 61.0904 188.643 60.9248 189.178L60.4278 190.738C60.1338 191.721 59.7705 192.581 59.4872 193.345C59.204 194.109 58.9528 194.755 58.6803 195.274L58.1459 196.476C58.0896 196.619 58.018 196.755 57.9321 196.882C57.9683 196.733 58.0184 196.588 58.0818 196.449C58.21 196.139 58.3757 195.733 58.5787 195.226C58.7818 194.718 59.0651 194.05 59.3269 193.275C59.5888 192.501 59.9415 191.673 60.2247 190.663C60.3743 190.177 60.5293 189.664 60.695 189.129C60.8606 188.595 60.9835 188.029 61.1385 187.446C61.4591 186.287 61.6729 185.026 61.9722 183.707C62.4931 180.82 62.818 177.901 62.9448 174.971C63.029 172.041 62.9147 169.108 62.6028 166.193C62.4211 164.852 62.2768 163.575 62.0363 162.394C61.9241 161.806 61.8386 161.229 61.7157 160.684C61.5928 160.139 61.4698 159.616 61.3523 159.119C61.1439 158.12 60.8606 157.238 60.6522 156.448C60.4438 155.657 60.2247 154.994 60.0377 154.449L59.6369 153.194C59.5755 153.046 59.5289 152.892 59.4979 152.734Z" fill="#263238"/>
<path d="M82.7174 143.967C82.7233 144.017 82.7233 144.067 82.7174 144.116C82.7174 144.234 82.6747 144.373 82.648 144.549C82.5785 144.929 82.493 145.49 82.3434 146.205C82.0441 147.637 81.5418 149.7 80.7402 152.2C79.9386 154.701 78.9125 157.639 77.6567 160.861C76.4009 164.082 74.9526 167.598 73.5739 171.338C72.1952 175.078 71.0996 178.716 70.0896 182.024C69.0796 185.331 68.1337 188.301 67.2146 190.754C66.5111 192.698 65.6993 194.601 64.7831 196.454C64.4678 197.112 64.1792 197.603 63.9975 197.945L63.7784 198.324C63.7303 198.41 63.7036 198.453 63.6982 198.447C63.7082 198.398 63.7263 198.351 63.7517 198.308L63.9387 197.913C64.1044 197.566 64.3716 197.063 64.6708 196.396C65.2907 195.076 66.1351 193.137 67.0115 190.674C67.8879 188.211 68.8285 185.251 69.8117 181.938C70.795 178.626 71.8799 174.992 73.28 171.252C74.6801 167.513 76.123 163.992 77.3895 160.775C78.656 157.559 79.7355 154.647 80.5371 152.157C81.3387 149.668 81.8677 147.627 82.2044 146.205C82.3754 145.495 82.4823 144.939 82.5731 144.56C82.6106 144.389 82.648 144.25 82.6747 144.138C82.6784 144.079 82.6929 144.021 82.7174 143.967Z" fill="#263238"/>
<path d="M34.9155 136.61C34.703 136.403 34.4273 136.273 34.1322 136.24C33.8372 136.208 33.5398 136.275 33.2874 136.431C33.0349 136.587 32.8418 136.823 32.7389 137.101C32.6359 137.379 32.629 137.684 32.7192 137.967C33.2485 139.681 33.8985 141.356 34.6644 142.978C36.802 147.504 43.0544 163.751 45.9883 172.674C48.9221 181.596 53.0263 198.244 53.0263 198.244L59.2841 197.229C59.2841 197.229 53.5607 169.901 47.9869 160.022C43.4926 152.104 38.993 140.66 34.9155 136.61Z" fill="#455A64"/>
<path d="M47.6824 178.257C47.8198 178.493 47.9292 178.744 48.0084 179.005C48.1901 179.496 48.4466 180.212 48.7298 181.105C49.3069 182.889 50.0123 185.379 50.7177 188.152C51.4232 190.925 52.0217 193.446 52.4332 195.274C52.6202 196.134 52.7752 196.877 52.9034 197.438C52.9727 197.702 53.0157 197.972 53.0317 198.244C52.92 197.995 52.8341 197.736 52.7752 197.47C52.6255 196.898 52.4332 196.182 52.2034 195.332C51.7224 193.452 51.0972 190.978 50.3971 188.243C49.6971 185.507 49.0237 182.975 48.5053 181.179C48.2595 180.33 48.0511 179.619 47.8854 179.042C47.7918 178.788 47.7238 178.525 47.6824 178.257Z" fill="#263238"/>
<path d="M56.1899 197.737C56.1722 197.683 56.1614 197.627 56.1578 197.571C56.1578 197.438 56.1151 197.277 56.083 197.08C56.0189 196.647 55.9601 196.011 55.8265 195.183C55.5967 193.537 55.1906 191.17 54.5172 188.28C53.7159 184.901 52.7384 181.566 51.5887 178.289C50.3008 174.581 48.6923 170.574 46.87 166.428C43.188 158.152 39.5113 150.806 37.0905 145.377C35.8721 142.663 34.9529 140.457 34.301 138.913C33.9857 138.143 33.7666 137.54 33.6009 137.133C33.5261 136.946 33.4727 136.792 33.4246 136.669C33.4007 136.616 33.3845 136.56 33.3765 136.503C33.409 136.55 33.4359 136.6 33.4566 136.653L33.6597 137.107C33.8467 137.534 34.0979 138.122 34.4239 138.865C35.0812 140.387 36.0591 142.604 37.3043 145.276C39.7732 150.667 43.4873 158.002 47.1746 166.294C48.9969 170.446 50.6054 174.464 51.8773 178.187C53.0182 181.48 53.9763 184.833 54.747 188.232C55.2667 190.525 55.6698 192.843 55.9547 195.178C56.067 196 56.1044 196.647 56.1525 197.08L56.1899 197.576C56.1961 197.63 56.1961 197.683 56.1899 197.737Z" fill="#263238"/>
<path d="M59.3056 197.229C59.2061 196.879 59.1346 196.522 59.0918 196.161C58.9689 195.429 58.8032 194.456 58.6055 193.286C58.178 190.861 57.5367 187.521 56.5694 183.888C55.6022 180.255 54.5761 177.033 53.7639 174.709C53.3684 173.587 53.0371 172.663 52.7859 171.963C52.6481 171.632 52.5373 171.291 52.4546 170.943C52.6329 171.253 52.7849 171.579 52.9088 171.915C53.176 172.551 53.5554 173.475 53.9776 174.629C55.1088 177.64 56.0792 180.71 56.8847 183.824C57.6938 186.936 58.3448 190.087 58.8353 193.265C59.0116 194.483 59.1452 195.471 59.2147 196.161C59.2718 196.514 59.3022 196.871 59.3056 197.229Z" fill="#263238"/>
<path d="M72.1524 196.332H47.7251V226.086H72.1524V196.332Z" fill="#4169E1"/>
<g opacity="0.3">
<path d="M72.1524 196.332H47.7251V226.086H72.1524V196.332Z" fill="#0C0C0C"/>
</g>
<path d="M64.3556 196.332H42.6858V226.086H64.3556V196.332Z" fill="#4169E1"/>
<path d="M148.926 100.471H107.381L99.4457 112.225L91.7023 100.471H50.8957C50.2753 100.471 49.661 100.349 49.0879 100.111C48.5147 99.8741 47.994 99.5262 47.5553 99.0876C47.1166 98.649 46.7686 98.1284 46.5312 97.5553C46.2938 96.9823 46.1716 96.3681 46.1716 95.7479V14.8527C46.1709 14.232 46.2926 13.6173 46.5297 13.0437C46.7668 12.47 47.1147 11.9487 47.5534 11.5096C47.9921 11.0705 48.5131 10.7221 49.0866 10.4844C49.6601 10.2467 50.2749 10.1244 50.8957 10.1244H148.926C149.546 10.1244 150.161 10.2467 150.735 10.4844C151.308 10.7221 151.829 11.0705 152.268 11.5096C152.707 11.9487 153.054 12.47 153.292 13.0437C153.529 13.6173 153.65 14.232 153.65 14.8527V95.7693C153.644 97.0182 153.144 98.214 152.258 99.0952C151.373 99.9763 150.175 100.471 148.926 100.471Z" fill="#FAFAFA"/>
<path d="M148.925 100.471H149.182C149.439 100.454 149.695 100.417 149.946 100.359C150.803 100.165 151.589 99.7353 152.213 99.1175C152.837 98.4998 153.276 97.7192 153.479 96.8645C153.528 96.662 153.565 96.4569 153.591 96.2501C153.591 96.0364 153.617 95.8173 153.591 95.5929C153.591 95.1442 153.591 94.674 153.591 94.1878C153.591 92.2359 153.591 89.9937 153.591 87.4612C153.591 77.3099 153.564 62.6814 153.548 44.5853C153.548 35.5293 153.548 25.6184 153.548 14.9756C153.571 13.9789 153.271 13.0016 152.693 12.189C152.115 11.3765 151.291 10.7722 150.342 10.4663C149.696 10.2702 149.021 10.1941 148.348 10.2419H122.483H84.9207H51.0506C50.8315 10.2419 50.6285 10.2419 50.42 10.2419C50.213 10.2663 50.0078 10.3038 49.8055 10.3541C48.9883 10.5506 48.2416 10.9697 47.6483 11.5648C47.0549 12.1599 46.6381 12.9078 46.4441 13.7254C46.3076 14.4813 46.2628 15.2508 46.3105 16.0174V50.2113C46.3105 62.0456 46.3105 73.5112 46.3105 84.5013V94.6526C46.2795 95.3092 46.3081 95.9673 46.396 96.6188C46.5199 97.2482 46.774 97.8447 47.1422 98.3701C47.5103 98.8955 47.9843 99.3381 48.5336 99.6695C49.0796 99.9998 49.6901 100.209 50.3238 100.284C50.9491 100.348 51.6171 100.311 52.2584 100.321H63.6998H91.7022H91.761L91.7931 100.369L99.5258 112.124H99.3655L107.312 100.369L138.034 100.471L107.408 100.508L107.478 100.471C105.019 104.133 102.378 108.059 99.5525 112.252L99.4723 112.375L99.3922 112.252L91.6434 100.498L91.7289 100.546H63.7265H52.2744C51.6224 100.546 50.9865 100.572 50.3132 100.508C49.3077 100.393 48.3632 99.9677 47.6113 99.2906C46.8593 98.6135 46.3373 97.7187 46.1181 96.731C46.0226 96.0641 45.9904 95.3897 46.022 94.7167V84.5654C46.022 73.5753 46.022 62.1257 46.022 50.2754V14.8955C46.0094 13.7987 46.3694 12.7301 47.0431 11.8645C47.7168 10.9988 48.6643 10.3872 49.7307 10.1297C49.9454 10.0772 50.1631 10.0379 50.3826 10.0122C50.6017 10.0122 50.8262 10.0122 51.0399 10.0122H148.354C149.052 9.96688 149.753 10.0483 150.422 10.2526C151.086 10.4771 151.695 10.8415 152.207 11.3211C152.716 11.7889 153.119 12.3611 153.388 12.9988C153.648 13.6341 153.777 14.3157 153.767 15.0023C153.767 25.6452 153.767 35.556 153.767 44.6121C153.767 62.7081 153.735 77.358 153.724 87.4879C153.724 90.0204 153.724 92.2626 153.724 94.2145C153.724 94.7007 153.724 95.1709 153.724 95.6197C153.724 95.8441 153.724 96.0685 153.698 96.2822C153.675 96.4929 153.637 96.7017 153.585 96.9073C153.376 97.7709 152.928 98.5581 152.291 99.1789C151.655 99.7997 150.857 100.229 149.989 100.417C149.737 100.47 149.482 100.501 149.225 100.508L148.925 100.471Z" fill="#263238"/>
<path d="M73.5595 71.0001H66.7512C65.1339 71.0001 63.8228 72.3109 63.8228 73.9279V85.5912C63.8228 87.2083 65.1339 88.5191 66.7512 88.5191H73.5595C75.1768 88.5191 76.488 87.2083 76.488 85.5912V73.9279C76.488 72.3109 75.1768 71.0001 73.5595 71.0001Z" fill="#EBEBEB"/>
<path d="M72.5603 81.3873C72.5603 82.5121 71.687 83.2466 70.5053 83.2466C68.8819 83.2466 68.0239 82.0807 68.0239 80.1648C68.0239 78.0794 69.1388 77.0008 70.7673 77.0008C71.255 76.9788 71.7396 77.0889 72.1699 77.3192L71.9849 77.6788C71.6127 77.4746 71.1915 77.3769 70.7673 77.3963C69.3854 77.3963 68.476 78.3054 68.476 80.098C68.4759 80.3455 68.493 80.5926 68.5274 80.8377C68.6719 80.4405 68.9425 80.1015 69.2978 79.8724C69.6531 79.6433 70.0735 79.5368 70.4951 79.569C71.7281 79.569 72.5603 80.2881 72.5603 81.3873ZM72.1082 81.3873C72.1082 80.5089 71.4763 79.9337 70.4334 79.9337C70.2228 79.9102 70.0095 79.9304 69.807 79.9931C69.6045 80.0558 69.4172 80.1595 69.2566 80.2979C69.096 80.4362 68.9657 80.6062 68.8739 80.7972C68.782 80.9882 68.7305 81.196 68.7226 81.4078C68.7226 82.132 69.3288 82.8511 70.4848 82.8511C70.69 82.8736 70.8977 82.8524 71.0941 82.7889C71.2906 82.7255 71.4714 82.6212 71.6247 82.483C71.778 82.3448 71.9003 82.1757 71.9837 81.9868C72.067 81.798 72.1095 81.5937 72.1082 81.3873Z" fill="#4169E1"/>
<path d="M103.448 71.0001H96.982C95.3646 71.0001 94.0535 72.3109 94.0535 73.9279V85.5912C94.0535 87.2083 95.3646 88.5191 96.982 88.5191H103.448C105.066 88.5191 106.377 87.2083 106.377 85.5912V73.9279C106.377 72.3109 105.066 71.0001 103.448 71.0001Z" fill="#EBEBEB"/>
<path d="M88.6347 71.0001H82.1685C80.5511 71.0001 79.24 72.3109 79.24 73.9279V85.5912C79.24 87.2083 80.5511 88.5191 82.1685 88.5191H88.6347C90.2521 88.5191 91.5632 87.2083 91.5632 85.5912V73.9279C91.5632 72.3109 90.2521 71.0001 88.6347 71.0001Z" fill="#EBEBEB"/>
<path d="M88.283 81.4564H86.9884V83.1668H86.5465V81.4564H83.0273V81.1328L86.377 76.998H86.8907L83.6027 81.0609H86.5671V79.556H86.9986V81.0609H88.2933L88.283 81.4564Z" fill="#4169E1"/>
<path d="M118.54 71.0001H111.726C110.109 71.0001 108.798 72.3109 108.798 73.9279V85.5912C108.798 87.2083 110.109 88.5191 111.726 88.5191H118.54C120.157 88.5191 121.468 87.2083 121.468 85.5912V73.9279C121.468 72.3109 120.157 71.0001 118.54 71.0001Z" fill="#EBEBEB"/>
<path d="M133.07 71.0001H126.256C124.639 71.0001 123.328 72.3109 123.328 73.9279V85.5912C123.328 87.2083 124.639 88.5191 126.256 88.5191H133.07C134.687 88.5191 135.998 87.2083 135.998 85.5912V73.9279C135.998 72.3109 134.687 71.0001 133.07 71.0001Z" fill="#EBEBEB"/>
<path d="M103.052 83.9778C101.887 84.1184 100.713 84.1649 99.541 84.1167C98.3689 84.1649 97.1947 84.1184 96.03 83.9778C97.195 83.8403 98.3689 83.7939 99.541 83.8389C100.713 83.7939 101.887 83.8403 103.052 83.9778Z" fill="#4169E1"/>
<path d="M100.175 53.3061C107.993 53.3061 114.331 46.9696 114.331 39.1531C114.331 31.3365 107.993 25 100.175 25C92.357 25 86.019 31.3365 86.019 39.1531C86.019 46.9696 92.357 53.3061 100.175 53.3061Z" fill="#4169E1"/>
<path d="M100.022 46.1667C99.8622 46.1667 99.7022 46.1467 99.5488 46.1001C96.088 45.1467 93.5808 41.9134 93.5808 38.4067V35.48C93.5808 34.7334 94.1209 33.9267 94.8144 33.6401L98.5286 32.12C99.4955 31.7267 100.556 31.7267 101.516 32.12L105.23 33.6401C105.924 33.9267 106.464 34.7334 106.464 35.48V38.4067C106.464 41.9067 103.95 45.1401 100.496 46.1001C100.342 46.1467 100.182 46.1667 100.022 46.1667ZM100.022 32.8334C99.6422 32.8334 99.2687 32.9067 98.9086 33.0534L95.1945 34.5734C94.8744 34.7067 94.581 35.14 94.581 35.4867V38.4134C94.581 41.4734 96.7815 44.3001 99.8155 45.1401C99.9489 45.1801 100.096 45.1801 100.229 45.1401C103.263 44.3001 105.463 41.4734 105.463 38.4134V35.4867C105.463 35.14 105.17 34.7067 104.85 34.5734L101.136 33.0534C100.776 32.9067 100.402 32.8334 100.022 32.8334Z" fill="white"/>
<path d="M144.149 22.5194C146.563 22.5194 148.52 20.5627 148.52 18.149C148.52 15.7353 146.563 13.7786 144.149 13.7786C141.734 13.7786 139.777 15.7353 139.777 18.149C139.777 20.5627 141.734 22.5194 144.149 22.5194Z" fill="#EDEDED"/>
<path d="M142.742 19.704C142.724 19.7037 142.706 19.6998 142.69 19.6925C142.673 19.6851 142.658 19.6745 142.646 19.6612C142.633 19.6492 142.623 19.6348 142.616 19.6187C142.609 19.6026 142.606 19.5853 142.606 19.5677C142.606 19.5502 142.609 19.5329 142.616 19.5168C142.623 19.5007 142.633 19.4862 142.646 19.4742L145.478 16.6426C145.49 16.6298 145.504 16.6196 145.52 16.6126C145.537 16.6057 145.554 16.6021 145.571 16.6021C145.589 16.6021 145.606 16.6057 145.622 16.6126C145.638 16.6196 145.653 16.6298 145.665 16.6426C145.678 16.655 145.688 16.67 145.695 16.6865C145.702 16.703 145.706 16.7208 145.706 16.7387C145.706 16.7567 145.702 16.7745 145.695 16.791C145.688 16.8075 145.678 16.8224 145.665 16.8349L142.833 19.6612C142.81 19.6868 142.777 19.7021 142.742 19.704Z" fill="#909090"/>
<path d="M145.569 19.704C145.534 19.7021 145.502 19.6868 145.478 19.6612L142.646 16.8349C142.633 16.8224 142.623 16.8075 142.616 16.791C142.609 16.7745 142.605 16.7567 142.605 16.7387C142.605 16.7208 142.609 16.703 142.616 16.6865C142.623 16.67 142.633 16.655 142.646 16.6426C142.658 16.6298 142.673 16.6196 142.689 16.6126C142.705 16.6057 142.722 16.6021 142.74 16.6021C142.757 16.6021 142.775 16.6057 142.791 16.6126C142.807 16.6196 142.821 16.6298 142.833 16.6426L145.665 19.4742C145.678 19.4862 145.688 19.5007 145.695 19.5168C145.702 19.5329 145.706 19.5502 145.706 19.5677C145.706 19.5853 145.702 19.6026 145.695 19.6187C145.688 19.6348 145.678 19.6492 145.665 19.6612C145.653 19.6745 145.638 19.6851 145.621 19.6925C145.605 19.6998 145.587 19.7037 145.569 19.704Z" fill="#909090"/>
<path d="M99.7896 40.8889C99.6896 40.8889 99.5945 40.8455 99.5245 40.7695L98.1088 39.234C97.9637 39.0767 97.9637 38.8163 98.1088 38.6589C98.2539 38.5016 98.494 38.5016 98.6391 38.6589L99.7896 39.9068L102.361 37.118C102.506 36.9607 102.746 36.9607 102.891 37.118C103.036 37.2754 103.036 37.5358 102.891 37.6931L100.055 40.7695C99.9847 40.8455 99.8897 40.8889 99.7896 40.8889Z" fill="white"/>
<path d="M84.8527 62.2521V62.9283H82.0271V59.3058H84.7802V59.982H82.8663V60.7488H84.5568V61.4069H82.8663V62.2521H84.8527Z" fill="#263238"/>
<path d="M88.8747 59.2817V62.9042H88.1803L86.3691 60.6884V62.9042H85.5359V59.2817H86.206L88.0173 61.4975V59.2817H88.8747Z" fill="#263238"/>
<path d="M90.4994 59.97H89.3281V59.2817H92.5099V59.97H91.3386V62.9284H90.4994V59.97Z" fill="#263238"/>
<path d="M95.7889 62.2521V62.9283H92.9634V59.3058H95.7225V59.982H93.8026V60.7488H95.4992V61.4069H93.8026V62.2521H95.7889Z" fill="#263238"/>
<path d="M98.7906 62.9283L98.0842 61.914H97.3114V62.9283H96.4722V59.3058H98.054C99.026 59.3058 99.6358 59.8069 99.6358 60.628C99.6432 60.8736 99.5754 61.1155 99.4417 61.3216C99.3079 61.5276 99.1145 61.688 98.8872 61.7812L99.7023 62.9525L98.7906 62.9283ZM97.9997 59.97H97.3114V61.2378H97.9997C98.5129 61.2378 98.7725 61.0024 98.7725 60.6039C98.7725 60.2054 98.5129 59.97 97.9997 59.97Z" fill="#263238"/>
<path d="M101.545 61.105C101.569 60.7115 101.708 60.3337 101.944 60.0185C102.181 59.7033 102.505 59.4646 102.876 59.3321C103.247 59.1995 103.649 59.179 104.032 59.2731C104.415 59.3672 104.761 59.5717 105.029 59.8612L104.485 60.3623C104.373 60.2287 104.232 60.1211 104.074 60.0471C103.915 59.9731 103.743 59.9344 103.568 59.9337C103.272 59.9549 102.996 60.0872 102.794 60.304C102.593 60.5207 102.48 60.8058 102.48 61.1019C102.48 61.398 102.593 61.6831 102.794 61.8999C102.996 62.1166 103.272 62.249 103.568 62.2702C103.743 62.2729 103.917 62.2357 104.076 62.1614C104.235 62.0872 104.375 61.9778 104.485 61.8415L105.029 62.3427C104.763 62.6347 104.417 62.8417 104.034 62.9377C103.651 63.0337 103.248 63.0144 102.875 62.8821C102.503 62.7499 102.178 62.5107 101.942 62.1945C101.705 61.8783 101.567 61.4993 101.545 61.105Z" fill="#263238"/>
<path d="M105.295 61.1052C105.273 60.7057 105.372 60.309 105.578 59.9662C105.785 59.6235 106.089 59.3505 106.452 59.1826C106.815 59.0147 107.22 58.9596 107.615 59.0245C108.01 59.0894 108.376 59.2713 108.666 59.5465C108.956 59.8218 109.157 60.1778 109.243 60.5686C109.328 60.9593 109.295 61.3668 109.146 61.7382C108.998 62.1096 108.741 62.428 108.41 62.652C108.079 62.8761 107.688 62.9955 107.288 62.9949C107.031 63.0098 106.774 62.9718 106.532 62.8834C106.29 62.7951 106.069 62.6581 105.883 62.481C105.696 62.304 105.547 62.0906 105.446 61.8539C105.345 61.6173 105.294 61.3624 105.295 61.1052ZM108.429 61.1052C108.424 60.8806 108.353 60.6624 108.225 60.4779C108.097 60.2935 107.917 60.151 107.708 60.0683C107.499 59.9856 107.27 59.9664 107.051 60.0132C106.831 60.0599 106.63 60.1704 106.473 60.3309C106.315 60.4914 106.209 60.6948 106.167 60.9154C106.125 61.1361 106.149 61.3643 106.236 61.5714C106.323 61.7785 106.469 61.9553 106.656 62.0796C106.843 62.204 107.063 62.2703 107.288 62.2704C107.44 62.2738 107.592 62.2459 107.734 62.1882C107.876 62.1306 108.004 62.0445 108.111 61.9352C108.218 61.826 108.301 61.696 108.356 61.5532C108.411 61.4104 108.435 61.2579 108.429 61.1052Z" fill="#263238"/>
<path d="M109.927 59.2817H111.569C112.049 59.2817 112.51 59.4725 112.85 59.8122C113.189 60.1519 113.38 60.6126 113.38 61.093C113.38 61.5733 113.189 62.034 112.85 62.3737C112.51 62.7134 112.049 62.9042 111.569 62.9042H109.915L109.927 59.2817ZM111.539 62.2341C111.838 62.2341 112.125 62.1151 112.337 61.9034C112.549 61.6917 112.668 61.4045 112.668 61.105C112.668 60.8056 112.549 60.5184 112.337 60.3067C112.125 60.095 111.838 59.976 111.539 59.976H110.772V62.2341H111.539Z" fill="#263238"/>
<path d="M117.058 62.2521V62.9283H114.232V59.3058H117.004V59.982H115.072V60.7488H116.768V61.4069H115.072V62.2521H117.058Z" fill="#263238"/>
</g>
<defs>
<clipPath id="clip0_2541_21870">
<rect width="275" height="226" fill="white"/>
</clipPath>
</defs>
</svg>
