<svg width="176" height="143" viewBox="0 0 176 143" fill="none" xmlns="http://www.w3.org/2000/svg">
<path d="M37.2522 142.307L64.2041 142.37L64.2654 115.879L37.3135 115.817L37.2522 142.307Z" fill="#EDEDED"/>
<path d="M37.6341 95.127L64.5859 95.1894L64.6472 68.6986L37.6954 68.6363L37.6341 95.127Z" fill="#EDEDED"/>
<path d="M10.0156 119.625L34.9668 109.435L24.9508 84.9103L-0.00039707 95.1006L10.0156 119.625Z" fill="#EDEDED"/>
<path d="M150.349 143L175.313 132.841L165.328 108.304L140.364 118.463L150.349 143Z" fill="#EDEDED"/>
<path d="M100.684 36.0647L124.457 23.3665L111.976 1.97564e-05L88.2029 12.6982L100.684 36.0647Z" fill="#EDEDED"/>
<path d="M107.943 142.329L134.895 142.391L134.956 115.9L108.004 115.838L107.943 142.329Z" fill="#EDEDED"/>
<path d="M108.021 108.471L134.973 108.534L135.034 82.043L108.082 81.9806L108.021 108.471Z" fill="#EDEDED"/>
<path d="M72.8099 142.247L99.7617 142.31L99.823 115.819L72.8712 115.757L72.8099 142.247Z" fill="#EDEDED"/>
<path d="M72.888 108.39L99.8398 108.452L99.9011 81.9615L72.9493 81.8991L72.888 108.39Z" fill="#EDEDED"/>
<path d="M102.843 63.6463L124.174 80.1201L140.366 59.1539L119.035 42.68L102.843 63.6463Z" fill="#EDEDED"/>
<path d="M72.9671 74.5326L99.9189 74.595L99.9802 48.1042L73.0284 48.0418L72.9671 74.5326Z" fill="#EDEDED"/>
</svg>
