<svg width="24" height="25" viewBox="0 0 24 25" fill="none" xmlns="http://www.w3.org/2000/svg">
<path d="M19.24 6.08006H18.84L15.46 2.70006C15.19 2.43006 14.75 2.43006 14.47 2.70006C14.2 2.97006 14.2 3.41006 14.47 3.69006L16.86 6.08006H7.14L9.53 3.69006C9.8 3.42006 9.8 2.98006 9.53 2.70006C9.26 2.43006 8.82 2.43006 8.54 2.70006L5.17 6.08006H4.77C3.87 6.08006 2 6.08006 2 8.64006C2 9.61006 2.2 10.2501 2.62 10.6701C2.86 10.9201 3.15 11.0501 3.46 11.1201C3.75 11.1901 4.06 11.2001 4.36 11.2001H19.64C19.95 11.2001 20.24 11.1801 20.52 11.1201C21.36 10.9201 22 10.3201 22 8.64006C22 6.08006 20.13 6.08006 19.24 6.08006Z" fill="#4570B5"/>
<path d="M19.0497 12.5H4.86967C4.24967 12.5 3.77967 13.05 3.87967 13.66L4.71967 18.8C4.99967 20.52 5.74967 22.5 9.07967 22.5H14.6897C18.0597 22.5 18.6597 20.81 19.0197 18.92L20.0297 13.69C20.1497 13.07 19.6797 12.5 19.0497 12.5ZM10.6097 18.95C10.6097 19.34 10.2997 19.65 9.91967 19.65C9.52967 19.65 9.21967 19.34 9.21967 18.95V15.65C9.21967 15.27 9.52967 14.95 9.91967 14.95C10.2997 14.95 10.6097 15.27 10.6097 15.65V18.95ZM14.8897 18.95C14.8897 19.34 14.5797 19.65 14.1897 19.65C13.8097 19.65 13.4897 19.34 13.4897 18.95V15.65C13.4897 15.27 13.8097 14.95 14.1897 14.95C14.5797 14.95 14.8897 15.27 14.8897 15.65V18.95Z" fill="#4570B5"/>
</svg>
