<svg width="24" height="25" viewBox="0 0 24 25" fill="none" xmlns="http://www.w3.org/2000/svg">
<path d="M20.8904 13.5V14.5H20.0204C19.2804 14.5 18.6804 15.1 18.6804 15.85V16.15C18.6804 16.9 18.0804 17.5 17.3304 17.5C16.5904 17.5 15.9904 16.9 15.9904 16.15V15.85C15.9904 15.1 15.3804 14.5 14.6404 14.5C13.9004 14.5 13.3004 15.1 13.3004 15.85V16.15C13.3004 16.9 12.6904 17.5 11.9504 17.5C11.2104 17.5 10.6004 16.9 10.6004 16.15V15.85C10.6004 15.1 10.0004 14.5 9.26035 14.5C8.52035 14.5 7.91035 15.1 7.91035 15.85V16.15C7.91035 16.9 7.31035 17.5 6.57035 17.5C5.82035 17.5 5.22035 16.9 5.22035 16.15V15.83C5.22035 15.09 4.63035 14.49 3.90035 14.48H3.11035V13.5C3.11035 12.12 4.15035 10.95 5.56035 10.61C5.84035 10.54 6.13035 10.5 6.44035 10.5H17.5604C17.8704 10.5 18.1604 10.54 18.4404 10.61C19.8504 10.95 20.8904 12.12 20.8904 13.5Z" fill="#F2832A"/>
<path d="M18.4396 7.67V9.08C18.1496 9.02 17.8596 9 17.5596 9H6.43957C6.13957 9 5.84957 9.03 5.55957 9.09V7.67C5.55957 6.47 6.63957 5.5 7.97957 5.5H16.0196C17.3596 5.5 18.4396 6.47 18.4396 7.67Z" fill="#F2832A"/>
<path d="M8.75 4.05002V5.51002H7.98C7.72 5.51002 7.48 5.54002 7.25 5.60002V4.05002C7.25 3.70002 7.59 3.40002 8 3.40002C8.41 3.40002 8.75 3.70002 8.75 4.05002Z" fill="#F2832A"/>
<path d="M16.75 3.82996V5.59996C16.52 5.52996 16.28 5.49996 16.02 5.49996H15.25V3.82996C15.25 3.41996 15.59 3.07996 16 3.07996C16.41 3.07996 16.75 3.41996 16.75 3.82996Z" fill="#F2832A"/>
<path d="M12.75 3.32V5.5H11.25V3.32C11.25 2.87 11.59 2.5 12 2.5C12.41 2.5 12.75 2.87 12.75 3.32Z" fill="#F2832A"/>
<path d="M22 21.75C22 22.16 21.66 22.5 21.25 22.5H2.75C2.34 22.5 2 22.16 2 21.75C2 21.34 2.34 21 2.75 21H3.11V15.98H3.72V16.05C3.72 17.39 4.6 18.63 5.91 18.92C6.93 19.16 7.9 18.83 8.56 18.18C8.94 17.8 9.56 17.79 9.94 18.17C10.46 18.68 11.17 19 11.95 19C12.73 19 13.44 18.69 13.96 18.17C14.34 17.8 14.95 17.8 15.34 18.18C15.99 18.83 16.96 19.16 17.99 18.92C19.3 18.63 20.18 17.39 20.18 16.05V16H20.89V21H21.25C21.66 21 22 21.34 22 21.75Z" fill="#F2832A"/>
</svg>
