<svg width="24" height="25" viewBox="0 0 24 25" fill="none" xmlns="http://www.w3.org/2000/svg">
<path d="M21.75 8.49996C21.75 8.90996 21.41 9.24996 21 9.24996H3C2.59 9.24996 2.25 8.90996 2.25 8.49996C2.25 8.08996 2.59 7.74996 3 7.74996H4.02L4.4 5.93996C4.76 4.18996 5.51 2.57996 8.49 2.57996H15.51C18.49 2.57996 19.24 4.18996 19.6 5.93996L19.98 7.74996H21C21.41 7.74996 21.75 8.08996 21.75 8.49996Z" fill="#F1DD1E"/>
<path d="M22.1796 14.16C22.0296 12.51 21.5896 10.75 18.3796 10.75H5.6196C2.4096 10.75 1.9796 12.51 1.8196 14.16L1.2596 20.25C1.1896 21.01 1.4396 21.77 1.9596 22.34C2.4896 22.92 3.2396 23.25 4.0396 23.25H5.9196C7.5396 23.25 7.8496 22.32 8.0496 21.71L8.2496 21.11C8.4796 20.42 8.5396 20.25 9.4396 20.25H14.5596C15.4596 20.25 15.4896 20.35 15.7496 21.11L15.9496 21.71C16.1496 22.32 16.4596 23.25 18.0796 23.25H19.9596C20.7496 23.25 21.5096 22.92 22.0396 22.34C22.5596 21.77 22.8096 21.01 22.7396 20.25L22.1796 14.16ZM8.9996 16.25H5.9996C5.5896 16.25 5.2496 15.91 5.2496 15.5C5.2496 15.09 5.5896 14.75 5.9996 14.75H8.9996C9.4096 14.75 9.7496 15.09 9.7496 15.5C9.7496 15.91 9.4096 16.25 8.9996 16.25ZM17.9996 16.25H14.9996C14.5896 16.25 14.2496 15.91 14.2496 15.5C14.2496 15.09 14.5896 14.75 14.9996 14.75H17.9996C18.4096 14.75 18.7496 15.09 18.7496 15.5C18.7496 15.91 18.4096 16.25 17.9996 16.25Z" fill="#F1DD1E"/>
</svg>
