<svg width="24" height="25" viewBox="0 0 24 25" fill="none" xmlns="http://www.w3.org/2000/svg">
<path d="M13.1797 12.36C12.7797 12.36 12.4197 12.14 12.2497 11.78L10.7997 8.88997L10.3797 9.66997C10.1497 10.1 9.68973 10.37 9.19973 10.37H8.46973C8.05973 10.37 7.71973 10.03 7.71973 9.61997C7.71973 9.20997 8.05973 8.86997 8.46973 8.86997H9.10973L9.89973 7.40997C10.0897 7.06997 10.4697 6.83997 10.8297 6.85997C11.2197 6.85997 11.5697 7.08997 11.7497 7.42997L13.1797 10.29L13.5197 9.59997C13.7497 9.13997 14.1997 8.85997 14.7197 8.85997H15.5297C15.9397 8.85997 16.2797 9.19997 16.2797 9.60997C16.2797 10.02 15.9397 10.36 15.5297 10.36H14.8197L14.1097 11.77C13.9297 12.14 13.5797 12.36 13.1797 12.36Z" fill="#9E5CA4"/>
<path d="M2.74982 19.15C2.33982 19.15 1.99982 18.81 1.99982 18.4V12.7C1.94982 9.99005 2.95982 7.43005 4.83982 5.51005C6.71982 3.60005 9.23982 2.55005 11.9498 2.55005C17.4898 2.55005 21.9998 7.06005 21.9998 12.6V18.3C21.9998 18.71 21.6598 19.05 21.2498 19.05C20.8398 19.05 20.4998 18.71 20.4998 18.3V12.6C20.4998 7.89005 16.6698 4.05005 11.9498 4.05005C9.63982 4.05005 7.49982 4.94005 5.90982 6.56005C4.30982 8.19005 3.45982 10.36 3.49982 12.68V18.39C3.49982 18.81 3.16982 19.15 2.74982 19.15Z" fill="#9E5CA4"/>
<path d="M5.94 12.95H5.81C3.71 12.95 2 14.66 2 16.76V18.64C2 20.74 3.71 22.45 5.81 22.45H5.94C8.04 22.45 9.75 20.74 9.75 18.64V16.76C9.75 14.66 8.04 12.95 5.94 12.95Z" fill="#9E5CA4"/>
<path d="M18.19 12.95H18.06C15.96 12.95 14.25 14.66 14.25 16.76V18.64C14.25 20.74 15.96 22.45 18.06 22.45H18.19C20.29 22.45 22 20.74 22 18.64V16.76C22 14.66 20.29 12.95 18.19 12.95Z" fill="#9E5CA4"/>
</svg>
