<svg width="20" height="20" viewBox="0 0 20 20" fill="none" xmlns="http://www.w3.org/2000/svg">
<path d="M6.66536 10.625H13.332C13.6737 10.625 13.957 10.3417 13.957 10C13.957 9.65833 13.6737 9.375 13.332 9.375H6.66536C6.3237 9.375 6.04036 9.65833 6.04036 10C6.04036 10.3417 6.3237 10.625 6.66536 10.625Z" fill="#4169E1"/>
<path d="M10 13.4583C10.0301 13.4583 10.0614 13.446 10.0871 13.4204C10.1127 13.3947 10.125 13.3634 10.125 13.3333V6.66663C10.125 6.63648 10.1127 6.6052 10.0871 6.57955C10.0614 6.55391 10.0301 6.54163 10 6.54163C9.96985 6.54163 9.93857 6.55391 9.91293 6.57955C9.88728 6.6052 9.875 6.63648 9.875 6.66663V13.3333C9.875 13.3634 9.88728 13.3947 9.91293 13.4204C9.93857 13.446 9.96985 13.4583 10 13.4583Z" fill="#353535" stroke="#4169E1"/>
<path d="M7.4987 18.9583H12.4987C17.0237 18.9583 18.957 17.025 18.957 12.5V7.49996C18.957 2.97496 17.0237 1.04163 12.4987 1.04163H7.4987C2.9737 1.04163 1.04036 2.97496 1.04036 7.49996V12.5C1.04036 17.025 2.9737 18.9583 7.4987 18.9583ZM12.4987 2.29163C16.3404 2.29163 17.707 3.65829 17.707 7.49996V12.5C17.707 16.3416 16.3404 17.7083 12.4987 17.7083H7.4987C3.65703 17.7083 2.29036 16.3416 2.29036 12.5V7.49996C2.29036 3.65829 3.65703 2.29163 7.4987 2.29163H12.4987Z" fill="#4169E1"/>
</svg>
