<svg width="54" height="55" viewBox="0 0 54 55" fill="none" xmlns="http://www.w3.org/2000/svg">
<path d="M23.8518 29.4779L24.6018 29.4779L24.6018 29.5028L24.6001 29.5276L23.8518 29.4779ZM35.68 26.9248L34.9322 26.9826L35.68 26.9248ZM18.4138 27.0676L17.8614 27.5748L18.4138 27.0676ZM13.9947 0.48219C14.3411 0.255055 14.806 0.351724 15.0332 0.698108L18.7346 6.34276C18.9617 6.68915 18.865 7.15408 18.5186 7.38121C18.1723 7.60835 17.7073 7.51168 17.4802 7.1653L14.1901 2.14782L9.17259 5.43796C8.8262 5.6651 8.36127 5.56843 8.13414 5.22205C7.907 4.87566 8.00367 4.41073 8.35005 4.18359L13.9947 0.48219ZM44.5147 50.9182C40.7411 50.7778 35.1496 49.5509 30.6117 46.2916C26.0309 43.0016 22.5563 37.6561 23.1034 29.4281L24.6001 29.5276C24.0901 37.1971 27.2921 42.0606 31.4867 45.0733C35.7242 48.1168 41.0066 49.2866 44.5705 49.4192L44.5147 50.9182ZM23.1018 29.4779C23.1018 24.41 26.1551 21.5037 29.4345 21.0254C31.0537 20.7892 32.7205 21.1518 34.0334 22.1453C35.3574 23.1471 36.2641 24.747 36.4278 26.8671L34.9322 26.9826C34.7984 25.249 34.0779 24.06 33.1283 23.3414C32.1676 22.6145 30.9145 22.3254 29.651 22.5097C27.1651 22.8723 24.6018 25.0962 24.6018 29.4779L23.1018 29.4779ZM36.4278 26.8671C36.6079 29.2 35.8908 30.925 34.4822 31.9921C33.117 33.0264 31.2378 33.3372 29.2854 33.1848C25.3817 32.88 20.723 30.6914 17.8614 27.5748L18.9663 26.5603C21.5691 29.395 25.8737 31.4139 29.4022 31.6894C31.1658 31.8271 32.6199 31.5212 33.5764 30.7965C34.4894 30.1048 35.0824 28.9285 34.9322 26.9826L36.4278 26.8671ZM17.8614 27.5748C14.5465 23.9646 10.6358 15.5579 13.6717 0.956698L15.1403 1.26205C12.1829 15.4854 16.0386 23.3717 18.9663 26.5603L17.8614 27.5748Z" fill="white"/>
</svg>
