<svg width="20" height="20" viewBox="0 0 20 20" fill="none" xmlns="http://www.w3.org/2000/svg">
<path d="M12.0832 7.70831H1.6665C1.32484 7.70831 1.0415 7.42498 1.0415 7.08331C1.0415 6.74165 1.32484 6.45831 1.6665 6.45831H12.0832C12.4248 6.45831 12.7082 6.74165 12.7082 7.08331C12.7082 7.42498 12.4248 7.70831 12.0832 7.70831Z" fill="#505050"/>
<path d="M6.66667 14.375H5C4.65833 14.375 4.375 14.0917 4.375 13.75C4.375 13.4083 4.65833 13.125 5 13.125H6.66667C7.00833 13.125 7.29167 13.4083 7.29167 13.75C7.29167 14.0917 7.00833 14.375 6.66667 14.375Z" fill="#505050"/>
<path d="M12.0833 14.375H8.75C8.40833 14.375 8.125 14.0917 8.125 13.75C8.125 13.4083 8.40833 13.125 8.75 13.125H12.0833C12.425 13.125 12.7083 13.4083 12.7083 13.75C12.7083 14.0917 12.425 14.375 12.0833 14.375Z" fill="#505050"/>
<path d="M14.6332 17.7084H5.3665C2.04984 17.7084 1.0415 16.7084 1.0415 13.425V6.57502C1.0415 3.29169 2.04984 2.29169 5.3665 2.29169H12.0832C12.4248 2.29169 12.7082 2.57502 12.7082 2.91669C12.7082 3.25835 12.4248 3.54169 12.0832 3.54169H5.3665C2.74984 3.54169 2.2915 3.99169 2.2915 6.57502V13.4167C2.2915 16 2.74984 16.45 5.3665 16.45H14.6248C17.2415 16.45 17.6998 16 17.6998 13.4167V11.6834C17.6998 11.3417 17.9832 11.0584 18.3248 11.0584C18.6665 11.0584 18.9498 11.3417 18.9498 11.6834V13.4167C18.9582 16.7084 17.9498 17.7084 14.6332 17.7084Z" fill="#505050"/>
<path d="M16.6665 8.54169C16.5832 8.54169 16.5082 8.52502 16.4248 8.49169C16.1915 8.39169 16.0415 8.16669 16.0415 7.91669V2.91669C16.0415 2.57502 16.3248 2.29169 16.6665 2.29169C17.0082 2.29169 17.2915 2.57502 17.2915 2.91669V6.40835L17.8915 5.80835C18.1332 5.56669 18.5332 5.56669 18.7748 5.80835C19.0165 6.05002 19.0165 6.45002 18.7748 6.69169L17.1082 8.35835C16.9915 8.47502 16.8332 8.54169 16.6665 8.54169Z" fill="#505050"/>
<path d="M16.6665 8.54166C16.5082 8.54166 16.3499 8.48332 16.2249 8.35832L14.5582 6.69166C14.3165 6.44999 14.3165 6.04999 14.5582 5.80833C14.7999 5.56666 15.1999 5.56666 15.4415 5.80833L17.1082 7.47499C17.3499 7.71666 17.3499 8.11666 17.1082 8.35832C16.9832 8.48332 16.8249 8.54166 16.6665 8.54166Z" fill="#505050"/>
</svg>
