<svg width="20" height="20" viewBox="0 0 20 20" fill="none" xmlns="http://www.w3.org/2000/svg">
<path d="M12.0832 7.70831H1.6665C1.32484 7.70831 1.0415 7.42498 1.0415 7.08331C1.0415 6.74165 1.32484 6.45831 1.6665 6.45831H12.0832C12.4248 6.45831 12.7082 6.74165 12.7082 7.08331C12.7082 7.42498 12.4248 7.70831 12.0832 7.70831Z" fill="#505050"/>
<path d="M6.66667 14.375H5C4.65833 14.375 4.375 14.0917 4.375 13.75C4.375 13.4083 4.65833 13.125 5 13.125H6.66667C7.00833 13.125 7.29167 13.4083 7.29167 13.75C7.29167 14.0917 7.00833 14.375 6.66667 14.375Z" fill="#505050"/>
<path d="M12.0833 14.375H8.75C8.40833 14.375 8.125 14.0917 8.125 13.75C8.125 13.4083 8.40833 13.125 8.75 13.125H12.0833C12.425 13.125 12.7083 13.4083 12.7083 13.75C12.7083 14.0917 12.425 14.375 12.0833 14.375Z" fill="#505050"/>
<path d="M14.6332 17.7084H5.3665C2.04984 17.7084 1.0415 16.7084 1.0415 13.425V6.57502C1.0415 3.29169 2.04984 2.29169 5.3665 2.29169H12.0832C12.4248 2.29169 12.7082 2.57502 12.7082 2.91669C12.7082 3.25835 12.4248 3.54169 12.0832 3.54169H5.3665C2.74984 3.54169 2.2915 3.99169 2.2915 6.57502V13.4167C2.2915 16 2.74984 16.45 5.3665 16.45H14.6248C17.2415 16.45 17.6998 16 17.6998 13.4167V11.6834C17.6998 11.3417 17.9832 11.0584 18.3248 11.0584C18.6665 11.0584 18.9498 11.3417 18.9498 11.6834V13.4167C18.9582 16.7084 17.9498 17.7084 14.6332 17.7084Z" fill="#505050"/>
<path d="M16.6665 8.54164C16.3248 8.54164 16.0415 8.2583 16.0415 7.91664V2.91664C16.0415 2.66664 16.1915 2.4333 16.4248 2.34164C16.6582 2.24997 16.9248 2.29997 17.1082 2.47497L18.7748 4.14164C19.0165 4.3833 19.0165 4.7833 18.7748 5.02497C18.5332 5.26664 18.1332 5.26664 17.8915 5.02497L17.2915 4.42497V7.91664C17.2915 8.2583 17.0082 8.54164 16.6665 8.54164Z" fill="#505050"/>
<path d="M14.9999 5.20835C14.8415 5.20835 14.6832 5.15001 14.5582 5.02501C14.3165 4.78335 14.3165 4.38335 14.5582 4.14168L16.2249 2.47501C16.4665 2.23335 16.8665 2.23335 17.1082 2.47501C17.3499 2.71668 17.3499 3.11668 17.1082 3.35835L15.4415 5.02501C15.3165 5.15001 15.1582 5.20835 14.9999 5.20835Z" fill="#505050"/>
</svg>
