<svg width="24" height="25" viewBox="0 0 24 25" fill="none" xmlns="http://www.w3.org/2000/svg">
<path d="M5.53999 20.02C4.92999 20.02 4.35999 19.81 3.94999 19.42C3.42999 18.93 3.17999 18.19 3.26999 17.39L3.63999 14.15C3.70999 13.54 4.07999 12.73 4.50999 12.29L12.72 3.59999C14.77 1.42999 16.91 1.36999 19.08 3.41999C21.25 5.46999 21.31 7.60999 19.26 9.77999L11.05 18.47C10.63 18.92 9.84999 19.34 9.23999 19.44L6.01999 19.99C5.84999 20 5.69999 20.02 5.53999 20.02ZM15.93 3.40999C15.16 3.40999 14.49 3.88999 13.81 4.60999L5.59999 13.31C5.39999 13.52 5.16999 14.02 5.12999 14.31L4.75999 17.55C4.71999 17.88 4.79999 18.15 4.97999 18.32C5.15999 18.49 5.42999 18.55 5.75999 18.5L8.97999 17.95C9.26999 17.9 9.74999 17.64 9.94999 17.43L18.16 8.73999C19.4 7.41999 19.85 6.19999 18.04 4.49999C17.24 3.72999 16.55 3.40999 15.93 3.40999Z" fill="#505050"/>
<path d="M17.3404 11.45C17.3204 11.45 17.2904 11.45 17.2704 11.45C14.1504 11.14 11.6404 8.76997 11.1604 5.66997C11.1004 5.25997 11.3804 4.87997 11.7904 4.80997C12.2004 4.74997 12.5804 5.02997 12.6504 5.43997C13.0304 7.85997 14.9904 9.71997 17.4304 9.95997C17.8404 9.99997 18.1404 10.37 18.1004 10.78C18.0504 11.16 17.7204 11.45 17.3404 11.45Z" fill="#505050"/>
<path d="M21 23.25H3C2.59 23.25 2.25 22.91 2.25 22.5C2.25 22.09 2.59 21.75 3 21.75H21C21.41 21.75 21.75 22.09 21.75 22.5C21.75 22.91 21.41 23.25 21 23.25Z" fill="#505050"/>
</svg>
