<svg width="44" height="44" viewBox="0 0 44 44" fill="none" xmlns="http://www.w3.org/2000/svg">
<rect x="2" y="2" width="40" height="40" rx="20" fill="#EBEFFB"/>
<path d="M1.22477 16.4647C2.1277 13.0758 3.84595 9.95922 6.22969 7.38674C8.61344 4.81425 11.5903 2.86396 14.9007 1.70591C18.2111 0.547861 21.7546 0.217216 25.2221 0.742808C28.6896 1.2684 31.9759 2.63427 34.7944 4.72132" stroke="#4169E1" stroke-linecap="round" stroke-linejoin="round"/>
<path d="M40.0611 10.3361C40.8039 11.4863 41.4351 12.7048 41.9461 13.9749" stroke="#4169E1" stroke-linecap="round" stroke-linejoin="round"/>
<path d="M9.86481 39.7479C5.34496 36.6574 2.17451 31.9589 1.00025 26.6109" stroke="#4169E1" stroke-linecap="round" stroke-linejoin="round"/>
<path d="M43.2441 18.6926C43.8075 22.3118 43.437 26.015 42.1677 29.4508C40.8983 32.8866 38.7723 35.9412 35.9911 38.3248C33.21 40.7084 29.866 42.3419 26.2763 43.0704C22.6867 43.799 18.9705 43.5983 15.4801 42.4876" stroke="#4169E1" stroke-linecap="round" stroke-linejoin="round"/>
<circle cx="10" cy="40" r="1" fill="#4169E1"/>
<circle cx="40" cy="10" r="1" fill="#4169E1"/>
<circle cx="35" cy="5" r="1" fill="#4169E1"/>
<circle cx="15" cy="42" r="1" fill="#4169E1"/>
<circle cx="43" cy="18" r="1" fill="#4169E1"/>
<circle cx="42" cy="14" r="1" fill="#4169E1"/>
<circle cx="1" cy="17" r="1" fill="#4169E1"/>
<circle cx="1" cy="26" r="1" fill="#4169E1"/>
<path d="M31.2168 23.75H12.7835C11.0335 23.75 10.3335 24.4967 10.3335 26.3517V31.065C10.3335 32.92 11.0335 33.6667 12.7835 33.6667H31.2168C32.9668 33.6667 33.6668 32.92 33.6668 31.065V26.3517C33.6668 24.4967 32.9668 23.75 31.2168 23.75Z" fill="#4169E1"/>
<path d="M23.0502 10.3333H12.7835C11.0335 10.3333 10.3335 11.08 10.3335 12.935V17.6483C10.3335 19.5033 11.0335 20.25 12.7835 20.25H23.0502C24.8002 20.25 25.5002 19.5033 25.5002 17.6483V12.935C25.5002 11.08 24.8002 10.3333 23.0502 10.3333Z" fill="#4169E1"/>
</svg>
