<svg width="44" height="44" viewBox="0 0 44 44" fill="none" xmlns="http://www.w3.org/2000/svg">
<rect x="2" y="2" width="40" height="40" rx="20" fill="#EBEFFB"/>
<path d="M1.22477 16.4647C2.1277 13.0758 3.84595 9.95922 6.22969 7.38674C8.61344 4.81425 11.5903 2.86396 14.9007 1.70591C18.2111 0.547861 21.7546 0.217216 25.2221 0.742808C28.6896 1.2684 31.9759 2.63427 34.7944 4.72132" stroke="#4169E1" stroke-linecap="round" stroke-linejoin="round"/>
<path d="M40.0611 10.3361C40.8039 11.4863 41.4351 12.7048 41.9461 13.9749" stroke="#4169E1" stroke-linecap="round" stroke-linejoin="round"/>
<path d="M9.86481 39.7479C5.34496 36.6574 2.17451 31.9589 1.00025 26.6109" stroke="#4169E1" stroke-linecap="round" stroke-linejoin="round"/>
<path d="M43.2441 18.6926C43.8075 22.3118 43.437 26.015 42.1677 29.4508C40.8983 32.8866 38.7723 35.9412 35.9911 38.3248C33.21 40.7084 29.866 42.3419 26.2763 43.0704C22.6867 43.799 18.9705 43.5983 15.4801 42.4876" stroke="#4169E1" stroke-linecap="round" stroke-linejoin="round"/>
<circle cx="10" cy="40" r="1" fill="#4169E1"/>
<circle cx="40" cy="10" r="1" fill="#4169E1"/>
<circle cx="35" cy="5" r="1" fill="#4169E1"/>
<circle cx="15" cy="42" r="1" fill="#4169E1"/>
<circle cx="43" cy="18" r="1" fill="#4169E1"/>
<circle cx="42" cy="14" r="1" fill="#4169E1"/>
<circle cx="1" cy="17" r="1" fill="#4169E1"/>
<circle cx="1" cy="26" r="1" fill="#4169E1"/>
<path d="M26.8885 10.3333H17.1118C12.8652 10.3333 10.3335 12.865 10.3335 17.1116V26.8766C10.3335 31.135 12.8652 33.6666 17.1118 33.6666H26.8768C31.1235 33.6666 33.6552 31.135 33.6552 26.8883V17.1116C33.6668 12.865 31.1352 10.3333 26.8885 10.3333ZM26.3752 26.375H17.6252C17.1468 26.375 16.7502 25.9783 16.7502 25.5C16.7502 25.0216 17.1468 24.625 17.6252 24.625H26.3752C26.8535 24.625 27.2502 25.0216 27.2502 25.5C27.2502 25.9783 26.8535 26.375 26.3752 26.375ZM26.3752 19.375H17.6252C17.1468 19.375 16.7502 18.9783 16.7502 18.5C16.7502 18.0216 17.1468 17.625 17.6252 17.625H26.3752C26.8535 17.625 27.2502 18.0216 27.2502 18.5C27.2502 18.9783 26.8535 19.375 26.3752 19.375Z" fill="#4169E1"/>
</svg>
