<svg width="44" height="44" viewBox="0 0 44 44" fill="none" xmlns="http://www.w3.org/2000/svg">
<rect x="2" y="2" width="40" height="40" rx="20" fill="#EBEFFB"/>
<path d="M1.22477 16.4647C2.1277 13.0758 3.84595 9.95922 6.22969 7.38674C8.61344 4.81425 11.5903 2.86396 14.9007 1.70591C18.2111 0.547861 21.7546 0.217216 25.2221 0.742808C28.6896 1.2684 31.9759 2.63427 34.7944 4.72132" stroke="#4169E1" stroke-linecap="round" stroke-linejoin="round"/>
<path d="M40.0611 10.3361C40.8039 11.4863 41.4351 12.7048 41.9461 13.9749" stroke="#4169E1" stroke-linecap="round" stroke-linejoin="round"/>
<path d="M9.86481 39.7479C5.34496 36.6574 2.17451 31.9589 1.00025 26.6109" stroke="#4169E1" stroke-linecap="round" stroke-linejoin="round"/>
<path d="M43.2441 18.6926C43.8075 22.3118 43.437 26.015 42.1677 29.4508C40.8983 32.8866 38.7723 35.9412 35.9911 38.3248C33.21 40.7084 29.866 42.3419 26.2763 43.0704C22.6867 43.799 18.9705 43.5983 15.4801 42.4876" stroke="#4169E1" stroke-linecap="round" stroke-linejoin="round"/>
<circle cx="10" cy="40" r="1" fill="#4169E1"/>
<circle cx="40" cy="10" r="1" fill="#4169E1"/>
<circle cx="35" cy="5" r="1" fill="#4169E1"/>
<circle cx="15" cy="42" r="1" fill="#4169E1"/>
<circle cx="43" cy="18" r="1" fill="#4169E1"/>
<circle cx="42" cy="14" r="1" fill="#4169E1"/>
<circle cx="1" cy="17" r="1" fill="#4169E1"/>
<circle cx="1" cy="26" r="1" fill="#4169E1"/>
<path d="M33.5735 27.5417C33.1885 30.645 30.6452 33.1883 27.5418 33.5733C25.6635 33.8067 23.9135 33.2933 22.5485 32.29C21.7668 31.7183 21.9535 30.505 22.8868 30.225C26.3985 29.1633 29.1635 26.3867 30.2368 22.875C30.5168 21.9533 31.7302 21.7667 32.3018 22.5367C33.2935 23.9133 33.8068 25.6633 33.5735 27.5417Z" fill="#4169E1"/>
<path d="M19.6552 10.3333C14.5102 10.3333 10.3335 14.51 10.3335 19.655C10.3335 24.8 14.5102 28.9766 19.6552 28.9766C24.8002 28.9766 28.9768 24.8 28.9768 19.655C28.9652 14.51 24.8002 10.3333 19.6552 10.3333ZM18.5585 18.3483L21.3702 19.3283C22.3852 19.69 22.8752 20.4016 22.8752 21.4983C22.8752 22.7583 21.8718 23.7966 20.6468 23.7966H20.5418V23.855C20.5418 24.3333 20.1452 24.73 19.6668 24.73C19.1885 24.73 18.7918 24.3333 18.7918 23.855V23.785C17.4968 23.7266 16.4585 22.6416 16.4585 21.2883C16.4585 20.81 16.8552 20.4133 17.3335 20.4133C17.8118 20.4133 18.2085 20.81 18.2085 21.2883C18.2085 21.7083 18.5118 22.0466 18.8852 22.0466H20.6352C20.9035 22.0466 21.1135 21.8016 21.1135 21.4983C21.1135 21.09 21.0435 21.0666 20.7752 20.9733L17.9635 19.9933C16.9602 19.6433 16.4585 18.9316 16.4585 17.8233C16.4585 16.5633 17.4618 15.525 18.6868 15.525H18.7918V15.4783C18.7918 15 19.1885 14.6033 19.6668 14.6033C20.1452 14.6033 20.5418 15 20.5418 15.4783V15.5483C21.8368 15.6066 22.8752 16.6916 22.8752 18.045C22.8752 18.5233 22.4785 18.92 22.0002 18.92C21.5218 18.92 21.1252 18.5233 21.1252 18.045C21.1252 17.625 20.8218 17.2866 20.4485 17.2866H18.6985C18.4302 17.2866 18.2202 17.5316 18.2202 17.835C18.2085 18.2316 18.2785 18.255 18.5585 18.3483Z" fill="#4169E1"/>
</svg>
