<svg width="16" height="16" viewBox="0 0 16 16" fill="none" xmlns="http://www.w3.org/2000/svg">
<path d="M8 9.16669C7.72667 9.16669 7.5 8.94002 7.5 8.66669V5.16669C7.5 4.89335 7.72667 4.66669 8 4.66669C8.27333 4.66669 8.5 4.89335 8.5 5.16669V8.66669C8.5 8.94002 8.27333 9.16669 8 9.16669Z" fill="#909090"/>
<path d="M8.00016 11.5C7.82016 11.5 7.65348 11.4333 7.52681 11.3067C7.46681 11.24 7.42017 11.1667 7.38017 11.0867C7.34683 11.0067 7.3335 10.92 7.3335 10.8333C7.3335 10.66 7.40681 10.4867 7.52681 10.36C7.77348 10.1133 8.22684 10.1133 8.47351 10.36C8.59351 10.4867 8.66683 10.66 8.66683 10.8333C8.66683 10.92 8.64682 11.0067 8.61348 11.0867C8.58015 11.1667 8.53351 11.24 8.47351 11.3067C8.34684 11.4333 8.18016 11.5 8.00016 11.5Z" fill="#909090"/>
<path d="M7.99996 15.1667C7.55329 15.1667 7.09995 15.0533 6.69995 14.82L2.73995 12.5333C1.93995 12.0667 1.43994 11.2067 1.43994 10.28V5.72002C1.43994 4.79335 1.93995 3.93335 2.73995 3.46668L6.69995 1.18002C7.49995 0.71335 8.4933 0.71335 9.29997 1.18002L13.26 3.46668C14.06 3.93335 14.56 4.79335 14.56 5.72002V10.28C14.56 11.2067 14.06 12.0667 13.26 12.5333L9.29997 14.82C8.89997 15.0533 8.44663 15.1667 7.99996 15.1667ZM7.99996 1.83334C7.72663 1.83334 7.44662 1.90668 7.19995 2.04668L3.23995 4.33334C2.74662 4.62 2.43994 5.14668 2.43994 5.72002V10.28C2.43994 10.8467 2.74662 11.38 3.23995 11.6667L7.19995 13.9533C7.69328 14.24 8.30663 14.24 8.79329 13.9533L12.7533 11.6667C13.2466 11.38 13.5533 10.8533 13.5533 10.28V5.72002C13.5533 5.15335 13.2466 4.62 12.7533 4.33334L8.79329 2.04668C8.55329 1.90668 8.27329 1.83334 7.99996 1.83334Z" fill="#909090"/>
</svg>
