<svg width="16" height="16" viewBox="0 0 16 16" fill="none" xmlns="http://www.w3.org/2000/svg">
<path d="M8.00016 15.1666C4.04683 15.1666 0.833496 11.9533 0.833496 7.99998C0.833496 4.04665 4.04683 0.833313 8.00016 0.833313C11.9535 0.833313 15.1668 4.04665 15.1668 7.99998C15.1668 11.9533 11.9535 15.1666 8.00016 15.1666ZM8.00016 1.83331C4.60016 1.83331 1.8335 4.59998 1.8335 7.99998C1.8335 11.4 4.60016 14.1666 8.00016 14.1666C11.4002 14.1666 14.1668 11.4 14.1668 7.99998C14.1668 4.59998 11.4002 1.83331 8.00016 1.83331Z" fill="#00966D"/>
<path d="M7.05346 10.3867C6.92012 10.3867 6.79346 10.3333 6.70012 10.24L4.81346 8.35334C4.62012 8.16 4.62012 7.84 4.81346 7.64667C5.00679 7.45334 5.32679 7.45334 5.52012 7.64667L7.05346 9.18L10.4801 5.75334C10.6735 5.56 10.9935 5.56 11.1868 5.75334C11.3801 5.94667 11.3801 6.26667 11.1868 6.46L7.40679 10.24C7.31346 10.3333 7.18679 10.3867 7.05346 10.3867Z" fill="#00966D"/>
</svg>
