<svg width="25" height="24" viewBox="0 0 25 24" fill="none" xmlns="http://www.w3.org/2000/svg">
<path d="M22.25 22H2.25C1.84 22 1.5 21.66 1.5 21.25C1.5 20.84 1.84 20.5 2.25 20.5H22.25C22.66 20.5 23 20.84 23 21.25C23 21.66 22.66 22 22.25 22Z" fill="#4169E1"/>
<path d="M10 4V22H14.5V4C14.5 2.9 14.05 2 12.7 2H11.8C10.45 2 10 2.9 10 4Z" fill="#4169E1"/>
<path d="M3.25 10V22H7.25V10C7.25 8.9 6.85 8 5.65 8H4.85C3.65 8 3.25 8.9 3.25 10Z" fill="#4169E1"/>
<path d="M17.25 15V22H21.25V15C21.25 13.9 20.85 13 19.65 13H18.85C17.65 13 17.25 13.9 17.25 15Z" fill="#4169E1"/>
</svg>
