<svg width="23" height="22" viewBox="0 0 23 22" fill="none" xmlns="http://www.w3.org/2000/svg">
<path d="M11.5009 17.7499C11.0909 17.7499 10.7509 17.4099 10.7509 16.9999V13.9999C10.7509 13.5899 11.0909 13.2499 11.5009 13.2499C11.9109 13.2499 12.2509 13.5899 12.2509 13.9999V16.9999C12.2509 17.4099 11.9109 17.7499 11.5009 17.7499Z" fill="#ADADAD"/>
<path d="M17.1009 21.5599H5.90094C4.08094 21.5599 2.42094 20.1599 2.12094 18.3699L0.790937 10.3999C0.570937 9.15994 1.18094 7.56994 2.17094 6.77994L9.10094 1.22994C10.4409 0.149944 12.5509 0.159944 13.9009 1.23994L20.8309 6.77994C21.8109 7.56994 22.4109 9.15994 22.2109 10.3999L20.8809 18.3599C20.5809 20.1299 18.8809 21.5599 17.1009 21.5599ZM11.4909 1.92994C10.9609 1.92994 10.4309 2.08994 10.0409 2.39994L3.11094 7.95994C2.55094 8.40994 2.15094 9.44994 2.27094 10.1599L3.60094 18.1199C3.78094 19.1699 4.83094 20.0599 5.90094 20.0599H17.1009C18.1709 20.0599 19.2209 19.1699 19.4009 18.1099L20.7309 10.1499C20.8409 9.44994 20.4409 8.38994 19.8909 7.94994L12.9609 2.40994C12.5609 2.08994 12.0209 1.92994 11.4909 1.92994Z" fill="#ADADAD"/>
</svg>
