<svg width="25" height="24" viewBox="0 0 25 24" fill="none" xmlns="http://www.w3.org/2000/svg">
<path d="M12.75 10.5199C12.34 10.5199 12 10.1799 12 9.76994V6.43994C12 6.02994 12.34 5.68994 12.75 5.68994C13.16 5.68994 13.5 6.02994 13.5 6.43994V9.76994C13.5 10.1899 13.16 10.5199 12.75 10.5199Z" fill="#ADADAD"/>
<path d="M12.7708 20.35C10.1908 20.35 7.62084 19.94 5.17084 19.12C4.26084 18.82 3.57084 18.17 3.27084 17.35C2.97084 16.53 3.07084 15.59 3.56084 14.77L4.83084 12.65C5.11084 12.18 5.36084 11.3 5.36084 10.75V8.64999C5.36084 4.55999 8.68084 1.23999 12.7708 1.23999C16.8608 1.23999 20.1808 4.55999 20.1808 8.64999V10.75C20.1808 11.29 20.4308 12.18 20.7108 12.65L21.9808 14.77C22.4508 15.55 22.5308 16.48 22.2208 17.33C21.9108 18.18 21.2308 18.83 20.3708 19.12C17.9208 19.95 15.3508 20.35 12.7708 20.35ZM12.7708 2.74999C9.51084 2.74999 6.86084 5.39999 6.86084 8.65999V10.76C6.86084 11.57 6.54084 12.74 6.12084 13.43L4.85084 15.56C4.59084 15.99 4.53084 16.45 4.68084 16.85C4.83084 17.25 5.17084 17.55 5.65084 17.71C10.2508 19.24 15.3108 19.24 19.9108 17.71C20.3408 17.57 20.6708 17.25 20.8208 16.83C20.9808 16.41 20.9308 15.95 20.7008 15.56L19.4308 13.44C19.0108 12.75 18.6908 11.58 18.6908 10.77V8.66999C18.6808 5.39999 16.0308 2.74999 12.7708 2.74999Z" fill="#ADADAD"/>
<path d="M12.7519 22.8999C11.6819 22.8999 10.6319 22.4599 9.87187 21.6999C9.11187 20.9399 8.67188 19.8899 8.67188 18.8199H10.1719C10.1719 19.4999 10.4519 20.1599 10.9319 20.6399C11.4119 21.1199 12.0719 21.3999 12.7519 21.3999C14.1719 21.3999 15.3319 20.2399 15.3319 18.8199H16.8319C16.8319 21.0699 15.0019 22.8999 12.7519 22.8999Z" fill="#ADADAD"/>
</svg>
