<svg width="25" height="24" viewBox="0 0 25 24" fill="none" xmlns="http://www.w3.org/2000/svg">
<path d="M20.9412 14.06L19.8112 12.18C19.5612 11.77 19.3412 10.98 19.3412 10.5V8.63005C19.3412 5.00005 16.3912 2.05005 12.7712 2.05005C9.14118 2.06005 6.19118 5.00005 6.19118 8.63005V10.49C6.19118 10.97 5.97118 11.76 5.73118 12.17L4.60118 14.05C4.17118 14.78 4.07118 15.61 4.34118 16.33C4.61118 17.06 5.22118 17.64 6.02118 17.9C7.10118 18.26 8.19118 18.52 9.30118 18.71C9.41118 18.73 9.52118 18.74 9.63118 18.76C9.77118 18.7801 9.92118 18.8 10.0712 18.82C10.3312 18.8601 10.5912 18.89 10.8612 18.91C11.4912 18.97 12.1312 19 12.7712 19C13.4012 19 14.0312 18.97 14.6512 18.91C14.8812 18.89 15.1112 18.8701 15.3312 18.84C15.5112 18.82 15.6912 18.8001 15.8712 18.7701C15.9812 18.76 16.0912 18.74 16.2012 18.72C17.3212 18.54 18.4312 18.26 19.5112 17.9C20.2812 17.64 20.8712 17.06 21.1512 16.32C21.4312 15.57 21.3512 14.75 20.9412 14.06ZM13.5012 10C13.5012 10.42 13.1612 10.76 12.7412 10.76C12.3212 10.76 11.9812 10.42 11.9812 10V6.90005C11.9812 6.48005 12.3212 6.14005 12.7412 6.14005C13.1612 6.14005 13.5012 6.48005 13.5012 6.90005V10Z" fill="#4169E1"/>
<path d="M15.5797 20.01C15.1597 21.17 14.0497 22 12.7497 22C11.9597 22 11.1797 21.68 10.6297 21.11C10.3097 20.81 10.0697 20.41 9.92969 20C10.0597 20.02 10.1897 20.03 10.3297 20.05C10.5597 20.08 10.7997 20.11 11.0397 20.13C11.6097 20.18 12.1897 20.21 12.7697 20.21C13.3397 20.21 13.9097 20.18 14.4697 20.13C14.6797 20.11 14.8897 20.1 15.0897 20.07C15.2497 20.05 15.4097 20.03 15.5797 20.01Z" fill="#4169E1"/>
</svg>
