<svg width="25" height="24" viewBox="0 0 25 24" fill="none" xmlns="http://www.w3.org/2000/svg">
<path d="M22.25 22.75H2.25C1.84 22.75 1.5 22.41 1.5 22C1.5 21.59 1.84 21.25 2.25 21.25H22.25C22.66 21.25 23 21.59 23 22C23 22.41 22.66 22.75 22.25 22.75Z" fill="#ADADAD"/>
<path d="M14.5 22.75H10C9.59 22.75 9.25 22.41 9.25 22V4C9.25 2.28 10.2 1.25 11.8 1.25H12.7C14.3 1.25 15.25 2.28 15.25 4V22C15.25 22.41 14.91 22.75 14.5 22.75ZM10.75 21.25H13.75V4C13.75 2.85 13.21 2.75 12.7 2.75H11.8C11.29 2.75 10.75 2.85 10.75 4V21.25Z" fill="#ADADAD"/>
<path d="M7.25 22.75H3.25C2.84 22.75 2.5 22.41 2.5 22V10C2.5 8.28 3.38 7.25 4.85 7.25H5.65C7.12 7.25 8 8.28 8 10V22C8 22.41 7.66 22.75 7.25 22.75ZM4 21.25H6.5V10C6.5 8.75 5.95 8.75 5.65 8.75H4.85C4.55 8.75 4 8.75 4 10V21.25Z" fill="#ADADAD"/>
<path d="M21.25 22.75H17.25C16.84 22.75 16.5 22.41 16.5 22V15C16.5 13.28 17.38 12.25 18.85 12.25H19.65C21.12 12.25 22 13.28 22 15V22C22 22.41 21.66 22.75 21.25 22.75ZM18 21.25H20.5V15C20.5 13.75 19.95 13.75 19.65 13.75H18.85C18.55 13.75 18 13.75 18 15V21.25Z" fill="#ADADAD"/>
</svg>
