<svg width="20" height="21" viewBox="0 0 20 21" fill="none" xmlns="http://www.w3.org/2000/svg">
<path d="M10.0013 2.16663C5.40964 2.16663 1.66797 5.90829 1.66797 10.5C1.66797 15.0916 5.40964 18.8333 10.0013 18.8333C14.593 18.8333 18.3346 15.0916 18.3346 10.5C18.3346 5.90829 14.593 2.16663 10.0013 2.16663ZM13.9846 8.58329L9.25964 13.3083C9.14297 13.425 8.98464 13.4916 8.81797 13.4916C8.6513 13.4916 8.49297 13.425 8.3763 13.3083L6.01797 10.95C5.7763 10.7083 5.7763 10.3083 6.01797 10.0666C6.25964 9.82496 6.65964 9.82496 6.9013 10.0666L8.81797 11.9833L13.1013 7.69996C13.343 7.45829 13.743 7.45829 13.9846 7.69996C14.2263 7.94163 14.2263 8.33329 13.9846 8.58329Z" fill="#4169E1"/>
</svg>
